<svg xmlns="http://www.w3.org/2000/svg" width="773.4759" height="828.0002" viewBox="0 0 773.4759 828.0002"><defs><style>.cls-1{fill:#4169e1;}</style></defs><g id="Layer_2" data-name="Layer 2"><g id="Layer_1-2" data-name="Layer 1"><path class="cls-1" d="M386.5527,168.1877C250.7942,168.1877,140.74,278.2417,140.74,414s110.054,245.8125,245.8125,245.8125S632.3652,549.7587,632.3652,414,522.3112,168.1877,386.5527,168.1877Zm0,465.75c-121.4681,0-219.9375-98.4694-219.9375-219.9375s98.4694-219.9375,219.9375-219.9375S606.49,292.532,606.49,414,508.0208,633.9377,386.5527,633.9377Z"/><path class="cls-1" d="M704.4918,479.7874a322.0133,322.0133,0,0,0,0-131.5744l65.205-71.1563a12.9373,12.9373,0,0,0,2.5228-13.455A411.0881,411.0881,0,0,0,709.6021,155.25a12.9375,12.9375,0,0,0-12.9375-4.5282L602.48,171.5514A327.383,327.383,0,0,0,488.5,105.6349l-29.1093-92.05a12.9376,12.9376,0,0,0-10.35-8.9269,421.5,421.5,0,0,0-124.9763,0,12.9376,12.9376,0,0,0-10.35,8.9269l-29.1093,92.05a327.3821,327.3821,0,0,0-113.9794,65.9165l-94.25-20.8294A12.9375,12.9375,0,0,0,63.4387,155.25,411.086,411.086,0,0,0,.8859,263.4724a12.9371,12.9371,0,0,0,2.5228,13.4549l65.205,71.1563a322.0128,322.0128,0,0,0,0,131.5743L3.4087,550.8142a12.9374,12.9374,0,0,0-2.5228,13.39A412.5121,412.5121,0,0,0,63.5034,672.75a12.9376,12.9376,0,0,0,12.9375,4.5281l94.25-20.8294A327.3841,327.3841,0,0,0,284.67,722.3655l29.1094,92.05a12.9376,12.9376,0,0,0,10.35,8.8622,415.8129,415.8129,0,0,0,124.9762,0,12.9376,12.9376,0,0,0,10.35-8.8622l29.1094-92.05a327.3832,327.3832,0,0,0,113.9794-65.9166l94.5084,20.8294A12.9376,12.9376,0,0,0,709.99,672.75a412.5127,412.5127,0,0,0,62.6175-108.2869,12.9374,12.9374,0,0,0-2.5228-13.39ZM694.4006,650.2389,601.5093,629.733a12.9374,12.9374,0,0,0-11.5791,3.105A299.3091,299.3091,0,0,1,474.3984,699.66a12.9377,12.9377,0,0,0-8.5388,8.474L437.203,798.6967a396.2677,396.2677,0,0,1-101.3006,0l-28.6565-90.5625a12.9379,12.9379,0,0,0-8.5388-8.474A299.31,299.31,0,0,1,183.1752,632.838a12.9373,12.9373,0,0,0-11.579-3.105L78.7049,650.2389A387.6747,387.6747,0,0,1,27.99,562.7814l64.2347-70.4447a12.9375,12.9375,0,0,0,3.04-11.6437,297.8864,297.8864,0,0,1,0-133.45,12.9377,12.9377,0,0,0-3.04-11.5791L27.99,265.2189a386.2479,386.2479,0,0,1,50.715-87.7162l92.8913,20.5059a12.9374,12.9374,0,0,0,11.579-3.17,300.9908,300.9908,0,0,1,115.5319-66.5634,12.9375,12.9375,0,0,0,8.5387-8.4741l28.6566-90.5625a390.4518,390.4518,0,0,1,101.3006,0L465.86,119.8014a12.9374,12.9374,0,0,0,8.5388,8.4741A300.9906,300.9906,0,0,1,589.93,195.0977a12.9378,12.9378,0,0,0,11.5791,3.17l92.8913-20.506a386.2477,386.2477,0,0,1,50.7149,87.4575l-64.2347,70.4447a12.938,12.938,0,0,0-3.04,11.5791,297.8864,297.8864,0,0,1,0,133.45,12.9375,12.9375,0,0,0,3.04,11.6437l64.2347,70.4447a387.6747,387.6747,0,0,1-50.715,87.4575Z"/><path class="cls-1" d="M535.334,402.7445,308.9277,272.7874a12.9375,12.9375,0,0,0-19.4062,11.1909v259.979a12.9688,12.9688,0,0,0,12.9375,12.9375,13.584,13.584,0,0,0,6.4687-1.6818L535.334,425.1911a12.9375,12.9375,0,0,0,0-22.4466ZM315.3965,521.64V306.36L502.99,414Z"/></g></g></svg>