<?xml version="1.0" encoding="utf-8"?>
<svg viewBox="66.655 63.437 175.748 41.864" xmlns="http://www.w3.org/2000/svg">
  <path d="M 107.931 102.697 L 98.184 102.697 L 95.202 95.506 L 78.957 95.506 L 76.241 102.697 L 66.655 102.697 L 81.301 66.373 L 91.793 66.373 L 107.931 102.697 Z M 86.68 75.055 L 81.354 89.168 L 92.538 89.168 L 86.68 75.055 Z M 143.336 66.373 L 151.219 66.373 L 151.219 102.697 L 142.164 102.697 L 142.164 80.008 L 132.365 91.406 L 130.98 91.406 L 121.18 80.008 L 121.18 102.697 L 112.126 102.697 L 112.126 66.373 L 120.007 66.373 L 131.672 79.848 L 143.336 66.373 L 143.336 66.373 Z M 174.163 66.373 C 187.423 66.373 194.241 74.629 194.241 84.588 C 194.241 95.027 187.637 102.697 173.15 102.697 L 158.13 102.697 L 158.13 66.373 L 174.163 66.373 Z M 167.186 96.041 L 173.096 96.041 C 182.203 96.041 184.92 89.861 184.92 84.534 C 184.92 78.303 181.566 73.031 172.99 73.031 L 167.185 73.031 L 167.185 96.041 L 167.186 96.041 Z" fill-rule="evenodd" clip-rule="evenodd"/>
  <path fill-rule="evenodd" clip-rule="evenodd" fill="#2b9969" d="M 230.83 74.854 L 212.215 74.854 L 200.903 63.488 L 242.403 63.437 L 242.403 104.988 L 230.83 93.361 L 230.83 74.854 L 230.83 74.854 Z M 212.215 93.726 L 212.267 76.939 L 200.487 88.722 L 200.487 105.301 L 217.535 105.301 L 229.108 93.726 L 212.215 93.726 Z"/>
</svg>