<?xml version="1.0" encoding="utf-8"?>
<svg viewBox="101.2115 88.4425 647.6 251.6" xmlns="http://www.w3.org/2000/svg">
  <defs>
    <style type="text/css">
	.st0{fill:#0B68B2;}
	.st1{fill:#010202;}
</style>
  </defs>
  <g transform="matrix(1, 0, 0, 1, 24.511543273925774, -85.2575454711914)">
    <path class="st1" d="M121.2,422V252.8H76.7V422H121.2z M416.7,423.6v-41.5c-6.5,0-12-0.3-16-1c-4.7-0.7-8.2-2.3-10.5-4.7 c-2.3-2.3-3.8-5.7-4.7-10c-0.7-4.2-1-9.7-1-16.4v-59.2h32.3v-38.1h-32.3v-66h-44.6v163.7c0,13.9,1.2,25.6,3.5,34.9 c2.3,9.2,6.4,16.7,11.9,22.4c5.5,5.7,12.9,9.7,21.7,12.2c9,2.5,20.4,3.7,33.9,3.7L416.7,423.6L416.7,423.6z M672.2,422V173.7h-44.6 V422H672.2z M296.8,269.3c-12.4-13.4-29.8-20.1-51.8-20.1c-10.7,0-20.4,2.2-29.3,6.5c-8.7,4.3-16.2,10.4-22.1,18.1l-2.5,3.2v-2.8 v-21.4h-44V422h44.3v-90.1v6.2c0-1,0-2,0-3c0.5-15.9,4.3-27.6,11.7-35.1c7.9-8,17.4-12,28.3-12c12.9,0,22.7,4,29.3,11.7 c6.4,7.7,9.7,18.6,9.7,32.4l0,0v0.3l0,0l0,0v89.4h45v-96C315.6,301.8,309.2,282.7,296.8,269.3z M604.4,337 c0-12.2-2.2-23.6-6.4-34.3c-4.3-10.5-10.4-19.9-17.9-27.9c-7.7-8-16.9-14.2-27.6-18.7c-10.7-4.5-22.6-6.7-35.4-6.7 c-12.2,0-23.7,2.3-34.4,6.9c-10.7,4.7-20.1,10.9-27.9,18.7c-7.9,7.9-14.2,17.2-18.7,27.9c-4.7,10.7-6.9,22.2-6.9,34.4 s2.2,23.7,6.5,34.4s10.5,20.1,18.2,27.9c7.7,7.9,17.2,14.2,28.3,18.7c11,4.7,23.2,7,36.3,7c37.8,0,61.2-17.2,75.2-33.3l-32.1-24.4 c-6.7,8-22.7,18.9-42.8,18.9c-12.5,0-22.9-2.8-30.8-8.7c-7.9-5.7-13.2-13.7-16-23.6l-0.5-1.5h132.9L604.4,337L604.4,337z M471.9,321.5c0-12.4,14.2-33.9,44.8-34.1c30.6,0,45,21.6,45,33.9L471.9,321.5z"/>
    <path class="st1" d="M723,399.9c-0.8-2-2-3.7-3.5-5.2c-1.5-1.5-3.2-2.7-5.2-3.5c-2-0.8-4.2-1.3-6.4-1.3c-2.3,0-4.3,0.5-6.4,1.3 c-2,0.8-3.7,2-5.2,3.5c-1.5,1.5-2.7,3.2-3.5,5.2c-0.8,2-1.3,4.2-1.3,6.4c0,2.3,0.5,4.3,1.3,6.4s2,3.7,3.5,5.2 c1.5,1.5,3.2,2.7,5.2,3.5c2,0.8,4.2,1.3,6.4,1.3c2.3,0,4.3-0.5,6.4-1.3c2-0.8,3.7-2,5.2-3.5c1.5-1.5,2.7-3.2,3.5-5.2 c0.8-2,1.3-4.2,1.3-6.4C724.3,404.1,723.8,401.9,723,399.9z M720.3,411.6c-0.7,1.7-1.7,3.2-2.8,4.3s-2.7,2.2-4.3,2.8 c-1.7,0.7-3.3,1-5.3,1c-1.8,0-3.7-0.3-5.3-1c-1.7-0.7-3.2-1.7-4.3-2.8c-1.2-1.2-2.2-2.7-2.8-4.3s-1-3.3-1-5.3c0-1.8,0.3-3.7,1-5.3 c0.7-1.7,1.7-3.2,2.8-4.3c1.2-1.2,2.7-2.2,4.3-2.8c1.7-0.7,3.3-1,5.3-1c1.8,0,3.7,0.3,5.3,1s3.2,1.7,4.3,2.8 c1.2,1.2,2.2,2.7,2.8,4.3c0.7,1.7,1,3.3,1,5.3C721.5,408.2,721,409.9,720.3,411.6z M710.9,407.6c1.3-0.2,2.3-0.7,3.2-1.5 s1.3-2,1.3-3.7c0-1.8-0.5-3.2-1.7-4.2c-1-1-2.8-1.5-5-1.5h-7.4v18.9h3.5v-7.7h2.5l4.7,7.7h3.7L710.9,407.6z M709.1,404.9 c-0.5,0-1,0-1.7,0h-2.5v-5.3h2.5c0.5,0,1,0,1.7,0c0.5,0,1,0.2,1.5,0.3c0.5,0.2,0.8,0.5,1,0.8c0.2,0.3,0.3,0.8,0.3,1.5 c0,0.7-0.2,1.2-0.3,1.5c-0.3,0.3-0.7,0.7-1,0.8C710.1,404.7,709.6,404.9,709.1,404.9z"/>
  </g>
</svg>