<?xml version="1.0" encoding="UTF-8"?>
<svg xmlns="http://www.w3.org/2000/svg" xmlns:xlink="http://www.w3.org/1999/xlink" width="273pt" height="250pt" viewBox="0 0 273 250" version="1.1">
<g id="surface1">
<path style=" stroke:none;fill-rule:evenodd;fill:rgb(88.627451%,26.27451%,16.078431%);fill-opacity:1;" d="M 136.5 250.003906 L 186.445312 96.199219 L 86.554688 96.199219 Z M 136.5 250.003906 "/>
<path style=" stroke:none;fill-rule:evenodd;fill:rgb(98.823529%,42.745098%,14.901961%);fill-opacity:1;" d="M 136.496094 250.003906 L 86.550781 96.199219 L 16.550781 96.199219 Z M 136.496094 250.003906 "/>
<path style=" stroke:none;fill-rule:evenodd;fill:rgb(98.823529%,63.921569%,14.901961%);fill-opacity:1;" d="M 16.554688 96.199219 L 1.375 142.9375 C -0.0078125 147.203125 1.507812 151.871094 5.132812 154.507812 L 136.5 250.003906 Z M 16.554688 96.199219 "/>
<path style=" stroke:none;fill-rule:evenodd;fill:rgb(88.627451%,26.27451%,16.078431%);fill-opacity:1;" d="M 16.554688 96.207031 L 86.550781 96.207031 L 56.46875 3.574219 C 54.921875 -1.191406 48.183594 -1.191406 46.636719 3.574219 Z M 16.554688 96.207031 "/>
<path style=" stroke:none;fill-rule:evenodd;fill:rgb(98.823529%,42.745098%,14.901961%);fill-opacity:1;" d="M 136.5 250.003906 L 186.445312 96.199219 L 256.445312 96.199219 Z M 136.5 250.003906 "/>
<path style=" stroke:none;fill-rule:evenodd;fill:rgb(98.823529%,63.921569%,14.901961%);fill-opacity:1;" d="M 256.445312 96.199219 L 271.621094 142.9375 C 273.007812 147.203125 271.488281 151.871094 267.867188 154.507812 L 136.5 250.003906 Z M 256.445312 96.199219 "/>
<path style=" stroke:none;fill-rule:evenodd;fill:rgb(88.627451%,26.27451%,16.078431%);fill-opacity:1;" d="M 256.445312 96.207031 L 186.445312 96.207031 L 216.527344 3.574219 C 218.074219 -1.191406 224.816406 -1.191406 226.363281 3.574219 Z M 256.445312 96.207031 "/>
</g>
</svg>
