<?xml version="1.0" encoding="UTF-8"?>
<svg xmlns="http://www.w3.org/2000/svg" xmlns:xlink="http://www.w3.org/1999/xlink" width="198pt" height="250pt" viewBox="0 0 198 250" version="1.1">
<defs>
<clipPath id="clip1">
  <path d="M 0 0.0585938 L 198 0.0585938 L 198 249.941406 L 0 249.941406 Z M 0 0.0585938 "/>
</clipPath>
</defs>
<g id="surface1">
<g clip-path="url(#clip1)" clip-rule="nonzero">
<path style=" stroke:none;fill-rule:nonzero;fill:rgb(0%,61.176471%,87.058824%);fill-opacity:1;" d="M 139.738281 53.28125 C 121.535156 35.707031 104.164062 18.953125 98.996094 0.0585938 C 93.828125 18.953125 76.457031 35.707031 58.253906 53.28125 C 30.953125 79.636719 0 109.503906 0 154.300781 C -0.00390625 166.859375 2.550781 179.296875 7.523438 190.902344 C 12.5 202.507812 19.789062 213.054688 28.984375 221.9375 C 38.175781 230.820312 49.09375 237.867188 61.105469 242.675781 C 73.117188 247.480469 85.996094 249.957031 99 249.957031 C 112.003906 249.957031 124.878906 247.480469 136.890625 242.675781 C 148.90625 237.867188 159.820312 230.820312 169.015625 221.9375 C 178.207031 213.054688 185.5 202.507812 190.472656 190.902344 C 195.445312 179.296875 198.003906 166.859375 198 154.300781 C 198 109.507812 167.046875 79.636719 139.738281 53.28125 Z M 42.078125 176.582031 C 36.007812 176.382812 13.601562 139.085938 55.164062 99.371094 L 82.667969 128.390625 C 82.902344 128.617188 83.085938 128.886719 83.207031 129.1875 C 83.328125 129.484375 83.378906 129.804688 83.363281 130.125 C 83.34375 130.445312 83.257812 130.757812 83.105469 131.042969 C 82.957031 131.328125 82.742188 131.578125 82.484375 131.777344 C 75.921875 138.28125 47.949219 165.375 44.472656 174.742188 C 43.753906 176.675781 42.707031 176.601562 42.078125 176.582031 Z M 99 225.738281 C 94.527344 225.738281 90.101562 224.890625 85.96875 223.238281 C 81.839844 221.582031 78.085938 219.160156 74.921875 216.105469 C 71.761719 213.054688 69.253906 209.425781 67.542969 205.4375 C 65.832031 201.449219 64.949219 197.171875 64.949219 192.851562 C 65.074219 184.878906 68.078125 177.195312 73.4375 171.128906 C 79.578125 163.878906 98.996094 143.484375 98.996094 143.484375 C 98.996094 143.484375 118.117188 164.175781 124.507812 171.058594 C 130.074219 177.039062 133.121094 184.8125 133.046875 192.851562 C 133.046875 201.574219 129.460938 209.941406 123.074219 216.105469 C 116.691406 222.273438 108.03125 225.738281 99 225.738281 Z M 164.167969 172.40625 C 163.433594 173.957031 161.769531 176.546875 159.523438 176.625 C 155.519531 176.765625 155.089844 174.785156 152.128906 170.550781 C 145.632812 161.261719 88.914062 104.007812 78.304688 92.9375 C 68.976562 83.199219 76.992188 76.332031 80.710938 72.734375 C 85.375 68.21875 98.996094 55.074219 98.996094 55.074219 C 98.996094 55.074219 139.605469 92.289062 156.519531 117.714844 C 173.4375 143.144531 167.605469 165.148438 164.167969 172.40625 "/>
</g>
</g>
</svg>
