<?xml version="1.0" encoding="UTF-8"?>
<svg xmlns="http://www.w3.org/2000/svg" xmlns:xlink="http://www.w3.org/1999/xlink" width="250pt" height="250pt" viewBox="0 0 250 250" version="1.1">
<g id="surface1">
<path style=" stroke:none;fill-rule:nonzero;fill:rgb(62.745098%,85.882353%,90.980392%);fill-opacity:1;" d="M 80.976562 191.824219 C 82.972656 190.910156 84.972656 190.160156 87.050781 189.328125 C 89.382812 188.496094 91.710938 187.664062 94.042969 186.917969 C 96.957031 186 99.949219 185.25 102.945312 184.585938 C 107.023438 183.753906 111.101562 183.089844 115.179688 182.671875 C 112.851562 189.910156 110.355469 197.152344 107.523438 204.308594 C 107.605469 205.722656 107.691406 207.054688 107.773438 208.46875 C 113.351562 207.390625 119.09375 206.804688 125 206.804688 C 130.910156 206.804688 136.652344 207.390625 142.226562 208.46875 C 142.226562 207.054688 142.3125 205.640625 142.476562 204.308594 C 139.730469 197.152344 137.152344 189.910156 134.820312 182.671875 C 138.898438 183.089844 143.058594 183.671875 147.054688 184.585938 C 150.050781 185.25 152.964844 186 155.960938 186.917969 C 158.289062 187.664062 160.621094 188.414062 162.949219 189.328125 C 165.03125 190.078125 167.027344 190.910156 169.023438 191.824219 C 183.171875 198.152344 196.070312 207.472656 206.640625 219.621094 C 233.1875 196.734375 250 162.863281 250 125 C 250 56.007812 194.074219 0 125 0 C 56.011719 0 0.00390625 55.925781 0.00390625 125 C 0.00390625 162.78125 16.8125 196.652344 43.359375 219.621094 C 53.929688 207.472656 66.828125 198.152344 80.976562 191.824219 Z M 80.976562 191.824219 "/>
<path style=" stroke:none;fill-rule:nonzero;fill:rgb(32.156863%,32.54902%,32.54902%);fill-opacity:1;" d="M 89.214844 214.464844 C 95.042969 211.882812 101.28125 209.886719 107.691406 208.636719 C 107.691406 207.222656 107.609375 205.808594 107.441406 204.476562 C 110.1875 197.320312 112.765625 190.082031 115.097656 182.839844 C 111.019531 183.257812 106.859375 183.839844 102.863281 184.753906 C 99.867188 185.417969 96.957031 186.167969 93.960938 187.085938 C 91.628906 187.832031 89.300781 188.582031 86.96875 189.496094 L 96.039062 191.746094 Z M 89.214844 214.464844 "/>
<path style=" stroke:none;fill-rule:nonzero;fill:rgb(32.156863%,32.54902%,32.54902%);fill-opacity:1;" d="M 67.746094 227.855469 C 67.996094 225.523438 68.082031 223.191406 68.082031 220.78125 C 68.082031 219.367188 69.246094 218.199219 70.660156 218.199219 L 72.90625 218.199219 L 80.898438 191.734375 C 66.75 198.058594 53.851562 207.382812 43.28125 219.53125 C 49.105469 224.609375 55.429688 229.101562 62.089844 233.011719 C 64.003906 231.265625 65.832031 229.519531 67.746094 227.855469 Z M 67.746094 227.855469 "/>
<path style=" stroke:none;fill-rule:nonzero;fill:rgb(32.156863%,32.54902%,32.54902%);fill-opacity:1;" d="M 168.941406 191.832031 L 176.929688 218.296875 L 179.175781 218.296875 C 180.589844 218.296875 181.757812 219.460938 181.757812 220.875 C 181.757812 223.289062 181.921875 225.621094 182.089844 227.949219 C 184.003906 229.613281 185.917969 231.277344 187.664062 233.109375 C 194.40625 229.199219 200.648438 224.703125 206.472656 219.628906 C 195.988281 207.476562 183.089844 198.15625 168.941406 191.832031 Z M 168.941406 191.832031 "/>
<path style=" stroke:none;fill-rule:nonzero;fill:rgb(32.156863%,32.54902%,32.54902%);fill-opacity:1;" d="M 153.710938 191.566406 L 162.78125 189.320312 C 160.453125 188.488281 158.121094 187.65625 155.792969 186.90625 C 152.878906 185.992188 149.882812 185.242188 146.886719 184.574219 C 142.808594 183.742188 138.730469 183.078125 134.652344 182.660156 C 136.984375 189.902344 139.480469 197.140625 142.3125 204.300781 C 142.226562 205.714844 142.144531 207.046875 142.0625 208.460938 C 148.550781 209.707031 154.710938 211.707031 160.535156 214.285156 Z M 153.710938 191.566406 "/>
<path style=" stroke:none;fill-rule:nonzero;fill:rgb(0%,0%,0%);fill-opacity:1;" d="M 124.917969 218.292969 L 142.5625 218.292969 C 142.226562 215.046875 142.0625 211.800781 142.144531 208.636719 C 136.570312 207.554688 130.828125 206.972656 124.917969 206.972656 C 119.007812 206.972656 113.265625 207.554688 107.691406 208.636719 C 107.773438 211.882812 107.609375 215.046875 107.273438 218.292969 Z M 124.917969 218.292969 "/>
<path style=" stroke:none;fill-rule:nonzero;fill:rgb(0%,0%,0%);fill-opacity:1;" d="M 62.167969 233.027344 C 63.582031 233.859375 65.082031 234.691406 66.578125 235.523438 C 67.078125 233.027344 67.496094 230.449219 67.746094 227.867188 C 65.828125 229.53125 64 231.28125 62.167969 233.027344 Z M 62.167969 233.027344 "/>
<path style=" stroke:none;fill-rule:nonzero;fill:rgb(0%,0%,0%);fill-opacity:1;" d="M 88.050781 218.289062 L 107.355469 218.289062 C 107.691406 215.046875 107.855469 211.800781 107.773438 208.636719 C 101.28125 209.886719 95.125 211.882812 89.296875 214.460938 Z M 88.050781 218.289062 "/>
<path style=" stroke:none;fill-rule:nonzero;fill:rgb(0%,0%,0%);fill-opacity:1;" d="M 182.171875 227.867188 C 182.421875 230.449219 182.839844 233.027344 183.335938 235.523438 C 184.835938 234.777344 186.25 233.945312 187.75 233.027344 C 185.917969 231.28125 184.085938 229.53125 182.171875 227.867188 Z M 182.171875 227.867188 "/>
<path style=" stroke:none;fill-rule:nonzero;fill:rgb(0%,0%,0%);fill-opacity:1;" d="M 161.867188 218.289062 L 160.703125 214.460938 C 154.878906 211.882812 148.636719 209.886719 142.230469 208.636719 C 142.144531 211.882812 142.3125 215.046875 142.644531 218.289062 Z M 161.867188 218.289062 "/>
<path style=" stroke:none;fill-rule:nonzero;fill:rgb(66.666667%,58.823529%,47.058824%);fill-opacity:1;" d="M 88.050781 218.28125 L 89.214844 214.453125 L 96.121094 191.566406 L 87.050781 189.320312 C 84.96875 190.070312 82.972656 190.902344 80.976562 191.816406 L 72.988281 218.28125 Z M 88.050781 218.28125 "/>
<path style=" stroke:none;fill-rule:nonzero;fill:rgb(66.666667%,58.823529%,47.058824%);fill-opacity:1;" d="M 160.699219 214.453125 L 161.867188 218.28125 L 176.929688 218.28125 L 168.941406 191.816406 C 166.941406 190.902344 164.945312 190.152344 162.863281 189.320312 L 153.792969 191.566406 Z M 160.699219 214.453125 "/>
<path style=" stroke:none;fill-rule:nonzero;fill:rgb(75.294118%,69.019608%,59.607843%);fill-opacity:1;" d="M 73.234375 223.621094 C 73.320312 223.535156 73.402344 223.535156 73.484375 223.453125 L 73.234375 223.453125 C 73.234375 223.453125 73.234375 223.535156 73.234375 223.621094 Z M 73.234375 223.621094 "/>
<path style=" stroke:none;fill-rule:nonzero;fill:rgb(75.294118%,69.019608%,59.607843%);fill-opacity:1;" d="M 124.917969 223.453125 L 73.488281 223.453125 C 73.402344 223.535156 73.320312 223.535156 73.238281 223.621094 C 73.070312 228.53125 72.40625 233.273438 71.324219 237.933594 C 87.550781 245.671875 105.695312 250 124.917969 250 Z M 124.917969 223.453125 "/>
<path style=" stroke:none;fill-rule:nonzero;fill:rgb(66.666667%,58.823529%,47.058824%);fill-opacity:1;" d="M 176.683594 223.453125 L 176.433594 223.453125 C 176.515625 223.535156 176.597656 223.535156 176.683594 223.621094 C 176.683594 223.535156 176.683594 223.453125 176.683594 223.453125 Z M 176.683594 223.453125 "/>
<path style=" stroke:none;fill-rule:nonzero;fill:rgb(66.666667%,58.823529%,47.058824%);fill-opacity:1;" d="M 176.429688 223.453125 L 124.917969 223.453125 L 124.917969 250 C 144.058594 250 162.285156 245.671875 178.511719 237.933594 C 177.429688 233.273438 176.761719 228.445312 176.597656 223.621094 C 176.597656 223.535156 176.515625 223.453125 176.429688 223.453125 Z M 176.429688 223.453125 "/>
<path style=" stroke:none;fill-rule:nonzero;fill:rgb(54.509804%,45.490196%,37.647059%);fill-opacity:1;" d="M 182.175781 227.867188 C 181.925781 225.539062 181.839844 223.207031 181.839844 220.792969 C 181.839844 219.378906 180.675781 218.214844 179.261719 218.214844 L 70.574219 218.214844 C 69.160156 218.214844 67.996094 219.378906 67.996094 220.792969 C 67.996094 223.207031 67.828125 225.539062 67.660156 227.867188 C 67.410156 230.449219 66.996094 233.027344 66.496094 235.523438 C 68.078125 236.355469 69.660156 237.1875 71.238281 237.9375 C 72.320312 233.277344 72.988281 228.449219 73.152344 223.625 C 73.152344 223.539062 73.152344 223.539062 73.152344 223.457031 L 176.597656 223.457031 C 176.597656 223.539062 176.597656 223.539062 176.597656 223.625 C 176.765625 228.535156 177.429688 233.277344 178.511719 237.9375 C 180.09375 237.1875 181.675781 236.355469 183.257812 235.523438 C 182.757812 233.027344 182.421875 230.449219 182.175781 227.867188 Z M 182.175781 227.867188 "/>
<path style=" stroke:none;fill-rule:nonzero;fill:rgb(32.156863%,32.54902%,32.54902%);fill-opacity:1;" d="M 160.703125 200.398438 C 160.285156 199.980469 159.953125 199.480469 159.535156 198.984375 C 159.953125 199.566406 160.367188 199.980469 160.703125 200.398438 Z M 160.703125 200.398438 "/>
<path style=" stroke:none;fill-rule:nonzero;fill:rgb(66.666667%,58.823529%,47.058824%);fill-opacity:1;" d="M 163.617188 203.316406 C 163.617188 203.316406 162.371094 202.320312 160.707031 200.488281 C 162.371094 202.320312 163.617188 203.316406 163.617188 203.316406 Z M 163.617188 203.316406 "/>
<path style=" stroke:none;fill-rule:nonzero;fill:rgb(73.333333%,73.72549%,74.117647%);fill-opacity:1;" d="M 208.136719 97.191406 C 208.136719 97.191406 208.136719 97.109375 208.136719 97.191406 C 207.054688 95.695312 205.972656 94.363281 204.890625 93.199219 C 204.390625 92.617188 203.894531 92.117188 203.394531 91.617188 C 203.226562 91.449219 202.976562 91.285156 202.8125 91.117188 C 202.476562 90.785156 202.144531 90.535156 201.8125 90.285156 L 201.8125 101.9375 L 206.222656 122.324219 C 206.304688 122.492188 206.304688 122.660156 206.390625 122.824219 L 209.46875 126.320312 L 212.714844 126.320312 C 212.714844 125.988281 212.714844 125.738281 212.714844 125.40625 C 212.714844 115.75 211.132812 106.515625 208.304688 97.859375 C 208.21875 97.527344 208.21875 97.359375 208.136719 97.191406 Z M 208.136719 97.191406 "/>
<path style=" stroke:none;fill-rule:nonzero;fill:rgb(40.392157%,41.568627%,41.568627%);fill-opacity:1;" d="M 206.722656 124.253906 L 206.722656 124.335938 C 206.722656 124.335938 206.722656 124.335938 206.722656 124.417969 C 206.808594 124.917969 206.808594 125.417969 206.808594 125.917969 C 206.808594 126 206.808594 126.082031 206.808594 126.167969 C 206.808594 126.25 206.808594 126.332031 206.808594 126.417969 C 206.808594 126.917969 206.808594 127.414062 206.722656 127.832031 L 206.722656 127.996094 C 206.640625 128.496094 206.558594 128.996094 206.472656 129.496094 L 209.554688 126.082031 L 206.472656 122.589844 C 206.558594 123.171875 206.640625 123.671875 206.722656 124.253906 Z M 206.722656 124.253906 "/>
<path style=" stroke:none;fill-rule:nonzero;fill:rgb(0%,0%,0%);fill-opacity:1;" d="M 206.640625 128.164062 C 206.640625 128.078125 206.640625 128.078125 206.640625 127.996094 C 206.722656 127.496094 206.722656 127 206.722656 126.582031 C 206.722656 126.5 206.722656 126.332031 206.722656 126.25 C 206.722656 126.164062 206.722656 126.082031 206.722656 125.917969 C 206.722656 125.417969 206.722656 124.917969 206.640625 124.417969 C 206.640625 124.335938 206.640625 124.335938 206.640625 124.25 C 206.558594 123.753906 206.472656 123.253906 206.390625 122.753906 C 206.308594 122.585938 206.308594 122.421875 206.222656 122.253906 C 205.890625 121.253906 205.558594 120.421875 205.058594 119.675781 C 204.976562 119.589844 204.894531 119.507812 204.894531 119.425781 C 204.726562 119.257812 204.644531 119.09375 204.476562 118.925781 C 204.308594 118.675781 204.0625 118.507812 203.8125 118.34375 C 203.726562 118.257812 203.644531 118.257812 203.5625 118.175781 C 203.394531 118.011719 203.144531 117.925781 202.980469 117.84375 C 202.894531 117.84375 202.8125 117.761719 202.730469 117.761719 C 202.480469 117.675781 202.148438 117.59375 201.8125 117.59375 C 201.480469 117.59375 201.230469 117.675781 200.898438 117.761719 C 200.816406 117.761719 200.730469 117.84375 200.648438 117.84375 C 200.480469 117.925781 200.230469 118.011719 200.066406 118.175781 C 199.984375 118.257812 199.898438 118.257812 199.816406 118.34375 C 199.566406 118.507812 199.398438 118.757812 199.152344 118.925781 C 198.984375 119.09375 198.902344 119.257812 198.734375 119.425781 C 198.652344 119.507812 198.566406 119.589844 198.566406 119.675781 C 198.070312 120.421875 197.652344 121.253906 197.402344 122.253906 L 197.402344 122.335938 C 197.238281 122.753906 197.152344 123.253906 197.070312 123.753906 C 197.070312 123.917969 196.988281 124.003906 196.988281 124.167969 C 196.902344 124.75 196.902344 125.25 196.820312 125.832031 C 196.820312 125.917969 196.820312 126 196.820312 126.082031 C 196.820312 130.828125 199.066406 134.738281 201.8125 134.738281 C 202.3125 134.738281 202.730469 134.570312 203.226562 134.40625 C 203.3125 134.40625 203.394531 134.320312 203.476562 134.320312 C 203.644531 134.238281 203.8125 134.070312 203.976562 133.988281 C 204.0625 133.90625 204.144531 133.824219 204.226562 133.738281 C 204.476562 133.574219 204.644531 133.324219 204.894531 133.074219 C 205.058594 132.90625 205.144531 132.742188 205.308594 132.492188 C 205.390625 132.324219 205.476562 132.242188 205.558594 132.074219 C 205.726562 131.824219 205.808594 131.574219 205.976562 131.242188 C 206.058594 131.160156 206.058594 131.074219 206.140625 130.910156 C 206.308594 130.492188 206.390625 130.078125 206.558594 129.660156 C 206.558594 129.160156 206.640625 128.664062 206.640625 128.164062 Z M 201.980469 125 C 200.898438 125 200.066406 123.585938 200.066406 121.753906 C 200.066406 120.007812 200.898438 118.507812 201.980469 118.507812 C 203.0625 118.507812 203.894531 119.925781 203.894531 121.753906 C 203.894531 123.585938 202.980469 125 201.980469 125 Z M 201.980469 125 "/>
<path style=" stroke:none;fill-rule:nonzero;fill:rgb(100%,100%,100%);fill-opacity:1;" d="M 201.984375 125.011719 C 203.042969 125.011719 203.898438 123.558594 203.898438 121.765625 C 203.898438 119.972656 203.042969 118.519531 201.984375 118.519531 C 200.925781 118.519531 200.070312 119.972656 200.070312 121.765625 C 200.070312 123.558594 200.925781 125.011719 201.984375 125.011719 Z M 201.984375 125.011719 "/>
<path style=" stroke:none;fill-rule:nonzero;fill:rgb(56.470588%,57.647059%,57.647059%);fill-opacity:1;" d="M 197.320312 122.25 C 197.652344 121.253906 197.984375 120.421875 198.484375 119.671875 C 198.566406 119.589844 198.652344 119.503906 198.652344 119.421875 C 198.816406 119.253906 198.898438 119.089844 199.066406 118.921875 C 199.234375 118.671875 199.484375 118.507812 199.730469 118.339844 C 199.816406 118.257812 199.898438 118.257812 199.980469 118.175781 C 200.148438 118.007812 200.398438 117.925781 200.5625 117.839844 C 200.648438 117.839844 200.730469 117.757812 200.8125 117.757812 C 201.0625 117.675781 201.398438 117.589844 201.730469 117.589844 C 202.0625 117.589844 202.3125 117.675781 202.644531 117.757812 C 202.726562 117.757812 202.8125 117.839844 202.894531 117.839844 C 203.0625 117.925781 203.3125 118.007812 203.476562 118.175781 C 203.558594 118.257812 203.644531 118.257812 203.726562 118.339844 C 203.976562 118.507812 204.144531 118.757812 204.390625 118.921875 C 204.558594 119.089844 204.640625 119.253906 204.808594 119.421875 C 204.890625 119.503906 204.976562 119.589844 204.976562 119.671875 C 205.472656 120.421875 205.890625 121.253906 206.140625 122.25 L 201.730469 101.863281 Z M 197.320312 122.25 "/>
<path style=" stroke:none;fill-rule:nonzero;fill:rgb(0%,0%,0%);fill-opacity:1;" d="M 142.8125 125.992188 C 142.8125 125.578125 142.8125 125.160156 142.730469 124.746094 C 142.648438 124.328125 142.648438 123.996094 142.566406 123.578125 C 142.480469 123.164062 142.398438 122.832031 142.230469 122.496094 C 142.148438 122.164062 141.980469 121.75 141.816406 121.414062 C 141.648438 121.082031 141.484375 120.75 141.316406 120.417969 C 140.734375 119.417969 140.066406 118.503906 139.234375 117.753906 C 138.152344 116.753906 136.90625 115.921875 135.574219 115.339844 C 134.90625 115.089844 134.160156 114.839844 133.492188 114.675781 C 133.492188 114.675781 133.492188 114.675781 133.410156 114.675781 C 132.660156 114.507812 131.914062 114.425781 131.164062 114.425781 C 130.414062 114.425781 129.664062 114.507812 128.917969 114.675781 L 128.832031 114.675781 C 128.085938 114.839844 127.417969 115.007812 126.753906 115.257812 C 126.753906 115.257812 126.753906 115.257812 126.667969 115.257812 C 126.003906 115.507812 125.335938 115.839844 124.753906 116.253906 C 124.171875 116.671875 123.589844 117.085938 123.089844 117.585938 L 123.007812 117.585938 C 122.175781 118.417969 121.425781 119.335938 120.84375 120.332031 C 120.675781 120.667969 120.511719 121 120.34375 121.332031 C 120.34375 121.332031 120.34375 121.414062 120.261719 121.414062 C 120.09375 121.75 120.011719 121.996094 119.929688 122.332031 C 119.929688 122.414062 119.84375 122.414062 119.84375 122.496094 C 119.761719 122.832031 119.679688 123.078125 119.59375 123.414062 C 119.59375 123.496094 119.511719 123.578125 119.511719 123.664062 C 119.429688 123.996094 119.429688 124.246094 119.347656 124.578125 C 119.347656 124.660156 119.347656 124.746094 119.261719 124.828125 C 119.261719 125.242188 119.179688 125.660156 119.179688 126.074219 C 119.179688 126.824219 119.261719 127.574219 119.429688 128.324219 C 119.429688 128.324219 119.429688 128.324219 119.429688 128.40625 C 119.59375 129.15625 119.761719 129.820312 120.09375 130.570312 C 120.675781 131.902344 121.507812 133.148438 122.507812 134.230469 C 123.339844 135.0625 124.257812 135.8125 125.253906 136.394531 C 125.585938 136.5625 125.921875 136.726562 126.253906 136.894531 L 126.335938 136.894531 C 126.667969 137.0625 127.003906 137.144531 127.253906 137.226562 C 127.335938 137.226562 127.335938 137.226562 127.417969 137.3125 C 127.75 137.394531 128 137.476562 128.332031 137.5625 C 128.417969 137.5625 128.5 137.644531 128.582031 137.644531 C 128.917969 137.726562 129.167969 137.726562 129.5 137.808594 C 129.582031 137.808594 129.664062 137.808594 129.75 137.894531 C 130.164062 137.894531 130.582031 137.976562 130.996094 137.976562 C 132.660156 137.976562 134.160156 137.644531 135.574219 137.0625 C 136.238281 136.726562 136.90625 136.394531 137.570312 135.980469 C 138.820312 135.148438 139.902344 134.066406 140.734375 132.816406 C 141.148438 132.152344 141.484375 131.484375 141.816406 130.820312 C 142.398438 129.40625 142.730469 127.824219 142.730469 126.242188 L 142.730469 126.160156 C 142.8125 125.992188 142.8125 125.992188 142.8125 125.992188 Z M 131.082031 124.578125 C 128.667969 124.578125 126.667969 122.582031 126.667969 120.167969 C 126.667969 117.753906 128.667969 115.757812 131.082031 115.757812 C 133.492188 115.757812 135.492188 117.753906 135.492188 120.167969 C 135.492188 122.582031 133.492188 124.578125 131.082031 124.578125 Z M 131.082031 124.578125 "/>
<path style=" stroke:none;fill-rule:nonzero;fill:rgb(100%,100%,100%);fill-opacity:1;" d="M 131.078125 124.578125 C 133.511719 124.578125 135.488281 122.605469 135.488281 120.167969 C 135.488281 117.734375 133.511719 115.757812 131.078125 115.757812 C 128.640625 115.757812 126.667969 117.734375 126.667969 120.167969 C 126.667969 122.605469 128.640625 124.578125 131.078125 124.578125 Z M 131.078125 124.578125 "/>
<path style=" stroke:none;fill-rule:nonzero;fill:rgb(73.333333%,73.72549%,74.117647%);fill-opacity:1;" d="M 122.921875 117.578125 L 131.078125 92.695312 C 131.078125 92.695312 131.078125 91.195312 131.078125 89.78125 C 131.078125 89.367188 131.078125 88.949219 131.078125 88.617188 C 131.078125 88.449219 131.078125 88.367188 131.078125 88.285156 C 131.078125 88.117188 131.078125 87.949219 131.078125 87.785156 C 131.078125 87.703125 131.078125 87.535156 131.078125 87.453125 C 131.078125 87.367188 131.078125 87.203125 131.078125 87.117188 C 131.078125 87.035156 131.078125 86.953125 131.078125 86.953125 C 131.078125 86.871094 131.078125 86.871094 131.078125 86.871094 C 126.585938 85.953125 121.925781 85.453125 117.179688 85.453125 C 115.597656 85.453125 114.019531 85.539062 112.4375 85.621094 C 112.1875 85.621094 112.019531 85.621094 111.769531 85.703125 C 103.613281 86.285156 95.625 88.449219 88.21875 91.863281 C 81.894531 94.777344 75.902344 98.605469 70.660156 103.097656 C 69.246094 104.347656 67.832031 105.59375 66.5 106.925781 C 66.25 107.175781 66 107.425781 65.75 107.675781 C 64.5 108.921875 63.253906 110.253906 62.085938 111.585938 C 61.839844 111.917969 61.589844 112.167969 61.339844 112.5 C 60.171875 113.917969 59.007812 115.332031 57.925781 116.746094 C 57.84375 116.828125 57.761719 116.996094 57.675781 117.078125 C 56.679688 118.492188 55.679688 119.910156 54.679688 121.40625 C 54.515625 121.65625 54.265625 121.988281 54.097656 122.238281 C 53.347656 123.488281 52.601562 124.734375 51.933594 125.984375 L 88.886719 125.984375 Z M 122.921875 117.578125 "/>
<path style=" stroke:none;fill-rule:nonzero;fill:rgb(88.627451%,86.666667%,85.882353%);fill-opacity:1;" d="M 154.128906 114.847656 C 154.210938 113.847656 154.292969 112.933594 154.292969 111.933594 C 154.378906 110.601562 154.378906 109.355469 154.460938 108.023438 C 154.460938 107.023438 154.460938 106.027344 154.460938 104.945312 C 154.460938 104.613281 154.460938 104.363281 154.460938 104.027344 C 154.460938 101.367188 154.292969 98.785156 154.210938 96.121094 C 154.210938 96.121094 154.128906 96.121094 154.128906 96.039062 C 154.128906 96.039062 154.042969 96.039062 154.042969 95.957031 C 153.546875 95.707031 152.378906 95.039062 151.296875 94.375 L 151.214844 94.375 C 150.964844 94.207031 150.714844 94.042969 150.464844 93.957031 C 150.300781 93.875 150.132812 93.710938 149.964844 93.625 L 149.882812 93.542969 C 149.714844 93.460938 149.550781 93.375 149.46875 93.292969 C 147.800781 92.378906 146.054688 91.628906 144.308594 90.878906 C 140.144531 89.132812 134.488281 87.550781 131.242188 86.800781 L 131.242188 89.714844 C 131.242188 91.210938 131.242188 92.628906 131.242188 92.628906 L 139.3125 117.425781 C 140.144531 118.175781 140.894531 119.09375 141.394531 120.089844 C 141.5625 120.421875 141.726562 120.757812 141.894531 121.089844 C 142.058594 121.421875 142.226562 121.753906 142.308594 122.171875 C 142.394531 122.503906 142.558594 122.917969 142.644531 123.253906 C 142.726562 123.667969 142.808594 124 142.808594 124.417969 C 142.890625 124.835938 142.890625 125.25 142.890625 125.667969 L 142.890625 125.75 L 152.710938 125.75 C 153.378906 122.171875 153.878906 118.507812 154.128906 114.847656 C 154.128906 115.015625 154.128906 114.929688 154.128906 114.847656 Z M 154.128906 114.847656 "/>
<path style=" stroke:none;fill-rule:nonzero;fill:rgb(98.431373%,69.019608%,25.098039%);fill-opacity:1;" d="M 142.894531 161.453125 C 145.140625 159.203125 147.222656 157.125 149.21875 155.042969 C 150.382812 153.796875 151.546875 152.546875 152.714844 151.382812 C 160.953125 142.476562 166.945312 134.070312 170.605469 123.335938 C 170.691406 123.085938 170.773438 122.753906 170.855469 122.335938 C 170.855469 122.253906 170.855469 122.253906 170.855469 122.171875 C 170.9375 121.753906 171.023438 121.339844 171.105469 120.839844 C 171.105469 120.507812 171.1875 120.175781 171.1875 119.839844 C 170.273438 115.179688 168.527344 110.605469 166.945312 106.109375 C 166.945312 106.109375 166.945312 106.109375 166.945312 106.191406 C 166.945312 106.191406 166.945312 106.191406 166.859375 106.109375 C 166.527344 105.859375 166.277344 105.527344 165.945312 105.277344 C 165.03125 104.445312 164.113281 103.613281 163.117188 102.78125 C 160.203125 100.367188 157.207031 98.121094 154.046875 96.207031 C 154.210938 98.871094 154.292969 101.449219 154.292969 104.113281 C 154.292969 104.445312 154.292969 104.695312 154.292969 105.027344 C 154.292969 106.027344 154.292969 107.023438 154.292969 108.105469 C 154.292969 109.4375 154.210938 110.769531 154.128906 112.019531 C 154.046875 113.015625 154.046875 113.933594 153.960938 114.929688 C 153.960938 115.015625 153.960938 115.097656 153.960938 115.265625 C 153.628906 118.925781 153.214844 122.585938 152.546875 126.164062 L 151.382812 131.660156 C 148.96875 141.480469 144.058594 150.300781 140.0625 159.453125 C 138.980469 161.867188 137.984375 164.363281 137.066406 166.863281 C 136.984375 167.109375 136.902344 167.359375 136.820312 167.609375 C 138.066406 166.277344 139.230469 165.113281 140.0625 164.28125 C 141.144531 163.199219 141.976562 162.285156 142.894531 161.453125 Z M 142.894531 161.453125 "/>
<path style=" stroke:none;fill-rule:nonzero;fill:rgb(56.470588%,57.647059%,57.647059%);fill-opacity:1;" d="M 123.007812 117.601562 C 123.507812 117.101562 124.089844 116.683594 124.671875 116.269531 C 125.253906 115.851562 125.917969 115.519531 126.585938 115.269531 C 126.585938 115.269531 126.585938 115.269531 126.667969 115.269531 C 127.335938 115.019531 128 114.769531 128.75 114.6875 L 128.832031 114.6875 C 129.582031 114.519531 130.332031 114.4375 131.078125 114.4375 C 131.828125 114.4375 132.578125 114.519531 133.328125 114.6875 C 133.328125 114.6875 133.328125 114.6875 133.410156 114.6875 C 134.160156 114.855469 134.824219 115.019531 135.488281 115.351562 C 136.820312 115.933594 138.070312 116.683594 139.152344 117.765625 L 131.078125 92.964844 Z M 123.007812 117.601562 "/>
<path style=" stroke:none;fill-rule:nonzero;fill:rgb(40.392157%,41.568627%,41.568627%);fill-opacity:1;" d="M 120.171875 130.578125 C 119.921875 129.910156 119.671875 129.160156 119.507812 128.414062 C 119.507812 128.414062 119.507812 128.414062 119.507812 128.328125 C 119.339844 127.582031 119.257812 126.832031 119.257812 126.082031 C 119.257812 125.667969 119.257812 125.25 119.339844 124.835938 C 119.339844 124.75 119.339844 124.667969 119.421875 124.585938 C 119.421875 124.25 119.507812 124.003906 119.589844 123.667969 C 119.589844 123.585938 119.671875 123.503906 119.671875 123.417969 C 119.757812 123.085938 119.839844 122.835938 119.921875 122.503906 C 119.921875 122.421875 120.003906 122.421875 120.003906 122.335938 C 120.089844 122.003906 120.253906 121.671875 120.339844 121.421875 C 120.339844 121.421875 120.339844 121.339844 120.421875 121.339844 C 120.589844 121.007812 120.753906 120.671875 120.921875 120.339844 C 121.503906 119.339844 122.253906 118.425781 123.085938 117.59375 L 88.964844 126 L 88.882812 126 L 122.667969 134.238281 C 121.585938 133.238281 120.753906 131.992188 120.171875 130.578125 Z M 120.171875 130.578125 "/>
<path style=" stroke:none;fill-rule:nonzero;fill:rgb(88.627451%,86.666667%,85.882353%);fill-opacity:1;" d="M 196.90625 124.152344 C 196.90625 123.984375 196.988281 123.820312 196.988281 123.738281 C 197.074219 123.238281 197.15625 122.738281 197.324219 122.320312 C 197.324219 122.238281 197.324219 122.238281 197.324219 122.15625 L 201.734375 101.765625 L 201.734375 90.113281 C 198.070312 87.117188 194.242188 85.453125 190.164062 85.453125 C 185.003906 85.453125 180.261719 88.285156 176.683594 91.78125 C 172.773438 95.609375 169.777344 100.433594 167.28125 105.261719 C 167.195312 105.511719 167.03125 105.675781 166.945312 105.925781 C 167.695312 106.59375 168.445312 107.257812 169.195312 107.925781 C 170.859375 109.421875 172.523438 111.003906 174.105469 112.585938 C 174.851562 113.332031 175.601562 114.082031 176.351562 114.832031 C 177.101562 115.664062 177.933594 116.414062 178.679688 117.246094 C 179.679688 118.328125 180.679688 119.324219 181.59375 120.40625 C 182.011719 120.824219 182.425781 121.324219 182.84375 121.738281 C 184.007812 123.070312 185.171875 124.320312 186.335938 125.652344 C 186.503906 125.816406 186.671875 125.984375 186.753906 126.066406 L 196.824219 126.066406 C 196.824219 125.984375 196.824219 125.898438 196.824219 125.816406 C 196.824219 125.316406 196.824219 124.734375 196.90625 124.152344 Z M 196.90625 124.152344 "/>
<path style=" stroke:none;fill-rule:nonzero;fill:rgb(32.156863%,32.54902%,32.54902%);fill-opacity:1;" d="M 45.855469 138.886719 C 45.855469 138.800781 45.941406 138.71875 45.941406 138.636719 C 46.605469 136.972656 47.273438 135.308594 48.019531 133.640625 C 48.1875 133.144531 48.4375 132.726562 48.6875 132.3125 C 49.269531 130.980469 49.933594 129.730469 50.601562 128.484375 C 50.851562 127.984375 51.101562 127.484375 51.433594 126.902344 C 51.597656 126.652344 51.765625 126.320312 51.933594 126.070312 C 52.679688 124.820312 53.347656 123.574219 54.097656 122.324219 C 54.261719 122.074219 54.511719 121.742188 54.679688 121.492188 C 55.59375 119.996094 56.59375 118.578125 57.675781 117.164062 C 57.757812 117.082031 57.839844 116.914062 57.925781 116.832031 C 59.007812 115.335938 60.171875 113.917969 61.335938 112.585938 C 61.585938 112.253906 61.835938 112.003906 62.085938 111.671875 C 63.25 110.339844 64.5 109.007812 65.746094 107.761719 C 65.996094 107.511719 66.246094 107.261719 66.496094 107.011719 C 67.828125 105.679688 69.160156 104.433594 70.65625 103.183594 C 76.234375 84.375 93.460938 70.644531 113.765625 70.644531 C 121.921875 70.644531 130.078125 72.972656 137.066406 77.300781 C 144.226562 81.710938 150.050781 88.121094 153.796875 95.527344 C 153.796875 95.527344 153.796875 95.609375 153.878906 95.609375 C 153.960938 95.777344 154.046875 95.945312 154.210938 96.191406 C 157.375 98.105469 160.371094 100.355469 163.28125 102.765625 C 164.28125 103.601562 165.195312 104.433594 166.113281 105.265625 C 166.445312 105.515625 166.695312 105.847656 167.027344 106.097656 C 167.109375 105.847656 167.195312 105.679688 167.359375 105.429688 C 170.191406 87.371094 178.179688 74.304688 187.582031 74.304688 C 194.65625 74.304688 200.980469 81.710938 204.808594 93.113281 L 204.808594 93.195312 C 205.890625 94.363281 206.972656 95.695312 208.054688 97.109375 C 208.054688 97.109375 208.054688 97.191406 208.140625 97.191406 C 208.222656 97.359375 208.222656 97.523438 208.304688 97.691406 L 208.140625 97.109375 C 196.40625 62.488281 163.699219 37.523438 125.085938 37.523438 C 76.648438 37.523438 37.453125 76.71875 37.453125 125.15625 C 37.453125 134.722656 38.949219 143.878906 41.78125 152.449219 C 41.78125 152.449219 41.78125 152.449219 41.78125 152.367188 C 42.363281 149.789062 43.027344 147.207031 43.777344 144.710938 C 44.441406 142.714844 45.109375 140.800781 45.855469 138.886719 Z M 45.855469 138.886719 "/>
<path style=" stroke:none;fill-rule:nonzero;fill:rgb(100%,100%,100%);fill-opacity:1;" d="M 209.472656 126.152344 L 206.394531 129.566406 C 206.3125 129.984375 206.144531 130.398438 205.976562 130.816406 C 205.976562 130.898438 205.894531 130.980469 205.8125 131.148438 C 205.726562 131.398438 205.5625 131.730469 205.394531 131.980469 C 205.3125 132.144531 205.230469 132.230469 205.144531 132.394531 C 204.980469 132.5625 204.894531 132.8125 204.730469 132.976562 C 204.5625 133.226562 204.3125 133.476562 204.0625 133.644531 C 203.980469 133.726562 203.898438 133.8125 203.8125 133.894531 C 203.648438 134.058594 203.480469 134.144531 203.316406 134.226562 C 203.230469 134.226562 203.148438 134.308594 203.066406 134.308594 C 202.648438 134.558594 202.148438 134.644531 201.648438 134.644531 C 198.902344 134.644531 196.65625 130.816406 196.65625 125.988281 L 186.585938 125.988281 C 188.5 128.152344 190.332031 130.316406 192.078125 132.5625 L 192.164062 132.644531 C 193.910156 134.808594 195.65625 136.972656 197.40625 139.136719 C 197.488281 139.21875 197.570312 139.386719 197.65625 139.46875 C 199.320312 141.550781 200.902344 143.628906 202.480469 145.710938 C 202.648438 145.878906 202.816406 146.128906 202.980469 146.292969 C 204.644531 148.539062 206.3125 150.789062 207.976562 152.953125 C 207.976562 152.953125 207.976562 152.953125 207.976562 153.035156 C 210.886719 144.460938 212.46875 135.390625 212.550781 125.90625 Z M 209.472656 126.152344 "/>
<path style=" stroke:none;fill-rule:nonzero;fill:rgb(0%,0%,0%);fill-opacity:1;" d="M 111.765625 85.644531 C 112.015625 85.644531 112.183594 85.644531 112.433594 85.5625 C 114.015625 85.480469 115.59375 85.394531 117.175781 85.394531 C 121.921875 85.394531 126.582031 85.894531 131.074219 86.808594 C 131.074219 86.808594 131.074219 86.808594 131.074219 86.894531 C 131.074219 86.894531 131.074219 86.976562 131.074219 87.058594 C 131.074219 87.144531 131.074219 87.226562 131.074219 87.394531 C 131.074219 87.476562 131.074219 87.558594 131.074219 87.726562 C 131.074219 87.890625 131.074219 88.058594 131.074219 88.226562 C 131.074219 88.308594 131.074219 88.476562 131.074219 88.558594 C 131.074219 88.722656 131.074219 88.890625 131.074219 89.058594 L 131.074219 86.808594 C 134.238281 87.558594 139.894531 89.140625 144.140625 90.886719 C 145.886719 91.636719 147.636719 92.46875 149.300781 93.300781 C 149.382812 93.300781 149.550781 93.386719 149.714844 93.550781 C 149.714844 93.550781 149.800781 93.550781 149.800781 93.632812 C 149.964844 93.71875 150.132812 93.800781 150.296875 93.96875 C 150.546875 94.132812 150.796875 94.21875 151.046875 94.382812 L 151.128906 94.382812 C 152.210938 94.964844 153.378906 95.714844 153.878906 95.964844 C 153.960938 95.964844 153.960938 96.046875 153.960938 96.046875 L 154.042969 96.132812 C 153.960938 95.964844 153.878906 95.796875 153.710938 95.546875 C 153.710938 95.546875 153.710938 95.464844 153.628906 95.464844 C 149.882812 87.976562 143.972656 81.566406 136.898438 77.238281 C 129.910156 72.996094 121.753906 70.582031 113.597656 70.582031 C 93.292969 70.582031 76.066406 84.3125 70.488281 103.121094 C 75.816406 98.542969 81.722656 94.714844 88.050781 91.886719 C 95.621094 88.390625 103.695312 86.3125 111.765625 85.644531 Z M 111.765625 85.644531 "/>
<path style=" stroke:none;fill-rule:nonzero;fill:rgb(0%,0%,0%);fill-opacity:1;" d="M 176.765625 91.886719 C 180.34375 88.390625 185.089844 85.5625 190.246094 85.5625 C 194.324219 85.5625 198.238281 87.226562 201.816406 90.222656 C 202.148438 90.472656 202.480469 90.804688 202.8125 91.054688 C 202.980469 91.222656 203.230469 91.386719 203.398438 91.554688 C 203.894531 92.054688 204.394531 92.550781 204.894531 93.136719 L 204.894531 93.050781 C 200.984375 81.652344 194.742188 74.242188 187.667969 74.242188 C 178.265625 74.242188 170.273438 87.226562 167.445312 105.367188 C 169.773438 100.542969 172.855469 95.714844 176.765625 91.886719 Z M 176.765625 91.886719 "/>
<path style=" stroke:none;fill-rule:nonzero;fill:rgb(100%,100%,100%);fill-opacity:1;" d="M 93.707031 206.972656 C 94.539062 207.308594 95.289062 207.554688 96.121094 207.804688 C 105.191406 210.96875 114.929688 212.714844 125.082031 212.714844 C 136.652344 212.714844 147.71875 210.46875 157.789062 206.390625 C 158.289062 206.140625 158.871094 205.976562 159.371094 205.726562 C 160.203125 205.394531 161.117188 204.976562 161.949219 204.5625 C 162.699219 204.226562 163.449219 203.894531 164.195312 203.480469 C 164.03125 203.480469 163.863281 203.5625 163.699219 203.5625 C 160.535156 203.894531 157.457031 203.976562 154.375 203.480469 C 136.316406 200.898438 132.324219 192.160156 132.90625 183.171875 C 131.574219 182.425781 130.324219 181.589844 128.910156 180.59375 C 115.011719 170.523438 106.773438 159.789062 106.773438 159.789062 C 106.773438 159.789062 117.507812 168.027344 133.488281 174.269531 C 133.820312 174.433594 134.152344 174.519531 134.488281 174.683594 C 135.234375 172.105469 136.152344 169.609375 136.902344 167.445312 C 136.984375 167.195312 137.066406 166.945312 137.148438 166.695312 C 138.066406 164.199219 139.0625 161.703125 140.144531 159.289062 C 144.140625 150.132812 149.050781 141.230469 151.464844 131.492188 L 152.628906 126 L 142.808594 126 L 142.808594 126.082031 C 142.808594 127.746094 142.476562 129.246094 141.894531 130.660156 C 141.5625 131.324219 141.226562 132.074219 140.8125 132.65625 C 139.980469 133.90625 138.898438 134.988281 137.648438 135.820312 C 136.984375 136.234375 136.316406 136.570312 135.652344 136.902344 C 134.238281 137.484375 132.65625 137.816406 131.074219 137.816406 C 130.660156 137.816406 130.242188 137.816406 129.828125 137.734375 C 129.742188 137.734375 129.660156 137.734375 129.578125 137.652344 C 129.242188 137.652344 128.996094 137.566406 128.660156 137.484375 C 128.578125 137.484375 128.496094 137.402344 128.410156 137.402344 C 128.078125 137.316406 127.828125 137.234375 127.496094 137.152344 C 127.414062 137.152344 127.414062 137.152344 127.328125 137.070312 C 126.996094 136.984375 126.664062 136.820312 126.414062 136.734375 L 126.332031 136.734375 C 126 136.570312 125.664062 136.402344 125.332031 136.234375 C 124.332031 135.652344 123.417969 134.988281 122.585938 134.074219 L 88.796875 125.832031 L 51.929688 125.832031 C 51.765625 126.082031 51.597656 126.414062 51.433594 126.664062 C 51.183594 127.164062 50.851562 127.664062 50.601562 128.246094 C 49.933594 129.496094 49.269531 130.828125 48.6875 132.074219 C 48.4375 132.492188 48.269531 132.992188 48.019531 133.40625 C 47.269531 135.070312 46.605469 136.734375 45.941406 138.398438 C 45.941406 138.484375 45.855469 138.566406 45.855469 138.648438 C 45.105469 140.5625 44.441406 142.5625 43.859375 144.558594 C 43.109375 147.054688 42.445312 149.632812 41.863281 152.214844 C 47.6875 169.941406 58.921875 185.171875 73.734375 195.824219 C 74.152344 196.15625 74.652344 196.40625 75.066406 196.738281 C 77.5625 198.484375 80.144531 200.148438 82.804688 201.566406 C 86.300781 203.726562 89.964844 205.476562 93.707031 206.972656 Z M 93.707031 206.972656 "/>
<path style=" stroke:none;fill-rule:nonzero;fill:rgb(62.352941%,13.333333%,33.333333%);fill-opacity:1;" d="M 154.210938 179.6875 C 154.046875 180.601562 153.960938 181.519531 153.960938 182.433594 C 153.878906 184.015625 154.046875 185.597656 154.296875 187.011719 C 154.460938 188.007812 154.628906 188.925781 154.878906 189.839844 C 155.292969 191.171875 155.710938 192.421875 156.292969 193.585938 C 156.875 194.75 157.457031 195.832031 158.039062 196.746094 C 158.207031 197.082031 158.457031 197.414062 158.621094 197.664062 C 158.957031 198.078125 159.207031 198.496094 159.539062 198.910156 C 159.953125 199.410156 160.371094 199.910156 160.703125 200.324219 C 162.285156 202.15625 163.617188 203.15625 163.617188 203.15625 C 163.617188 203.15625 163.617188 203.15625 163.617188 203.238281 C 163.617188 203.320312 163.617188 203.40625 163.699219 203.488281 C 163.867188 203.488281 164.03125 203.40625 164.199219 203.40625 C 168.109375 202.90625 172.023438 201.824219 175.933594 200.492188 C 177.929688 199.742188 179.925781 198.996094 181.839844 198.164062 C 182.425781 197.914062 183.007812 197.578125 183.589844 197.332031 C 203.644531 187.59375 220.457031 170.449219 220.457031 170.449219 C 195.324219 182.851562 170.605469 182.351562 154.210938 179.6875 Z M 154.210938 179.6875 "/>
<path style=" stroke:none;fill-rule:nonzero;fill:rgb(88.627451%,2.352941%,43.529412%);fill-opacity:1;" d="M 202.644531 145.902344 C 201.066406 143.820312 199.402344 141.738281 197.820312 139.660156 C 197.734375 139.574219 197.652344 139.410156 197.570312 139.328125 C 195.820312 137.164062 194.074219 135 192.328125 132.835938 L 192.242188 132.75 C 190.414062 130.503906 188.582031 128.339844 186.75 126.175781 C 186.667969 126.011719 186.5 125.925781 186.417969 125.761719 C 185.253906 124.429688 184.089844 123.179688 182.921875 121.851562 C 182.507812 121.433594 182.089844 120.933594 181.675781 120.519531 C 180.675781 119.4375 179.761719 118.4375 178.761719 117.355469 C 178.011719 116.523438 177.179688 115.773438 176.429688 114.941406 C 175.683594 114.195312 174.933594 113.445312 174.183594 112.695312 C 172.601562 111.113281 170.9375 109.53125 169.273438 108.035156 C 168.523438 107.371094 167.777344 106.703125 167.027344 106.039062 C 168.609375 110.613281 170.4375 115.191406 171.355469 119.9375 C 171.605469 121.183594 171.769531 122.347656 171.9375 123.515625 C 174.183594 139.910156 168.859375 150.644531 160.535156 164.792969 C 159.953125 165.789062 159.289062 166.871094 158.707031 167.871094 C 156.792969 171.035156 155.542969 174.113281 154.878906 176.941406 C 154.628906 177.859375 154.460938 178.773438 154.292969 179.6875 C 170.6875 182.351562 195.324219 182.851562 220.539062 170.453125 C 220.539062 170.453125 215.628906 163.210938 208.140625 153.222656 C 206.472656 150.976562 204.808594 148.730469 203.144531 146.566406 C 202.980469 146.316406 202.8125 146.066406 202.644531 145.902344 Z M 202.644531 145.902344 "/>
<path style=" stroke:none;fill-rule:nonzero;fill:rgb(0%,0%,0%);fill-opacity:1;" d="M 163.613281 203.300781 C 163.613281 203.300781 162.367188 202.304688 160.703125 200.472656 C 160.285156 200.058594 159.953125 199.558594 159.535156 199.058594 C 159.203125 198.640625 158.953125 198.226562 158.621094 197.808594 C 158.453125 197.476562 158.207031 197.226562 158.039062 196.894531 C 157.457031 195.894531 156.875 194.898438 156.292969 193.730469 C 155.792969 192.566406 155.292969 191.320312 154.875 189.988281 C 154.625 189.070312 154.378906 188.15625 154.292969 187.15625 C 154.042969 185.742188 153.960938 184.160156 153.960938 182.578125 C 153.960938 181.664062 154.042969 180.75 154.210938 179.832031 C 154.378906 178.917969 154.542969 178.003906 154.792969 177.085938 C 155.542969 174.257812 156.707031 171.261719 158.621094 168.015625 C 159.203125 166.933594 159.871094 165.9375 160.453125 164.9375 C 168.773438 150.789062 174.101562 140.136719 171.851562 123.660156 C 171.6875 122.492188 171.519531 121.246094 171.269531 120.082031 C 171.1875 120.914062 171.019531 121.660156 170.855469 122.246094 C 170.855469 122.328125 170.855469 122.328125 170.855469 122.410156 C 170.769531 122.828125 170.6875 123.160156 170.605469 123.410156 C 166.945312 134.144531 160.953125 142.550781 152.710938 151.457031 C 151.628906 152.703125 150.464844 153.867188 149.21875 155.117188 C 147.21875 157.199219 145.054688 159.363281 142.890625 161.523438 C 141.976562 162.441406 141.0625 163.273438 140.144531 164.1875 C 139.3125 165.019531 138.148438 166.1875 136.902344 167.515625 C 136.152344 169.679688 135.234375 172.175781 134.488281 174.757812 C 134.15625 174.589844 133.820312 174.507812 133.488281 174.339844 C 117.511719 168.183594 106.773438 159.859375 106.773438 159.859375 C 106.773438 159.859375 115.011719 170.597656 128.910156 180.664062 C 130.242188 181.664062 131.574219 182.496094 132.90625 183.246094 C 132.324219 192.316406 136.316406 200.972656 154.375 203.550781 C 157.457031 203.96875 160.535156 203.96875 163.699219 203.636719 C 163.699219 203.46875 163.613281 203.386719 163.613281 203.300781 Z M 163.613281 203.300781 "/>
</g>
</svg>
