<svg id="svg" version="1.1" xmlns="http://www.w3.org/2000/svg" xmlns:xlink="http://www.w3.org/1999/xlink" width="400" height="400" viewBox="0, 0, 400,400"><g id="svgg"><path id="path0" d="M103.174 67.987 C 87.761 70.587,80.380 76.962,76.598 90.942 C 74.856 97.382,74.827 100.034,74.813 253.500 L 74.800 400.000 119.381 400.000 L 163.963 400.000 163.989 360.271 C 164.003 338.420,164.172 319.995,164.364 319.327 C 165.717 314.607,167.591 314.726,174.844 319.994 C 196.529 335.744,234.144 338.332,262.250 326.007 C 298.711 310.018,330.684 271.567,340.206 232.255 C 352.570 181.211,335.442 132.080,292.200 94.549 C 255.217 62.451,203.782 58.501,172.004 85.318 C 165.099 91.145,164.151 90.971,159.564 83.042 C 155.796 76.528,149.137 71.816,140.600 69.622 C 131.724 67.340,112.093 66.483,103.174 67.987 M214.875 156.806 C 248.307 159.976,266.152 198.532,246.770 225.721 C 226.297 254.441,184.483 251.267,170.243 219.912 C 157.878 192.686,175.850 159.600,204.511 156.827 C 209.324 156.362,210.170 156.360,214.875 156.806 " stroke="none" fill="#fbfbfb" fill-rule="evenodd"></path><path id="path1" d="M0.000 200.000 L 0.000 400.000 37.400 400.000 L 74.800 400.000 74.813 253.500 C 74.827 100.034,74.856 97.382,76.598 90.942 C 81.233 73.812,92.149 67.200,115.801 67.200 C 140.161 67.200,153.112 71.888,159.564 83.042 C 164.151 90.971,165.099 91.145,172.004 85.318 C 186.595 73.005,202.121 67.942,225.400 67.908 C 258.949 67.859,291.597 86.902,317.793 121.800 C 355.184 171.612,352.357 240.417,310.957 288.218 C 284.774 318.448,257.575 333.055,226.618 333.511 C 204.577 333.835,187.910 329.484,174.844 319.994 C 167.595 314.729,165.717 314.608,164.367 319.316 C 164.103 320.235,163.880 366.159,163.989 396.900 L 164.000 400.000 282.000 400.000 L 400.000 400.000 400.000 200.000 L 400.000 0.000 200.000 0.000 L 0.000 0.000 0.000 200.000 M204.511 156.827 C 175.850 159.600,157.878 192.686,170.243 219.912 C 184.483 251.267,226.297 254.441,246.770 225.721 C 261.135 205.571,255.748 177.928,234.697 163.764 C 226.224 158.063,216.007 155.715,204.511 156.827 " stroke="none" fill="#2c4454" fill-rule="evenodd"></path></g></svg>