<?xml version="1.0" encoding="UTF-8"?>
<svg xmlns="http://www.w3.org/2000/svg" xmlns:xlink="http://www.w3.org/1999/xlink" width="545pt" height="250pt" viewBox="0 0 545 250" version="1.1">
<defs>
<clipPath id="clip1">
  <path d="M 0 0 L 544.996094 0 L 544.996094 250 L 0 250 Z M 0 0 "/>
</clipPath>
</defs>
<g id="surface1">
<g clip-path="url(#clip1)" clip-rule="nonzero">
<path style=" stroke:none;fill-rule:nonzero;fill:rgb(0%,50.980392%,78.823529%);fill-opacity:1;" d="M 272.914062 0.84375 C 216.421875 0.84375 168.539062 39.171875 153.699219 91.101562 C 140.804688 63.558594 112.855469 44.261719 80.664062 44.261719 C 36.390625 44.261719 -0.00390625 80.683594 -0.00390625 124.992188 C -0.00390625 169.300781 36.390625 205.742188 80.664062 205.742188 C 112.855469 205.742188 140.804688 186.433594 153.699219 158.882812 C 168.539062 210.816406 216.421875 249.160156 272.914062 249.160156 C 328.984375 249.160156 376.621094 211.394531 391.839844 160.046875 C 404.976562 186.96875 432.582031 205.742188 464.316406 205.742188 C 508.585938 205.742188 544.996094 169.300781 544.996094 124.992188 C 544.996094 80.683594 508.585938 44.261719 464.316406 44.261719 C 432.582031 44.261719 404.976562 63.019531 391.839844 89.9375 C 376.621094 38.59375 328.984375 0.84375 272.914062 0.84375 Z M 272.914062 48.234375 C 315.558594 48.234375 349.621094 82.3125 349.621094 124.992188 C 349.621094 167.671875 315.558594 201.765625 272.914062 201.765625 C 230.269531 201.765625 196.21875 167.671875 196.21875 124.992188 C 196.21875 82.3125 230.269531 48.234375 272.914062 48.234375 Z M 80.664062 91.652344 C 99.34375 91.652344 113.992188 106.292969 113.992188 124.992188 C 113.992188 143.691406 99.34375 158.351562 80.664062 158.351562 C 61.980469 158.351562 47.347656 143.691406 47.347656 124.992188 C 47.347656 106.292969 61.980469 91.652344 80.664062 91.652344 Z M 464.316406 91.652344 C 483 91.652344 497.644531 106.292969 497.644531 124.992188 C 497.644531 143.691406 483 158.351562 464.316406 158.351562 C 445.632812 158.351562 431.003906 143.691406 431.003906 124.992188 C 431.003906 106.292969 445.632812 91.652344 464.316406 91.652344 Z M 464.316406 91.652344 "/>
</g>
</g>
</svg>
