<svg xmlns="http://www.w3.org/2000/svg" viewBox="0 0 215.8 259"><defs><style>.cls-1{fill:#175ddc;}</style></defs><g id="Layer_2" data-name="Layer 2"><g id="Layer_1-2" data-name="Layer 1"><path class="cls-1" d="M212.6,3.2A10.51,10.51,0,0,0,205,0H10.8A10.51,10.51,0,0,0,3.2,3.2,10.51,10.51,0,0,0,0,10.8V140.3A78.34,78.34,0,0,0,5.6,169a108,108,0,0,0,14,25.3,158,158,0,0,0,19.9,21.5,228.52,228.52,0,0,0,21.3,17.4c6.5,4.6,13.3,9,20.4,13.1s12.1,6.9,15.1,8.3,5.4,2.6,7.2,3.4a9.2,9.2,0,0,0,4.4,1,9.47,9.47,0,0,0,4.4-1c1.8-.8,4.2-1.9,7.2-3.4s8-4.2,15.1-8.3,13.9-8.5,20.4-13.1a228.52,228.52,0,0,0,21.3-17.4,158,158,0,0,0,19.9-21.5,108,108,0,0,0,14-25.3,76.71,76.71,0,0,0,5.6-28.7V10.8A10.68,10.68,0,0,0,212.6,3.2Zm-25,138.3c0,46.9-79.6,87.2-79.6,87.2V27.7h79.6Z"/></g></g></svg>