<?xml version="1.0" encoding="UTF-8"?>
<svg xmlns="http://www.w3.org/2000/svg" xmlns:xlink="http://www.w3.org/1999/xlink" width="250pt" height="250pt" viewBox="0 0 250 250" version="1.1">
<g id="surface1">
<path style=" stroke:none;fill-rule:nonzero;fill:rgb(47.843137%,75.686275%,26.27451%);fill-opacity:1;" d="M 44.667969 125.835938 L 40.003906 121.167969 C 25.003906 106.167969 20.667969 85.167969 26.003906 66.167969 C 11.003906 62.835938 0.00390625 49.5 0.00390625 33.5 C 0.00390625 15.167969 15.003906 0.167969 33.335938 0.167969 C 50.003906 0.167969 63.667969 12.167969 66.335938 28.167969 C 84.335938 23.835938 104.003906 28.835938 118.003906 42.835938 L 120.003906 44.835938 L 95.335938 69.5 L 93.335938 67.5 C 85.335938 59.5 72.335938 59.5 64.335938 67.5 C 56.335938 75.5 56.335938 88.5 64.335938 96.5 L 119.667969 151.835938 L 95.003906 176.5 L 69.003906 150.5 Z M 44.667969 125.835938 "/>
<path style=" stroke:none;fill-rule:nonzero;fill:rgb(97.647059%,64.705882%,25.490196%);fill-opacity:1;" d="M 72.339844 98.5 L 127.675781 43.167969 C 142.339844 28.5 163.675781 23.832031 182.339844 29.167969 C 184.675781 12.832031 198.675781 0.5 215.339844 0.5 C 233.675781 0.5 248.675781 15.5 248.675781 33.832031 C 248.675781 50.832031 236.007812 64.832031 219.675781 66.832031 C 225.007812 85.5 220.339844 106.5 205.675781 121.167969 L 203.675781 123.167969 L 179.675781 98.5 L 181.675781 96.5 C 189.675781 88.5 189.675781 75.5 181.675781 67.5 C 173.675781 59.5 160.675781 59.5 152.675781 67.5 L 97.339844 122.832031 Z M 72.339844 98.5 "/>
<path style=" stroke:none;fill-rule:nonzero;fill:rgb(95.686275%,26.27451%,12.941176%);fill-opacity:1;" d="M 183.335938 222.832031 C 164.335938 228.496094 143 224.164062 128 209.164062 L 126 207.164062 L 150.667969 182.496094 L 152.667969 184.496094 C 160.667969 192.496094 173.667969 192.496094 181.667969 184.496094 C 189.667969 176.496094 189.667969 163.496094 181.667969 155.496094 L 126.335938 100.164062 L 151 75.496094 L 206.667969 131.164062 C 220.667969 145.164062 225.667969 165.164062 221.335938 183.496094 C 237.667969 185.832031 250 199.832031 250 216.496094 C 250 234.832031 235 249.832031 216.667969 249.832031 C 200 249.496094 186.335938 237.832031 183.335938 222.832031 Z M 183.335938 222.832031 "/>
<path style=" stroke:none;fill-rule:nonzero;fill:rgb(31.372549%,56.862745%,80.392157%);fill-opacity:1;" d="M 173.667969 153.507812 L 118.335938 208.84375 C 104.003906 223.175781 84.003906 227.84375 66.003906 223.507812 C 62.667969 238.507812 49.335938 249.507812 33.335938 249.507812 C 15.003906 249.507812 0.00390625 234.507812 0.00390625 216.175781 C 0.00390625 200.507812 11.003906 187.175781 25.667969 183.84375 C 21.003906 165.175781 25.667969 145.175781 40.003906 130.84375 L 42.003906 128.84375 L 66.667969 153.507812 L 64.667969 155.507812 C 56.667969 163.507812 56.667969 176.507812 64.667969 184.507812 C 72.667969 192.507812 85.667969 192.507812 93.667969 184.507812 L 149.003906 129.175781 Z M 173.667969 153.507812 "/>
</g>
</svg>
