<svg xmlns="http://www.w3.org/2000/svg" width="55.7918" height="43.2139" viewBox="0 0 55.7918 43.2139"><defs><style>.cls-1{fill:#0089d6;}</style></defs><g id="Layer_2" data-name="Layer 2"><g id="svg8"><g id="layer1"><g id="layer1-1"><path id="path21" class="cls-1" d="M25.8107,40.9062c7.1679-1.2663,13.0882-2.3141,13.1562-2.3285l.1237-.0262L32.3233,30.502c-3.722-4.4271-6.7672-8.0666-6.7672-8.0875,0-.04,6.9877-19.2825,7.027-19.351.0131-.0229,4.7685,8.1872,11.5274,19.9017,6.3277,10.9673,11.5446,20.01,11.5931,20.0947l.0882.154-21.5069-.0027L12.778,43.2084ZM0,38.4515c0-.0114,3.1887-5.5467,7.086-12.3008l7.086-12.28,8.2579-6.93C26.9717,3.129,30.7.0059,30.715,0a1.4548,1.4548,0,0,1-.1328.3341c-.088.19-4.1231,8.8444-8.9669,19.2331L12.8083,38.456l-6.4042.008C2.8819,38.4684,0,38.4628,0,38.4515Z"/></g></g></g></g></svg>