<?xml version="1.0" encoding="UTF-8"?>
<svg xmlns="http://www.w3.org/2000/svg" viewBox="0 0 1287.61 1071.64">
  <defs>
    <style>.cls-1{fill:#1ba27a;}.cls-2{fill:#fff;}.cls-3{fill:#ff060a;}</style>
  </defs>
  <g id="Layer_2" data-name="Layer 2">
    <g id="Layer_1-2" data-name="Layer 1">
      <path class="cls-1" d="M1071.65,535.82c0,295.94-239.89,535.82-535.83,535.82S0,831.76,0,535.82,239.9,0,535.82,0,1071.65,239.89,1071.65,535.82Z"></path>
      <path class="cls-2" d="M787.3,270.19H279.93V392.68H472.37v180H594.86v-180H787.3Z"></path>
      <path class="cls-2" d="M534.78,591.89c-159.2,0-288.26-25.19-288.26-56.27s129.06-56.28,288.26-56.28S823,504.54,823,535.62,694,591.89,534.78,591.89ZM858.44,545c0-40.08-144.91-72.57-323.66-72.57S211.11,504.92,211.11,545c0,35.29,112.37,64.7,261.26,71.21V874.66H594.85V616.32C744.9,610,858.44,580.48,858.44,545Z"></path>
      <ellipse class="cls-3" cx="982.61" cy="554.01" rx="305" ry="305.5"></ellipse>
      <path class="cls-2" d="M1185.94,498.51c-19.06-17.63-45.43-44.55-66.91-63.64l-1.27-.89a24.24,24.24,0,0,0-7-4h0c-51.79-9.67-292.8-54.8-297.51-54.23a9,9,0,0,0-3.68,1.41l-1.21,1a14.26,14.26,0,0,0-3.3,5.35l-.32.82v5.22C831.82,465.23,939,713.13,960.05,771.3c1.27,4,3.68,11.46,8.2,11.84h1c2.42,0,12.71-13.62,12.71-13.62S1166,546,1184.61,522.19a59.79,59.79,0,0,0,6.35-9.42,15.33,15.33,0,0,0-5-14.26Zm-156.75,26,78.53-65.23,46.07,42.51Zm-30.5-4.26-135.22-111,218.77,40.42Zm12.2,29.09L1149.28,527,991.06,718Zm-165.79-129L987.38,541.28l-20.6,176.81Z"></path>
    </g>
  </g>
</svg>
