<svg xmlns="http://www.w3.org/2000/svg" viewBox="0 0 321.66 275.35"><defs><style>.cls-1{fill:#303030;}.cls-2{fill:#903332;}.cls-3{fill:#d13534;}.cls-4{fill:#a33433;}.cls-5{fill:#f43735;}.cls-6{fill:#983433;}.cls-7{fill:#913332;}.cls-8{fill:#873332;}.cls-9{fill:#8f3433;}.cls-10{fill:#a93433;}.cls-11{fill:#823332;}.cls-12{fill:#803332;}.cls-13{fill:#a23433;}.cls-14{fill:#7b3332;}.cls-15{fill:#a43433;}.cls-16{fill:#9a3433;}.cls-17{fill:#813332;}.cls-18{fill:#923433;}.cls-19{fill:#8c3433;}.cls-20{fill:#893332;}.cls-21{fill:#833332;}.cls-22{fill:#a63433;}.cls-23{fill:#7c3332;}.cls-24{fill:#9f3433;}.cls-25{fill:#973433;}.cls-26{fill:#903433;}.cls-27{fill:#9e3433;}.cls-28{fill:#883433;}.cls-29{fill:#803232;}.cls-30{fill:#9b3433;}.cls-31{fill:#933433;}.cls-32{fill:#a83433;}.cls-33{fill:#6c3332;}.cls-34{fill:#8a3332;}.cls-35{fill:#a73433;}.cls-36{fill:#9c3433;}.cls-37{fill:#7d3332;}.cls-38{fill:#a03433;}.cls-39{fill:#8e3332;}.cls-40{fill:#853332;}.cls-41{fill:#953332;}.cls-42{fill:#7c3232;}.cls-43{fill:#883332;}.cls-44{fill:#a53433;}.cls-45{fill:#793232;}.cls-46{fill:#8d3332;}.cls-47{fill:#943332;}.cls-48{fill:#a83533;}.cls-49{fill:#943433;}.cls-50{fill:#993432;}.cls-51{fill:#8c3332;}.cls-52{fill:#983332;}.cls-53{fill:#a13433;}.cls-54{fill:#963433;}.cls-55{fill:#5c3131;}.cls-56{fill:#ab3533;}.cls-57{fill:#a43533;}.cls-58{fill:#5f5f5f;}.cls-59{fill:#7a7a7a;}.cls-60{fill:#cdcdcd;}.cls-61{fill:#f9f9f9;}.cls-62{fill:#afafaf;}.cls-63{fill:#848484;}.cls-64{fill:#919191;}.cls-65{fill:#9c9c9c;}.cls-66{fill:#606060;}.cls-67{fill:#bebebe;}.cls-68{fill:#c7c7c7;}.cls-69{fill:#6a6a6a;}.cls-70{fill:#a2a2a2;}.cls-71{fill:#ababab;}.cls-72{fill:#5e5e5e;}.cls-73{fill:#757575;}.cls-74{fill:#818181;}.cls-75{fill:#868686;}.cls-76{fill:#989898;}.cls-77{fill:#8e8e8e;}.cls-78{fill:#9d9d9d;}.cls-79{fill:#7e7e7e;}.cls-80{fill:#646464;}.cls-81{fill:#6f6f6f;}.cls-82{fill:#7f3332;}.cls-83{fill:#c1c1c1;}.cls-84{fill:#cbcbcb;}.cls-85{fill:#b13433;}.cls-86{fill:#858585;}.cls-87{fill:#773332;}.cls-88{fill:#573231;}.cls-89{fill:gray;}.cls-90{fill:#8b8b8b;}.cls-91{fill:#cacaca;}.cls-92{fill:#8a8a8a;}.cls-93{fill:#969696;}.cls-94{fill:#b53433;}.cls-95{fill:#bdbdbd;}.cls-96{fill:#753232;}.cls-97{fill:#6d6d6d;}.cls-98{fill:#7d7d7d;}.cls-99{fill:#ad3433;}.cls-100{fill:#9e9e9e;}.cls-101{fill:silver;}.cls-102{fill:#783232;}.cls-103{fill:#b6b6b6;}.cls-104{fill:#863332;}.cls-105{fill:#9d3433;}.cls-106{fill:#353535;}.cls-107{fill:#383838;}.cls-108{fill:#843332;}.cls-109{fill:#b73534;}.cls-110{fill:#c73534;}.cls-111{fill:#5c5c5c;}.cls-112{fill:#b7b7b7;}.cls-113{fill:#c4c4c4;}.cls-114{fill:#7a3332;}.cls-115{fill:#faeac4;}.cls-116{fill:#faefc9;}.cls-117{fill:#f9dcb5;}.cls-118{fill:#f87f42;}.cls-119{fill:#f86930;}.cls-120{fill:#fab875;}.cls-121{fill:#fdd754;}.cls-122{fill:#ffc601;}.cls-123{fill:#fce287;}.cls-124{fill:#fad8b2;}.cls-125{fill:#f9a45b;}.cls-126{fill:#fcdc6c;}.cls-127{fill:#fcdb69;}.cls-128{fill:#7e3332;}.cls-129{fill:#f9be8b;}.cls-130{fill:#f9823a;}.cls-131{fill:#fadca9;}.cls-132{fill:#fbeaaf;}.cls-133{fill:#fbe9aa;}.cls-134{fill:#facba2;}.cls-135{fill:#f98238;}.cls-136{fill:#f88046;}.cls-137{fill:#faac5d;}.cls-138{fill:#fdda61;}.cls-139{fill:#f9cda7;}.cls-140{fill:#f8ac77;}.cls-141{fill:#fad8a2;}.cls-142{fill:#fbe8a7;}.cls-143{fill:#fbe69e;}.cls-144{fill:#f8985f;}.cls-145{fill:#facc8b;}.cls-146{fill:#fce491;}.cls-147{fill:#fce185;}.cls-148{fill:#f8955d;}.cls-149{fill:#facc8a;}.cls-150{fill:#fce48f;}.cls-151{fill:#fce182;}.cls-152{fill:#f9a36e;}.cls-153{fill:#fad79f;}.cls-154{fill:#fbe7a3;}.cls-155{fill:#fbe496;}.cls-156{fill:#f9c197;}.cls-157{fill:#fbab57;}.cls-158{fill:#fdd95b;}.cls-159{fill:#fdd64e;}.cls-160{fill:#f8ad7c;}.cls-161{fill:#fbe8a8;}.cls-162{fill:#f89662;}.cls-163{fill:#fbe59a;}.cls-164{fill:#fce38e;}.cls-165{fill:#f8a97a;}.cls-166{fill:#fbe8a5;}.cls-167{fill:#f76f41;}.cls-168{fill:#fdd95d;}.cls-169{fill:#fa821a;}.cls-170{fill:#e7e7e7;}.cls-171{fill:#f89766;}.cls-172{fill:#fbe391;}.cls-173{fill:#b0b0b0;}.cls-174{fill:#d7d7d7;}.cls-175{fill:#fad9c2;}.cls-176{fill:#f9761e;}.cls-177{fill:#fce181;}.cls-178{fill:#f88957;}.cls-179{fill:#f9c5a3;}.cls-180{fill:#f88754;}.cls-181{fill:#fcdf7c;}.cls-182{fill:#fddc69;}.cls-183{fill:#f9d3b7;}.cls-184{fill:#fbc173;}.cls-185{fill:#fcde78;}.cls-186{fill:#fcdb6b;}.cls-187{fill:#8b3333;}.cls-188{fill:#f9b588;}.cls-189{fill:#fbeab1;}.cls-190{fill:#f8804c;}.cls-191{fill:#fbc176;}.cls-192{fill:#fcdd71;}.cls-193{fill:#faa04a;}.cls-194{fill:#fdd54d;}.cls-195{fill:#f98b3a;}.cls-196{fill:#f98939;}.cls-197{fill:#787878;}.cls-198{fill:#b2b2b2;}.cls-199{fill:#fa9643;}.cls-200{fill:#979797;}.cls-201{fill:#a1a1a1;}.cls-202{fill:#f88049;}.cls-203{fill:#fab365;}.cls-204{fill:#fcdc6e;}.cls-205{fill:#fddb67;}.cls-206{fill:#bfbfbf;}.cls-207{fill:#f9b27e;}.cls-208{fill:#fad8a4;}.cls-209{fill:#fbe9ab;}.cls-210{fill:#fbe8a4;}.cls-211{fill:#faa053;}.cls-212{fill:#fdd95e;}.cls-213{fill:#fdd859;}.cls-214{fill:#939393;}.cls-215{fill:#f9cfa9;}.cls-216{fill:#f98c42;}.cls-217{fill:#6e6e6e;}.cls-218{fill:#f9d5b0;}.cls-219{fill:#fa9c55;}.cls-220{fill:#fddb64;}.cls-221{fill:#a0a0a0;}.cls-222{fill:#f9bf8c;}.cls-223{fill:#f99851;}.cls-224{fill:#fad59f;}.cls-225{fill:#acacac;}.cls-226{fill:#f9b479;}.cls-227{fill:#f98e4d;}.cls-228{fill:#fadeb0;}.cls-229{fill:#fdda62;}.cls-230{fill:#fbe495;}.cls-231{fill:#717171;}.cls-232{fill:#727272;}.cls-233{fill:#adadad;}.cls-234{fill:#bbb;}.cls-235{fill:#c5c5c5;}.cls-236{fill:#7b7b7b;}.cls-237{fill:#a6a6a6;}.cls-238{fill:#cecece;}.cls-239{fill:#999;}.cls-240{fill:#ccc;}.cls-241{fill:#a4a4a4;}.cls-242{fill:#767676;}.cls-243{fill:#a9a9a9;}.cls-244{fill:#b8b8b8;}.cls-245{fill:#bcbcbc;}.cls-246{fill:#9f9f9f;}.cls-247{fill:#626262;}.cls-248{fill:#666;}.cls-249{fill:#797979;}.cls-250{fill:#b4b4b4;}</style></defs><g id="Layer_2" data-name="Layer 2"><g id="Layer_1-2" data-name="Layer 1"><path class="cls-1" d="M177.35.92c-15.13,3.23-29.89,16-43,23.88-30.45,18.27-60.64,37-91,55.4C28.68,89.11,8.23,97,2.05,114.4c-6.49,18.25,3.64,32.5,13.3,47,16.19,24.28,32.15,48.72,48.34,73,7.37,11.06,14.18,27.39,25.66,34.54,15.71,9.76,39.17,5.46,57,5.46h131c5.52,0,11.59.7,17-.52,32.14-7.27,27-44.69,27-69.48v-55c0-9.48.11-19.31-4.27-28C311.84,111,301,103.35,289.35,102.49c-6.38-.46-17.59,2.37-22.61-2.4-6.14-5.85-9.66-16.42-14-23.69C243,60,232.79,43.79,223,27.4,212.6,10.15,199.38-3.78,177.35.92Z"/><path class="cls-2" d="M181,5.74c-.44.44.61.39.67.33C182.13,5.63,181.08,5.68,181,5.74Z"/><path class="cls-3" d="M182.35,5.4a14.51,14.51,0,0,0,6,1A14.78,14.78,0,0,0,182.35,5.4Z"/><path class="cls-4" d="M188.35,5.4a7,7,0,0,0,3,1A7.21,7.21,0,0,0,188.35,5.4Z"/><path class="cls-5" d="M73.35,238.4c3.11-7.4,1-19,1-27v-56c0-9.91-1.37-20.64,2.46-30,8.49-20.79,28-23,47.54-23h118c-1.28-4-3.58-7.4-5.8-11s-5.06-7.1-6.6-11c-.53-1.31-1.26-4.88,1.38-4.37,3.78.71,6.84,8.41,8.63,11.36,2.56,4.25,5.79,12.38,10.58,14.4,2.86,1.21,6.77.6,9.81.6-12.25-23.3-26.66-45.43-40.2-68C214,24.21,208.41,11.65,196.35,7.51c-18-6.17-33.59,7.25-48,15.89-34.78,20.88-69.21,42.33-104,63.2C30,95.2,9.39,103.16,6,121.4c-2.83,15.16,8.58,28.29,16.38,40C39.28,186.8,58.51,211.75,73.35,238.4Z"/><path class="cls-6" d="M174.35,7.4l1,1Z"/><path class="cls-7" d="M170.35,9.4l1,1Z"/><path class="cls-8" d="M202.35,10.4l1,1Z"/><path class="cls-9" d="M165.35,12.4l1,1Z"/><path class="cls-8" d="M160.35,15.4l1,1Z"/><path class="cls-10" d="M157.35,17.4l1,1Z"/><path class="cls-11" d="M209.35,17.4l1,1Z"/><path class="cls-12" d="M155.35,18.4l1,1Z"/><path class="cls-13" d="M152.35,20.4l1,1Z"/><path class="cls-14" d="M211.35,20.4l1,1Z"/><path class="cls-15" d="M212.35,22.4l1,1Z"/><path class="cls-16" d="M147.35,23.4l1,1Z"/><path class="cls-17" d="M214.35,25.4l1,1Z"/><path class="cls-18" d="M142.35,26.4l1,1Z"/><path class="cls-19" d="M137.35,29.4l1,1Z"/><path class="cls-20" d="M217.35,30.4l1,1Z"/><path class="cls-21" d="M132.35,32.4l1,1Z"/><path class="cls-22" d="M129.35,34.4l1,1Z"/><path class="cls-23" d="M127.35,35.4l1,1Z"/><path class="cls-2" d="M220.35,35.4l1,1Z"/><path class="cls-24" d="M124.35,37.4l1,1Z"/><path class="cls-25" d="M119.35,40.4l1,1-1-1m104,0,1,1Z"/><path class="cls-26" d="M114.35,43.4l1,1Z"/><path class="cls-27" d="M226.35,45.4l1,1Z"/><path class="cls-28" d="M109.35,46.4l1,1Z"/><path class="cls-23" d="M228.35,48.4l1,1Z"/><path class="cls-29" d="M104.35,49.4l1,1Z"/><path class="cls-15" d="M229.35,50.4l1,1Z"/><path class="cls-4" d="M101.35,51.4l1,1Z"/><path class="cls-11" d="M231.35,53.4l1,1Z"/><path class="cls-30" d="M96.35,54.4l1,1Z"/><path class="cls-31" d="M91.35,57.4l1,1Z"/><path class="cls-17" d="M107,58.74c-.44.44.61.39.67.33C108.13,58.63,107.08,58.68,107,58.74Z"/><path class="cls-20" d="M234.35,58.4l1,1Z"/><path class="cls-32" d="M104.35,59.4l1,1Z"/><path class="cls-1" d="M109.35,59.4a14.79,14.79,0,0,0-5,1.14c-1.54.74-7.44,4.63-4.31,6.74C104.46,70.29,108.85,62.63,109.35,59.4Z"/><path class="cls-19" d="M86.35,60.4l1,1Z"/><path class="cls-33" d="M109.69,61.07c-.06.06-.11,1.11.33.67C110.08,61.68,110.13,60.63,109.69,61.07Z"/><path class="cls-34" d="M100.35,62.4l1,1Z"/><path class="cls-21" d="M81.35,63.4l1,1Z"/><path class="cls-2" d="M237.35,63.4l1,1Z"/><path class="cls-35" d="M78.35,65.4l1,1Z"/><path class="cls-36" d="M105.35,65.4l1,1Z"/><path class="cls-37" d="M76.35,66.4l1,1Z"/><path class="cls-17" d="M102.35,67.4l1,1Z"/><path class="cls-38" d="M73.35,68.4l1,1Z"/><path class="cls-25" d="M240.35,68.4l1,1Z"/><path class="cls-6" d="M68.35,71.4l1,1Z"/><path class="cls-1" d="M29.35,151.4c-1.44-10.83-13.94-19.21-7.44-31a19.41,19.41,0,0,1,3.63-4.68c5.05-4.82,11.87-8.15,17.81-11.73,10.37-6.22,20.77-12.47,31-18.91,3.09-2,14.9-6.8,14.08-11.39-.52-2.93-4.69-.77-6.08,0-5.51,2.89-10.66,6.55-16,9.75C55,90.24,43.57,97,32.35,104.09c-5.78,3.64-12.12,7-15.42,13.31C11.76,127.27,17.19,149.49,29.35,151.4Z"/><path class="cls-39" d="M88.35,71.4l1,1Z"/><path class="cls-40" d="M83.35,72.4l1,1Z"/><path class="cls-41" d="M89.35,72.4v3C90.05,73.85,90.05,74,89.35,72.4Z"/><path class="cls-24" d="M243.35,73.4l1,1Z"/><path class="cls-2" d="M63.35,74.4l1,1Z"/><path class="cls-42" d="M229.35,74.4a7,7,0,0,0,3,1A7.21,7.21,0,0,0,229.35,74.4Z"/><path class="cls-2" d="M78.35,75.4l1,1Z"/><path class="cls-11" d="M88.35,75.4l1,1Z"/><path class="cls-23" d="M245.35,76.4l1,1Z"/><path class="cls-43" d="M58.35,77.4l1,1Z"/><path class="cls-25" d="M85.35,77.4l1,1Z"/><path class="cls-16" d="M73.35,78.4l1,1Z"/><path class="cls-28" d="M234.35,78.4l1,1Z"/><path class="cls-44" d="M246.35,78.4l1,1Z"/><path class="cls-12" d="M53.35,80.4l1,1Z"/><path class="cls-45" d="M70.35,80.4l1,1Z"/><path class="cls-46" d="M80.35,80.4l1,1Z"/><path class="cls-47" d="M229.35,80.4l1,1Z"/><path class="cls-15" d="M68.35,81.4l1,1-1-1m168,0,1,1Z"/><path class="cls-11" d="M248.35,81.4l1,1Z"/><path class="cls-15" d="M50.35,82.4l1,1Z"/><path class="cls-45" d="M48.35,83.4l1,1Z"/><path class="cls-21" d="M65.35,83.4l1,1Z"/><path class="cls-11" d="M75.35,83.4l1,1Z"/><path class="cls-45" d="M231.35,83.4l1,1Z"/><path class="cls-36" d="M45.35,85.4l1,1Z"/><path class="cls-15" d="M72.35,85.4l1,1Z"/><path class="cls-48" d="M232.35,85.4l1,1Z"/><path class="cls-39" d="M60.35,86.4l1,1Z"/><path class="cls-2" d="M239.35,86.4l1,1Z"/><path class="cls-49" d="M40.35,88.4l1,1Z"/><path class="cls-50" d="M67.35,88.4l1,1Z"/><path class="cls-51" d="M234.35,88.4l1,1Z"/><path class="cls-34" d="M252.35,88.4l1,1Z"/><path class="cls-52" d="M55.35,89.4l1,1Z"/><path class="cls-53" d="M253.35,90.4l1,1Z"/><path class="cls-51" d="M35.35,91.4l1,1Z"/><path class="cls-9" d="M62.35,91.4l1,1Z"/><path class="cls-37" d="M242.35,91.4l1,1Z"/><path class="cls-4" d="M50.35,92.4l1,1Z"/><path class="cls-38" d="M237.35,93.4l1,1Z"/><path class="cls-40" d="M30.35,94.4l1,1Z"/><path class="cls-17" d="M47.35,94.4l1,1Z"/><path class="cls-21" d="M57.35,94.4l1,1Z"/><path class="cls-52" d="M244.35,94.4l1,1Z"/><path class="cls-48" d="M27.35,96.4l1,1Z"/><path class="cls-15" d="M54.35,96.4l1,1Z"/><path class="cls-21" d="M239.35,96.4l1,1Z"/><path class="cls-37" d="M25.35,97.4l1,1Z"/><path class="cls-51" d="M42.35,97.4l1,1Z"/><path class="cls-45" d="M52.35,97.4l1,1Z"/><path class="cls-26" d="M257.35,97.4l1,1Z"/><path class="cls-53" d="M22.35,99.4l1,1Z"/><path class="cls-16" d="M49.35,99.4l1,1Z"/><path class="cls-40" d="M247.35,99.4l1,1Z"/><path class="cls-22" d="M258.35,99.4l1,1Z"/><path class="cls-54" d="M37.35,100.4l1,1Z"/><path class="cls-40" d="M242.35,101.4c-5.43,1.61-11.36,1-17,1h-121c2.82,1.63,6.7,1,10,1h121C237.42,103.4,243.56,104.32,242.35,101.4Z"/><path class="cls-12" d="M17.35,102.4l1,1Z"/><path class="cls-2" d="M44.35,102.4l1,1Z"/><path class="cls-40" d="M249.35,102.4c3.44,1.44,7.3,1,11,1C256.92,102,253.05,102.4,249.35,102.4Z"/><path class="cls-53" d="M32.35,103.4l1,1Z"/><path class="cls-55" d="M101,103.74c-.44.44.61.39.67.33C102.13,103.63,101.08,103.68,101,103.74Z"/><path class="cls-12" d="M29.35,105.4l1,1Z"/><path class="cls-40" d="M39.35,105.4l1,1Z"/><path class="cls-35" d="M94.35,105.4l1,1Z"/><path class="cls-56" d="M27.35,106.4l1,1Z"/><path class="cls-57" d="M92.35,106.4l1,1Z"/><path class="cls-22" d="M36.35,107.4l1,1Z"/><path class="cls-58" d="M106.35,107.4c4.22,1.77,9.47,1,14,1h127c-4.21-1.76-9.46-1-14-1h-127m143,0c4.22,1.77,9.46,1,14,1-4.21-1.76-9.46-1-14-1m17,0c6.21,2.61,15.3,1,22,1C282.15,105.8,273.06,107.4,266.35,107.4Z"/><path class="cls-34" d="M24.35,108.4l1,1Z"/><path class="cls-14" d="M34.35,108.4l1,1Z"/><path class="cls-21" d="M89.35,108.4l1,1Z"/><path class="cls-59" d="M101.35,108.4l1,1Z"/><path class="cls-60" d="M103,108.74c-.44.44.61.39.67.33C104.13,108.63,103.08,108.68,103,108.74Z"/><path class="cls-61" d="M80.35,139.4h234c0-15.08-7.87-28.31-24-30.69-8.71-1.29-18.19-.31-27-.31h-122c-11.52,0-23.53-1-35,.18C89.45,110.27,80.37,123.3,80.35,139.4Z"/><path class="cls-62" d="M291.35,108.4l1,1Z"/><path class="cls-63" d="M292.35,108.4l1,1Z"/><path class="cls-2" d="M10.35,109.4l1,1Z"/><path class="cls-64" d="M98.35,109.4l1,1Z"/><path class="cls-65" d="M295.35,109.4l1,1Z"/><path class="cls-36" d="M31.35,110.4l1,1Z"/><path class="cls-66" d="M95.35,110.4l1,1Z"/><path class="cls-67" d="M96.35,110.4l1,1Z"/><path class="cls-68" d="M297.35,110.4l1,1Z"/><path class="cls-69" d="M298.35,110.4l1,1Z"/><path class="cls-32" d="M85.35,111.4l1,1Z"/><path class="cls-68" d="M94.35,111.4l1,1Z"/><path class="cls-60" d="M299.35,111.4l1,1Z"/><path class="cls-58" d="M300.35,111.4l1,1Z"/><path class="cls-45" d="M8.35,112.4l1,1Z"/><path class="cls-50" d="M84.35,112.4l1,1Z"/><path class="cls-70" d="M92.35,112.4l1,1Z"/><path class="cls-71" d="M301.35,112.4l1,1Z"/><path class="cls-53" d="M83.35,113.4l1,1Z"/><path class="cls-72" d="M303.35,113.4l1,1Z"/><path class="cls-42" d="M7.35,114.4l1,1Z"/><path class="cls-44" d="M25.35,114.4l1,1Z"/><path class="cls-73" d="M89.35,114.4l1,1Z"/><path class="cls-74" d="M304.35,114.4l1,1Z"/><path class="cls-6" d="M17.35,115.4l1,1Z"/><path class="cls-56" d="M24.35,115.4l1,1Z"/><path class="cls-75" d="M88.35,115.4l1,1Z"/><path class="cls-76" d="M305.35,115.4l1,1Z"/><path class="cls-54" d="M23.35,116.4l1,1Z"/><path class="cls-77" d="M87.35,116.4l1,1Z"/><path class="cls-78" d="M306.35,116.4l1,1Z"/><path class="cls-79" d="M86.35,117.4l1,1Z"/><path class="cls-77" d="M307.35,117.4l1,1Z"/><path class="cls-56" d="M79.35,118.4l1,1Z"/><path class="cls-80" d="M85.35,118.4l1,1Z"/><path class="cls-81" d="M308.35,118.4l1,1Z"/><path class="cls-31" d="M21.35,119.4l1,1Z"/><path class="cls-41" d="M5.69,121.07c-.06.06-.11,1.11.33.67C6.08,121.68,6.13,120.63,5.69,121.07Z"/><path class="cls-82" d="M78.35,120.4l1,1Z"/><path class="cls-83" d="M84.35,120.4l1,1Z"/><path class="cls-84" d="M309.35,120.4l1,1Z"/><path class="cls-85" d="M20.69,122.07c-.06.06-.11,1.11.33.67C21.08,122.68,21.13,121.63,20.69,122.07Z"/><path class="cls-73" d="M83.35,121.4l1,1Z"/><path class="cls-86" d="M310.35,121.4l1,1Z"/><path class="cls-87" d="M14.35,122.4v7A8.1,8.1,0,0,0,14.35,122.4Z"/><path class="cls-23" d="M77.35,122.4l1,1Z"/><path class="cls-77" d="M82.35,123.4l1,1Z"/><path class="cls-65" d="M311.35,123.4l1,1Z"/><path class="cls-2" d="M76.35,124.4l1,1Z"/><path class="cls-88" d="M19.35,125.4v4A4,4,0,0,0,19.35,125.4Z"/><path class="cls-89" d="M81.35,125.4l1,1Z"/><path class="cls-90" d="M312.35,125.4l1,1Z"/><path class="cls-91" d="M81.35,126.4l1,1Z"/><path class="cls-92" d="M80.35,128.4l1,1Z"/><path class="cls-93" d="M313.35,128.4l1,1Z"/><path class="cls-15" d="M5.35,129.4v3C6.05,130.85,6.05,131,5.35,129.4Z"/><path class="cls-94" d="M14.69,130.07c-.06.06-.11,1.11.33.67C15.08,130.68,15.13,129.63,14.69,130.07Z"/><path class="cls-95" d="M80.35,129.4l1,1Z"/><path class="cls-31" d="M74.69,131.07c-.06.06-.11,1.11.33.67C75.08,131.68,75.13,130.63,74.69,131.07Z"/><path class="cls-96" d="M20.69,132.07c-.06.06-.11,1.11.33.67C21.08,132.68,21.13,131.63,20.69,132.07Z"/><path class="cls-97" d="M79.69,132.07c-.06.06-.11,1.11.33.67C80.08,132.68,80.13,131.63,79.69,132.07Z"/><path class="cls-98" d="M314.69,132.07c-.06.06-.11,1.11.33.67C315.08,132.68,315.13,131.63,314.69,132.07Z"/><path class="cls-99" d="M15.69,134.07c-.06.06-.11,1.11.33.67C16.08,134.68,16.13,133.63,15.69,134.07Z"/><path class="cls-100" d="M79.35,133.4v3C80.05,134.85,80.05,135,79.35,133.4Z"/><path class="cls-101" d="M314.35,133.4v6A6.67,6.67,0,0,0,314.35,133.4Z"/><path class="cls-102" d="M6.69,135.07c-.06.06-.11,1.11.33.67C7.08,135.68,7.13,134.63,6.69,135.07Z"/><path class="cls-103" d="M79.35,136.4v3C80.05,137.85,80.05,138,79.35,136.4Z"/><path class="cls-35" d="M7.35,137.4l1,1Z"/><path class="cls-104" d="M22.35,137.4l1,1Z"/><path class="cls-82" d="M23.35,139.4l1,1Z"/><path class="cls-105" d="M9.35,141.4l1,1Z"/><path class="cls-24" d="M25.35,142.4l1,1Z"/><path class="cls-23" d="M20.35,144.4l1,1Z"/><path class="cls-106" d="M79.35,144.4v29h236v-29Z"/><path class="cls-14" d="M27.35,145.4l1,1Z"/><path class="cls-107" d="M80.35,145.4v27h234v-27Z"/><path class="cls-105" d="M28.35,146.4l1,1Z"/><path class="cls-108" d="M22.35,147.4l1,1Z"/><path class="cls-109" d="M29.69,149.07c-.06.06-.11,1.11.33.67C30.08,149.68,30.13,148.63,29.69,149.07Z"/><path class="cls-110" d="M27,151.74c-.44.44.61.39.67.33C28.13,151.63,27.08,151.68,27,151.74Z"/><path class="cls-111" d="M79.35,177.4c6.2,2.6,15.32,1,22,1h214c-6.19-2.59-15.31-1-22-1h-214Z"/><path class="cls-112" d="M79.35,178.4v64c2-4.72,1-10.92,1-16v-31C80.35,190.05,81.44,183.37,79.35,178.4Z"/><path class="cls-61" d="M80.35,178.4v52c0,10.76-.61,21.2,7.47,29.56,12.09,12.51,32.74,8.44,48.53,8.44h121c15.73,0,37.54,4.31,49.54-8.3,8.12-8.53,7.46-18.79,7.46-29.7v-52Z"/><path class="cls-113" d="M314.35,178.4v63c1.88-4.46,1-10.19,1-15v-31C315.35,190.05,316.44,183.37,314.35,178.4Z"/><path class="cls-45" d="M34.35,179.4l1,1Z"/><path class="cls-114" d="M36.35,182.4l1,1Z"/><path class="cls-14" d="M38.35,185.4l1,1Z"/><path class="cls-42" d="M40.35,188.4l1,1Z"/><path class="cls-37" d="M42.35,191.4l1,1Z"/><path class="cls-115" d="M123.35,191.4a12.11,12.11,0,0,0,5,1A12.37,12.37,0,0,0,123.35,191.4Z"/><path class="cls-116" d="M175.35,191.4a12.11,12.11,0,0,0,5,1A12.41,12.41,0,0,0,175.35,191.4Z"/><path class="cls-117" d="M118.35,192.4l1,1Z"/><path class="cls-118" d="M120,192.74c-.44.44.61.39.67.33C121.13,192.63,120.08,192.68,120,192.74Z"/><path class="cls-5" d="M121.35,192.84C102.22,195.9,92,218.83,102,235.4c6.43,10.71,18.43,14.77,30.38,12.68,18.05-3.17,26.94-25,19-40.68C145.93,196.67,133.05,191,121.35,192.84Z"/><path class="cls-119" d="M129.35,192.4a7,7,0,0,0,3,1A7.21,7.21,0,0,0,129.35,192.4Z"/><path class="cls-120" d="M132.35,192.4l1,1Z"/><path class="cls-121" d="M172,192.74c-.44.44.61.39.67.33C173.13,192.63,172.08,192.68,172,192.74Z"/><path class="cls-122" d="M173.35,192.87c-7.82,1.41-19.38,7.57-20.37,16.53-.42,3.86,1.45,8,1.36,12-.11,4.41-2.43,8.75-.53,13C159,246,172.7,250,184.35,248.08c17-2.85,26.23-22.05,20.45-37.68C200.13,197.79,186.42,190.51,173.35,192.87Z"/><path class="cls-123" d="M184,192.74c-.44.44.61.39.67.33C185.13,192.63,184.08,192.68,184,192.74Z"/><path class="cls-124" d="M115.35,193.4l1,1Z"/><path class="cls-125" d="M135.35,193.4l1,1Z"/><path class="cls-126" d="M168.35,193.4l1,1Z"/><path class="cls-127" d="M187.35,193.4l1,1Z"/><path class="cls-128" d="M44.35,194.4l1,1Z"/><path class="cls-129" d="M113.35,194.4l1,1Z"/><path class="cls-130" d="M137.35,194.4l1,1Z"/><path class="cls-131" d="M138.35,194.4l1,1Z"/><path class="cls-132" d="M165.35,194.4l1,1Z"/><path class="cls-133" d="M190.35,194.4l1,1Z"/><path class="cls-134" d="M111.35,195.4l1,1Z"/><path class="cls-135" d="M139.35,195.4l1,1Z"/><path class="cls-136" d="M110.35,196.4l1,1Z"/><path class="cls-137" d="M141.35,196.4l1,1Z"/><path class="cls-127" d="M162.35,196.4l1,1Z"/><path class="cls-138" d="M193.35,196.4l1,1Z"/><path class="cls-82" d="M46.35,197.4l1,1Z"/><path class="cls-139" d="M108.35,197.4l1,1Z"/><path class="cls-140" d="M107.35,198.4l1,1Z"/><path class="cls-141" d="M144.35,198.4l1,1Z"/><path class="cls-142" d="M159.35,198.4l1,1Z"/><path class="cls-143" d="M196.35,198.4l1,1Z"/><path class="cls-144" d="M106.35,199.4l1,1Z"/><path class="cls-145" d="M145.35,199.4l1,1Z"/><path class="cls-146" d="M158.35,199.4l1,1Z"/><path class="cls-147" d="M197.35,199.4l1,1Z"/><path class="cls-12" d="M48.35,200.4l1,1Z"/><path class="cls-148" d="M105.35,200.4l1,1Z"/><path class="cls-149" d="M146.35,200.4l1,1Z"/><path class="cls-150" d="M157.35,200.4l1,1Z"/><path class="cls-151" d="M198.35,200.4l1,1Z"/><path class="cls-152" d="M104.35,201.4l1,1Z"/><path class="cls-153" d="M147.35,201.4l1,1Z"/><path class="cls-154" d="M156.35,201.4l1,1Z"/><path class="cls-155" d="M199.35,201.4l1,1Z"/><path class="cls-156" d="M103.35,202.4l1,1Z"/><path class="cls-12" d="M50.35,203.4l1,1Z"/><path class="cls-157" d="M149.35,204.4l1,1Z"/><path class="cls-158" d="M154.35,204.4l1,1Z"/><path class="cls-159" d="M201.35,204.4l1,1Z"/><path class="cls-160" d="M101.35,205.4l1,1Z"/><path class="cls-161" d="M202.35,205.4l1,1Z"/><path class="cls-17" d="M52.35,206.4l1,1Z"/><path class="cls-162" d="M100.35,207.4l1,1Z"/><path class="cls-163" d="M152,207.74c-.44.44.61.39.67.33C153.13,207.63,152.08,207.68,152,207.74Z"/><path class="cls-164" d="M203.35,207.4l1,1Z"/><path class="cls-11" d="M54.35,209.4l1,1Z"/><path class="cls-165" d="M99.35,209.4l1,1Z"/><path class="cls-166" d="M204.35,209.4l1,1Z"/><path class="cls-21" d="M56.35,212.4l1,1Z"/><path class="cls-167" d="M98.69,213.07c-.06.06-.11,1.11.33.67C99.08,213.68,99.13,212.63,98.69,213.07Z"/><path class="cls-168" d="M205.69,213.07c-.06.06-.11,1.11.33.67C206.08,213.68,206.13,212.63,205.69,213.07Z"/><path class="cls-169" d="M153.69,214.07c-.06.06-.11,1.11.33.67C154.08,214.68,154.13,213.63,153.69,214.07Z"/><path class="cls-108" d="M58.35,215.4l1,1Z"/><path class="cls-170" d="M267.35,215.4c7.89,3.31,20.45,1,29,1C288.47,213.09,275.9,215.4,267.35,215.4Z"/><path class="cls-171" d="M97.35,216.4v7A8.1,8.1,0,0,0,97.35,216.4Z"/><path class="cls-172" d="M206.35,216.4v7A8.1,8.1,0,0,0,206.35,216.4Z"/><path class="cls-173" d="M265.35,216.4l1,1Z"/><path class="cls-1" d="M298.35,220.4c-2.76-6.87-16.69-4-23-4-2.38,0-6.35-.65-8.33,1-1.78,1.49-.15,3.19,1.49,3.68,2.7.8,6.06.31,8.84.31h9C290.47,221.4,294.39,221.58,298.35,220.4Z"/><path class="cls-80" d="M297.35,217.4l1,1Z"/><path class="cls-40" d="M60.35,218.4l1,1Z"/><path class="cls-174" d="M264.69,219.07c-.06.06-.11,1.11.33.67C265.08,219.68,265.13,218.63,264.69,219.07Z"/><path class="cls-93" d="M265.35,220.4l1,1Z"/><path class="cls-104" d="M62.35,221.4l1,1Z"/><path class="cls-68" d="M267.35,221.4c7.89,3.31,20.45,1,29,1C288.47,219.09,275.9,221.4,267.35,221.4Z"/><path class="cls-175" d="M97.69,224.07c-.06.06-.11,1.11.33.67C98.08,224.68,98.13,223.63,97.69,224.07Z"/><path class="cls-8" d="M64.35,224.4l1,1Z"/><path class="cls-176" d="M153.35,224.4v3C154.05,225.85,154.05,226,153.35,224.4Z"/><path class="cls-177" d="M205.69,227.07c-.06.06-.11,1.11.33.67C206.08,227.68,206.13,226.63,205.69,227.07Z"/><path class="cls-28" d="M66.35,227.4l1,1Z"/><path class="cls-178" d="M98.35,227.4l1,1Z"/><path class="cls-170" d="M267.35,227.4c7.89,3.31,20.45,1,29,1C288.47,225.09,275.9,227.4,267.35,227.4Z"/><path class="cls-179" d="M98.35,228.4l1,1Z"/><path class="cls-173" d="M265.35,228.4l1,1Z"/><path class="cls-1" d="M298.35,232.4c-2.76-6.87-16.69-4-23-4-2.38,0-6.35-.65-8.33,1-1.78,1.49-.15,3.19,1.49,3.68,2.7.8,6.06.31,8.84.31h9C290.47,233.4,294.39,233.58,298.35,232.4Z"/><path class="cls-80" d="M297.35,229.4l1,1Z"/><path class="cls-20" d="M68.35,230.4l1,1Z"/><path class="cls-180" d="M99.35,230.4l1,1Z"/><path class="cls-181" d="M204.35,230.4l1,1Z"/><path class="cls-174" d="M264.69,231.07c-.06.06-.11,1.11.33.67C265.08,231.68,265.13,230.63,264.69,231.07Z"/><path class="cls-182" d="M152,232.74c-.44.44.61.39.67.33C153.13,232.63,152.08,232.68,152,232.74Z"/><path class="cls-158" d="M203.35,232.4l1,1Z"/><path class="cls-93" d="M265.35,232.4l1,1Z"/><path class="cls-34" d="M70.35,233.4l1,1Z"/><path class="cls-183" d="M100.35,233.4l1,1Z"/><path class="cls-68" d="M267.35,233.4c7.89,3.31,20.45,1,29,1C288.47,231.09,275.9,233.4,267.35,233.4Z"/><path class="cls-184" d="M150.35,234.4l1,1Z"/><path class="cls-185" d="M153.35,234.4l1,1Z"/><path class="cls-186" d="M202.35,234.4l1,1Z"/><path class="cls-187" d="M72.35,236.4l1,1Z"/><path class="cls-188" d="M102.35,236.4l1,1Z"/><path class="cls-189" d="M201.35,236.4l1,1Z"/><path class="cls-190" d="M103.35,237.4l1,1Z"/><path class="cls-191" d="M148.35,237.4l1,1Z"/><path class="cls-181" d="M155.35,237.4l1,1Z"/><path class="cls-192" d="M200.35,237.4l1,1Z"/><path class="cls-193" d="M147.35,238.4l1,1Z"/><path class="cls-194" d="M156.35,238.4l1,1Z"/><path class="cls-195" d="M146.35,239.4l1,1Z"/><path class="cls-196" d="M145.35,240.4l1,1Z"/><path class="cls-197" d="M266.35,240.4c8.13,3.42,21.19,1,30,1C288.23,238,275.17,240.4,266.35,240.4Z"/><path class="cls-198" d="M296.35,240.4l1,1Z"/><path class="cls-199" d="M144.35,241.4l1,1Z"/><path class="cls-1" d="M265.35,241.4v4c10.38,0,23,1.95,33-1v-2C288.39,239.46,275.73,241.4,265.35,241.4Z"/><path class="cls-200" d="M297.35,241.4l1,1Z"/><path class="cls-201" d="M314.35,241.4v3C315.05,242.85,315.05,243,314.35,241.4Z"/><path class="cls-79" d="M79.35,242.4v3C80.05,243.85,80.05,244,79.35,242.4Z"/><path class="cls-202" d="M108.35,242.4l1,1Z"/><path class="cls-203" d="M143.35,242.4l1,1Z"/><path class="cls-204" d="M160.35,242.4l1,1Z"/><path class="cls-205" d="M195.35,242.4l1,1Z"/><path class="cls-206" d="M264.69,243.07c-.06.06-.11,1.11.33.67C265.08,243.68,265.13,242.63,264.69,243.07Z"/><path class="cls-207" d="M109.35,243.4l1,1Z"/><path class="cls-208" d="M142.35,243.4l1,1Z"/><path class="cls-209" d="M161.35,243.4l1,1Z"/><path class="cls-210" d="M194.35,243.4l1,1Z"/><path class="cls-211" d="M140.35,244.4l1,1Z"/><path class="cls-212" d="M163.35,244.4l1,1Z"/><path class="cls-213" d="M192.35,244.4l1,1Z"/><path class="cls-214" d="M297.35,244.4l1,1Z"/><path class="cls-215" d="M112.35,245.4l1,1Z"/><path class="cls-216" d="M138.35,245.4l1,1Z"/><path class="cls-217" d="M266.35,245.4c8.13,3.42,21.19,1,30,1C288.23,243,275.17,245.4,266.35,245.4Z"/><path class="cls-71" d="M296.35,245.4l1,1Z"/><path class="cls-218" d="M114.35,246.4l1,1Z"/><path class="cls-219" d="M136.35,246.4l1,1Z"/><path class="cls-220" d="M167.35,246.4l1,1Z"/><path class="cls-138" d="M188.35,246.4l1,1Z"/><path class="cls-221" d="M80.35,247.4l1,1Z"/><path class="cls-222" d="M117.35,247.4l1,1Z"/><path class="cls-223" d="M133.35,247.4l1,1Z"/><path class="cls-224" d="M134.35,247.4l1,1Z"/><path class="cls-209" d="M169.35,247.4l1,1Z"/><path class="cls-161" d="M186,247.74c-.44.44.61.39.67.33C187.13,247.63,186.08,247.68,186,247.74Z"/><path class="cls-225" d="M313.35,247.4l1,1Z"/><path class="cls-226" d="M122,248.74c-.44.44.61.39.67.33C123.13,248.63,122.08,248.68,122,248.74Z"/><path class="cls-227" d="M123.35,248.4a14.51,14.51,0,0,0,6,1A14.78,14.78,0,0,0,123.35,248.4Z"/><path class="cls-228" d="M130,248.74c-.44.44.61.39.67.33C131.13,248.63,130.08,248.68,130,248.74Z"/><path class="cls-155" d="M174,248.74c-.44.44.61.39.67.33C175.13,248.63,174.08,248.68,174,248.74Z"/><path class="cls-229" d="M175.35,248.4a12.11,12.11,0,0,0,5,1A12.41,12.41,0,0,0,175.35,248.4Z"/><path class="cls-230" d="M180.35,248.4a7,7,0,0,0,3,1A7.21,7.21,0,0,0,180.35,248.4Z"/><path class="cls-231" d="M313.35,248.4l1,1Z"/><path class="cls-60" d="M81.35,249.4l1,1Z"/><path class="cls-232" d="M81.35,250.4l1,1Z"/><path class="cls-233" d="M312.35,250.4l1,1Z"/><path class="cls-234" d="M82.35,252.4l1,1Z"/><path class="cls-235" d="M311.35,252.4l1,1Z"/><path class="cls-72" d="M311.35,253.4l1,1Z"/><path class="cls-225" d="M83.35,254.4l1,1Z"/><path class="cls-103" d="M310.35,254.4l1,1Z"/><path class="cls-231" d="M84.35,256.4l1,1Z"/><path class="cls-236" d="M309.35,256.4l1,1Z"/><path class="cls-237" d="M85.35,257.4l1,1Z"/><path class="cls-62" d="M308.35,257.4l1,1Z"/><path class="cls-68" d="M86.35,258.4l1,1Z"/><path class="cls-238" d="M307.35,258.4l1,1Z"/><path class="cls-239" d="M88.35,260.4l1,1Z"/><path class="cls-233" d="M89.35,261.4l1,1Z"/><path class="cls-240" d="M304.35,261.4l1,1Z"/><path class="cls-241" d="M90.35,262.4l1,1Z"/><path class="cls-71" d="M303.35,262.4l1,1Z"/><path class="cls-81" d="M91.35,263.4l1,1Z"/><path class="cls-242" d="M302.35,263.4l1,1Z"/><path class="cls-243" d="M93.35,264.4l1,1Z"/><path class="cls-62" d="M300.35,264.4l1,1Z"/><path class="cls-244" d="M95.35,265.4l1,1Z"/><path class="cls-245" d="M298.35,265.4l1,1Z"/><path class="cls-246" d="M97.35,266.4l1,1Z"/><path class="cls-241" d="M296.35,266.4l1,1Z"/><path class="cls-247" d="M99.35,267.4l1,1Z"/><path class="cls-100" d="M100.35,267.4l1,1Z"/><path class="cls-70" d="M293.35,267.4l1,1Z"/><path class="cls-248" d="M294.35,267.4l1,1Z"/><path class="cls-249" d="M104,268.74c-.44.44.61.39.67.33C105.13,268.63,104.08,268.68,104,268.74Z"/><path class="cls-250" d="M105.35,268.4c5.22,2.19,12.39,1,18,1h165c-5.21-2.18-12.38-1-18-1h-165Z"/><path class="cls-59" d="M288.35,268.4a7,7,0,0,0,3,1A7.21,7.21,0,0,0,288.35,268.4Z"/></g></g></svg>