<svg xmlns="http://www.w3.org/2000/svg" width="460.13" height="428.79" viewBox="0 0 460.13 428.79"><defs><style>.cls-1{fill:#03a9f4;}.cls-2{fill:aqua;}.cls-3{fill:#6dcdf9;}.cls-4{fill:#eef9fe;}.cls-5{fill:#6ccdf9;}.cls-6{fill:#67cbf8;}.cls-7{fill:#fff;}.cls-8{fill:#b4e5fc;}.cls-9{fill:#62c9f8;}.cls-10{fill:#a4e0fb;}.cls-11{fill:#a0dffb;}.cls-12{fill:#b1e4fc;}.cls-13{fill:#abe2fb;}.cls-14{fill:#81d4fa;}.cls-15{fill:#89d7fa;}.cls-16{fill:#66cbf8;}.cls-17{fill:#5ec8f8;}.cls-18{fill:#79d1f9;}.cls-19{fill:#95dbfa;}.cls-20{fill:#8bd8fa;}.cls-21{fill:#86d6fa;}.cls-22{fill:#7cd2f9;}.cls-23{fill:#6bccf9;}.cls-24{fill:#61c9f8;}.cls-25{fill:#99dcfb;}.cls-26{fill:#8cd8fa;}.cls-27{fill:#b7e6fc;}.cls-28{fill:#b8e7fc;}.cls-29{fill:#ade3fb;}.cls-30{fill:#80d3f9;}.cls-31{fill:#74cff9;}.cls-32{fill:#9ddefb;}.cls-33{fill:#92dafa;}.cls-34{fill:#37bbf6;}.cls-35{fill:#2eb8f6;}.cls-36{fill:#14aff5;}.cls-37{fill:#98dcfb;}.cls-38{fill:#91dafa;}.cls-39{fill:#5ac7f8;}.cls-40{fill:#54c5f8;}.cls-41{fill:#b5e6fc;}.cls-42{fill:#a2dffb;}.cls-43{fill:#51c4f7;}.cls-44{fill:#90d9fa;}.cls-45{fill:#aae2fb;}.cls-46{fill:#b9e7fc;}.cls-47{fill:#8ed9fa;}.cls-48{fill:#4dc2f7;}.cls-49{fill:#5cc7f8;}.cls-50{fill:#48c1f7;}.cls-51{fill:#57c6f8;}.cls-52{fill:#55c5f8;}.cls-53{fill:#64caf8;}.cls-54{fill:#a3e0fb;}.cls-55{fill:#aee3fb;}.cls-56{fill:#36bbf6;}.cls-57{fill:#7dd2f9;}.cls-58{fill:#58c6f8;}.cls-59{fill:#c1eafc;}.cls-60{fill:#8fd9fa;}.cls-61{fill:#2fb8f6;}.cls-62{fill:#46c0f7;}.cls-63{fill:#c4ebfc;}.cls-64{fill:#5bc7f8;}.cls-65{fill:#78d1f9;}.cls-66{fill:#b2e5fc;}.cls-67{fill:#a7e1fb;}.cls-68{fill:#53c4f7;}.cls-69{fill:#59c6f8;}.cls-70{fill:#b0e4fc;}.cls-71{fill:#5dc8f8;}.cls-72{fill:#4cc2f7;}.cls-73{fill:#8ad7fa;}.cls-74{fill:#a8e1fb;}.cls-75{fill:#4fc3f7;}.cls-76{fill:#50c3f7;}.cls-77{fill:#97dcfa;}.cls-78{fill:#96dbfa;}.cls-79{fill:#9cddfb;}.cls-80{fill:#7ed3f9;}.cls-81{fill:#73cff9;}.cls-82{fill:#68cbf8;}.cls-83{fill:#83d5fa;}.cls-84{fill:#7ad1f9;}.cls-85{fill:#93dafa;}.cls-86{fill:#63caf8;}.cls-87{fill:#9edefb;}.cls-88{fill:#60c9f8;}.cls-89{fill:#6accf8;}</style></defs><g id="Layer_2" data-name="Layer 2"><g id="Layer_1-2" data-name="Layer 1"><path class="cls-1" d="M197.06.78c-6.66.87-13.3.32-20,.61-12.62.56-25.48,1.9-38,3.69-8.33,1.19-17.64,2-25,6.49-9.15,5.55-15.89,16.22-22,24.78-12.22,17.14-23.39,34.95-34.2,53-16,26.74-31.78,54.4-44.22,83-5.07,11.64-12,24.19-13.4,37-2.08,19.28,10,38,17.4,55,15.81,36.24,37.14,70.51,58,104,5.77,9.27,12.08,18.12,18.42,27,5.1,7.15,10.78,15.22,18,20.37,6,4.28,13.87,5.7,21,6.88,12.95,2.14,25.95,2.95,39,3.84,48.28,3.31,97.91,3.61,146-2.37,9.11-1.13,20-2.08,28-6.93,14.7-8.91,25-28.81,34.34-42.79,21.93-32.9,41.24-67.65,58.91-103,9.06-18.11,22.83-41,20.58-62-1.6-14.87-10.52-29.5-16.4-43-16.43-37.66-38.61-73.16-60.24-108a305,305,0,0,0-24.11-34c-4.11-4.94-8.29-10.13-14.08-13.17-12.93-6.79-29.8-6.62-44-8C277.81.93,254.44.35,231.06.35,219.89.35,208.14-.68,197.06.78Z"/><path class="cls-2" d="M117.06,9.35l1,1-1-1m240,13,1,1-1-1m10,13,1,1-1-1m-295,30,1,1-1-1m317,3,1,1-1-1m8,13,1,1Z"/><path class="cls-3" d="M218.73,84.69c-.45.44.61.39.67.33C219.84,84.58,218.78,84.63,218.73,84.69Z"/><path class="cls-4" d="M220.06,84.35c5.22,2.19,12.38,1,18,1h37c-5.21-2.18-12.38-1-18-1Z"/><path class="cls-5" d="M275.06,84.35a7,7,0,0,0,3,1A7.31,7.31,0,0,0,275.06,84.35Z"/><path class="cls-6" d="M215.06,85.35l1,1Z"/><path class="cls-7" d="M196.06,162.35c-14.15-2.62-29.63-1-44-1-9,0-18.44-.25-26,5.54A29.43,29.43,0,0,0,115,183.35c-1.86,7.65-.9,16.19-.9,24,0,18.34-4.51,41.83,12,54.47,7.69,5.88,16.84,5.53,26,5.53,14.37,0,29.85,1.63,44-1v39c0,8.95-.39,18.23,4.85,26a28.38,28.38,0,0,0,15.15,11.37c6.42,1.82,14.38.63,21,.63,17.57,0,44.27,5.54,56.61-10,5.85-7.36,6.39-16,6.39-25v-30c0-13.15,0-26.39-12-34.77-12.8-8.93-33.2-5.23-48-5.23-7.28,0-14.88-.69-22,1v-50c7.12,1.7,14.72,1,22,1,14.79,0,35.19,3.7,48-5.22,11.92-8.31,12-21.68,12-34.78v-30c0-9.1-.44-17.51-6.39-25-12.34-15.54-39-10-56.61-10-6.62,0-14.58-1.18-21,.64a28.42,28.42,0,0,0-15.15,11.36c-5.33,7.9-4.85,16.93-4.85,26Z"/><path class="cls-8" d="M279.06,85.35l1,1Z"/><path class="cls-9" d="M280.06,85.35l1,1Z"/><path class="cls-10" d="M213.06,86.35l1,1Z"/><path class="cls-11" d="M282.06,86.35l1,1Z"/><path class="cls-2" d="M400.06,86.35l1,1Z"/><path class="cls-12" d="M211.06,87.35l1,1Z"/><path class="cls-13" d="M284.06,87.35l1,1Z"/><path class="cls-14" d="M209.06,88.35l1,1Z"/><path class="cls-15" d="M286.06,88.35l1,1Z"/><path class="cls-16" d="M206.06,90.35l1,1Z"/><path class="cls-17" d="M289.06,90.35l1,1Z"/><path class="cls-18" d="M205.06,91.35l1,1Z"/><path class="cls-15" d="M290.06,91.35l1,1Z"/><path class="cls-19" d="M204.06,92.35l1,1Z"/><path class="cls-20" d="M291.06,92.35l1,1Z"/><path class="cls-21" d="M203.06,93.35l1,1Z"/><path class="cls-22" d="M292.06,93.35l1,1Z"/><path class="cls-23" d="M202.06,94.35l1,1Z"/><path class="cls-24" d="M293.06,94.35l1,1Z"/><path class="cls-25" d="M200.06,97.35l1,1Z"/><path class="cls-26" d="M295.06,97.35l1,1Z"/><path class="cls-2" d="M52.06,98.35l1,1-1-1m355,0,1,1Z"/><path class="cls-27" d="M296.06,99.35l1,1Z"/><path class="cls-28" d="M198.06,101.35l1,1Z"/><path class="cls-29" d="M297.06,101.35l1,1Z"/><path class="cls-30" d="M197.06,103.35l1,1Z"/><path class="cls-31" d="M298.06,103.35l1,1Z"/><path class="cls-32" d="M196.4,107c-.06.06-.12,1.11.33.67C196.78,107.63,196.84,106.58,196.4,107Z"/><path class="cls-33" d="M299.4,107c-.06.06-.12,1.11.33.67C299.78,107.63,299.84,106.58,299.4,107Z"/><path class="cls-34" d="M195.06,111.35v50c1.66-3.95,1-8.74,1-13v-23C196.06,120.82,196.83,115.57,195.06,111.35Z"/><path class="cls-35" d="M300.06,111.35v51c1.77-4.21,1-9.46,1-14v-24C301.06,120.09,301.72,115.31,300.06,111.35Z"/><path class="cls-2" d="M39.06,121.35l1,1-1-1m-7,13,1,1-1-1m396,2,1,1Z"/><path class="cls-36" d="M142.06,160.35c4.72,2,10.92,1,16,1h32c-4.72-2-10.92-1-16-1Z"/><path class="cls-25" d="M136.06,161.35a7,7,0,0,0,3,1A7.31,7.31,0,0,0,136.06,161.35Z"/><path class="cls-37" d="M193.06,161.35a7,7,0,0,0,3,1A7.31,7.31,0,0,0,193.06,161.35Z"/><path class="cls-38" d="M133.06,162.35l1,1Z"/><path class="cls-39" d="M130.06,163.35l1,1Z"/><path class="cls-40" d="M128.06,164.35l1,1Z"/><path class="cls-41" d="M127.06,165.35l1,1Z"/><path class="cls-42" d="M299.06,165.35v3C299.76,166.8,299.76,166.91,299.06,165.35Z"/><path class="cls-43" d="M125.06,166.35l1,1Z"/><path class="cls-44" d="M124.06,167.35l1,1Z"/><path class="cls-45" d="M123.06,168.35l1,1Z"/><path class="cls-46" d="M122.06,169.35l1,1Z"/><path class="cls-13" d="M121.06,170.35l1,1Z"/><path class="cls-44" d="M298.06,170.35l1,1Z"/><path class="cls-47" d="M120.06,171.35l1,1Z"/><path class="cls-48" d="M119.06,172.35l1,1Z"/><path class="cls-49" d="M297.06,173.35l1,1Z"/><path class="cls-12" d="M118.06,174.35l1,1Z"/><path class="cls-50" d="M117.06,175.35l1,1Z"/><path class="cls-51" d="M296.06,175.35l1,1Z"/><path class="cls-52" d="M116.06,177.35l1,1Z"/><path class="cls-2" d="M448.06,177.35l1,1Z"/><path class="cls-53" d="M294.06,178.35l1,1Z"/><path class="cls-54" d="M293.06,179.35l1,1Z"/><path class="cls-26" d="M115.06,180.35l1,1Z"/><path class="cls-10" d="M114.4,184c-.06.06-.12,1.11.33.67C114.78,184.63,114.84,183.58,114.4,184Z"/><path class="cls-55" d="M289.06,183.35l1,1Z"/><path class="cls-14" d="M288.06,184.35l1,1Z"/><path class="cls-31" d="M285.06,186.35l1,1Z"/><path class="cls-56" d="M113.06,187.35v52c1.77-4.21,1-9.46,1-14v-25C114.06,196.09,114.72,191.31,113.06,187.35Z"/><path class="cls-57" d="M283.06,187.35l1,1Z"/><path class="cls-41" d="M280.06,188.35l1,1Z"/><path class="cls-58" d="M281.06,188.35l1,1Z"/><path class="cls-59" d="M218.73,189.69c-.45.44.61.39.67.33C219.84,189.58,218.78,189.63,218.73,189.69Z"/><path class="cls-60" d="M276.73,189.69c-.45.44.61.39.67.33C277.84,189.58,276.78,189.63,276.73,189.69Z"/><path class="cls-61" d="M218.06,190.35v48c1.55-3.69,1-8,1-12v-23C219.06,199.09,219.72,194.31,218.06,190.35Z"/><path class="cls-62" d="M222.06,190.35c5,2.09,11.65,1,17,1h35c-5-2.08-11.65-1-17-1Z"/><path class="cls-2" d="M455.06,194.35l1,1-1-1m-451,39,1,1Z"/><path class="cls-62" d="M221.06,237.35c5,2.09,11.65,1,17,1h36c-5-2.08-11.65-1-17-1Z"/><path class="cls-63" d="M218.73,238.69c-.45.44.61.39.67.33C219.84,238.58,218.78,238.63,218.73,238.69Z"/><path class="cls-38" d="M276.73,238.69c-.45.44.61.39.67.33C277.84,238.58,276.78,238.63,276.73,238.69Z"/><path class="cls-28" d="M280.06,239.35l1,1Z"/><path class="cls-64" d="M281.06,239.35l1,1Z"/><path class="cls-30" d="M283.06,240.35l1,1Z"/><path class="cls-65" d="M285.06,241.35l1,1Z"/><path class="cls-54" d="M114.06,242.35v3C114.76,243.8,114.76,243.91,114.06,242.35Z"/><path class="cls-14" d="M288.06,243.35l1,1Z"/><path class="cls-66" d="M289.06,244.35l1,1Z"/><path class="cls-20" d="M115.06,247.35l1,1Z"/><path class="cls-67" d="M293.06,248.35l1,1Z"/><path class="cls-6" d="M294.06,249.35l1,1Z"/><path class="cls-68" d="M116.06,250.35l1,1Z"/><path class="cls-69" d="M296.06,252.35l1,1Z"/><path class="cls-70" d="M118.06,253.35l1,1Z"/><path class="cls-71" d="M297.06,254.35l1,1Z"/><path class="cls-72" d="M119.06,255.35l1,1Z"/><path class="cls-73" d="M120.06,256.35l1,1Z"/><path class="cls-42" d="M121.06,257.35l1,1Z"/><path class="cls-38" d="M298.06,257.35l1,1Z"/><path class="cls-28" d="M122.06,258.35l1,1Z"/><path class="cls-74" d="M123.06,259.35l1,1Z"/><path class="cls-26" d="M124.06,260.35l1,1Z"/><path class="cls-42" d="M299.4,261c-.06.06-.12,1.11.33.67C299.78,261.63,299.84,260.58,299.4,261Z"/><path class="cls-75" d="M125.06,261.35l1,1Z"/><path class="cls-12" d="M127.06,262.35l1,1Z"/><path class="cls-2" d="M17.06,263.35l1,1Z"/><path class="cls-76" d="M128.06,263.35l1,1Z"/><path class="cls-51" d="M130.06,264.35l1,1Z"/><path class="cls-60" d="M133.06,265.35l1,1Z"/><path class="cls-35" d="M300.06,265.35v51c1.77-4.21,1-9.46,1-14v-24C301.06,274.09,301.72,269.31,300.06,265.35Z"/><path class="cls-77" d="M136.73,266.69c-.45.44.61.39.67.33C137.84,266.58,136.78,266.63,136.73,266.69Z"/><path class="cls-78" d="M193.06,266.35a7,7,0,0,0,3,1A7.31,7.31,0,0,0,193.06,266.35Z"/><path class="cls-36" d="M142.06,267.35c4.72,2,10.92,1,16,1h32c-4.72-2-10.92-1-16-1Z"/><path class="cls-34" d="M195.06,267.35v49c1.77-4.21,1-9.46,1-14v-23C196.06,275.37,196.61,271.05,195.06,267.35Z"/><path class="cls-2" d="M427.06,293.35l1,1-1-1m-7,13,1,1-1-1m-5,9,1,1Z"/><path class="cls-79" d="M196.06,319.35v3C196.76,320.8,196.76,320.91,196.06,319.35Z"/><path class="cls-33" d="M299.06,319.35v3C299.76,320.8,299.76,320.91,299.06,319.35Z"/><path class="cls-80" d="M197.06,324.35l1,1Z"/><path class="cls-81" d="M298.06,324.35l1,1Z"/><path class="cls-27" d="M198.06,326.35l1,1Z"/><path class="cls-13" d="M297.06,326.35l1,1Z"/><path class="cls-41" d="M296.06,328.35l1,1Z"/><path class="cls-2" d="M52.06,329.35l1,1-1-1m355,0,1,1Z"/><path class="cls-78" d="M200.06,330.35l1,1Z"/><path class="cls-73" d="M295.06,330.35l1,1Z"/><path class="cls-82" d="M202.06,333.35l1,1Z"/><path class="cls-17" d="M293.06,333.35l1,1Z"/><path class="cls-83" d="M203.06,334.35l1,1Z"/><path class="cls-84" d="M292.06,334.35l1,1Z"/><path class="cls-85" d="M204.06,335.35l1,1Z"/><path class="cls-73" d="M291.06,335.35l1,1Z"/><path class="cls-18" d="M205.06,336.35l1,1Z"/><path class="cls-14" d="M290.06,336.35l1,1Z"/><path class="cls-86" d="M206.06,337.35l1,1Z"/><path class="cls-64" d="M289.06,337.35l1,1Z"/><path class="cls-14" d="M209.06,339.35l1,1-1-1m77,0,1,1Z"/><path class="cls-29" d="M211.06,340.35l1,1Z"/><path class="cls-67" d="M284.06,340.35l1,1Z"/><path class="cls-2" d="M59.06,341.35l1,1Z"/><path class="cls-42" d="M213.06,341.35l1,1Z"/><path class="cls-87" d="M282.06,341.35l1,1Z"/><path class="cls-53" d="M215.06,342.35l1,1Z"/><path class="cls-66" d="M279.06,342.35l1,1Z"/><path class="cls-88" d="M280.06,342.35l1,1Z"/><path class="cls-5" d="M218.73,343.69c-.45.44.61.39.67.33C219.84,343.58,218.78,343.63,218.73,343.69Z"/><path class="cls-4" d="M220.06,343.35c5.22,2.19,12.38,1,18,1h37c-5.21-2.18-12.38-1-18-1Z"/><path class="cls-89" d="M275.06,343.35a7,7,0,0,0,3,1A7.31,7.31,0,0,0,275.06,343.35Z"/><path class="cls-2" d="M70.06,359.35l1,1-1-1m317,3,1,1-1-1m-295,30,1,1-1-1m10,13,1,1-1-1m229,16,1,1-1-1m-21,3,1,1Z"/></g></g></svg>