<svg xmlns="http://www.w3.org/2000/svg" width="254.5844" height="316.8951" viewBox="0 0 254.5844 316.8951"><defs><style>.cls-1{fill:#a80030;}</style></defs><g id="Layer_2" data-name="Layer 2"><g id="Layer_1-2" data-name="Layer 1"><path class="cls-1" d="M152.1464,167.425c-5.251.073.993,2.706,7.848,3.761q2.6772-2.0892,5.1431-4.43a39.1812,39.1812,0,0,1-12.991.67m28.1829-7.026a33.3475,33.3475,0,0,0,6.21-13.926c-.7019,3.483-2.593,6.49-4.3719,9.663-9.815,6.18-.9231-3.67-.006-7.413-10.554,13.284-1.45,7.966-1.832,11.677m10.4019-27.071c.635-9.455-1.86-6.466-2.7-2.857.98.508,1.7539,6.665,2.7,2.858M132.2354,4.088c2.802.503,6.054.888,5.5981,1.557,3.0659-.672,3.761-1.291-5.5981-1.557m5.598,1.557-1.98.41,1.843-.164.137-.246"/><path class="cls-1" d="M225.2154,136.916c.312,8.492-2.484,12.612-5.006,19.905l-4.5379,2.268c-3.7141,7.211.36,4.579-2.3,10.315-5.7969,5.154-17.593,16.13-21.3679,17.132-2.756-.062,1.867-3.253,2.472-4.503-7.7611,5.33-6.2271,8-18.097,11.238l-.347-.771c-29.2741,13.771-69.937-13.52-69.402-50.76-.3131,2.364-.889,1.774-1.5371,2.73-1.511-19.16,8.848-38.405,26.3191-46.262,17.088-8.46,37.122-4.988,49.362,6.42-6.724-8.808-20.107-18.144-35.968-17.27-15.536.245-30.07,10.12-34.9211,20.837-7.96,5.012-8.883,19.318-12.3519,21.936-4.666,34.296,8.778,49.114,31.52,66.544,3.58,2.414,1.009,2.78,1.4941,4.617a61.7027,61.7027,0,0,1-20.1651-15.42c3.018,4.419,6.2761,8.714,10.487,12.089-7.124-2.414-16.6409-17.264-19.42-17.868,12.2809,21.988,49.827,38.562,69.486,30.34-9.096.335-20.653.186-30.8741-3.592-4.293-2.209-10.13-6.785-9.088-7.641,26.83,10.023,54.5461,7.591,77.7621-11.02,5.906-4.599,12.358-12.424,14.222-12.532-2.808,4.222.48,2.03-1.677,5.76,5.8849-9.491-2.5571-3.864,6.0829-16.39l3.191,4.394c-1.186-7.878,9.783-17.444,8.67-29.904,2.516-3.81,2.808,4.1.137,12.866,3.706-9.725.976-11.288,1.929-19.312a72.7431,72.7431,0,0,1,3.071,8.41c-2.414-9.398,2.478-15.826,3.688-21.288-1.193-.528-3.726,4.156-4.305-6.945.085-4.822,1.342-2.528,1.827-3.714-.947-.544-3.43-4.24-4.941-11.33,1.095-1.665,2.927,4.32,4.418,4.565-.959-5.637-2.61-9.935-2.677-14.26-4.354-9.099-1.54,1.213-5.073-3.906-4.634-14.456,3.846-3.355,4.419-9.924,7.0241,10.178,11.03,25.951,12.868,32.485a133.0629,133.0629,0,0,0-6.437-23.149c2.133.897-3.436-16.39,2.773-4.94-6.633-24.406-28.388-47.21-48.401-57.91,2.449,2.24,5.54,5.055,4.43,5.496-9.953-5.926-8.202-6.388-9.628-8.892-8.109-3.299-8.64.266-14.012.006-15.282-8.106-18.227-7.244-32.291-12.322l.64,2.99c-10.125-3.373-11.797,1.279-22.74.01-.666-.52,3.507-1.881,6.94-2.38-9.789,1.29-9.33-1.93-18.909.356a81.2307,81.2307,0,0,1,7.376-4.161c-7.983.485-19.058,4.646-15.64.862C95.6654,8.93,72.54,17.085,59.5634,29.253l-.41-2.727c-5.945,7.14-25.93,21.32-27.522,30.565l-1.59.371c-3.094,5.24-5.096,11.177-7.55,16.568-4.047,6.896-5.932,2.654-5.356,3.735-7.96,16.138-11.914,29.7-15.33,40.821,2.435,3.638.059,21.9.98,36.517-3.998,72.187,50.662,142.275,110.41,158.458,8.757,3.132,21.78,3.012,32.858,3.3341-13.07-3.7381-14.76-1.981-27.49-6.42-9.185-4.325-11.198-9.263-17.702-14.908l2.574,4.55c-12.758-4.515-7.42-5.588-17.798-8.875l2.75-3.591c-4.135-.313-10.953-6.97-12.817-10.654l-4.523.178c-5.435-6.7059-8.331-11.54-8.12-15.282l-1.462,2.603c-1.657-2.843-19.995-25.15-10.481-19.957-1.768-1.616-4.117-2.63-6.665-7.259l1.937-2.215c-4.579-5.89-8.427-13.441-8.135-15.957,2.443,3.299,4.138,3.915,5.815,4.48-11.563-28.69-12.211-1.581-20.969-29.204l1.853-.149a61.5353,61.5353,0,0,1-3.425-6.74l.807-8.037c-8.325-9.625-2.33-40.926-1.128-58.093.832-6.98,6.948-14.412,11.6-26.065l-2.834-.488c5.417-9.45,30.933-37.952,42.75-36.485,5.724-7.19-1.137-.026-2.256-1.838,12.573-13.012,16.527-9.193,25.013-11.533,9.151-5.432-7.855,2.118-3.516-2.072,15.82-4.041,11.212-9.187,31.85-11.238,2.178,1.239-5.051,1.914-6.866,3.521,13.181-6.449,41.712-4.982,60.244,3.58,21.504,10.049,45.663,39.754,46.616,67.704l1.084.292c-.55,11.11,1.7,23.958-2.198,35.76l2.654-5.587"/><path class="cls-1" d="M94.8324,174.634l-.736,3.682c3.45,4.687,6.189,9.765,10.595,13.43-3.17-6.19-5.525-8.746-9.859-17.112m8.159-.321a29.1592,29.1592,0,0,1-4.117-6.873c1.157,4.257,3.526,7.916,5.733,11.636l-1.6159-4.763m144.361-31.377-.771,1.934a93.3558,93.3558,0,0,1-9.15,29.203,91.72,91.72,0,0,0,9.921-31.137M133.2724,1.57C136.8225.269,142,.856,145.7674,0c-4.91.412-9.795.657-14.62,1.28l2.125.29M8.6314,67.847c.819,7.574-5.698,10.514,1.444,5.52,3.828-8.623-1.496-2.381-1.444-5.52M.2394,102.9a82.3857,82.3857,0,0,0,2.572-11.004c-4.547,5.812-2.092,7.05-2.572,11.004"/></g></g></svg>