<svg xmlns:xlink="http://www.w3.org/1999/xlink" xmlns="http://www.w3.org/2000/svg" width="512" height="512" viewBox="0 0 512 512"><defs><style>.cls-1{fill:#f0f0f0;}.cls-2{fill:#0052b4;}.cls-3{fill:#d80027;}</style></defs><g id="Layer_2" data-name="Layer 2"><g id="Layer_1-2" data-name="Layer 1"><circle class="cls-1" cx="256" cy="256" r="256"/><path class="cls-2" d="M52.92,100.142A255.0662,255.0662,0,0,0,8.819,189.219H141.997Z"/><path class="cls-2" d="M503.181,189.219a255.0873,255.0873,0,0,0-44.101-89.076l-89.075,89.076Z"/><path class="cls-2" d="M8.819,322.784A255.0913,255.0913,0,0,0,52.92,411.859l89.074-89.075Z"/><path class="cls-2" d="M411.858,52.921A255.0808,255.0808,0,0,0,322.782,8.819V141.996Z"/><path class="cls-2" d="M100.142,459.079a255.0894,255.0894,0,0,0,89.076,44.102V370.005Z"/><path class="cls-2" d="M189.217,8.819A255.0913,255.0913,0,0,0,100.142,52.92l89.075,89.075Z"/><path class="cls-2" d="M322.783,503.181a255.0913,255.0913,0,0,0,89.075-44.101l-89.075-89.075V503.181Z"/><path class="cls-2" d="M370.005,322.784,459.08,411.86a255.0787,255.0787,0,0,0,44.101-89.076Z"/><path class="cls-3" d="M509.833,222.609H289.392V2.167a258.35,258.35,0,0,0-66.783,0V222.608H2.167a258.35,258.35,0,0,0,0,66.783H222.608V509.833a258.35,258.35,0,0,0,66.783,0V289.392H509.833a258.35,258.35,0,0,0,0-66.783Z"/><path class="cls-3" d="M322.783,322.784h0L437.019,437.02q7.881-7.878,15.048-16.435l-97.802-97.802H322.783v.001Z"/><path class="cls-3" d="M189.217,322.784h-.002L74.98,437.019q7.878,7.881,16.435,15.048l97.802-97.804V322.784Z"/><path class="cls-3" d="M189.217,189.219v-.002L74.981,74.98Q67.1,82.858,59.933,91.415l97.803,97.803h31.481Z"/><path class="cls-3" d="M322.783,189.219h0L437.02,74.981q-7.878-7.881-16.435-15.047l-97.802,97.803Z"/></g></g></svg>