<svg xmlns:xlink="http://www.w3.org/1999/xlink" xmlns="http://www.w3.org/2000/svg" width="512" height="512" viewBox="0 0 512 512"><defs><style>.cls-1{fill:#f0f0f0;}.cls-2{fill:#d80027;}.cls-3{fill:#0052b4;}</style></defs><g id="Layer_2" data-name="Layer 2"><g id="Layer_1-2" data-name="Layer 1"><circle class="cls-1" cx="256" cy="256" r="256"/><path class="cls-2" d="M244.87,256H512a256.2806,256.2806,0,0,0-8.819-66.783H244.87Z"/><path class="cls-2" d="M244.87,122.435H474.426a257.35,257.35,0,0,0-59.07-66.783H244.87Z"/><path class="cls-2" d="M256,512a254.9015,254.9015,0,0,0,159.356-55.652H96.644A254.9015,254.9015,0,0,0,256,512Z"/><path class="cls-2" d="M37.574,389.565H474.426a254.4736,254.4736,0,0,0,28.755-66.783H8.819A254.4736,254.4736,0,0,0,37.574,389.565Z"/><path class="cls-3" d="M118.584,39.978h23.329l-21.7,15.765,8.289,25.509L106.803,65.487,85.104,81.252l7.16-22.037a257.4067,257.4067,0,0,0-49.652,55.337h7.475L36.274,124.587q-3.228,5.385-6.194,10.938l6.596,20.301L24.37,146.885q-4.5885,9.7215-8.372,19.873l7.267,22.368H50.087l-21.7,15.765L36.676,230.4,14.977,214.635,1.979,224.079A258.4683,258.4683,0,0,0,0,256H256V0A254.7882,254.7882,0,0,0,118.584,39.978ZM128.502,230.4l-21.699-15.765L85.104,230.4l8.289-25.509-21.7-15.765H98.515l8.288-25.509,8.288,25.509h26.822l-21.7,15.765Zm-8.289-100.083,8.289,25.509-21.699-15.765L85.104,155.826l8.289-25.509-21.7-15.765H98.515l8.288-25.509,8.288,25.509h26.822ZM220.328,230.4l-21.699-15.765L176.93,230.4l8.289-25.509-21.7-15.765h26.822l8.288-25.509,8.288,25.509h26.822l-21.7,15.765Zm-8.289-100.083,8.289,25.509-21.699-15.765L176.93,155.826l8.289-25.509-21.7-15.765h26.822l8.288-25.509,8.288,25.509h26.822Zm0-74.574,8.289,25.509L198.629,65.487,176.93,81.252l8.289-25.509-21.7-15.765h26.822l8.288-25.509,8.288,25.509h26.822Z"/></g></g></svg>