<svg xmlns="http://www.w3.org/2000/svg" width="151" height="40" viewBox="0 0 151 40">
  <title>Climeworks</title>
  <g fill="none" fill-rule="evenodd">
    <path fill="#262626" fill-rule="nonzero" d="M146.5 20.25c1.18.05 2.36.23 3.52.54l.33 3.52-.15.05c-1-1.55-2.58-3.51-3.8-3.51a.93.93 0 0 0-.96.96c0 .96 1.03 1.47 2.32 2.1l.2.1c1.63.77 3.04 1.88 3.04 3.77 0 1.9-1.39 3.22-3.94 3.22a15.97 15.97 0 0 1-3.89-.66l-.4-3.74.15-.05c1.22 1.94 2.78 3.87 4.1 3.87a1.04 1.04 0 0 0 1.1-1.05c0-.9-.92-1.45-2.39-2.27-1.32-.73-3.04-1.72-3.04-3.76s1.66-3.1 3.8-3.1zm-58.53-.02c3.38 0 4.7 2.2 4.7 4.06v.3h-6.54v.13c0 2.82 1.86 3.71 3.56 3.71a3.15 3.15 0 0 0 2.88-1.57l.12.05c-.3 1.41-1.21 4.02-4.68 4.02-2.98 0-5.43-1.91-5.43-5.38 0-3.26 2.14-5.32 5.4-5.32zm26.75.02c3.25 0 5.58 1.7 5.58 5.23 0 3.53-2.29 5.45-5.75 5.45-3.26 0-5.6-1.67-5.6-5.22 0-3.53 2.3-5.46 5.77-5.46zm-69.49 0a4.67 4.67 0 0 1 4.24 2.33L47.1 24.4l-.15-.06c-.08-1.43-.65-3.47-1.83-3.47-.98 0-1.57 1.39-1.57 3.24 0 2.58 1.13 4.32 3.23 4.32 1.55 0 2.4-.92 2.9-1.85l.19.08c-.3 1.83-1.5 4.27-4.58 4.27-2.66 0-5.28-1.72-5.28-5.4 0-3.6 2.54-5.27 5.22-5.27zM30.2 7l1.88 2.05A39 39 0 0 1 12.7 24.29a9 9 0 0 0 1.5 1.5c3.76 2.95 9.1 2.39 11.94-1.25a7.83 7.83 0 0 0 1.54-3.2l2.3-.43a10.7 10.7 0 0 1-2.16 5.54A11.18 11.18 0 0 1 9.39 25.3c-2.77.7-5.66 1.12-8.63 1.2L0 23.72c2.78-.08 5.53-.49 8.21-1.2-.1-.36-.18-.73-.24-1.1a36.6 36.6 0 0 1-6.16-1.25l.15-2.73c1.93.56 3.9.95 5.9 1.18.17-2.1.93-4.17 2.32-5.96 3.17-4.05 8.79-4.9 13.21-2.99l-1.23 1.75c-3.35-1.15-7.38-.38-9.61 2.48a8.13 8.13 0 0 0-1.73 4.94c2.2.07 4.42-.06 6.62-.4 0 0-2.76 1.43-3.72 1.86-.4.18-1.16.5-1.85.77l-.33.13-.37.15.08.24A38.35 38.35 0 0 0 30.19 7zm79.74 13.5v.17a7.13 7.13 0 0 0-1.76 2.54l-3.27 7.52h-1.35l-2.6-5.94-2.64 5.94h-1.34l-3.74-8.55a3.33 3.33 0 0 0-1.2-1.5v-.16h6.05v.17c-.62.37-.9.71-.9 1.17 0 .25.06.5.16.72.19.47 1.87 4.35 1.9 4.4l1.3-3.06-.74-1.77c-.24-.6-.65-1.1-1.18-1.47v-.17h6.07v.17c-.62.36-.9.75-.9 1.23 0 .25.06.5.16.72.72 1.68 1.47 3.47 1.85 4.33.87-2.06 1.45-3.5 1.58-3.81.1-.23.14-.48.15-.74 0-.58-.31-.96-1.03-1.74v-.17h3.43zm-54.96-5.44v13.2c0 1.55.21 1.77 1.07 2.32v.14H50v-.15c.88-.55 1.07-.78 1.07-2.31v-9.3c0-2.03-.25-2.16-1.05-2.85v-.14c1.68-.12 3.34-.42 4.95-.9zm13.25 5.14v2.21c.95-1.45 2.18-2.16 3.53-2.16.86 0 2.58.33 3.04 2.23.93-1.5 2.18-2.23 3.57-2.23.99 0 3.15.44 3.15 3.26v4.75c-.01 1.53.18 1.76 1.06 2.31v.15h-6.06v-.15c.86-.55 1.09-.78 1.1-2.31.03-1.47.05-2.92.05-4.36 0-1.26-.71-1.74-1.34-1.74-.53 0-1.03.31-1.45 1l.02.23v4.87c0 1.54.21 1.76 1.07 2.31v.15h-6.04v-.15c.93-.57 1.1-.86 1.11-2.31l.02-2.84v-.45-1.07c0-1.26-.69-1.74-1.32-1.74-.52 0-1.03.34-1.45 1.03v5.07c0 1.54.21 1.76 1.08 2.31v.15H63.3v-.15c.88-.55 1.07-.78 1.07-2.31v-4.19c0-1.93-.2-2.16-1.05-2.85v-.15c1.66-.1 3.3-.38 4.9-.87zm66.24-5.14v10.72l2.9-2.67c.42-.4.61-.72.61-1.05 0-.49-.44-.87-1.34-1.37v-.17h5.34v.17c-1.68.99-2.75 1.58-3.7 2.67l-.84.8 2.9 4.39c.5.81 1.19 1.5 2 2.02v.15h-4.97l-2.58-4.5h-.31v2.04c0 1.54.2 1.76 1.07 2.31v.15h-6.05v-.15c.88-.55 1.07-.78 1.07-2.31v-9.3c0-2.03-.26-2.16-1.05-2.85v-.14c1.68-.12 3.34-.42 4.95-.9zm-9 5.14l-.05 2.06h.04a3.02 3.02 0 0 1 2.99-2.02c.3 0 .62.06.9.2l-.53 3.97h-.15c-.7-.97-1.72-2.02-2.39-2.02a.87.87 0 0 0-.75.52v5.34c0 1.55.27 1.77 1.44 2.31v.15h-6.42v-.14c.89-.55 1.08-.78 1.08-2.31V23.8c0-1.58-.21-1.93-1.05-2.58v-.15c1.65-.1 3.3-.38 4.88-.87zm-63.8 0v8.05c0 1.54.2 1.76 1.07 2.3v.16h-6.04v-.14l.1-.07c.8-.5.96-.78.96-2.24V24.1c0-2.02-.25-2.17-1.05-2.84v-.17c1.68-.1 3.34-.4 4.96-.88zm52.45.66c-.62 0-1.2.67-1.2 2.47 0 1.62.46 6.98 2.25 6.98.62 0 1.16-.66 1.16-2.43h.01c0-1.62-.46-7.02-2.22-7.02zm-26.47-.02c-.95 0-1.4 1.17-1.5 3.1h3.07c-.04-1.54-.38-3.1-1.57-3.1zM35.8 10.66l1.17 2.62c-5.25 4.15-9.81 6.4-16.57 7.63a39.39 39.39 0 0 0 4.2-3.04l.3-.26c.96-.85 1.86-1.72 1.86-1.72a33.9 33.9 0 0 0 9.04-5.23zm23.68 4.95c1.02 0 1.85.79 1.92 1.8a1.93 1.93 0 0 1-3.84 0c.07-1.01.91-1.8 1.92-1.8z"></path>
    <path d="M0 0h200v40H0z"></path>
  </g>
</svg>
