<svg xmlns="http://www.w3.org/2000/svg" width="117" height="40" viewBox="0 0 117 40">
  <title>Charm Industrial</title>
  <g fill="none" fill-rule="evenodd">
    <path fill="#434343" fill-rule="nonzero" d="M53.76 28.67v.26c0 .18-.05.27-.14.27-.1 0-.13.16-.13.93 0 1-.07 1.24-.47 1.62-.32.3-1.05.35-1.43.1-.44-.27-.57-.65-.57-1.7 0-.87-.01-.94-.18-.98-.13-.04-.18-.1-.15-.25.02-.18.06-.2.47-.2h.13c.53 0 .57 0 .6.2.02.15-.02.21-.16.25-.19.05-.2.09-.16.96.03.81.05.93.24 1.13.12.13.3.23.42.23.55 0 .73-.38.73-1.57 0-.66-.01-.72-.17-.72-.14 0-.18-.06-.18-.27v-.26h1.15zm-8.12 0v.26c0 .18-.04.27-.13.27-.1 0-.13.18-.13 1.17v1.56h-.7l-.62-1.12-.62-1.13v1.13c0 .53.03.58.18.62.13.03.18.1.16.25-.03.19-.08.2-.63.23l-.6.03v-.27c0-.18.05-.27.14-.27.1 0 .13-.16.13-.94v-.16c0-.92-.02-1.1-.13-1.1-.09 0-.13-.1-.13-.27 0-.22 0-.26.3-.26h.71l1.19 2.16V30c0-.66-.02-.81-.13-.81-.09 0-.13-.1-.13-.27v-.26h1.14zm11.16.26c.4.4.39.65-.04.69-.25.02-.33-.01-.4-.17-.14-.3-.35-.4-.64-.3-.27.1-.36.34-.2.53.06.07.36.21.68.31.44.15.6.26.74.47.2.34.21.52.03.9-.23.47-1.02.72-1.58.49-.28-.12-.66-.6-.66-.84 0-.2.03-.23.31-.23.27 0 .33.04.4.27.17.48.96.44.96-.04 0-.25-.24-.4-.85-.57-.74-.2-.98-.97-.48-1.53.22-.24.29-.28.7-.29h.14c.53 0 .6.02.89.31zm12.58-.27l.37.02.37.03.48 1.35c.38 1.03.52 1.34.64 1.34.11 0 .16.07.16.27v.26h-1.15v-.26c0-.15.04-.27.08-.27.05 0 .05-.1 0-.26-.1-.26-.12-.27-.6-.27h-.12c-.38 0-.4.03-.46.24-.04.15-.02.26.03.27.06.02.1.15.1.3v.25h-.7c-.45 0-.45-.02-.45-.25 0-.17.06-.27.16-.3.1-.03.25-.33.45-.91l.47-1.34.17-.47zm4.22 0v.27c0 .18-.04.27-.13.27-.11 0-.13.18-.13 1.1v1.11l.5-.03c.48-.02.51-.04.54-.27.02-.2.07-.24.28-.24.24 0 .26 0 .26.42v.64h-2.47v-.26c0-.18.05-.27.14-.27.1 0 .13-.16.13-.94v-.16c0-.92-.02-1.1-.13-1.1-.1 0-.14-.1-.14-.27v-.26h1.15zm-32.37 0v.27c0 .18-.04.27-.13.27-.1 0-.13.16-.13.93v.17c0 .92.02 1.1.13 1.1.09 0 .13.09.13.27v.26H40.1v-.26c0-.18.04-.27.13-.27.1 0 .13-.18.13-1.1 0-.92-.02-1.1-.13-1.1-.09 0-.13-.1-.13-.27v-.26h1.14zm6.35 0c1.13 0 1.53.2 1.86.93.4.85 0 1.94-.83 2.25-.13.05-.6.1-1.03.1h-.8v-.27c0-.18.05-.27.14-.27.11 0 .13-.18.13-1.1v-.17c0-.77-.02-.93-.13-.93-.09 0-.13-.1-.13-.27v-.26zm19.5 0v.27c0 .18-.05.27-.14.27-.1 0-.13.16-.13.93v.17c0 .92.02 1.1.13 1.1.09 0 .13.09.13.27v.26h-1.14v-.26c0-.18.04-.27.13-.27.11 0 .13-.18.13-1.1 0-.92-.02-1.1-.13-1.1-.09 0-.13-.1-.13-.27v-.26h1.14zm-6.18 0v.45c0 .43 0 .44-.26.44-.21 0-.27-.04-.27-.18 0-.14-.06-.17-.3-.17h-.32v1.1c0 .92.03 1.1.14 1.1.08 0 .13.09.13.27v.26h-.56c-.3 0-.59-.03-.62-.06-.12-.12-.05-.4.12-.44.15-.04.17-.11.18-.97V29.2h-.27c-.2 0-.26.04-.26.18 0 .15-.05.18-.29.15-.25-.02-.28-.04-.29-.33v-.49l1.44-.02 1.43-.03zm1.15 0l.98.02c.94.03.98.04 1.19.28.27.32.29.89.04 1.16-.16.17-.17.21-.05.53.07.2.12.43.13.52 0 .09.08.18.18.2.12.04.17.13.17.3 0 .25-.02.26-.39.26h-.38l-.11-.46c-.18-.76-.31-.95-.68-.95-.18 0-.2.04-.2.44 0 .33.03.44.13.44.09 0 .13.09.13.27v.26h-1.14v-.26c0-.18.04-.27.13-.27.11 0 .13-.18.13-1.1v-.17c0-.77-.03-.93-.13-.93-.09 0-.13-.1-.13-.28v-.27zM11.69 9.28c1.65.07 2.98.4 4.46 1.07l.65.3-.02-.59-.02-.58h2.56l.02 3.64.02 3.64-1.12-.03-1.12-.02-.2-.8c-.46-1.77-1.48-3.19-2.69-3.73a6.13 6.13 0 0 0-5.08.04 6.91 6.91 0 0 0-2.28 2.03c-1.02 1.43-1.62 3.64-1.62 5.98 0 4.27 1.75 7.54 4.56 8.48 2.76.93 6.44-.2 8.78-2.68.32-.35.65-.64.72-.64.19 0 1.55 1.23 1.55 1.39a9 9 0 0 1-1.7 1.99 10.22 10.22 0 0 1-3.48 2.09 13.5 13.5 0 0 1-6.19.79 12.31 12.31 0 0 1-4.41-1.5 10.52 10.52 0 0 1-4.92-7.12c-.23-1.17-.2-3.48.05-4.66a12 12 0 0 1 2.9-5.77 10.75 10.75 0 0 1 8.58-3.32zm36.28 19.9h-.3v2.21h.3c.2 0 .4-.08.57-.23.36-.3.51-.79.37-1.21-.14-.43-.55-.76-.94-.76zm-9.25 1.55l.03.24.03.24h-16.7l.03-.24.03-.24h16.58zm51.15 0l.03.24.03.24H76.68l.02-.24.03-.24h13.14zm8.46-21.48l1.45 3.93c2.43 6.57 3.1 8.38 3.54 9.7l.06.15.2.62.52 1.57.4-1.23a950 950 0 0 1 2.63-7.5l.25-.7c1.1-3.13 2.13-6.02 2.23-6.26l.11-.28h6.61v2.11l-.58.1c-.67.1-.95.26-1.13.63l-.03.07-.03.06c-.11.26-.16.59-.17 1.48v.36c0 1.1.07 2.87.18 5.89.1 2.98.18 5.71.19 6.77V27.17l-.06.62 1.05.02 1.04.03.03 1.03c.01.56 0 1.11-.03 1.22l-.04.2-3.95-.03-3.94-.02-.03-1.05c-.02-1.02-.06-1.1.42-1.15l.27-.03c.4-.05.54-.11.76-.34.32-.32.46-.62.47-2.01v-.3a141.99 141.99 0 0 0-.18-5.2l-.02-.6-.12-3.16c-.03-.81-.08-1.5-.11-1.52a205.4 205.4 0 0 0-2.5 6.9l-2.79 7.84-.33.92h-1.36c-.75 0-1.38-.03-1.4-.07-.03-.03-.98-2.47-2.13-5.42a101.77 101.77 0 0 1-2.85-7.79L96.9 17l-.2-.7-.31-1.15v5.8c-.01 3.19-.04 6.04-.07 6.33l-.05.52h2.12l-.03 1.23-.02 1.22H91.8V28.1l.55-.07c.87-.11 1.17-.44 1.32-1.43.05-.3.13-3.46.18-7 .05-3.54.1-6.77.14-7.2l.05-.75-2.07.06-.02-1.22-.03-1.23h6.4zM69.72 29.55c-.05 0-.26.59-.26.74 0 .03.11.05.26.05.15 0 .26-.02.26-.05 0-.15-.2-.74-.26-.74zm-6.46-.35h-.33v.79h.33c.19 0 .39-.05.45-.1.05-.06.1-.2.1-.3 0-.27-.17-.4-.55-.4zm-24.54.13v.53l-8.27.02h-4.93c-2.8 0-3.36-.03-3.4-.1a.62.62 0 0 1 0-.3c.04-.12.41-.14 4.3-.15h12.3zm51.15 0v.53l-6.55.02h-3.91c-2.2 0-2.66-.03-2.69-.1a.62.62 0 0 1-.02-.3c.03-.11.23-.14 3.51-.15h9.66zM75.11 9.37l1.97.01c3.92.03 5.08.06 6.14.26l.19.03.82.2c1.47.38 2.3.8 3.06 1.5.64.6.99 1.22 1.18 2.11.33 1.58-.05 2.78-1.28 4a7.34 7.34 0 0 1-3.18 1.75l-.83.24.35.18c.65.33 1.23.87 2.53 2.33 2.06 2.33 2.49 2.66 3.6 2.85l.57.1v1.75l-2.72.03-2.72.02-.37-.26c-.6-.41-1.43-1.33-3.1-3.4a57.53 57.53 0 0 0-2.06-2.45l-.5-.5h-1.54l-.01 1.51c0 .84-.04 1.87-.07 2.3l-.06.77 1.33-.02 1.32-.03.02 1.04.03 1.04H74.16c-2.3 0-4.09-.03-4.12-.06a5.81 5.81 0 0 1 .01-1.67c.04-.06.34-.13.67-.16.34-.03.73-.12.87-.2.32-.16.58-.58.64-1.04.03-.2.06-3 .07-6.24l.02-5.89-1.14-.02-1.15-.02V9.49l1.1-.07c.37-.03 1.5-.04 2.93-.05zm-43.14.07v1.73l-.71.1c-.82.1-1.1.27-1.36.78-.16.31-.18.55-.2 2.62l-.03 2.27h8.64l.03-2.71.02-2.45v-.28c0-.02-.45-.03-1.02-.03h-1.31V9.44h9.44v1.74l-.7.1c-.86.1-1.17.3-1.4.87v.03l-.02.05c-.12.39-.14 1.14-.18 6.38l-.03 5.28V24.68c.01.02.53.02 1.15 0l1.13-.03.05 2.08-4.7-.02-4.7-.03v-1.76l.67-.07c.78-.09 1.12-.26 1.36-.7.16-.3.18-.53.2-2.71l.03-2.39H29.7l-.03 2.8-.02 2.25v.58c.02.02.53.02 1.16 0l1.13-.03v2.03l-4.7.03-4.7.02.02-.9.03-.91.65-.07c.86-.1 1.13-.24 1.36-.75l.03-.07.03-.06c.13-.34.14-.8.16-3.95 0-2 .03-4.76.04-6.1l.02-2.45h-2.33V9.44h9.43zM58.87 9l.45.9c.25.5 1.8 3.53 3.46 6.73 1.37 2.65 2.17 4.22 2.67 5.22l.18.35c.37.75.53 1.11.65 1.43l.03.09.03.09.05.13.03.1.2.61h1.82v2.03l-4.36.03c-3.43.01-4.37 0-4.43-.1a3.85 3.85 0 0 1 .03-1.63c.06-.06.24-.1.4-.1.41 0 .88-.26 1-.55.15-.35.05-.77-.45-1.83l-.44-.92-1.65.06c-.9.03-2.45.06-3.42.06h-1.76l-.66 1.38a81.3 81.3 0 0 0-.7 1.46c-.01.05.37.07 1.02.05l1.05-.02.02 1.08.02 1.08h-7.06v-1.31c0-.62.07-.58.69-.68a2.63 2.63 0 0 0 1.54-1.1c.14-.2 1.66-3.3 3.26-6.58l.62-1.28c1.29-2.65 2.51-5.2 2.98-6.23l.25-.55h2.48zm-2.14 4.35c-.1.01-.2.21-.32.6a33.2 33.2 0 0 1-1.6 3.95c-.45.98-.79 1.83-.76 1.9.04.1.33.13 2.01.13h.89c1.35 0 2.47-.03 2.53-.07.1-.07-.07-.47-.8-2a25.46 25.46 0 0 1-1.66-3.97c-.1-.37-.2-.55-.29-.54zM79.3 11.1c-1.24 0-1.8.2-2.1.77-.16.3-.19.4-.2 2.18v4.18l.62.05c.85.08 2.44 0 3.16-.14 1.23-.26 2.15-.88 2.57-1.75.43-.9.5-2.29.18-3.25-.43-1.25-2.07-2.04-4.23-2.04z"></path>
    <path d="M0 0h117v40H0z"></path>
  </g>
</svg>
