<svg height='300px' width='300px'  fill="#050049" xmlns:dc="http://purl.org/dc/elements/1.1/" xmlns:cc="http://creativecommons.org/ns#" xmlns:rdf="http://www.w3.org/1999/02/22-rdf-syntax-ns#" xmlns:svg="http://www.w3.org/2000/svg" xmlns="http://www.w3.org/2000/svg" version="1.1" viewBox="0 0 24 24" x="0px" y="0px"><g transform="matrix(1.0385257,0,0,1.0385257,-0.46231577,-302.31941)" style="" display="inline" stroke-width="0.962903"><path style="color:#000000;font-style:normal;font-variant:normal;font-weight:normal;font-stretch:normal;font-size:medium;line-height:normal;font-family:sans-serif;font-variant-ligatures:normal;font-variant-position:normal;font-variant-caps:normal;font-variant-numeric:normal;font-variant-alternates:normal;font-variant-east-asian:normal;font-feature-settings:normal;font-variation-settings:normal;text-indent:0;text-align:start;text-decoration:none;text-decoration-line:none;text-decoration-style:solid;text-decoration-color:#000000;letter-spacing:normal;word-spacing:normal;text-transform:none;writing-mode:lr-tb;direction:ltr;text-orientation:mixed;dominant-baseline:auto;baseline-shift:baseline;text-anchor:start;white-space:normal;shape-padding:0;shape-margin:0;inline-size:0;clip-rule:nonzero;display:inline;overflow:visible;visibility:visible;opacity:1;isolation:auto;mix-blend-mode:normal;color-interpolation:sRGB;color-interpolation-filters:linearRGB;solid-color:#000000;solid-opacity:1;vector-effect:none;fill:#050049;fill-opacity:1;fill-rule:nonzero;stroke:none;stroke-width:0.962903;stroke-linecap:square;stroke-linejoin:miter;stroke-miterlimit:4;stroke-dasharray:none;stroke-dashoffset:0;stroke-opacity:1;paint-order:stroke fill markers;color-rendering:auto;image-rendering:auto;shape-rendering:auto;text-rendering:auto;enable-background:accumulate;stop-color:#000000;stop-opacity:1" d="m 6.5855558,292.63998 v 2.66867 h -1.93333 v 1.93521 h -2.672433 v 0.9629 h 2.672433 v 2.40538 h -2.672433 v 0.96291 h 2.672433 v 2.16841 h -2.672433 v 0.9629 h 2.672433 v 2.40538 h -2.672433 v 0.9629 h 2.672433 v 1.93333 h 1.93333 v 2.67056 h 0.962903 v -2.67056 h 2.403498 v 2.67056 h 0.9629042 v -2.67056 h 2.170294 v 2.67056 h 0.962903 v -2.67056 h 2.403497 v 2.67056 h 0.962903 v -2.67056 h 1.933329 v -1.93333 h 2.672434 v -0.9629 h -2.672434 v -2.40538 h 2.672434 v -0.9629 h -2.672434 v -2.16841 h 2.672434 v -0.96291 h -2.672434 v -2.40538 h 2.672434 v -0.9629 h -2.672434 v -1.93521 h -1.933329 v -2.66867 h -0.962903 v 2.66867 h -2.403497 v -2.66867 h -0.962903 v 2.66867 h -2.170294 v -2.66867 H 9.9519568 v 2.66867 h -2.403498 v -2.66867 z m -0.970427,3.63157 H 18.384884 v 12.77352 H 5.6151288 Z"></path><path style="color:#000000;font-style:normal;font-variant:normal;font-weight:normal;font-stretch:normal;font-size:medium;line-height:normal;font-family:sans-serif;font-variant-ligatures:normal;font-variant-position:normal;font-variant-caps:normal;font-variant-numeric:normal;font-variant-alternates:normal;font-variant-east-asian:normal;font-feature-settings:normal;font-variation-settings:normal;text-indent:0;text-align:start;text-decoration:none;text-decoration-line:none;text-decoration-style:solid;text-decoration-color:#000000;letter-spacing:normal;word-spacing:normal;text-transform:none;writing-mode:lr-tb;direction:ltr;text-orientation:mixed;dominant-baseline:auto;baseline-shift:baseline;text-anchor:start;white-space:normal;shape-padding:0;shape-margin:0;inline-size:0;clip-rule:nonzero;display:inline;overflow:visible;visibility:visible;opacity:1;isolation:auto;mix-blend-mode:normal;color-interpolation:sRGB;color-interpolation-filters:linearRGB;solid-color:#000000;solid-opacity:1;vector-effect:none;fill:#050049;fill-opacity:1;fill-rule:nonzero;stroke:none;stroke-width:0.9629;stroke-linecap:square;stroke-linejoin:miter;stroke-miterlimit:4;stroke-dasharray:none;stroke-dashoffset:0;stroke-opacity:1;paint-order:stroke fill markers;color-rendering:auto;image-rendering:auto;shape-rendering:auto;text-rendering:auto;enable-background:accumulate;stop-color:#000000;stop-opacity:1" d="m 7.8857493,298.54597 c 0,2.74219 0,5.48437 0,8.22656 2.7428387,0 5.4856777,0 8.2285157,0 0,-2.74219 0,-5.48437 0,-8.22656 -2.742838,0 -5.485677,0 -8.2285157,0 z m 0.962891,0.96289 c 2.1009117,0 4.2018217,0 6.3027337,0 0,2.10026 0,4.20052 0,6.30078 -2.100912,0 -4.201822,0 -6.3027337,0 0,-2.10026 0,-4.20052 0,-6.30078 z"></path></g></svg>