<svg height='300px' width='300px'  fill="#050049" xmlns="http://www.w3.org/2000/svg" xmlns:xlink="http://www.w3.org/1999/xlink" version="1.0" x="0px" y="0px" viewBox="0 0 32 32" enable-background="new 0 0 32 32" xml:space="preserve"><g><path d="M28,15c0.553,0,1-0.447,1-1v-2c0-1.654-1.346-3-3-3H6c-1.654,0-3,1.346-3,3v2c0,0.553,0.447,1,1,1c0.552,0,1,0.448,1,1   s-0.448,1-1,1c-0.553,0-1,0.447-1,1v1c0,1.654,1.346,3,3,3v0.5C6,22.776,6.224,23,6.5,23h1C7.776,23,8,22.776,8,22.5V22h1v0.5   C9,22.776,9.224,23,9.5,23h1c0.276,0,0.5-0.224,0.5-0.5V22h1v0.5c0,0.276,0.224,0.5,0.5,0.5h1c0.276,0,0.5-0.224,0.5-0.5V22h4v0.5   c0,0.276,0.224,0.5,0.5,0.5h1c0.276,0,0.5-0.224,0.5-0.5V22h1v0.5c0,0.276,0.224,0.5,0.5,0.5h1c0.276,0,0.5-0.224,0.5-0.5V22h1v0.5   c0,0.276,0.224,0.5,0.5,0.5h1c0.276,0,0.5-0.224,0.5-0.5V22c1.654,0,3-1.346,3-3v-1c0-0.553-0.447-1-1-1c-0.552,0-1-0.448-1-1   S27.448,15,28,15z M27,13.171c-1.164,0.413-2,1.525-2,2.829s0.836,2.416,2,2.829V19c0,0.552-0.448,1-1,1H6c-0.552,0-1-0.448-1-1   v-0.171C6.164,18.416,7,17.304,7,16s-0.836-2.416-2-2.829V12c0-0.552,0.448-1,1-1h20c0.552,0,1,0.448,1,1V13.171z"></path><path d="M15,12h-5c-1.103,0-2,0.897-2,2v3c0,1.103,0.897,2,2,2h5c1.103,0,2-0.897,2-2v-3C17,12.897,16.103,12,15,12z M10,17v-3h5   l0.002,3H10z"></path><path d="M22,12h-2c-1.103,0-2,0.897-2,2v3c0,1.103,0.897,2,2,2h2c1.103,0,2-0.897,2-2v-3C24,12.897,23.103,12,22,12z M20,17v-3h2   l0.002,3H20z"></path></g></svg>