<svg height='300px' width='300px'  fill="#050049" xmlns="http://www.w3.org/2000/svg" xmlns:xlink="http://www.w3.org/1999/xlink" version="1.1" x="0px" y="0px" viewBox="0 0 1024 1024" style="enable-background:new 0 0 1024 1024;" xml:space="preserve"><g><g><g><path d="M910.2,512c0,20-1.4,39.9-4,59.7c0.5-4,1.1-8,1.6-12c-5.3,38.8-15.6,76.7-30.8,112.8     c1.5-3.6,3-7.2,4.5-10.7c-15,35.2-34.4,68.4-57.8,98.7c2.3-3,4.7-6.1,7-9.1c-23.1,29.7-49.7,56.4-79.4,79.4c3-2.3,6.1-4.7,9.1-7     c-30.3,23.4-63.4,42.8-98.7,57.8c3.6-1.5,7.2-3,10.7-4.5c-36.1,15.2-74,25.6-112.8,30.8c4-0.5,8-1.1,12-1.6     c-39.6,5.3-79.8,5.3-119.4,0c4,0.5,8,1.1,12,1.6c-38.8-5.3-76.7-15.6-112.8-30.8c3.6,1.5,7.2,3,10.7,4.5     c-35.2-15-68.4-34.4-98.7-57.8c3,2.3,6.1,4.7,9.1,7c-29.7-23.1-56.4-49.7-79.4-79.4c2.3,3,4.7,6.1,7,9.1     c-23.4-30.3-42.8-63.4-57.8-98.7c1.5,3.6,3,7.2,4.5,10.7c-15.2-36.1-25.6-74-30.8-112.8c0.5,4,1.1,8,1.6,12     c-5.3-39.6-5.3-79.8,0-119.4c-0.5,4-1.1,8-1.6,12c5.3-38.8,15.6-76.7,30.8-112.8c-1.5,3.6-3,7.2-4.5,10.7     c15-35.2,34.4-68.4,57.8-98.7c-2.3,3-4.7,6.1-7,9.1c23.1-29.7,49.7-56.4,79.4-79.4c-3,2.3-6.1,4.7-9.1,7     c30.3-23.4,63.4-42.8,98.7-57.8c-3.6,1.5-7.2,3-10.7,4.5c36.1-15.2,74-25.6,112.8-30.8c-4,0.5-8,1.1-12,1.6     c39.6-5.3,79.8-5.3,119.4,0c-4-0.5-8-1.1-12-1.6c38.8,5.3,76.7,15.6,112.8,30.8c-3.6-1.5-7.2-3-10.7-4.5     c35.2,15,68.4,34.4,98.7,57.8c-3-2.3-6.1-4.7-9.1-7c29.7,23.1,56.4,49.7,79.4,79.4c-2.3-3-4.7-6.1-7-9.1     c23.4,30.3,42.8,63.4,57.8,98.7c-1.5-3.6-3-7.2-4.5-10.7c15.2,36.1,25.6,74,30.8,112.8c-0.5-4-1.1-8-1.6-12     C908.9,472.1,910.2,492,910.2,512c0,11.5,5,23.6,13.2,31.8c7.8,7.8,20.6,13.7,31.8,13.2c11.6-0.5,23.7-4.3,31.8-13.2     c8.1-8.8,13.2-19.6,13.2-31.8c-0.1-50.2-7.7-101.1-23.2-148.9c-15-46.4-36.7-91.1-65-130.8c-15-21.1-31.3-41.3-49.3-59.9     c-17.9-18.5-37.5-35-57.9-50.6C766,91.9,722.6,69.2,676.7,52.4c-47-17.2-97.2-26.3-147.1-28.3c-50.6-2-102.3,4.3-151,18.1     c-46.7,13.3-92.1,33.7-132.7,60.5c-40.2,26.4-77.1,58.4-107.7,95.5c-16.5,20-31.9,41-45.3,63.2c-13.5,22.5-24.5,46.1-34.5,70.4     C39.4,378.1,29,427.3,25.1,477c-4,50.8,0.8,102.7,12.8,152.1c11.5,47.3,30.7,93.5,56,135.1c24.9,41,56,79,91.9,110.9     c36.3,32.2,77,59.8,121.2,79.8c24,10.9,48.7,20.4,74.1,27.5c25.8,7.2,52.1,11.6,78.7,14.7c50.9,6,102.6,2.7,152.8-7.4     c47.9-9.7,94.7-27.6,137.4-51.4c42.1-23.4,81.2-53.8,114.5-88.6c33.2-34.8,61.9-74.7,83.4-117.8c22-44.2,38.1-91.3,45.6-140.1     c4.1-26.5,6.7-53,6.8-79.8c0-11.5-5-23.7-13.2-31.8c-7.8-7.8-20.6-13.7-31.8-13.2C930.8,468.1,910.3,486.8,910.2,512z"></path></g></g><g><g><path d="M619.2,512c0,7-0.5,13.9-1.4,20.8c0.5-4,1.1-8,1.6-12c-1.9,13.4-5.5,26.3-10.7,38.8     c1.5-3.6,3-7.2,4.5-10.7c-5.2,12.1-11.9,23.5-20,33.9c2.3-3,4.7-6.1,7-9.1c-7.8,10-16.8,18.9-26.7,26.7c3-2.3,6.1-4.7,9.1-7     c-10.4,8.1-21.8,14.7-33.9,20c3.6-1.5,7.2-3,10.7-4.5c-12.4,5.2-25.4,8.8-38.8,10.7c4-0.5,8-1.1,12-1.6     c-13.8,1.8-27.7,1.8-41.5,0c4,0.5,8,1.1,12,1.6c-13.4-1.9-26.3-5.5-38.8-10.7c3.6,1.5,7.2,3,10.7,4.5     c-12.1-5.2-23.5-11.9-33.9-20c3,2.3,6.1,4.7,9.1,7c-10-7.8-18.9-16.8-26.7-26.7c2.3,3,4.7,6.1,7,9.1c-8.1-10.4-14.7-21.8-20-33.9     c1.5,3.6,3,7.2,4.5,10.7c-5.2-12.4-8.8-25.4-10.7-38.8c0.5,4,1.1,8,1.6,12c-1.8-13.8-1.8-27.7,0-41.5c-0.5,4-1.1,8-1.6,12     c1.9-13.4,5.5-26.3,10.7-38.8c-1.5,3.6-3,7.2-4.5,10.7c5.2-12.1,11.9-23.5,20-33.9c-2.3,3-4.7,6.1-7,9.1     c7.8-10,16.8-18.9,26.7-26.7c-3,2.3-6.1,4.7-9.1,7c10.4-8.1,21.8-14.7,33.9-20c-3.6,1.5-7.2,3-10.7,4.5     c12.4-5.2,25.4-8.8,38.8-10.7c-4,0.5-8,1.1-12,1.6c13.8-1.8,27.7-1.8,41.5,0c-4-0.5-8-1.1-12-1.6c13.4,1.9,26.3,5.5,38.8,10.7     c-3.6-1.5-7.2-3-10.7-4.5c12.1,5.2,23.5,11.9,33.9,20c-3-2.3-6.1-4.7-9.1-7c10,7.8,18.9,16.8,26.7,26.7c-2.3-3-4.7-6.1-7-9.1     c8.1,10.4,14.7,21.8,20,33.9c-1.5-3.6-3-7.2-4.5-10.7c5.2,12.4,8.8,25.4,10.7,38.8c-0.5-4-1.1-8-1.6-12     C618.7,498.1,619.2,505,619.2,512c0.1,11.6,5,23.6,13.2,31.8c7.8,7.8,20.6,13.7,31.8,13.2c11.6-0.5,23.7-4.3,31.8-13.2     c8.1-8.8,13.2-19.6,13.2-31.8c-0.2-39.1-11.7-79.6-34.7-111.5c-6.5-9.1-13.5-18.1-21.3-26.1c-7.9-8.1-16.6-15-25.6-21.8     c-15.5-11.7-32.7-20.1-50.9-26.8c-37.2-13.8-80.7-14.4-118.7-3.5c-36.5,10.4-71.4,32-95.6,61.4c-7.1,8.7-14.1,17.7-19.9,27.3     c-5.9,9.8-10.3,20.2-14.6,30.8c-7.5,18.4-11.1,38-12.7,57.7c-3.2,39.2,7.3,80.6,27.7,114.2c19.6,32.3,49.2,60.4,83.8,76.1     c10.4,4.7,21,9.2,32,12.3c11.5,3.2,23.4,4.8,35.2,6.2c20,2.4,40.5,0.4,60.2-3.5c37.4-7.5,73.3-28.1,99.6-55.5     c26.4-27.6,46.2-63.7,52.1-101.7c1.8-11.8,3.4-23.5,3.4-35.4c0.1-11.5-5.1-23.7-13.2-31.8c-7.8-7.8-20.6-13.7-31.8-13.2     C639.8,468.1,619.4,486.8,619.2,512z"></path></g></g><g><g><path d="M778,512c0,13.9-0.9,27.8-2.8,41.6c0.5-4,1.1-8,1.6-12c-3.7,27.2-10.9,53.8-21.5,79.1     c1.5-3.6,3-7.2,4.5-10.7c-10.5,24.7-24.1,47.9-40.4,69.2c2.3-3,4.7-6.1,7-9.1c-16.3,21.1-35.2,40-56.3,56.3c3-2.3,6.1-4.7,9.1-7     c-21.3,16.4-44.5,29.9-69.2,40.4c3.6-1.5,7.2-3,10.7-4.5c-25.3,10.6-51.9,17.8-79.1,21.5c4-0.5,8-1.1,12-1.6     c-13.8,1.8-27.7,2.7-41.6,2.8c-11.6,0-23.6,5-31.8,13.2c-7.8,7.8-13.7,20.6-13.2,31.8c0.5,11.6,4.3,23.7,13.2,31.8     c8.8,8.1,19.6,13.2,31.8,13.2c71.8-0.2,144.6-22,203.2-63.8c15.5-11.1,30.6-23.1,44.3-36.3c13.8-13.3,25.9-28,37.6-43.2     c21.6-28.2,37.8-59.7,50.1-93c14-38,20.7-79.3,20.8-119.7c0-11.5-5-23.7-13.2-31.8c-7.8-7.8-20.6-13.7-31.8-13.2     C798.6,468.1,778.1,486.8,778,512L778,512z"></path></g></g><g><g><path d="M246,512c0-13.9,0.9-27.8,2.8-41.6c-0.5,4-1.1,8-1.6,12c3.7-27.2,10.9-53.8,21.5-79.1     c-1.5,3.6-3,7.2-4.5,10.7c10.5-24.7,24.1-47.9,40.4-69.2c-2.3,3-4.7,6.1-7,9.1c16.3-21.1,35.2-40,56.3-56.3c-3,2.3-6.1,4.7-9.1,7     c21.3-16.4,44.5-29.9,69.2-40.4c-3.6,1.5-7.2,3-10.7,4.5c25.3-10.6,51.9-17.8,79.1-21.5c-4,0.5-8,1.1-12,1.6     c13.8-1.8,27.7-2.7,41.6-2.8c11.6,0,23.6-5,31.8-13.2c7.8-7.8,13.7-20.6,13.2-31.8c-0.5-11.6-4.3-23.7-13.2-31.8     C535,161.1,524.2,156,512,156c-71.8,0.2-144.6,22-203.2,63.8c-15.5,11.1-30.6,23.1-44.3,36.3c-13.8,13.3-25.9,28-37.6,43.2     c-21.6,28.2-37.8,59.7-50.1,93c-14,38-20.7,79.3-20.8,119.7c0,11.5,5,23.7,13.2,31.8c7.8,7.8,20.6,13.7,31.8,13.2     C225.4,555.9,245.9,537.2,246,512L246,512z"></path></g></g><g><g><path d="M481.2,512c0,0.5,0,0.9-0.1,1.4c0.5-4,1.1-8,1.6-12c-0.2,1.4-0.5,2.6-0.9,3.9c1.5-3.6,3-7.2,4.5-10.7     c-0.6,1.2-1.1,2.3-1.9,3.4c2.3-3,4.7-6.1,7-9.1c-0.9,1-1.7,1.9-2.7,2.7c3-2.3,6.1-4.7,9.1-7c-1.1,0.8-2.1,1.4-3.4,1.9     c3.6-1.5,7.2-3,10.7-4.5c-1.3,0.5-2.5,0.7-3.9,0.9c4-0.5,8-1.1,12-1.6c-0.9,0.1-1.8,0.1-2.7,0c4,0.5,8,1.1,12,1.6     c-1.4-0.2-2.6-0.5-3.9-0.9c3.6,1.5,7.2,3,10.7,4.5c-1.2-0.6-2.3-1.1-3.4-1.9c3,2.3,6.1,4.7,9.1,7c-1-0.9-1.9-1.7-2.7-2.7     c2.3,3,4.7,6.1,7,9.1c-0.8-1.1-1.4-2.1-1.9-3.4c1.5,3.6,3,7.2,4.5,10.7c-0.5-1.3-0.7-2.5-0.9-3.9c0.5,4,1.1,8,1.6,12     c-0.1-0.9-0.1-1.8,0-2.7c-0.5,4-1.1,8-1.6,12c0.2-1.4,0.5-2.6,0.9-3.9c-1.5,3.6-3,7.2-4.5,10.7c0.6-1.2,1.1-2.3,1.9-3.4     c-2.3,3-4.7,6.1-7,9.1c0.9-1,1.7-1.9,2.7-2.7c-3,2.3-6.1,4.7-9.1,7c1.1-0.8,2.1-1.4,3.4-1.9c-3.6,1.5-7.2,3-10.7,4.5     c1.3-0.5,2.5-0.7,3.9-0.9c-4,0.5-8,1.1-12,1.6c0.9-0.1,1.8-0.1,2.7,0c-4-0.5-8-1.1-12-1.6c1.4,0.2,2.6,0.5,3.9,0.9     c-3.6-1.5-7.2-3-10.7-4.5c1.2,0.6,2.3,1.1,3.4,1.9c-3-2.3-6.1-4.7-9.1-7c1,0.9,1.9,1.7,2.7,2.7c-2.3-3-4.7-6.1-7-9.1     c0.8,1.1,1.4,2.1,1.9,3.4c-1.5-3.6-3-7.2-4.5-10.7c0.5,1.3,0.7,2.5,0.9,3.9c-0.5-4-1.1-8-1.6-12     C481.2,511.1,481.2,511.5,481.2,512c0.6,11.9,4.6,23.3,13.2,31.8c7.8,7.8,20.6,13.7,31.8,13.2c11.6-0.5,23.7-4.3,31.8-13.2     c7.9-8.6,13.7-19.8,13.2-31.8c-0.8-16.1-6.2-30.1-17.4-41.9c-10.6-11.1-26.7-17.4-41.9-17.4c-32.9,0-58.3,27.1-59.2,59.2     c-0.9,32.2,27.8,59.2,59.2,59.2c15.1,0,30.8-6.2,41.4-16.9c11.6-11.6,17-26.1,17.8-42.3c1.1-23.5-21.5-46.1-45-45     C500.9,468.1,482.4,486.8,481.2,512z"></path></g></g></g></svg>