<svg xmlns="http://www.w3.org/2000/svg" width="690.0456" height="827.9881" viewBox="0 0 690.0456 827.9881"><defs><style>.cls-1{fill:#4169e1;}</style></defs><g id="Layer_2" data-name="Layer 2"><g id="Layer_1-2" data-name="Layer 1"><path class="cls-1" d="M293.2725,827.9881a17.9045,17.9045,0,0,1-5.0025-.7245,17.2759,17.2759,0,0,1-12.2475-16.5255v-517.5a17.2786,17.2786,0,0,1,28.1865-13.386l379.5,310.5a17.2817,17.2817,0,0,1-10.9366,30.6361H440.5185L307.6245,820.2946A17.2148,17.2148,0,0,1,293.2725,827.9881Zm17.25-498.3525V753.744l106.398-159.5969a17.3415,17.3415,0,0,1,14.352-7.659H624.438Z"/><path class="cls-1" d="M194.1885,568.1a17.7888,17.7888,0,0,1-6.21-1.1385C37.0755,508.8975-38.4795,338.916,19.55,187.9785,77.613,37.0755,247.5945-38.4795,398.532,19.55,549.435,77.613,624.99,247.5945,566.961,398.532a17.2446,17.2446,0,0,1-32.1886-12.3855c51.198-133.17-15.456-283.176-148.626-334.374C252.9765.5056,102.9705,67.1941,51.7725,200.3641s15.456,283.176,148.626,334.374a17.2589,17.2589,0,0,1-6.21,33.3614Z"/></g></g></svg>