<svg xmlns="http://www.w3.org/2000/svg" width="563.7914" height="570.9455" viewBox="0 0 563.7914 570.9455"><defs><style>.cls-1{fill:#4169e1;}</style></defs><g id="Layer_2" data-name="Layer 2"><g id="Layer_1-2" data-name="Layer 1"><path class="cls-1" d="M11.725,570.9455H552.3719A11.4206,11.4206,0,0,0,563.1438,555.73c-5.5363-15.701-17.1337-27.61-27.365-38.12l-3.9865-4.11c-31.2513-32.5956-56.2916-74.5633-80.5065-115.148-22.9623-38.4831-46.7375-78.2272-76.1922-111.0637-7.936-14.0443-26.9161-24.2393-50.1236-30.2759a54.88,54.88,0,0,1,52.8846-39.5512,81.4551,81.4551,0,0,0,52.55-19.2134,74.0625,74.0625,0,0,0,26.1665-49.512,76.3339,76.3339,0,0,0-75.3323-83.74A81.2162,81.2162,0,0,0,301.8922,0a80.1572,80.1572,0,0,0-63.2893,30.7165,64.3723,64.3723,0,0,0-30.37-7.5941A66.2308,66.2308,0,0,0,142.1554,86.15,66.2654,66.2654,0,0,0,87.6427,157.824c3.1889,33.443,33.1523,59.6372,68.2175,59.6372h10.4991a54.8707,54.8707,0,0,1,52.8812,39.56c-25.3856,6.6086-45.7656,18.1791-52.076,34.3375-3.6926,8.5028-7.69,19.4028-11.56,29.9761-3.8139,10.4215-7.7617,21.1986-11.2294,29.127-6.93,15.8628-14.1007,32.2663-24.2426,45.9155-5.2972,7.1257-11.4585,13.6324-17.987,20.524-2.4317,2.5706-4.8625,5.1413-7.2487,7.7389A343.9,343.9,0,0,0,43.45,497.927L42.129,500.47c-4.2435,8.1963-8.2468,15.9352-14.174,20.6689a58.6687,58.6687,0,0,1-6.5681,4.31,79.0587,79.0587,0,0,0-9.4168,6.3391C4.4932,537.8934-2.0413,550.5833.5959,562.0746A11.4158,11.4158,0,0,0,11.725,570.9455Zm154.6343-376.322H155.86c-23.4231,0-43.4-17.117-45.48-38.9456a43.41,43.41,0,0,1,42.2684-47.6666,10.9912,10.9912,0,0,0,10.1537-4.0312,11.8455,11.8455,0,0,0,2.6541-9.2946,37.3473,37.3473,0,0,1-.5357-5.4134,43.3635,43.3635,0,0,1,43.312-43.312,42.59,42.59,0,0,1,26.45,9.3561,11.4169,11.4169,0,0,0,16.9056-3.2175c10.7222-18.3214,29.5288-29.261,50.3037-29.261a58.4016,58.4016,0,0,1,58.07,55.1773,11.423,11.423,0,0,0,4.0539,8.0783,11.2561,11.2561,0,0,0,8.6478,2.6094l2.8545-.3672c16.1971-2.23,33.3427,4.5719,44.6386,16.9771A53.147,53.147,0,0,1,433.84,146.55a51.3262,51.3262,0,0,1-18.1875,34.2625,58.5775,58.5775,0,0,1-37.7975,13.811,77.5165,77.5165,0,0,0-75.1917,57.9921,222.95,222.95,0,0,0-61.1153.0051A77.5083,77.5083,0,0,0,166.3593,194.6235Zm105.7641,78.7284c50.6381,0,84.2369,17.2895,84.2369,28.7252s-33.5988,28.7262-84.2369,28.7262-84.2361-17.29-84.2361-28.7262a6.7747,6.7747,0,0,1,.3293-1.8656c.0177-.04.0371-.09.0548-.1306.05-.1145.0294-.235.0758-.35C192.4381,288.4229,224.8425,273.3519,272.1234,273.3519ZM165.3,359.612c3.7473-8.5694,7.8173-19.6817,11.7541-30.4259.2283-.625.4607-1.2525.69-1.8791,19.2614,17.2137,57.5871,26.334,94.38,26.334,41.4025,0,84.7861-11.53,100.6884-33.1785,14.3248,18.3037,27.56,38.1817,40.129,58.6029-5.132,8.9585-5.9634,22.7408-6.7568,38.0536-2.0459,39.42-6.6069,58.1766-27.0028,58.1766-13.314,0-20.2839-19.1131-20.2839-37.9921v-1.1716c.0227-10.3037.0615-27.5377-11.1342-38.7611-6-6.0165-13.99-9.0664-23.7465-9.0664-28.4246,0-30.7333,32.8407-32.59,59.23-.8533,12.1155-1.7343,24.6445-4.3942,34.8252-3.3,12.6848-14.6752,13.2643-19.3751,12.8962-10.1251-.73-21.0538-7.6269-22.3635-19.386-.753-6.8133,1.7056-16.6992,4.0867-26.2558,4.2266-16.9888,8.5972-34.5522-1.394-47.1309-6.1781-7.7785-16.0463-11.3076-30.4376-11.2293-40.2562.641-42.6314,32.4726-44.36,55.7172-.9257,12.4169-1.8842,25.2576-6.9362,35.3827-4.3934,8.7875-10.2144,12.3167-17.7916,10.9286-9.0158-1.7065-16.9-9.98-17.4075-15.69-2.975-33.3427,12.1525-72.6462,14.1891-77.7589C153.2912,386.859,159.4172,373.0734,165.3,359.612ZM33.1578,545.0191a80.8741,80.8741,0,0,0,9.0487-6.0383c9.7242-7.7676,15.2883-18.5227,20.2-28.0119l1.2828-2.4645a320.9552,320.9552,0,0,1,46.4217-66.5439c-1.9314,12.0733-2.9278,25.08-1.8059,37.6619,1.4943,16.716,17.2677,32.5729,35.9126,36.0962,17.7031,3.34,33.5549-5.3132,42.4646-23.1612,7.0642-14.15,8.2409-29.9466,9.2778-43.8856,2.0737-27.7777,4.3436-34.3012,21.9457-34.58,7.4989-.2,11.14,1.26,12.2,2.5985,2.9935,3.7692-.5467,17.992-2.8882,27.4037-2.8663,11.514-5.827,23.4181-4.6166,34.2962,2.6818,24.1592,23.8687,38.2321,43.4063,39.643q1.84.1338,3.6294.133c19.3583,0,34.6584-11.4963,39.4982-30.0409,3.1889-12.2275,4.1482-25.832,5.0739-38.9852,1.1876-16.9274,2.67-37.998,9.8076-37.998,5.23,0,6.9968,1.7789,7.5822,2.3584,4.5054,4.5164,4.4776,16.2645,4.4607,22.5758v1.2272c0,35.8173,17.73,60.83,43.1217,60.83,45.6645,0,48.1568-48.04,49.8077-79.8318.18-3.4685.3942-7.5637.6974-11.5519.657,1.1,1.3342,2.2068,1.9895,3.3051,24.8676,41.678,50.5825,84.7777,83.6347,119.2466l4.1036,4.2425c4.7623,4.89,9.3948,9.6408,13.3039,14.564H28.24C29.8232,547.0036,31.496,546.0223,33.1578,545.0191Z"/></g></g></svg>