<svg xmlns="http://www.w3.org/2000/svg" width="239.9988" height="209.997" viewBox="0 0 239.9988 209.997"><defs><style>.cls-1{fill:#ffc021;}</style></defs><g id="Layer_2" data-name="Layer 2"><g id="Layer_1-2" data-name="Layer 1"><path class="cls-1" d="M235.7214,164.565l-90-150a29.9952,29.9952,0,0,0-51.444,0l-90,150a29.9951,29.9951,0,0,0,25.722,45.432h180a29.9951,29.9951,0,0,0,25.722-45.432ZM119.9994,44.997a15.0016,15.0016,0,0,1,15,15v60a15,15,0,0,1-30,0v-60A15.0016,15.0016,0,0,1,119.9994,44.997Zm-15,120a15,15,0,1,1,15,15A15.0016,15.0016,0,0,1,104.9994,164.997Z"/></g></g></svg>