<svg height='300px' width='300px'  fill="#ffffff" xmlns="http://www.w3.org/2000/svg" xmlns:xlink="http://www.w3.org/1999/xlink" version="1.1" x="0px" y="0px" viewBox="0 0 100 100" style="enable-background:new 0 0 100 100;" xml:space="preserve"><g><path d="M4.6,33.6v52.2h90.8V33.6V14.2H4.6V33.6z M8.6,18.2h82.8v11.4H8.6V18.2z M8.6,33.6h82.8v48.2H8.6V33.6z"></path><circle cx="14" cy="24" r="3.4"></circle><circle cx="24.4" cy="24" r="3.4"></circle><circle cx="34.7" cy="24" r="3.4"></circle><path d="M42.8,44.4h-4.4c-6.3,0-11.6,4.6-12.5,10.7h-8.4c-1.1,0-2,0.9-2,2s0.9,2,2,2h8.4c1,6.1,6.2,10.7,12.5,10.7h4.4   c1.1,0,2-0.9,2-2V46.4C44.8,45.3,43.9,44.4,42.8,44.4z M40.8,65.8h-2.4c-4.8,0-8.7-3.9-8.7-8.7c0-4.8,3.9-8.7,8.7-8.7h2.4V65.8z"></path><path d="M82.6,55.1h-8.4c-1-6.1-6.2-10.7-12.5-10.7h-4.4c-1.1,0-2,0.9-2,2v3.3h-4.7c-1.1,0-2,0.9-2,2s0.9,2,2,2h4.7v6.9h-4.7   c-1.1,0-2,0.9-2,2s0.9,2,2,2h4.7v3.3c0,1.1,0.9,2,2,2h4.4c6.3,0,11.6-4.6,12.5-10.7h8.4c1.1,0,2-0.9,2-2S83.7,55.1,82.6,55.1z    M61.6,65.8h-2.4V48.4h2.4c4.8,0,8.7,3.9,8.7,8.7C70.4,61.9,66.4,65.8,61.6,65.8z"></path></g></svg>