<svg height='300px' width='300px'  fill="#ffffff" xmlns="http://www.w3.org/2000/svg" viewBox="0 0 64 64" x="0px" y="0px"><title>teamwork and stakeholder</title><path d="M4.92,35a15.68,15.68,0,0,0,4.43.89A22.8,22.8,0,0,0,26.46,54.31l-2.74,1.84,2.22,3.32,7.17-4.79a2,2,0,0,0,.55-2.77l-4.79-7.17L25.54,47,28,50.56A18.85,18.85,0,0,1,13.44,36H16c3.4,0,6.59,0,9.07-1C28.35,33.73,30,31,30,27a14.93,14.93,0,0,0-6.24-12.18,10,10,0,1,0-17.52,0A14.93,14.93,0,0,0,0,27C0,31,1.65,33.73,4.92,35ZM15,4a6,6,0,1,1-6,6A6,6,0,0,1,15,4ZM8.87,17.88a9.92,9.92,0,0,0,12.26,0A10.91,10.91,0,0,1,26,27c0,2.94-1.14,3.79-2.36,4.27-1.91.73-4.92.75-8.12.73h-1c-3.2,0-6.21,0-8.12-.73C5.14,30.79,4,29.94,4,27A10.91,10.91,0,0,1,8.87,17.88Z"></path><path d="M57.76,42.82a10,10,0,0,0-2.89-12.9A22.89,22.89,0,0,0,37.57,9.7l2.71-1.81L38.06,4.57,30.89,9.36a2,2,0,0,0-.55,2.77l4.79,7.17,3.33-2.22L36,13.44a18.88,18.88,0,0,1,14.56,14.7A9.1,9.1,0,0,0,49,28a10,10,0,0,0-8.76,14.82A14.93,14.93,0,0,0,34,55c0,4,1.65,6.73,4.92,8,2.6,1,6,1,9.57,1H50c3.4,0,6.59,0,9.07-1C62.35,61.73,64,59,64,55A14.93,14.93,0,0,0,57.76,42.82ZM49,32a6,6,0,1,1-6,6A6,6,0,0,1,49,32Zm8.64,27.26c-1.91.74-4.93.75-8.12.74h-1c-3.2,0-6.21,0-8.12-.74C39.14,58.79,38,57.94,38,55a10.91,10.91,0,0,1,4.87-9.12,9.92,9.92,0,0,0,12.26,0A10.91,10.91,0,0,1,60,55C60,57.94,58.86,58.79,57.64,59.26Z"></path></svg>