<svg height='300px' width='300px'  fill="#FFFFFF" xmlns="http://www.w3.org/2000/svg" xmlns:xlink="http://www.w3.org/1999/xlink" version="1.1" x="0px" y="0px" viewBox="0 0 32 32" enable-background="new 0 0 32 32" xml:space="preserve"><g><path d="M10,28H4c-0.5527344,0-1-0.4472656-1-1V12c0-0.5527344,0.4472656-1,1-1h6c0.5527344,0,1,0.4472656,1,1v15   C11,27.5527344,10.5527344,28,10,28z M5,26h4V13H5V26z"></path><path d="M19,28h-6c-0.5527344,0-1-0.4472656-1-1V15c0-0.5527344,0.4472656-1,1-1h6c0.5527344,0,1,0.4472656,1,1v12   C20,27.5527344,19.5527344,28,19,28z M14,26h4V16h-4V26z"></path><path d="M28,28h-6c-0.5527344,0-1-0.4472656-1-1V5c0-0.5527344,0.4472656-1,1-1h6c0.5527344,0,1,0.4472656,1,1v22   C29,27.5527344,28.5527344,28,28,28z M23,26h4V6h-4V26z"></path></g></svg>