<svg height='300px' width='300px'  fill="#ffffff" xmlns="http://www.w3.org/2000/svg" xmlns:xlink="http://www.w3.org/1999/xlink" xmlns:serif="http://www.serif.com/" viewBox="0 0 80 80" version="1.1" xml:space="preserve" style="" x="0px" y="0px" fill-rule="evenodd" clip-rule="evenodd" stroke-linejoin="round" stroke-miterlimit="2"><g transform="matrix(0.765957,0,0,0.765957,-10.6383,-7.38298)"><path d="M49,55L31,55L31,52.92C31,52.412 31.412,52 31.92,52C32.254,52 32.628,52 32.949,52C33.402,52 33.788,51.67 33.858,51.223C34.113,49.6 34.679,46 34.679,46L17.42,46C17.176,46 16.942,45.903 16.769,45.73C16.597,45.558 16.5,45.324 16.5,45.08C16.5,40.68 16.5,21.82 16.5,17.42C16.5,17.176 16.597,16.942 16.769,16.77C16.942,16.597 17.176,16.5 17.42,16.5C23.393,16.5 56.607,16.5 62.58,16.5C62.824,16.5 63.058,16.597 63.231,16.77C63.403,16.942 63.5,17.176 63.5,17.42C63.5,21.82 63.5,40.68 63.5,45.08C63.5,45.324 63.403,45.558 63.231,45.73C63.058,45.903 62.824,46 62.58,46C58.885,46 45.321,46 45.321,46C45.321,46 45.887,49.6 46.142,51.223C46.212,51.67 46.598,52 47.051,52C47.372,52 47.746,52 48.08,52C48.588,52 49,52.412 49,52.92L49,55ZM61.389,43.339C61.812,43.339 62.155,43.682 62.155,44.104C62.155,44.527 61.812,44.87 61.389,44.87C60.966,44.87 60.623,44.527 60.623,44.104C60.623,43.682 60.966,43.339 61.389,43.339ZM60,20.92C60,20.412 59.588,20 59.08,20C53.694,20 26.306,20 20.92,20C20.412,20 20,20.412 20,20.92C20,24.561 20,37.939 20,41.58C20,42.088 20.412,42.5 20.92,42.5C26.306,42.5 53.694,42.5 59.08,42.5C59.588,42.5 60,42.088 60,41.58C60,37.939 60,24.561 60,20.92Z"></path></g><g transform="matrix(0.765957,0,0,0.765957,29.3617,32.8723)"><path d="M49,55L31,55L31,52.92C31,52.412 31.412,52 31.92,52C32.254,52 32.628,52 32.949,52C33.402,52 33.788,51.67 33.858,51.223C34.113,49.6 34.679,46 34.679,46L17.42,46C17.176,46 16.942,45.903 16.769,45.73C16.597,45.558 16.5,45.324 16.5,45.08C16.5,40.68 16.5,21.82 16.5,17.42C16.5,17.176 16.597,16.942 16.769,16.77C16.942,16.597 17.176,16.5 17.42,16.5C23.393,16.5 56.607,16.5 62.58,16.5C62.824,16.5 63.058,16.597 63.231,16.77C63.403,16.942 63.5,17.176 63.5,17.42C63.5,21.82 63.5,40.68 63.5,45.08C63.5,45.324 63.403,45.558 63.231,45.73C63.058,45.903 62.824,46 62.58,46C58.885,46 45.321,46 45.321,46C45.321,46 45.887,49.6 46.142,51.223C46.212,51.67 46.598,52 47.051,52C47.372,52 47.746,52 48.08,52C48.588,52 49,52.412 49,52.92L49,55ZM61.389,43.339C61.812,43.339 62.155,43.682 62.155,44.104C62.155,44.527 61.812,44.87 61.389,44.87C60.966,44.87 60.623,44.527 60.623,44.104C60.623,43.682 60.966,43.339 61.389,43.339ZM60,20.92C60,20.412 59.588,20 59.08,20C53.694,20 26.306,20 20.92,20C20.412,20 20,20.412 20,20.92C20,24.561 20,37.939 20,41.58C20,42.088 20.412,42.5 20.92,42.5C26.306,42.5 53.694,42.5 59.08,42.5C59.588,42.5 60,42.088 60,41.58C60,37.939 60,24.561 60,20.92Z"></path></g><g transform="matrix(1.1811e-16,1.92888,-1.92888,1.1811e-16,97.1508,-73.0883)"><path d="M55,18.262C55,18.192 54.972,18.125 54.922,18.077C54.872,18.028 54.805,18.001 54.735,18.003C50.527,18.141 47.141,21.527 47.004,25.735C47.003,25.804 47.029,25.871 47.078,25.921C47.126,25.971 47.193,25.999 47.262,25.999C47.649,26 48.367,26 48.748,26C48.888,26 49.002,25.888 49.006,25.748C49.134,22.635 51.635,20.134 54.748,20.005C54.888,20.001 54.998,19.887 54.998,19.748C55,19.367 55,18.649 55,18.262Z"></path></g><g transform="matrix(1.1811e-16,-1.92888,1.92888,1.1811e-16,-17.1508,153.088)"><path d="M55,18.262C55,18.192 54.972,18.125 54.922,18.077C54.872,18.028 54.805,18.001 54.735,18.003C50.527,18.141 47.141,21.527 47.004,25.735C47.003,25.804 47.029,25.871 47.078,25.921C47.126,25.971 47.193,25.999 47.262,25.999C47.649,26 48.367,26 48.748,26C48.888,26 49.002,25.888 49.006,25.748C49.134,22.635 51.635,20.134 54.748,20.005C54.888,20.001 54.998,19.887 54.998,19.748C55,19.367 55,18.649 55,18.262Z"></path></g><g transform="matrix(-1.52756,-1.87072e-16,1.27024e-16,-1.03723,152.154,69.884)"><path d="M59.736,30.303C59.798,30.179 59.896,30.106 60,30.106C60.104,30.106 60.202,30.179 60.264,30.303C60.832,31.44 62.177,34.13 62.841,35.457C62.914,35.603 62.925,35.798 62.869,35.96C62.813,36.122 62.7,36.224 62.577,36.224C61.341,36.224 58.659,36.224 57.423,36.224C57.3,36.224 57.187,36.122 57.131,35.96C57.075,35.798 57.086,35.603 57.159,35.457C57.823,34.13 59.168,31.44 59.736,30.303Z"></path></g><g transform="matrix(1.52756,3.74145e-16,-2.54048e-16,1.03723,-72.1537,10.116)"><path d="M59.736,30.303C59.798,30.179 59.896,30.106 60,30.106C60.104,30.106 60.202,30.179 60.264,30.303C60.832,31.44 62.177,34.13 62.841,35.457C62.914,35.603 62.925,35.798 62.869,35.96C62.813,36.122 62.7,36.224 62.577,36.224C61.341,36.224 58.659,36.224 57.423,36.224C57.3,36.224 57.187,36.122 57.131,35.96C57.075,35.798 57.086,35.603 57.159,35.457C57.823,34.13 59.168,31.44 59.736,30.303Z"></path></g></svg>