<svg height='300px' width='300px'  fill="#FFFFFF" xmlns="http://www.w3.org/2000/svg" xmlns:xlink="http://www.w3.org/1999/xlink" version="1.1" x="0px" y="0px" viewBox="0 0 100 100" style="enable-background:new 0 0 100 100;" xml:space="preserve"><path d="M90,16H63H37H10c-1.1,0-2,0.9-2,2v16v16v16v16c0,1.1,0.9,2,2,2h14h26h1.4c-1.5-1.1-2.9-2.5-4.1-4H26V68h11h6  c0-0.2,0-0.3,0-0.5c0-1.2,0.1-2.4,0.3-3.5H39V52h11h0.1c0.3-0.3,0.6-0.5,0.9-0.8c1-0.8,2.3-1.2,3.7-1.2c0.5,0,0.9,0.1,1.3,0.2  c1.2,0.3,2.3,0.9,3.1,1.8h0.1c0.5-1.2,1-2.6,1.5-4H52V36h11h12v7.2c1.5,2.1,3.5,5.1,5.2,8.8H88v12h-4.3c0.1,1,0.2,2.1,0.2,3.1  c0,0.1,0,0.3,0,0.4V68h4v12h-8.3c-1.2,1.5-2.5,2.9-4.1,4H77h13c1.1,0,2-0.9,2-2V66V50V34V18C92,16.9,91.1,16,90,16z M12,20h23v12H24  H12V20z M12,36h10v12H12V36z M22,80H12V68h10V80z M35,64H24H12V52h12h11V64z M48,48H37H26V36h11h11V48z M61,32H50H39V20h22V32z   M88,48h-9V36h9V48z M88,32H77H65V20h23V32z M80,68v-0.5c0-0.1,0-0.1,0-0.2C79.7,54,69.9,43.1,69.5,42.7c-0.5-0.6-1.3-0.8-2-0.6  c-0.7,0.2-1.3,0.8-1.4,1.5c-2.1,10.5-6.8,17-9,19.7c-0.9-1.5-1-3.8-0.4-6.8c0.1-0.4,0-0.9-0.2-1.3c-0.3-0.5-0.8-0.9-1.3-1.1  c-0.6-0.1-1.2,0-1.7,0.4c-4.1,3.2-6.5,7.9-6.5,13.1C47,76.6,54.4,84,63.5,84c8.8,0,16.1-7,16.5-15.7C80,68.2,80,68.1,80,68z   M63.5,80C56.6,80,51,74.4,51,67.5c0-2,0.5-4,1.4-5.7c0.3,1.7,0.9,3.2,1.8,4.4c2.2,2.8,5.5,2.8,5.8,2.8c1.1,0,2-0.9,2-2  c0-0.9-0.5-1.6-1.3-1.9c2.3-2.9,6-8.4,8.3-16.6c2.8,4,6.9,11.2,7,19.2C75.9,74.5,70.3,80,63.5,80z"></path></svg>