<svg xmlns="http://www.w3.org/2000/svg" viewBox="0 0 384.8 384.79"><defs><style>.cls-1{fill:#fff;}</style></defs><g id="Layer_2" data-name="Layer 2"><g id="Layer_1-2" data-name="Layer 1"><path class="cls-1" d="M370,88.8A14.8,14.8,0,0,0,384.79,74V14.8A14.8,14.8,0,0,0,370,0H310.79A14.8,14.8,0,0,0,296,14.8V29.6H236.79V14.8A14.79,14.79,0,0,0,222,0h-59.2A14.79,14.79,0,0,0,148,14.8V29.6H88.8V14.8A14.79,14.79,0,0,0,74,0H14.8A14.79,14.79,0,0,0,0,14.8V74A14.79,14.79,0,0,0,14.8,88.8H29.6V148H14.8A14.79,14.79,0,0,0,0,162.79V222a14.79,14.79,0,0,0,14.8,14.8H29.6V296H14.8A14.79,14.79,0,0,0,0,310.79V370a14.79,14.79,0,0,0,14.8,14.8H74A14.79,14.79,0,0,0,88.8,370v-14.8H148V370a14.79,14.79,0,0,0,14.8,14.8H222A14.79,14.79,0,0,0,236.8,370v-14.8H296V370a14.79,14.79,0,0,0,14.8,14.8H370A14.79,14.79,0,0,0,384.8,370v-59.2A14.79,14.79,0,0,0,370,296H355.2v-59.2H370A14.79,14.79,0,0,0,384.8,222v-59.2A14.79,14.79,0,0,0,370,148H355.2l0-59.19ZM325.59,148h-14.8A14.8,14.8,0,0,0,296,162.79V222a14.8,14.8,0,0,0,14.81,14.8h14.8V296h-14.8A14.8,14.8,0,0,0,296,310.79v14.8H236.79v-14.8A14.8,14.8,0,0,0,222,296H162.79A14.8,14.8,0,0,0,148,310.79v14.8H88.8v-14.8A14.8,14.8,0,0,0,74,296H59.2v-59.2H74A14.79,14.79,0,0,0,88.8,222v-59.2A14.79,14.79,0,0,0,74,148H59.2V88.8H74A14.79,14.79,0,0,0,88.8,74V59.2H148V74a14.79,14.79,0,0,0,14.8,14.8H222A14.8,14.8,0,0,0,236.8,74V59.2H296V74a14.79,14.79,0,0,0,14.8,14.8h14.8Z"/></g></g></svg>