<svg id="Layer_1" data-name="Layer 1" xmlns="http://www.w3.org/2000/svg" viewBox="0 0 323.13 121.29"><defs><style>.cls-1{fill:#12adb2;}.cls-2{fill:#424343;}</style></defs><title>dotstore domain logo </title><path class="cls-1" d="M27,76.9a12,12,0,1,1-12-12A12,12,0,0,1,27,76.9Z"/><path class="cls-2" d="M76.53,66.42c0,16,8.45,22.24,22.62,22.24h31.39a42.35,42.35,0,0,1-15.63-20.15l-8.31,0c-4.35,0-6.46-2-6.46-6.71V37.93h14.17v-19H100.14V3.05H76.53Z"/><path class="cls-2" d="M120,54v-.26c0-19.13,15.65-35.16,37.27-35.16s37,15.78,37,34.92v.24c0,19.14-15.65,35.17-37.27,35.17S120,73.13,120,54Zm51.31,0v-.26c0-8.19-6-15.15-14.29-15.15-8.57,0-14,6.83-14,14.91v.24c0,8.2,6,15.16,14.29,15.16C165.87,68.9,171.34,62.07,171.34,54Z"/><path class="cls-2" d="M46.92,44.67c-7.08-2.1-10.93-3.35-10.93-6v-.24c0-1.87,1.86-3.23,5.46-3.23,5.34,0,12.92,2.36,19.88,6.21l8.08-14.91A52.56,52.56,0,0,0,41.7,18.71c-15.53,0-27,8-27,22.24v.25c0,13.54,10.56,18,23.86,21.5,7.08,2,10.8,3.1,10.8,5.71v.25c0,2.35-1.86,3.6-6,3.6a36.7,36.7,0,0,1-10.93-1.84A15.79,15.79,0,0,1,33.9,76.9a16,16,0,0,1-3.8,10.34,57.44,57.44,0,0,0,13.22,1.55c16.4,0,27.46-7.7,27.46-22.49v-.25C70.78,53,60.21,48.4,46.92,44.67Z"/><path class="cls-2" d="M242.9,43.58c-12.3,0-19.26,7.09-19.26,22.62V88.69H200V19.86h23.61V33.4c3.85-9.19,10.06-15.16,21.25-14.66H261s-14,6.18-17.22,24.84Z"/><path class="cls-2" d="M287.3,71.35c-7.39,0-12.77-3.76-14.65-11.14l24.43,0c17.75,0,18.11-17.69,18.11-17.69,0-.3,0-.45,0-.75A19.1,19.1,0,0,0,305,40.2a6.4,6.4,0,0,1,.07.88,8.85,8.85,0,0,1-8.84,8.85H274.28a4.31,4.31,0,0,1-4.31-4.3V36.51a4.31,4.31,0,0,1,4.31-4.3h21.93v0a8.58,8.58,0,0,1,8.49,6.07,20.58,20.58,0,0,1,10.38,1.4c-1.15-15.15-13-21.43-31.16-21.43-20,0-34.18,15.65-34.18,35.43V54c0,21,15,35.18,36.31,35.18,13.51,0,22.9-5.51,29.41-13.77l-13.15-10.9C297.44,69.22,292.93,71.35,287.3,71.35Z"/><path class="cls-1" d="M300.37,41.28a1.32,1.32,0,1,1-1.25-1.71,1.34,1.34,0,0,1,.83.31c.39-.16.88-.34,1.46-.53a2.76,2.76,0,1,0,.47,1.54.77.77,0,0,0,0-.15A12.66,12.66,0,0,0,300.37,41.28Z"/><path class="cls-2" d="M225.87,104h4.53a12.58,12.58,0,0,1,3.12.37,7.08,7.08,0,0,1,2.59,1.19,5.82,5.82,0,0,1,1.75,2.13,7.24,7.24,0,0,1,.65,3.2,6.48,6.48,0,0,1-.63,2.93,6.22,6.22,0,0,1-1.69,2.13,7.64,7.64,0,0,1-2.46,1.31,9.8,9.8,0,0,1-2.93.44h-4.93Zm3,10.91h1.57a8.55,8.55,0,0,0,1.94-.21A4.14,4.14,0,0,0,234,114a3.41,3.41,0,0,0,1-1.29,4.65,4.65,0,0,0,.37-2,3.86,3.86,0,0,0-.37-1.75,3.6,3.6,0,0,0-1-1.23,4.54,4.54,0,0,0-1.5-.72,6.71,6.71,0,0,0-1.81-.25h-1.78Z"/><path class="cls-2" d="M239.82,110.81a7.68,7.68,0,0,1,.56-3,6.48,6.48,0,0,1,1.54-2.28,6.78,6.78,0,0,1,2.34-1.44,9,9,0,0,1,5.92,0,7,7,0,0,1,2.34,1.44,6.61,6.61,0,0,1,1.54,2.28,8.35,8.35,0,0,1,0,6,6.48,6.48,0,0,1-1.54,2.27,6.84,6.84,0,0,1-2.34,1.45,9,9,0,0,1-5.92,0,6.66,6.66,0,0,1-2.34-1.45,6.35,6.35,0,0,1-1.54-2.27A7.68,7.68,0,0,1,239.82,110.81Zm3.14,0a5,5,0,0,0,.3,1.77,4,4,0,0,0,.86,1.39,3.86,3.86,0,0,0,1.35.92,4.81,4.81,0,0,0,3.5,0,4,4,0,0,0,1.35-.92,4,4,0,0,0,.86-1.39,5.34,5.34,0,0,0,0-3.53,4.21,4.21,0,0,0-.86-1.41,3.93,3.93,0,0,0-1.35-.91,4.81,4.81,0,0,0-3.5,0,3.83,3.83,0,0,0-1.35.91,4.21,4.21,0,0,0-.86,1.41A5,5,0,0,0,243,110.81Z"/><path class="cls-2" d="M256.66,104h4.57l3.16,8.94h0L267.6,104h4.55v13.7h-3V107.15h0l-3.6,10.51h-2.3l-3.47-10.51h0v10.51h-3Z"/><path class="cls-2" d="M279.44,104h2.5l6,13.7h-3.4l-1.18-2.9H278l-1.14,2.9h-3.33Zm1.17,4-1.67,4.26h3.35Z"/><path class="cls-2" d="M289.24,104h3v13.7h-3Z"/><path class="cls-2" d="M295,104h4.1l5.83,9.52h0V104h3v13.7h-3.95l-6-9.75h0v9.75h-3Z"/><path class="cls-2" d="M317.56,107.31a2.2,2.2,0,0,0-1-.69,3.55,3.55,0,0,0-1.19-.22,3.21,3.21,0,0,0-.68.07,3.09,3.09,0,0,0-.66.25,1.49,1.49,0,0,0-.5.43,1.22,1.22,0,0,0,.27,1.61,4.55,4.55,0,0,0,1.17.56c.47.15,1,.31,1.52.46a6.66,6.66,0,0,1,1.52.66,3.74,3.74,0,0,1,1.17,1.14,3.5,3.5,0,0,1,.47,1.92,4.42,4.42,0,0,1-.43,2,4.1,4.1,0,0,1-1.15,1.42,4.94,4.94,0,0,1-1.69.83,7.7,7.7,0,0,1-4.5-.14,6.17,6.17,0,0,1-2.12-1.31l2.14-2.36a3.05,3.05,0,0,0,1.18.95,3.26,3.26,0,0,0,1.46.34,3.81,3.81,0,0,0,.74-.08,2.42,2.42,0,0,0,.68-.27,1.36,1.36,0,0,0,.48-.44,1.05,1.05,0,0,0,.19-.64,1.16,1.16,0,0,0-.48-1,4.27,4.27,0,0,0-1.19-.61c-.48-.16-1-.33-1.55-.5a6.67,6.67,0,0,1-1.54-.68,3.78,3.78,0,0,1-1.2-1.12,3.26,3.26,0,0,1-.47-1.84,4.1,4.1,0,0,1,.44-1.93,4.15,4.15,0,0,1,1.16-1.4,5.14,5.14,0,0,1,1.67-.84,6.78,6.78,0,0,1,2-.28,7.64,7.64,0,0,1,2.24.33,5.3,5.3,0,0,1,2,1.1Z"/></svg>