<svg version="1.1" id="Layer_1" xmlns="http://www.w3.org/2000/svg" x="0" y="0" viewBox="0 0 200 60" xml:space="preserve"><style>.st0{fill:#010202}</style><path class="st0" d="M50.7 16.1c0-5-.2-9.4-.3-12.9h10.4l.5 5.4h.2c2.8-4.1 7.2-6.2 12.8-6.2 8.4 0 16 7.3 16 19.6 0 14-8.9 20.6-17.5 20.6-4.6 0-8.3-1.9-10-4.4h-.2v19.1h-12V16.1zm12 9c0 .9.1 1.8.2 2.5.8 3.2 3.5 5.7 7 5.7 5.2 0 8.3-4.3 8.3-10.9 0-6.1-2.8-10.8-8.1-10.8-3.4 0-6.4 2.5-7.2 6.1-.2.6-.2 1.4-.2 2.1v5.3zm53 16.6l-.7-3.9h-.2c-2.5 3.1-6.5 4.7-11 4.7-7.8 0-12.4-5.7-12.4-11.8 0-10 9-14.8 22.6-14.7v-.6c0-2-1.1-5-7-5-3.9 0-8.1 1.3-10.6 2.9l-2.2-7.7c2.7-1.5 7.9-3.4 15-3.4 12.8 0 16.9 7.6 16.9 16.6v13.4c0 3.7.2 7.2.6 9.4h-11zm-1.4-18.2c-6.3-.1-11.2 1.4-11.2 6.1 0 3.1 2 4.6 4.7 4.6 3 0 5.4-2 6.2-4.4.2-.6.2-1.3.2-2v-4.3zm46 17.2c-2.1.9-6.1 1.7-10.7 1.7-12.4 0-20.4-7.6-20.4-19.7 0-11.3 7.7-20.5 22-20.5 3.1 0 6.6.6 9.1 1.5l-1.9 8.9c-1.4-.6-3.5-1.2-6.7-1.2-6.3 0-10.4 4.5-10.3 10.8 0 7.1 4.7 10.8 10.5 10.8 2.8 0 5-.5 6.8-1.2l1.6 8.9z"/><path class="st0" d="M171.4 26.2c.4 5 5.3 7.3 10.9 7.3 4.1 0 7.4-.6 10.6-1.6l1.6 8.1c-3.9 1.6-8.7 2.4-13.9 2.4-13.1 0-20.5-7.6-20.5-19.6 0-9.8 6.1-20.5 19.4-20.5 12.4 0 17.2 9.7 17.2 19.2 0 2-.2 3.9-.4 4.7h-24.9zm14-8.1c0-2.9-1.3-7.8-6.8-7.8-5 0-7.1 4.6-7.4 7.8h14.2zM37 18.1c-4.7-1.7-6.2-2.6-6.2-4.4 0-2 1.7-3.1 4.6-3.1 3.3 0 6.6 1.3 8.3 2.2l2.1-8.3c-2.4-1.2-6.4-2.2-10.9-2.2-9.5 0-15.7 5.4-15.7 12.6-.1 4.6 3 8.9 10.9 11.6 4.5 1.5 5.7 2.4 5.7 4.4 0 2-1.5 3.2-5.1 3.2-2 0-4.3-.5-6.4-1.2v.3c0 3.1-1.5 5.9-3.8 7.5 2.8 1 6.3 1.7 10.2 1.7 11 0 16.7-5.3 16.7-12.4 0-5.7-3.1-9.3-10.4-11.9z"/><path d="M21.1 32.8c0 4.9-4 8.8-8.8 8.8-4.9 0-8.8-4-8.8-8.8 0-4.9 4-8.8 8.8-8.8 4.9 0 8.8 4 8.8 8.8z" fill="#fcc70d"/></svg>