<svg xmlns="http://www.w3.org/2000/svg" width="78" height="30" viewBox="0 0 78 30"><defs><style>.cls-1{fill:#fd5a1f;}.cls-1,.cls-2{fill-rule:evenodd;}.cls-2{fill:#012851;}</style></defs><g id="Layer_2" data-name="Layer 2"><g id="Layer_1-2" data-name="Layer 1"><path class="cls-1" d="M3.9,16.92a3.85,3.85,0,1,0,3.9,3.85A3.88,3.88,0,0,0,3.9,16.92Z"/><path class="cls-2" d="M18,14.06a12.58,12.58,0,0,0-1.69-.21c-1.73-.14-2.13-.36-2.31-.86a.77.77,0,0,1,.11-.65,2.43,2.43,0,0,1,2.07-.72,6.64,6.64,0,0,1,2.65.76,2.22,2.22,0,0,0,3.05-1,2.36,2.36,0,0,0-1.08-3.09,8.73,8.73,0,0,0-4.58-1.35,6.58,6.58,0,0,0-5.9,2.8,5.57,5.57,0,0,0-.53,5.08c1.34,3.32,4.35,3.58,6.15,3.73a11.18,11.18,0,0,1,1.19.14.94.94,0,0,1,.88,1c-.06.62-.78,1-1.89,1A4.32,4.32,0,0,1,13,19.28a.44.44,0,0,0-.6,0L9.53,21.59a.48.48,0,0,0-.06.67,8.83,8.83,0,0,0,6.66,3.12,6.73,6.73,0,0,0,4.49-1.47,5.51,5.51,0,0,0,2-3.74A5.63,5.63,0,0,0,18,14.06Z"/><path class="cls-2" d="M36.59,8.23a9,9,0,0,0-6.51-1V2.58a2.48,2.48,0,1,0-4.95,0v7.81a8.91,8.91,0,0,0-1.63,3.16,2.49,2.49,0,0,0,1.63,3.05v7.56a.46.46,0,0,0,.45.46h4.05a.46.46,0,0,0,.45-.46V12.57a3.77,3.77,0,0,1,3.21-.37c1.54.55,1.54,2.29,1.54,4.52v7.44a.46.46,0,0,0,.45.46h4a.46.46,0,0,0,.45-.46v-8.7C39.78,9.81,36.59,8.23,36.59,8.23Z"/><path class="cls-2" d="M50.7,20.29a4.14,4.14,0,1,1,4.19-4.14A4.17,4.17,0,0,1,50.7,20.29Zm0-13.37a9.23,9.23,0,1,0,9.36,9.23A9.31,9.31,0,0,0,50.7,6.92Z"/><path class="cls-2" d="M73,16.82a4,4,0,0,1-3.84,3.71A4.12,4.12,0,0,1,67,20.07V14.86c0-1.54.84-2.27,1.88-2.27h0A4,4,0,0,1,73,16.82Zm5-.61a9,9,0,0,0-8.58-8.5,9.21,9.21,0,0,0-3.87.6C63.35,9.16,62,11.06,62,14v2.16a2.29,2.29,0,0,0-1.43.87,2.25,2.25,0,0,0-.37,2A8.85,8.85,0,0,0,62,22.3h0v7.25a.45.45,0,0,0,.46.44h4.11a.45.45,0,0,0,.46-.44V25.23a9.14,9.14,0,0,0,1.9.2A9,9,0,0,0,78,16.21Z"/></g></g></svg>