<?xml version="1.0" encoding="UTF-8"?>
<svg xmlns="http://www.w3.org/2000/svg" xmlns:xlink="http://www.w3.org/1999/xlink" width="512pt" height="633pt" viewBox="0 0 512 633" version="1.1">
<g id="surface1">
<path style=" stroke:none;fill-rule:nonzero;fill:rgb(84.313725%,2.745098%,31.764706%);fill-opacity:1;" d="M 303.605469 333.671875 C 293.546875 333.8125 305.503906 338.84375 318.632812 340.863281 C 322.261719 338.035156 325.554688 335.175781 328.484375 332.394531 C 320.308594 334.390625 311.992188 334.433594 303.605469 333.671875 "/>
<path style=" stroke:none;fill-rule:nonzero;fill:rgb(84.313725%,2.745098%,31.764706%);fill-opacity:1;" d="M 357.582031 320.230469 C 363.574219 311.980469 367.933594 302.941406 369.476562 293.601562 C 368.132812 300.261719 364.515625 306.015625 361.101562 312.082031 C 342.300781 323.902344 359.332031 305.066406 361.089844 297.90625 C 340.878906 323.3125 358.316406 313.136719 357.582031 320.230469 "/>
<path style=" stroke:none;fill-rule:nonzero;fill:rgb(84.313725%,2.745098%,31.764706%);fill-opacity:1;" d="M 377.511719 268.460938 C 378.722656 250.375 373.949219 256.09375 372.339844 262.996094 C 374.207031 263.96875 375.699219 275.746094 377.511719 268.460938 "/>
<path style=" stroke:none;fill-rule:nonzero;fill:rgb(84.313725%,2.745098%,31.764706%);fill-opacity:1;" d="M 265.46875 21.269531 C 270.832031 22.230469 277.066406 22.96875 276.191406 24.25 C 282.058594 22.964844 283.390625 21.777344 265.46875 21.269531 "/>
<path style=" stroke:none;fill-rule:nonzero;fill:rgb(84.313725%,2.745098%,31.764706%);fill-opacity:1;" d="M 276.191406 24.25 L 272.394531 25.027344 L 275.925781 24.71875 L 276.191406 24.25 "/>
<path style=" stroke:none;fill-rule:nonzero;fill:rgb(84.313725%,2.745098%,31.764706%);fill-opacity:1;" d="M 443.5625 275.320312 C 444.164062 291.558594 438.808594 299.4375 433.976562 313.386719 L 425.285156 317.726562 C 418.167969 331.519531 425.972656 326.484375 420.882812 337.457031 C 409.773438 347.316406 387.179688 368.304688 379.949219 370.21875 C 374.675781 370.105469 383.53125 364 384.683594 361.609375 C 369.820312 371.804688 372.753906 376.910156 350.023438 383.105469 L 349.355469 381.628906 C 293.277344 407.964844 215.390625 355.769531 216.417969 284.546875 C 215.816406 289.066406 214.714844 287.9375 213.472656 289.765625 C 210.582031 253.121094 230.421875 216.3125 263.878906 201.285156 C 296.617188 185.105469 334.980469 191.746094 358.429688 213.566406 C 345.550781 196.71875 319.917969 178.863281 289.539062 180.53125 C 259.777344 181 231.941406 199.886719 222.648438 220.382812 C 207.402344 229.972656 205.632812 257.332031 198.988281 262.339844 C 190.054688 327.933594 215.804688 356.273438 259.363281 389.609375 C 266.21875 394.226562 261.292969 394.925781 262.222656 398.4375 C 247.75 391.671875 234.496094 381.457031 223.601562 368.945312 C 229.382812 377.402344 235.621094 385.617188 243.6875 392.074219 C 230.042969 387.453125 211.8125 359.050781 206.492188 357.894531 C 230.011719 399.953125 301.925781 431.652344 339.582031 415.925781 C 322.15625 416.566406 300.019531 416.28125 280.441406 409.058594 C 272.222656 404.835938 261.039062 396.078125 263.035156 394.441406 C 314.425781 413.613281 367.515625 408.964844 411.976562 373.371094 C 423.292969 364.570312 435.648438 349.605469 439.21875 349.398438 C 433.839844 357.472656 440.136719 353.285156 436.003906 360.410156 C 447.28125 342.257812 431.109375 353.023438 447.65625 329.058594 L 453.769531 337.46875 C 451.5 322.402344 472.511719 304.101562 470.378906 280.273438 C 475.195312 272.984375 475.757812 288.113281 470.640625 304.878906 C 477.738281 286.277344 472.511719 283.292969 474.335938 267.945312 C 476.3125 273.101562 478.886719 278.582031 480.21875 284.027344 C 475.597656 266.054688 484.964844 253.757812 487.28125 243.3125 C 485 242.300781 480.144531 251.257812 479.035156 230.023438 C 479.191406 220.800781 481.605469 225.191406 482.53125 222.921875 C 480.71875 221.882812 475.964844 214.816406 473.074219 201.253906 C 475.171875 198.070312 478.679688 209.515625 481.535156 209.984375 C 479.699219 199.203125 476.539062 190.984375 476.40625 182.714844 C 468.066406 165.308594 473.453125 185.035156 466.691406 175.242188 C 457.8125 147.589844 474.054688 168.820312 475.152344 156.261719 C 488.609375 175.726562 496.28125 205.894531 499.800781 218.390625 C 497.109375 203.152344 492.769531 188.394531 487.46875 174.117188 C 491.554688 175.832031 480.886719 142.769531 492.78125 164.664062 C 480.082031 117.988281 438.410156 74.371094 400.074219 53.90625 C 404.765625 58.191406 410.691406 63.574219 408.5625 64.417969 C 389.496094 53.082031 392.851562 52.199219 390.117188 47.410156 C 374.589844 41.105469 373.566406 47.917969 363.28125 47.421875 C 334.011719 31.917969 328.371094 33.570312 301.429688 23.851562 L 302.65625 29.570312 C 283.265625 23.121094 280.066406 32.019531 259.105469 29.59375 C 257.832031 28.597656 265.816406 25.992188 272.398438 25.039062 C 253.648438 27.507812 254.53125 21.347656 236.183594 25.71875 C 240.707031 22.550781 245.484375 20.453125 250.308594 17.757812 C 235.019531 18.6875 213.804688 26.640625 220.351562 19.40625 C 195.398438 30.53125 151.101562 46.128906 126.25 69.402344 L 125.46875 64.1875 C 114.074219 77.839844 75.800781 104.960938 72.75 122.644531 L 69.707031 123.351562 C 63.777344 133.375 59.941406 144.730469 55.242188 155.042969 C 47.488281 168.230469 43.878906 160.117188 44.984375 162.183594 C 29.738281 193.054688 22.164062 218.988281 15.621094 240.261719 C 20.28125 247.21875 15.734375 282.148438 17.496094 310.105469 C 9.835938 448.167969 114.53125 582.222656 228.96875 613.164062 C 245.742188 619.152344 270.683594 618.921875 291.902344 619.539062 C 266.867188 612.386719 263.632812 615.75 239.253906 607.257812 C 221.660156 598.984375 217.804688 589.542969 205.347656 578.746094 L 210.277344 587.445312 C 185.84375 578.808594 196.0625 576.757812 176.1875 570.472656 L 181.453125 563.605469 C 173.53125 563.007812 160.476562 550.277344 156.902344 543.226562 L 148.242188 543.566406 C 137.832031 530.738281 132.285156 521.5 132.6875 514.339844 L 129.890625 519.324219 C 126.71875 513.882812 91.589844 471.21875 109.8125 481.152344 C 106.425781 478.054688 101.925781 476.117188 97.046875 467.265625 L 100.757812 463.03125 C 91.988281 451.765625 84.613281 437.316406 85.175781 432.511719 C 89.855469 438.824219 93.097656 440 96.3125 441.082031 C 74.167969 386.207031 72.921875 438.058594 56.148438 385.226562 L 59.695312 384.945312 C 56.976562 380.847656 55.324219 376.410156 53.136719 372.046875 L 54.679688 356.675781 C 38.734375 338.265625 50.222656 278.402344 52.519531 245.566406 C 54.117188 232.214844 65.828125 218.003906 74.738281 195.714844 L 69.308594 194.777344 C 79.6875 176.707031 128.558594 122.191406 151.1875 124.996094 C 162.15625 111.246094 149.015625 124.949219 146.867188 121.484375 C 170.953125 96.597656 178.523438 103.902344 194.777344 99.425781 C 212.308594 89.035156 179.734375 103.476562 188.046875 95.460938 C 218.34375 87.734375 209.519531 77.894531 249.050781 73.96875 C 253.21875 76.335938 239.371094 77.628906 235.894531 80.703125 C 261.140625 68.367188 315.789062 71.171875 351.28125 87.546875 C 392.472656 106.769531 438.742188 163.585938 440.570312 217.042969 L 442.644531 217.597656 C 441.59375 238.851562 445.902344 263.421875 438.433594 285.996094 L 443.554688 275.320312 "/>
<path style=" stroke:none;fill-rule:nonzero;fill:rgb(84.313725%,2.745098%,31.764706%);fill-opacity:1;" d="M 193.828125 347.457031 L 192.417969 354.5 C 199.027344 363.464844 204.269531 373.179688 212.710938 380.191406 C 206.640625 368.351562 202.128906 363.457031 193.828125 347.457031 "/>
<path style=" stroke:none;fill-rule:nonzero;fill:rgb(84.313725%,2.745098%,31.764706%);fill-opacity:1;" d="M 209.453125 346.84375 C 205.957031 342.980469 203.886719 338.332031 201.566406 333.699219 C 203.785156 341.84375 208.324219 348.839844 212.546875 355.957031 L 209.453125 346.84375 "/>
<path style=" stroke:none;fill-rule:nonzero;fill:rgb(84.313725%,2.745098%,31.764706%);fill-opacity:1;" d="M 485.960938 286.832031 L 484.484375 290.53125 C 481.777344 309.746094 475.925781 328.757812 466.957031 346.386719 C 476.855469 327.785156 483.269531 307.441406 485.953125 286.832031 "/>
<path style=" stroke:none;fill-rule:nonzero;fill:rgb(84.313725%,2.745098%,31.764706%);fill-opacity:1;" d="M 267.453125 16.449219 C 274.253906 13.960938 284.167969 15.085938 291.382812 13.449219 C 281.984375 14.238281 272.625 14.707031 263.382812 15.894531 L 267.453125 16.449219 "/>
<path style=" stroke:none;fill-rule:nonzero;fill:rgb(84.313725%,2.745098%,31.764706%);fill-opacity:1;" d="M 28.722656 143.214844 C 30.289062 157.703125 17.808594 163.324219 31.488281 153.773438 C 38.820312 137.28125 28.625 149.21875 28.722656 143.214844 "/>
<path style=" stroke:none;fill-rule:nonzero;fill:rgb(84.313725%,2.745098%,31.764706%);fill-opacity:1;" d="M 12.648438 210.257812 C 15.800781 200.601562 16.371094 194.800781 17.574219 189.210938 C 8.867188 200.328125 13.566406 202.695312 12.648438 210.257812 "/>
</g>
</svg>
