<svg xmlns="http://www.w3.org/2000/svg" width="236.42" height="158.33" viewBox="0 0 236.42 158.33"><defs><style>.cls-1{fill:#ff6c2c;}</style></defs><g id="Layer_2" data-name="Layer 2"><g id="svg3060"><g id="g2997"><g id="g3003"><path id="path3005" class="cls-1" d="M59.17,39H103.9L97,65.51A16.78,16.78,0,0,1,91,74.41a16,16,0,0,1-10.09,3.37H60.16a20.1,20.1,0,0,0-12.57,4.16A21.73,21.73,0,0,0,40,93.22a21.15,21.15,0,0,0-.3,10.09,22,22,0,0,0,3.86,8.41,20,20,0,0,0,7.13,5.84,21,21,0,0,0,9.5,2.18H72.82a7.11,7.11,0,0,1,5.84,2.86A6.87,6.87,0,0,1,80,129L72,158.33H58.18A55.86,55.86,0,0,1,32,152.09a59,59,0,0,1-19.89-16.52A58.35,58.35,0,0,1,2,85.1l.8-3A58.53,58.53,0,0,1,23.64,51a59.32,59.32,0,0,1,16.53-8.8,57.44,57.44,0,0,1,19-3.17"/></g><g id="g3007"><path id="path3009" class="cls-1" d="M81.73,158.33l39-146.06a16.73,16.73,0,0,1,5.94-8.91A16,16,0,0,1,136.75,0h41.36a56,56,0,0,1,26.22,6.23,58.9,58.9,0,0,1,30.78,40,55.38,55.38,0,0,1-.79,27l-.79,3a59.45,59.45,0,0,1-7.92,17.51,57.84,57.84,0,0,1-48.29,25.83H141.5l7.12-26.72a16.83,16.83,0,0,1,5.94-8.71,16,16,0,0,1,10.09-3.36h11.48a20.83,20.83,0,0,0,20.19-15.64,19.5,19.5,0,0,0,.3-9.7A22.11,22.11,0,0,0,192.76,47a20.93,20.93,0,0,0-7.13-5.93,20.16,20.16,0,0,0-9.5-2.28H154l-28.9,107.47a16.76,16.76,0,0,1-5.94,8.7,15.71,15.71,0,0,1-9.89,3.37Z"/></g></g></g></g></svg>