<?xml version="1.0" encoding="UTF-8"?>
<svg xmlns="http://www.w3.org/2000/svg" xmlns:xlink="http://www.w3.org/1999/xlink" width="512pt" height="512pt" viewBox="0 0 512 512" version="1.1">
<g id="surface1">
<path style=" stroke:none;fill-rule:nonzero;fill:rgb(57.647059%,13.333333%,47.45098%);fill-opacity:1;" d="M 215.722656 237.28125 L 234.175781 255.636719 L 215.722656 273.984375 L 85.800781 273.984375 L 85.800781 335.128906 L 6.570312 255.636719 L 85.800781 177.476562 L 85.800781 237.28125 Z M 272.828125 81.144531 L 430.6875 81.144531 L 430.6875 239.007812 L 272.828125 239.007812 Z M 272.828125 81.144531 "/>
<path style=" stroke:none;fill-rule:nonzero;fill:rgb(93.72549%,65.490196%,14.117647%);fill-opacity:1;" d="M 274.550781 215.722656 L 256.199219 234.175781 L 237.851562 215.722656 L 237.851562 85.800781 L 176.703125 85.800781 L 256.199219 6.570312 L 334.355469 85.800781 L 274.550781 85.800781 Z M 272.828125 272.828125 L 430.6875 272.828125 L 430.6875 430.691406 L 272.828125 430.691406 Z M 272.828125 272.828125 "/>
<path style=" stroke:none;fill-rule:nonzero;fill:rgb(14.901961%,14.509804%,46.666667%);fill-opacity:1;" d="M 296.113281 274.550781 L 277.65625 256.199219 L 296.113281 237.851562 L 426.03125 237.851562 L 426.03125 176.703125 L 505.265625 256.199219 L 426.03125 334.355469 L 426.03125 274.550781 Z M 81.144531 272.828125 L 239.003906 272.828125 L 239.003906 430.691406 L 81.144531 430.691406 Z M 81.144531 272.828125 "/>
<path style=" stroke:none;fill-rule:nonzero;fill:rgb(61.176471%,80.392157%,16.470588%);fill-opacity:1;" d="M 237.28125 296.113281 L 255.632812 277.65625 L 273.984375 296.113281 L 273.984375 426.035156 L 335.128906 426.035156 L 255.632812 505.265625 L 177.480469 426.035156 L 237.28125 426.035156 Z M 81.144531 81.144531 L 239.003906 81.144531 L 239.003906 239.007812 L 81.144531 239.007812 Z M 81.144531 81.144531 "/>
<path style=" stroke:none;fill-rule:nonzero;fill:rgb(100%,100%,100%);fill-opacity:1;" d="M 75.507812 75.507812 L 244.640625 75.507812 L 244.640625 244.640625 L 75.507812 244.640625 Z M 86.78125 233.367188 L 233.363281 233.367188 L 233.363281 86.785156 L 86.78125 86.785156 Z M 267.195312 75.507812 L 436.328125 75.507812 L 436.328125 244.640625 L 267.195312 244.640625 Z M 278.46875 233.367188 L 425.050781 233.367188 L 425.050781 86.785156 L 278.46875 86.785156 Z M 267.195312 267.195312 L 436.328125 267.195312 L 436.328125 436.332031 L 267.195312 436.332031 Z M 278.46875 425.050781 L 425.050781 425.050781 L 425.050781 278.46875 L 278.46875 278.46875 Z M 75.507812 267.195312 L 244.640625 267.195312 L 244.640625 436.332031 L 75.507812 436.332031 Z M 86.78125 425.050781 L 233.363281 425.050781 L 233.363281 278.46875 L 86.78125 278.46875 Z M 86.78125 425.050781 "/>
<path style=" stroke:none;fill-rule:nonzero;fill:rgb(100%,100%,100%);fill-opacity:1;" d="M 120.375 375.515625 L 0.777344 255.917969 L 120.371094 136.320312 L 239.972656 255.917969 Z M 16.726562 255.917969 L 120.375 359.566406 L 224.023438 255.917969 L 120.371094 152.269531 Z M 255.917969 239.972656 L 136.320312 120.375 L 255.917969 0.777344 L 375.511719 120.375 Z M 152.269531 120.375 L 255.917969 224.023438 L 359.566406 120.375 L 255.917969 16.726562 Z M 391.460938 375.515625 L 271.863281 255.917969 L 391.460938 136.320312 L 511.054688 255.917969 Z M 287.808594 255.917969 L 391.460938 359.566406 L 495.109375 255.917969 L 391.460938 152.269531 Z M 255.917969 511.054688 L 136.320312 391.460938 L 255.917969 271.863281 L 375.511719 391.460938 Z M 152.269531 391.460938 L 255.917969 495.109375 L 359.566406 391.460938 L 255.917969 287.8125 Z M 152.269531 391.460938 "/>
</g>
</svg>
