<svg xmlns:xlink="http://www.w3.org/1999/xlink" xmlns:dc="http://purl.org/dc/elements/1.1/" xmlns:cc="http://creativecommons.org/ns#" xmlns:rdf="http://www.w3.org/1999/02/22-rdf-syntax-ns#" xmlns:svg="http://www.w3.org/2000/svg" xmlns="http://www.w3.org/2000/svg" xmlns:sodipodi="http://sodipodi.sourceforge.net/DTD/sodipodi-0.dtd" xmlns:inkscape="http://www.inkscape.org/namespaces/inkscape" height="300" width="300" fill="#ffffff" version="1.1" x="0px" y="0px" viewBox="0 0 100 100"><g transform="translate(0,-952.36218)"><path style="text-indent:0;text-transform:none;direction:ltr;block-progression:tb;baseline-shift:baseline;color:#000000;enable-background:accumulate;" d="m 49.749811,962.36925 a 2.0001998,2.0001998 0 0 0 -0.6562,0.21875 l -40.9999994,21 a 2.0001998,2.0001998 0 0 0 0,3.56249 l 12.4061994,6.375 -12.4999994,7.09381 a 2.0001998,2.0001998 0 0 0 0.094,3.5312 l 12.4061994,6.375 -12.4999994,7.0937 a 2.0001998,2.0001998 0 0 0 0.094,3.5313 l 40.9999994,21 a 2.0001998,2.0001998 0 0 0 1.8124,0 l 41.000003,-21 a 2.0001998,2.0001998 0 0 0 0.0934,-3.5313 l -12.5,-7.0937 12.4062,-6.375 a 2.0001998,2.0001998 0 0 0 0.0938,-3.5312 l -12.5,-7.09381 12.4062,-6.375 a 2.0001998,2.0001998 0 0 0 0,-3.56249 l -41.000003,-21 a 2.0001998,2.0001998 0 0 0 -1.1562,-0.21875 z m 0.25,4.25 36.625003,18.75 -36.625003,18.75005 -36.624999,-18.75005 36.624999,-18.75 z m -25.25,29.06254 24.3438,12.46871 a 2.0001998,2.0001998 0 0 0 1.8124,0 l 24.343803,-12.46871 11.5625,6.59371 -36.812503,18.8437 -36.812499,-18.8437 11.562499,-6.59371 z m 0,16.99991 24.3438,12.4688 a 2.0001998,2.0001998 0 0 0 1.8124,0 l 24.343803,-12.4688 11.5625,6.5938 -36.812503,18.8437 -36.812499,-18.8437 11.562499,-6.5938 z" fill="#ffffff" fill-opacity="1" stroke="none" marker="none" visibility="visible" display="inline" overflow="visible"/></g></svg>