<?xml version="1.0" encoding="UTF-8"?>
<svg xmlns="http://www.w3.org/2000/svg" xmlns:xlink="http://www.w3.org/1999/xlink" width="512pt" height="512pt" viewBox="0 0 512 512" version="1.1">
<g id="surface1">
<path style=" stroke:none;fill-rule:nonzero;fill:rgb(100%,34.117647%,13.333333%);fill-opacity:1;" d="M 108.007812 256 C 108.007812 285.453125 84.128906 309.332031 54.675781 309.332031 C 25.21875 309.332031 1.339844 285.453125 1.339844 256 C 1.339844 226.546875 25.21875 202.667969 54.675781 202.667969 C 84.128906 202.667969 108.007812 226.546875 108.007812 256 Z M 108.007812 256 "/>
<path style=" stroke:none;fill-rule:nonzero;fill:rgb(100%,34.117647%,13.333333%);fill-opacity:1;" d="M 459.941406 458.667969 C 459.941406 488.121094 436.066406 512 406.609375 512 C 377.15625 512 353.277344 488.121094 353.277344 458.667969 C 353.277344 429.210938 377.15625 405.335938 406.609375 405.335938 C 436.066406 405.335938 459.941406 429.210938 459.941406 458.667969 Z M 459.941406 458.667969 "/>
<path style=" stroke:none;fill-rule:nonzero;fill:rgb(100%,34.117647%,13.333333%);fill-opacity:1;" d="M 459.941406 53.332031 C 459.941406 82.789062 436.066406 106.664062 406.609375 106.664062 C 377.15625 106.664062 353.277344 82.789062 353.277344 53.332031 C 353.277344 23.878906 377.15625 0 406.609375 0 C 436.066406 0 459.941406 23.878906 459.941406 53.332031 Z M 459.941406 53.332031 "/>
<path style=" stroke:none;fill-rule:nonzero;fill:rgb(100%,34.117647%,13.333333%);fill-opacity:1;" d="M 262.097656 147.667969 C 264.480469 151.796875 269.3125 153.84375 273.9375 152.683594 C 329.863281 138.28125 387.027344 171.273438 402.535156 226.902344 C 403.832031 231.492188 408.023438 234.664062 412.796875 234.664062 L 499.964844 234.664062 C 505.855469 234.667969 510.632812 229.894531 510.636719 224.003906 C 510.636719 223.4375 510.59375 222.871094 510.503906 222.3125 C 504.335938 183.511719 487.542969 147.175781 461.992188 117.332031 C 458.46875 113.265625 452.46875 112.460938 447.996094 115.457031 C 435.769531 123.636719 421.386719 128.003906 406.671875 128 C 365.894531 127.855469 332.714844 95.132812 332.007812 54.355469 C 331.929688 48.960938 327.835938 44.476562 322.46875 43.902344 C 289.023438 40.398438 255.21875 44.828125 223.804688 56.832031 C 218.300781 58.941406 215.550781 65.109375 217.660156 70.609375 C 217.859375 71.132812 218.101562 71.640625 218.382812 72.128906 Z M 262.097656 147.667969 "/>
<path style=" stroke:none;fill-rule:nonzero;fill:rgb(100%,34.117647%,13.333333%);fill-opacity:1;" d="M 499.984375 277.332031 L 412.816406 277.332031 C 408.046875 277.335938 403.855469 280.507812 402.558594 285.097656 C 387.066406 340.738281 329.886719 373.742188 273.960938 359.316406 C 269.335938 358.152344 264.503906 360.199219 262.121094 364.328125 L 218.515625 439.871094 C 215.566406 444.972656 217.3125 451.496094 222.414062 454.441406 C 222.902344 454.722656 223.410156 454.964844 223.933594 455.167969 C 255.316406 467.292969 289.148438 471.726562 322.601562 468.09375 C 327.964844 467.523438 332.058594 463.035156 332.136719 457.640625 C 332.609375 416.503906 366.339844 383.53125 407.480469 384.003906 C 421.914062 384.171875 435.992188 388.527344 447.996094 396.542969 C 452.488281 399.535156 458.503906 398.699219 462.011719 394.601562 C 487.554688 364.777344 504.34375 328.464844 510.523438 289.683594 C 511.457031 283.867188 507.496094 278.398438 501.679688 277.46875 C 501.117188 277.378906 500.550781 277.332031 499.984375 277.332031 Z M 499.984375 277.332031 "/>
<path style=" stroke:none;fill-rule:nonzero;fill:rgb(100%,34.117647%,13.333333%);fill-opacity:1;" d="M 223.546875 330.261719 C 183.292969 288.929688 183.292969 223.050781 223.546875 181.71875 C 226.886719 178.289062 227.53125 173.054688 225.128906 168.917969 L 181.585938 93.546875 C 180.023438 90.835938 177.347656 88.945312 174.269531 88.382812 C 171.210938 87.855469 168.070312 88.628906 165.609375 90.515625 C 134.628906 115.703125 111.332031 149.074219 98.363281 186.835938 C 96.914062 191.046875 98.230469 195.71875 101.671875 198.546875 C 133.40625 223.855469 138.617188 270.09375 113.3125 301.828125 C 109.882812 306.132812 105.976562 310.039062 101.671875 313.46875 C 98.230469 316.300781 96.914062 320.972656 98.363281 325.183594 C 111.339844 362.910156 134.628906 396.25 165.585938 421.417969 C 167.492188 422.964844 169.871094 423.808594 172.328125 423.804688 C 172.972656 423.800781 173.613281 423.746094 174.246094 423.636719 C 177.324219 423.070312 180 421.183594 181.5625 418.472656 L 225.105469 343.058594 C 227.515625 338.929688 226.878906 333.695312 223.546875 330.261719 Z M 223.546875 330.261719 "/>
</g>
</svg>
