<?xml version="1.0" encoding="utf-8"?>
<!-- Generator: Adobe Illustrator 16.0.0, SVG Export Plug-In . SVG Version: 6.00 Build 0)  -->
<!DOCTYPE svg PUBLIC "-//W3C//DTD SVG 1.1//EN" "http://www.w3.org/Graphics/SVG/1.1/DTD/svg11.dtd">
<svg version="1.1" id="Layer_1" xmlns="http://www.w3.org/2000/svg" xmlns:xlink="http://www.w3.org/1999/xlink" x="0px" y="0px"
	 width="200px" height="200px" viewBox="0 0 200 200" enable-background="new 0 0 200 200" xml:space="preserve">
<g>
	<path fill="none" d="M38.566,119.613L20.082,68.98c-4.156,9.313-6.484,19.621-6.484,30.484c0,10.781,2.301,21.008,6.398,30.27
		c4.992,11.281,12.68,21.098,22.262,28.629c4.188,3.297,8.723,6.168,13.559,8.516l-4.844-13.273L38.566,119.613z"/>
	<path fill="none" d="M162.188,112.879c0.781-4.348,1.23-8.832,1.23-13.414c0-13.023-3.328-25.266-9.172-35.934
		c0.324,2.379,0.496,4.938,0.496,7.699c0,7.602-1.41,16.141-5.691,26.832l-6.875,19.867c5.504-3.23,11.887-5.109,18.719-5.109
		C161.332,112.82,161.758,112.871,162.188,112.879z"/>
	<path fill="none" d="M95.355,121.18l-5.535-15.16l-9.613,27.949l-12.859,37.355c6.711,1.984,13.805,3.063,21.164,3.063
		c8.723,0,17.086-1.52,24.871-4.25c-0.195-0.328-0.387-0.664-0.535-1.043L95.355,121.18z"/>
	<path fill="none" d="M126.176,164.223c0.125-0.082,0.25-0.164,0.375-0.238c-0.051-0.141-0.094-0.289-0.152-0.426L126.176,164.223z"
		/>
	<path fill="none" d="M133.375,119.906c3.238-10.359,5.699-17.809,5.699-24.219c0-8.406-2.734-14.461-5.371-19.234
		c-0.27-0.48-0.543-0.969-0.801-1.426c-3.789-6.172-7.359-11.391-7.359-17.57c0-6.887,5.215-13.293,12.574-13.293
		c0.34,0,0.656,0.031,0.977,0.059c-5.941-5.445-12.781-9.941-20.246-13.254c-9.281-4.121-19.539-6.414-30.336-6.414
		c-26.176,0-49.199,13.426-62.594,33.762c1.758,0.059,3.418,0.09,4.824,0.09c7.828,0,19.965-0.949,19.965-0.949
		c4.031-0.23,4.508,5.699,0.477,6.18c0,0-4.063,0.473-8.57,0.711l14.328,42.625l11.895,35.387l1.055,3.125l1.691-5.078L86.289,96.32
		l-4.348-11.91l-7.328-20.063c-4.035-0.238-7.855-0.711-7.855-0.711c-4.043-0.246-3.566-6.41,0.473-6.18
		c0,0,12.367,0.949,19.73,0.949c5.223,0,12.328-0.426,16.508-0.703c2.082-0.145,3.453-0.246,3.453-0.246
		c4.039-0.23,4.523,5.699,0.484,6.18c0,0-4.059,0.473-8.574,0.711l13.371,39.777l12.574,37.383
		c1.148-4.898,3.258-9.426,6.137-13.371L133.375,119.906z"/>
	<path fill="#3D596D" d="M126.176,164.223l0.223-0.664c-1.672-4.219-2.617-8.813-2.617-13.629c0-2.902,0.367-5.707,0.996-8.422
		l-12.574-37.383L98.832,64.348c4.516-0.238,8.574-0.711,8.574-0.711c4.039-0.48,3.555-6.41-0.484-6.18c0,0-1.371,0.102-3.453,0.246
		c-4.18,0.277-11.285,0.703-16.508,0.703c-7.363,0-19.73-0.949-19.73-0.949c-4.039-0.23-4.516,5.934-0.473,6.18
		c0,0,3.82,0.473,7.855,0.711l7.328,20.063l4.348,11.91l-14.707,44.086l-1.691,5.078l-1.055-3.125l-11.895-35.387L42.613,64.348
		c4.508-0.238,8.57-0.711,8.57-0.711c4.031-0.48,3.555-6.41-0.477-6.18c0,0-12.137,0.949-19.965,0.949
		c-1.406,0-3.066-0.031-4.824-0.09C39.313,37.98,62.336,24.555,88.512,24.555c10.797,0,21.055,2.293,30.336,6.414
		c7.465,3.313,14.305,7.809,20.246,13.254c-0.32-0.027-0.637-0.059-0.977-0.059c-7.359,0-12.574,6.406-12.574,13.293
		c0,6.18,3.57,11.398,7.359,17.57c0.258,0.457,0.531,0.945,0.801,1.426c2.637,4.773,5.371,10.828,5.371,19.234
		c0,6.41-2.461,13.859-5.699,24.219l-2.461,8.23c3.012-4.117,6.836-7.605,11.262-10.207l6.875-19.867
		c4.281-10.691,5.691-19.23,5.691-26.832c0-2.762-0.172-5.32-0.496-7.699c5.844,10.668,9.172,22.91,9.172,35.934
		c0,4.582-0.449,9.066-1.23,13.414c3.977,0.137,7.793,0.902,11.367,2.207c0.934-5.078,1.484-10.281,1.484-15.621
		c0-22.125-8.355-42.328-22.066-57.648c-8.137-9.078-18.145-16.418-29.426-21.434c-10.715-4.766-22.563-7.438-35.035-7.438
		c-47.715,0-86.531,38.813-86.531,86.52c0,12.445,2.66,24.273,7.414,34.973c5.016,11.309,12.375,21.344,21.469,29.488
		c15.316,13.715,35.52,22.066,57.648,22.066c16.086,0,31.109-4.488,44.016-12.164c-2.469-2.93-4.492-6.25-5.977-9.844
		C126.426,164.059,126.301,164.141,126.176,164.223z M42.258,158.363c-9.582-7.531-17.27-17.348-22.262-28.629
		c-4.098-9.262-6.398-19.488-6.398-30.27c0-10.863,2.328-21.172,6.484-30.484l18.484,50.633l12.406,33.992l4.844,13.273
		C50.98,164.531,46.445,161.66,42.258,158.363z M88.512,174.387c-7.359,0-14.453-1.078-21.164-3.063l12.859-37.355l9.613-27.949
		l5.535,15.16l17.492,47.914c0.148,0.379,0.34,0.715,0.535,1.043C105.598,172.867,97.234,174.387,88.512,174.387z"/>
	<g>
		<path fill="#33CCCC" d="M187.309,123.895l-2.59,2.594l-2.617,2.605c5.277,5.375,8.551,12.734,8.551,20.836
			c0,16.406-13.352,29.762-29.758,29.762c-5.645,0-10.898-1.605-15.402-4.34l-3.734,1.977l-3.234,1.707l-0.352,0.191
			c6.289,4.879,14.16,7.824,22.723,7.824c20.465,0,37.125-16.645,37.125-37.121C198.02,139.793,193.918,130.605,187.309,123.895z"/>
		<path fill="#33CCCC" d="M138.773,169.766c-2.582-2.887-4.609-6.258-5.918-9.973c-1.09-3.094-1.715-6.398-1.715-9.863
			c0-0.031,0-0.055,0-0.098c0.031-6.816,2.371-13.082,6.266-18.094c5.363-6.918,13.695-11.41,23.082-11.543
			c0.141,0,0.266-0.016,0.406-0.016c3.883,0,7.582,0.77,10.98,2.133c1.551,0.605,3.023,1.359,4.43,2.223l3.746-1.984l3.574-1.895
			c-3.023-2.355-6.41-4.242-10.07-5.57c-3.574-1.305-7.391-2.07-11.367-2.207c-0.43-0.008-0.855-0.059-1.293-0.059
			c-6.832,0-13.215,1.879-18.719,5.109c-4.426,2.602-8.25,6.09-11.262,10.207c-2.879,3.945-4.988,8.473-6.137,13.371
			c-0.629,2.715-0.996,5.52-0.996,8.422c0,4.816,0.945,9.41,2.617,13.629c0.059,0.137,0.102,0.285,0.152,0.426
			c1.484,3.594,3.508,6.914,5.977,9.844c0.633,0.746,1.277,1.461,1.965,2.148l2.586-2.586l2.621-2.613
			C139.379,170.449,139.074,170.102,138.773,169.766z"/>
	</g>
	<path fill="#FFCC00" d="M189.57,119.891c-0.258-0.656-1.012-1.148-1.73-1.148c-0.445,0-0.855,0.133-1.418,0.426l-2.797,1.488
		l-3.574,1.895l-3.746,1.984l-6.117,3.223l-16.605,8.785l-14.316,7.563c-0.938,0.492-1.508,1.355-1.531,2.289
		c-0.008,0.953,0.523,1.805,1.457,2.34l3.727,2.141l8.543,4.922c0.484,0.277,0.82,0.762,0.891,1.328
		c0.031,0.207-0.02,0.41-0.063,0.609c-0.07,0.336-0.207,0.656-0.445,0.891l-12.145,12.152l-2.621,2.613l-2.586,2.586l-1.504,1.508
		c-0.863,0.848-1.113,1.668-0.766,2.488c0.266,0.656,1.016,1.156,1.738,1.156c0.43,0,0.852-0.133,1.41-0.418l2.801-1.484
		l0.352-0.191l3.234-1.707l3.734-1.977l37.047-19.598c0.938-0.5,1.496-1.336,1.516-2.297c0.027-0.926-0.508-1.793-1.43-2.328
		l-12.262-7.094c-0.477-0.281-0.805-0.773-0.883-1.332c-0.066-0.539,0.121-1.098,0.508-1.5l12.113-12.109l2.617-2.605l2.59-2.594
		l1.5-1.5C189.672,121.523,189.922,120.703,189.57,119.891z"/>
</g>
</svg>
