<svg xmlns="http://www.w3.org/2000/svg" width="174.5" height="198.25" viewBox="0 0 174.5 198.25"><defs><style>.cls-1{fill:#009639;}.cls-2{fill:#fff;}</style></defs><g id="Layer_2" data-name="Layer 2"><g id="Layer_1-2" data-name="Layer 1"><path class="cls-1" d="M1.4,148.72a9.59,9.59,0,0,0,3.8,3.7l77,44.4h0a9.84,9.84,0,0,0,10.2,0l77-44.4a10.12,10.12,0,0,0,5.1-8.9V54.72h0a10.11,10.11,0,0,0-5.1-8.89L92.4,1.42h0a9.88,9.88,0,0,0-10.2,0h0L5.2,45.83A10,10,0,0,0,0,54.72H0v88.91a9.32,9.32,0,0,0,1.4,5.09"/><path class="cls-2" d="M62.6,133a9.9,9.9,0,0,1-19.8,0h0V65.12c0-5.3,4.7-9.6,11.2-9.6,4.7,0,10.2,1.9,13.5,6l3,3.6,41.4,49.5V65.33h0a9.9,9.9,0,1,1,19.8,0h0v67.9c0,5.3-4.7,9.6-11.2,9.6-4.7,0-10.2-1.9-13.5-6l-44.4-53V133Z"/></g></g></svg>