<?xml version="1.0" encoding="UTF-8"?>
<svg xmlns="http://www.w3.org/2000/svg" xmlns:xlink="http://www.w3.org/1999/xlink" width="348pt" height="250pt" viewBox="0 0 348 250" version="1.1">
<defs>
<clipPath id="clip1">
  <path d="M 0 0.253906 L 348 0.253906 L 348 249.746094 L 0 249.746094 Z M 0 0.253906 "/>
</clipPath>
</defs>
<g id="surface1">
<path style=" stroke:none;fill-rule:nonzero;fill:rgb(14.117647%,58.431373%,92.54902%);fill-opacity:1;" d="M 90.972656 206.882812 C 91.519531 205.785156 92.066406 204.136719 91.519531 203.039062 C 90.972656 200.839844 89.875 201.386719 87.683594 202.488281 C 80.011719 207.433594 71.242188 209.632812 62.472656 211.828125 C 52.0625 214.027344 41.648438 214.027344 31.234375 212.929688 C 29.589844 212.929688 26.304688 211.28125 25.753906 210.179688 C 15.890625 196.992188 11.507812 181.605469 8.21875 165.667969 C 6.027344 155.226562 4.929688 143.6875 4.929688 132.695312 C 4.929688 127.199219 8.765625 125.003906 14.246094 125.003906 C 88.777344 125.003906 163.859375 125.003906 238.390625 125.003906 C 248.257812 125.003906 256.476562 122.253906 265.246094 118.40625 C 265.792969 118.40625 265.792969 117.859375 266.339844 117.859375 C 272.917969 114.5625 272.917969 115.660156 269.082031 109.066406 C 262.503906 98.074219 260.859375 85.984375 264.148438 73.894531 C 265.792969 68.398438 267.984375 62.902344 270.726562 57.957031 C 271.273438 56.859375 273.464844 56.308594 275.109375 57.410156 C 286.070312 65.652344 294.839844 74.992188 296.484375 88.730469 C 297.03125 94.777344 295.933594 95.328125 301.964844 94.226562 C 314.019531 92.03125 325.527344 92.03125 337.039062 96.976562 C 340.875 98.625 341.96875 98.625 340.324219 102.472656 C 333.75 114.5625 322.242188 122.253906 308.539062 125.003906 C 303.609375 126.101562 298.128906 125.550781 293.195312 125.550781 C 291.550781 125.550781 291.003906 125.550781 289.90625 127.199219 C 283.878906 142.585938 276.753906 157.976562 267.4375 171.714844 C 255.929688 189.847656 241.679688 205.785156 223.59375 217.875 C 205.511719 229.964844 186.328125 236.558594 165.503906 240.957031 C 156.1875 242.605469 146.871094 243.703125 137.554688 243.703125 C 130.976562 240.957031 123.851562 237.109375 118.371094 233.261719 C 107.414062 226.667969 98.09375 218.425781 90.972656 206.882812 Z M 111.25 171.164062 C 104.671875 171.164062 99.738281 176.109375 99.738281 182.703125 C 99.738281 189.296875 104.671875 194.246094 111.25 194.246094 C 117.277344 194.246094 122.757812 189.296875 122.757812 182.703125 C 122.757812 176.109375 117.277344 171.164062 111.25 171.164062 Z M 111.25 171.164062 "/>
<path style=" stroke:none;fill-rule:nonzero;fill:rgb(14.117647%,57.647059%,91.764706%);fill-opacity:1;" d="M 88.78125 82.683594 C 93.164062 82.683594 98.097656 82.683594 102.480469 82.683594 C 105.769531 82.683594 108.507812 83.234375 109.054688 86.53125 C 109.605469 94.773438 109.605469 106.863281 107.960938 114.558594 C 107.414062 117.304688 106.316406 118.953125 103.574219 118.953125 C 94.261719 118.953125 84.941406 118.953125 75.625 118.953125 C 72.886719 118.953125 69.597656 117.304688 69.597656 114.558594 C 69.597656 106.863281 69.050781 98.621094 69.050781 90.925781 C 69.050781 87.628906 71.789062 83.78125 75.625 83.78125 C 80.011719 82.683594 84.394531 82.683594 88.78125 82.683594 Z M 88.78125 82.683594 "/>
<path style=" stroke:none;fill-rule:nonzero;fill:rgb(14.117647%,57.647059%,91.764706%);fill-opacity:1;" d="M 132.621094 84.882812 C 137.003906 84.882812 141.9375 84.882812 146.871094 84.882812 C 150.160156 84.882812 151.253906 85.980469 151.253906 89.28125 C 151.253906 96.972656 151.253906 107.964844 151.253906 115.65625 C 151.253906 118.40625 149.609375 120.054688 146.871094 120.054688 C 137.554688 120.054688 128.238281 120.054688 118.921875 120.054688 C 115.632812 120.054688 111.246094 118.40625 111.246094 115.109375 C 111.246094 107.414062 111.246094 96.972656 111.246094 88.730469 C 111.246094 84.882812 115.632812 83.785156 119.46875 83.785156 C 123.304688 84.882812 128.238281 84.882812 132.621094 84.882812 Z M 132.621094 84.882812 "/>
<path style=" stroke:none;fill-rule:nonzero;fill:rgb(14.117647%,57.647059%,91.764706%);fill-opacity:1;" d="M 132.621094 45.867188 C 137.007812 45.867188 142.488281 45.867188 146.871094 45.867188 C 150.160156 45.867188 151.253906 46.964844 151.253906 50.261719 C 151.253906 58.503906 151.253906 66.199219 151.253906 74.441406 C 151.253906 77.738281 150.160156 78.835938 146.871094 78.835938 C 137.007812 78.835938 127.691406 78.835938 117.824219 78.835938 C 115.085938 78.835938 113.441406 77.1875 113.441406 74.441406 C 113.441406 66.199219 113.441406 57.957031 113.441406 50.261719 C 113.441406 47.515625 115.085938 45.867188 117.824219 45.867188 C 123.851562 45.867188 128.238281 45.867188 132.621094 45.867188 Z M 132.621094 45.867188 "/>
<path style=" stroke:none;fill-rule:nonzero;fill:rgb(14.117647%,58.431373%,92.156863%);fill-opacity:1;" d="M 174.820312 79.9375 C 170.4375 79.9375 163.3125 79.9375 158.925781 79.9375 C 155.640625 79.9375 155.089844 77.738281 155.089844 74.441406 C 155.089844 66.199219 155.089844 58.503906 155.089844 50.261719 C 155.089844 46.964844 156.1875 45.863281 159.476562 45.863281 C 168.792969 45.863281 179.753906 45.316406 189.070312 45.316406 C 192.359375 45.316406 193.453125 47.515625 193.453125 50.8125 C 193.453125 58.503906 193.453125 66.746094 193.453125 74.441406 C 193.453125 78.289062 192.359375 80.484375 188.519531 80.484375 C 183.589844 79.9375 179.203125 79.9375 174.820312 79.9375 Z M 174.820312 79.9375 "/>
<path style=" stroke:none;fill-rule:nonzero;fill:rgb(14.117647%,58.431373%,92.156863%);fill-opacity:1;" d="M 174.820312 6.300781 C 179.207031 6.300781 183.589844 6.300781 187.972656 6.300781 C 191.808594 6.300781 192.90625 7.402344 192.90625 10.699219 C 192.90625 18.390625 192.90625 28.832031 192.90625 36.527344 C 192.90625 39.824219 191.808594 40.921875 188.523438 40.921875 C 179.207031 40.921875 170.4375 40.921875 161.121094 40.921875 C 157.832031 40.921875 156.734375 39.824219 156.734375 36.527344 C 156.734375 28.28125 156.734375 17.84375 156.734375 10.148438 C 156.734375 6.851562 157.832031 5.753906 161.121094 5.753906 C 165.503906 6.300781 170.4375 6.300781 174.820312 6.300781 Z M 174.820312 6.300781 "/>
<path style=" stroke:none;fill-rule:nonzero;fill:rgb(14.117647%,58.431373%,92.156863%);fill-opacity:1;" d="M 174.820312 85.4375 C 179.207031 85.4375 183.589844 85.4375 187.972656 85.4375 C 191.808594 85.4375 192.90625 86.535156 192.90625 89.832031 C 192.90625 97.527344 192.90625 105.769531 192.90625 113.460938 C 192.90625 117.308594 191.808594 118.410156 187.972656 118.410156 C 179.207031 118.410156 170.4375 118.410156 161.667969 118.410156 C 157.832031 118.410156 156.734375 117.308594 156.734375 113.460938 C 156.734375 105.769531 156.734375 97.527344 156.734375 89.832031 C 156.734375 86.535156 157.832031 85.4375 161.121094 85.4375 C 165.503906 85.4375 170.4375 85.4375 174.820312 85.4375 Z M 174.820312 85.4375 "/>
<path style=" stroke:none;fill-rule:nonzero;fill:rgb(14.117647%,58.431373%,92.156863%);fill-opacity:1;" d="M 217.566406 85.4375 C 221.953125 85.4375 226.335938 85.4375 230.71875 85.4375 C 234.554688 85.4375 235.652344 86.535156 235.652344 89.832031 C 235.652344 97.527344 235.652344 105.769531 235.652344 113.460938 C 235.652344 117.308594 234.554688 118.410156 230.71875 118.410156 C 221.953125 118.410156 213.183594 118.410156 204.414062 118.410156 C 200.578125 118.410156 199.480469 117.308594 199.480469 113.460938 C 199.480469 105.769531 199.480469 97.527344 199.480469 89.832031 C 199.480469 86.535156 200.578125 85.4375 203.867188 85.4375 C 208.796875 85.4375 213.183594 85.4375 217.566406 85.4375 Z M 217.566406 85.4375 "/>
<path style=" stroke:none;fill-rule:nonzero;fill:rgb(99.215686%,99.215686%,99.607843%);fill-opacity:1;" d="M 111.25 171.160156 C 117.824219 171.160156 122.757812 176.109375 122.757812 182.703125 C 122.757812 188.746094 117.824219 194.242188 111.25 194.242188 C 104.671875 194.242188 99.738281 189.296875 99.738281 182.703125 C 99.738281 176.109375 104.671875 171.160156 111.25 171.160156 Z M 117.277344 181.054688 C 113.988281 181.601562 111.796875 180.503906 111.796875 178.304688 C 112.34375 175.558594 110.699219 176.109375 109.054688 176.109375 C 105.769531 177.207031 103.574219 179.953125 104.125 183.800781 C 104.671875 187.097656 107.960938 189.296875 111.25 188.746094 C 115.632812 188.746094 117.824219 185.449219 117.277344 181.054688 Z M 117.277344 181.054688 "/>
<path style=" stroke:none;fill-rule:nonzero;fill:rgb(16.470588%,33.72549%,63.529412%);fill-opacity:1;" d="M 81.105469 101.921875 C 81.105469 104.667969 81.105469 106.867188 81.105469 109.613281 C 81.105469 110.714844 81.105469 111.261719 80.011719 111.261719 C 78.914062 111.261719 78.367188 110.714844 78.367188 109.613281 C 78.367188 104.667969 78.367188 99.171875 78.367188 94.226562 C 78.367188 93.128906 78.367188 92.578125 79.460938 92.578125 C 80.558594 92.578125 81.105469 93.128906 81.105469 94.226562 C 81.105469 96.425781 81.105469 99.171875 81.105469 101.921875 Z M 81.105469 101.921875 "/>
<path style=" stroke:none;fill-rule:nonzero;fill:rgb(16.470588%,33.72549%,63.529412%);fill-opacity:1;" d="M 97.546875 101.371094 C 97.546875 98.621094 97.546875 96.425781 97.546875 93.675781 C 97.546875 92.578125 98.09375 92.027344 99.191406 92.027344 C 100.289062 92.027344 100.289062 92.578125 100.289062 93.675781 C 100.289062 98.621094 100.289062 104.117188 100.289062 109.0625 C 100.289062 110.164062 99.738281 110.710938 98.644531 110.710938 C 97.546875 110.710938 97.546875 110.164062 97.546875 109.0625 C 97.546875 106.867188 97.546875 104.117188 97.546875 101.371094 Z M 97.546875 101.371094 "/>
<path style=" stroke:none;fill-rule:nonzero;fill:rgb(16.470588%,33.72549%,63.529412%);fill-opacity:1;" d="M 90.972656 101.917969 C 90.972656 104.667969 90.972656 106.863281 90.972656 109.613281 C 90.972656 110.710938 90.972656 111.8125 89.328125 111.261719 C 87.683594 111.261719 87.683594 110.160156 87.683594 109.0625 C 87.683594 104.117188 87.683594 98.621094 87.683594 93.675781 C 87.683594 92.578125 87.683594 91.476562 89.328125 91.476562 C 90.972656 91.476562 90.972656 92.578125 90.972656 93.675781 C 90.972656 96.972656 90.972656 99.171875 90.972656 101.917969 Z M 90.972656 101.917969 "/>
<path style=" stroke:none;fill-rule:nonzero;fill:rgb(16.470588%,33.72549%,63.529412%);fill-opacity:1;" d="M 121.113281 101.371094 C 121.113281 98.621094 121.113281 96.425781 121.113281 93.675781 C 121.113281 92.578125 121.660156 91.476562 122.757812 91.476562 C 123.855469 91.476562 124.402344 92.578125 124.402344 93.675781 C 124.402344 98.621094 124.402344 104.117188 124.402344 109.0625 C 124.402344 110.160156 123.855469 111.261719 122.757812 111.261719 C 121.113281 111.261719 121.113281 110.160156 121.113281 109.0625 C 121.113281 106.863281 121.113281 104.117188 121.113281 101.371094 Z M 121.113281 101.371094 "/>
<path style=" stroke:none;fill-rule:nonzero;fill:rgb(16.470588%,33.72549%,63.529412%);fill-opacity:1;" d="M 134.265625 101.371094 C 134.265625 104.117188 134.265625 106.316406 134.265625 109.0625 C 134.265625 110.710938 133.71875 111.8125 132.074219 111.261719 C 130.429688 111.261719 130.429688 110.160156 130.429688 109.0625 C 130.429688 104.117188 130.429688 99.171875 130.429688 94.226562 C 130.429688 93.125 130.429688 91.476562 132.074219 91.476562 C 133.71875 91.476562 133.71875 93.125 133.71875 94.226562 C 134.265625 96.972656 134.265625 99.171875 134.265625 101.371094 Z M 134.265625 101.371094 "/>
<path style=" stroke:none;fill-rule:nonzero;fill:rgb(16.470588%,33.72549%,63.529412%);fill-opacity:1;" d="M 140.84375 101.371094 C 140.84375 98.621094 140.84375 96.425781 140.84375 93.675781 C 140.84375 92.578125 140.84375 91.476562 142.488281 91.476562 C 144.128906 91.476562 144.128906 92.578125 144.128906 93.675781 C 144.128906 98.621094 144.128906 103.566406 144.128906 108.515625 C 144.128906 109.613281 144.128906 110.710938 142.488281 110.710938 C 140.84375 110.710938 140.84375 109.613281 140.84375 108.515625 C 140.84375 106.316406 140.84375 104.117188 140.84375 101.371094 Z M 140.84375 101.371094 "/>
<path style=" stroke:none;fill-rule:nonzero;fill:rgb(16.470588%,33.72549%,63.529412%);fill-opacity:1;" d="M 186.328125 62.351562 C 186.328125 65.097656 186.328125 67.296875 186.328125 70.042969 C 186.328125 71.144531 185.78125 72.242188 184.683594 72.242188 C 183.039062 72.242188 183.039062 71.144531 183.039062 70.042969 C 183.039062 65.097656 183.039062 60.152344 183.039062 55.207031 C 183.039062 54.109375 183.039062 53.007812 184.683594 53.007812 C 186.328125 53.007812 186.328125 54.109375 186.328125 55.207031 C 186.328125 57.40625 186.328125 60.152344 186.328125 62.351562 Z M 186.328125 62.351562 "/>
<path style=" stroke:none;fill-rule:nonzero;fill:rgb(16.470588%,33.72549%,63.529412%);fill-opacity:1;" d="M 173.175781 62.351562 C 173.175781 60.152344 173.175781 57.40625 173.175781 55.207031 C 173.175781 54.109375 173.175781 53.007812 174.820312 53.007812 C 176.464844 53.007812 176.464844 54.109375 176.464844 55.207031 C 176.464844 60.152344 176.464844 65.097656 176.464844 70.042969 C 176.464844 71.144531 176.464844 72.242188 174.820312 72.242188 C 173.175781 72.242188 173.175781 71.144531 173.175781 70.042969 C 173.175781 67.296875 173.175781 64.550781 173.175781 62.351562 Z M 173.175781 62.351562 "/>
<path style=" stroke:none;fill-rule:nonzero;fill:rgb(16.470588%,33.72549%,63.529412%);fill-opacity:1;" d="M 163.3125 61.800781 C 163.3125 59.601562 163.3125 56.855469 163.3125 54.65625 C 163.3125 53.558594 163.3125 52.457031 164.957031 52.457031 C 166.601562 52.457031 166.601562 53.007812 166.601562 54.65625 C 166.601562 59.601562 166.601562 65.097656 166.601562 70.042969 C 166.601562 71.144531 166.050781 72.242188 164.957031 72.242188 C 163.3125 72.242188 163.3125 71.144531 163.3125 70.042969 C 163.3125 67.296875 163.3125 64.546875 163.3125 61.800781 Z M 163.3125 61.800781 "/>
<path style=" stroke:none;fill-rule:nonzero;fill:rgb(16.470588%,33.72549%,63.529412%);fill-opacity:1;" d="M 144.128906 62.351562 C 144.128906 65.097656 144.128906 67.296875 144.128906 70.042969 C 144.128906 71.144531 143.582031 72.242188 142.488281 72.242188 C 140.84375 72.242188 140.84375 71.144531 140.84375 70.042969 C 140.84375 65.097656 140.84375 60.152344 140.84375 55.207031 C 140.84375 54.109375 140.84375 53.007812 142.488281 53.007812 C 144.128906 53.007812 144.128906 54.109375 144.128906 55.207031 C 144.128906 57.40625 144.128906 60.152344 144.128906 62.351562 Z M 144.128906 62.351562 "/>
<path style=" stroke:none;fill-rule:nonzero;fill:rgb(16.470588%,33.72549%,63.529412%);fill-opacity:1;" d="M 130.976562 62.351562 C 130.976562 60.152344 130.976562 57.40625 130.976562 55.207031 C 130.976562 54.109375 130.976562 53.007812 132.621094 53.007812 C 134.265625 53.007812 134.265625 54.109375 134.265625 55.207031 C 134.265625 60.152344 134.265625 65.097656 134.265625 70.042969 C 134.265625 71.144531 134.265625 72.242188 132.621094 72.242188 C 130.976562 72.242188 130.976562 71.144531 130.976562 70.042969 C 130.976562 67.296875 130.976562 64.550781 130.976562 62.351562 Z M 130.976562 62.351562 "/>
<path style=" stroke:none;fill-rule:nonzero;fill:rgb(16.470588%,33.72549%,63.529412%);fill-opacity:1;" d="M 121.113281 61.800781 C 121.113281 59.601562 121.113281 56.855469 121.113281 54.65625 C 121.113281 53.558594 121.113281 52.457031 122.757812 52.457031 C 124.402344 52.457031 124.402344 53.007812 124.402344 54.65625 C 124.402344 59.601562 124.402344 65.097656 124.402344 70.042969 C 124.402344 71.144531 123.855469 72.242188 122.757812 72.242188 C 121.113281 72.242188 121.113281 71.144531 121.113281 70.042969 C 121.113281 67.296875 121.113281 64.546875 121.113281 61.800781 Z M 121.113281 61.800781 "/>
<path style=" stroke:none;fill-rule:nonzero;fill:rgb(14.117647%,57.647059%,91.764706%);fill-opacity:1;" d="M 89.328125 45.867188 C 93.710938 45.867188 99.191406 45.867188 103.578125 45.867188 C 106.863281 45.867188 107.960938 46.964844 107.960938 50.261719 C 107.960938 58.503906 107.960938 66.199219 107.960938 74.441406 C 107.960938 77.738281 106.863281 78.835938 103.578125 78.835938 C 93.710938 78.835938 84.394531 78.835938 74.53125 78.835938 C 71.789062 78.835938 70.148438 77.1875 70.148438 74.441406 C 70.148438 66.199219 70.148438 57.957031 70.148438 50.261719 C 70.148438 47.515625 71.789062 45.867188 74.53125 45.867188 C 80.558594 45.867188 84.941406 45.867188 89.328125 45.867188 Z M 89.328125 45.867188 "/>
<path style=" stroke:none;fill-rule:nonzero;fill:rgb(16.470588%,33.72549%,63.529412%);fill-opacity:1;" d="M 100.835938 62.351562 C 100.835938 65.097656 100.835938 67.296875 100.835938 70.042969 C 100.835938 71.144531 100.289062 72.242188 99.191406 72.242188 C 97.550781 72.242188 97.550781 71.144531 97.550781 70.042969 C 97.550781 65.097656 97.550781 60.152344 97.550781 55.207031 C 97.550781 54.109375 97.550781 53.007812 99.191406 53.007812 C 100.835938 53.007812 100.835938 54.109375 100.835938 55.207031 C 100.835938 57.40625 100.835938 60.152344 100.835938 62.351562 Z M 100.835938 62.351562 "/>
<path style=" stroke:none;fill-rule:nonzero;fill:rgb(16.470588%,33.72549%,63.529412%);fill-opacity:1;" d="M 87.683594 62.351562 C 87.683594 60.152344 87.683594 57.40625 87.683594 55.207031 C 87.683594 54.109375 87.683594 53.007812 89.328125 53.007812 C 90.972656 53.007812 90.972656 54.109375 90.972656 55.207031 C 90.972656 60.152344 90.972656 65.097656 90.972656 70.042969 C 90.972656 71.144531 90.972656 72.242188 89.328125 72.242188 C 87.683594 72.242188 87.683594 71.144531 87.683594 70.042969 C 87.683594 67.296875 87.683594 64.550781 87.683594 62.351562 Z M 87.683594 62.351562 "/>
<path style=" stroke:none;fill-rule:nonzero;fill:rgb(16.470588%,33.72549%,63.529412%);fill-opacity:1;" d="M 77.820312 61.800781 C 77.820312 59.601562 77.820312 56.855469 77.820312 54.65625 C 77.820312 53.558594 77.820312 52.457031 79.464844 52.457031 C 81.109375 52.457031 81.109375 53.007812 81.109375 54.65625 C 81.109375 59.601562 81.109375 65.097656 81.109375 70.042969 C 81.109375 71.144531 80.558594 72.242188 79.464844 72.242188 C 77.820312 72.242188 77.820312 71.144531 77.820312 70.042969 C 77.820312 67.296875 77.820312 64.546875 77.820312 61.800781 Z M 77.820312 61.800781 "/>
<path style=" stroke:none;fill-rule:nonzero;fill:rgb(14.117647%,57.647059%,91.764706%);fill-opacity:1;" d="M 48.226562 84.328125 C 52.609375 84.328125 57.542969 85.425781 61.925781 85.425781 C 65.214844 85.425781 66.308594 86.527344 66.308594 89.824219 C 66.308594 98.066406 66.308594 105.761719 66.308594 114.003906 C 66.308594 117.300781 65.214844 118.398438 61.925781 118.398438 C 52.0625 118.398438 42.746094 118.398438 32.878906 118.398438 C 30.140625 118.398438 28.496094 116.75 28.496094 114.003906 C 28.496094 105.761719 28.496094 97.515625 28.496094 89.824219 C 28.496094 87.078125 30.140625 85.425781 32.878906 85.425781 C 38.910156 85.425781 43.839844 84.328125 48.226562 84.328125 Z M 48.226562 84.328125 "/>
<path style=" stroke:none;fill-rule:nonzero;fill:rgb(16.470588%,33.72549%,63.529412%);fill-opacity:1;" d="M 58.636719 101.921875 C 58.636719 104.667969 58.636719 106.867188 58.636719 109.613281 C 58.636719 110.714844 58.089844 111.8125 56.992188 111.8125 C 55.347656 111.8125 55.347656 110.714844 55.347656 109.613281 C 55.347656 104.667969 55.347656 99.722656 55.347656 94.777344 C 55.347656 93.679688 55.347656 92.578125 56.992188 92.578125 C 58.636719 92.578125 58.636719 93.679688 58.636719 94.777344 C 58.636719 96.976562 58.636719 99.722656 58.636719 101.921875 Z M 58.636719 101.921875 "/>
<path style=" stroke:none;fill-rule:nonzero;fill:rgb(16.470588%,33.72549%,63.529412%);fill-opacity:1;" d="M 45.484375 101.921875 C 45.484375 99.722656 45.484375 96.976562 45.484375 94.777344 C 45.484375 93.679688 45.484375 92.578125 47.128906 92.578125 C 48.773438 92.578125 48.773438 93.679688 48.773438 94.777344 C 48.773438 99.722656 48.773438 104.667969 48.773438 109.613281 C 48.773438 110.714844 48.773438 111.8125 47.128906 111.8125 C 45.484375 111.8125 45.484375 110.714844 45.484375 109.613281 C 45.484375 106.867188 45.484375 104.117188 45.484375 101.921875 Z M 45.484375 101.921875 "/>
<path style=" stroke:none;fill-rule:nonzero;fill:rgb(16.470588%,33.72549%,63.529412%);fill-opacity:1;" d="M 35.621094 101.371094 C 35.621094 99.171875 35.621094 96.425781 35.621094 94.226562 C 35.621094 93.128906 35.621094 92.027344 37.265625 92.027344 C 38.910156 92.027344 38.910156 92.578125 38.910156 94.226562 C 38.910156 99.171875 38.910156 104.667969 38.910156 109.613281 C 38.910156 110.710938 38.359375 111.8125 37.265625 111.8125 C 35.621094 111.8125 35.621094 110.710938 35.621094 109.613281 C 35.621094 106.867188 35.621094 104.117188 35.621094 101.371094 Z M 35.621094 101.371094 "/>
<path style=" stroke:none;fill-rule:nonzero;fill:rgb(16.470588%,33.72549%,63.529412%);fill-opacity:1;" d="M 163.3125 22.785156 C 163.3125 20.039062 163.3125 17.839844 163.3125 15.09375 C 163.3125 13.996094 163.3125 12.894531 164.957031 12.894531 C 166.601562 12.894531 166.601562 13.445312 166.601562 15.09375 C 166.601562 20.039062 166.601562 25.535156 166.601562 30.480469 C 166.601562 31.578125 166.050781 32.679688 164.957031 32.679688 C 163.3125 32.679688 163.3125 31.578125 163.3125 30.480469 C 163.3125 28.28125 163.3125 25.535156 163.3125 22.785156 Z M 163.3125 22.785156 "/>
<path style=" stroke:none;fill-rule:nonzero;fill:rgb(16.470588%,33.72549%,63.529412%);fill-opacity:1;" d="M 173.175781 23.335938 C 173.175781 20.589844 173.175781 18.390625 173.175781 15.644531 C 173.175781 14.542969 173.175781 13.445312 174.820312 13.445312 C 176.464844 13.445312 176.464844 13.996094 176.464844 15.644531 C 176.464844 20.589844 176.464844 26.085938 176.464844 31.03125 C 176.464844 32.128906 176.464844 33.230469 174.820312 33.230469 C 173.175781 33.230469 173.175781 32.128906 173.175781 31.03125 C 173.175781 28.28125 173.175781 25.535156 173.175781 23.335938 Z M 173.175781 23.335938 "/>
<path style=" stroke:none;fill-rule:nonzero;fill:rgb(16.470588%,33.72549%,63.529412%);fill-opacity:1;" d="M 186.328125 23.335938 C 186.328125 26.085938 186.328125 28.28125 186.328125 31.03125 C 186.328125 32.128906 186.328125 33.230469 184.683594 33.230469 C 183.039062 33.230469 183.039062 32.128906 183.039062 31.03125 C 183.039062 26.085938 183.039062 20.589844 183.039062 15.644531 C 183.039062 14.542969 183.589844 13.445312 184.683594 13.445312 C 186.328125 13.445312 186.328125 14.542969 186.328125 15.644531 C 186.328125 17.84375 186.328125 20.589844 186.328125 23.335938 Z M 186.328125 23.335938 "/>
<path style=" stroke:none;fill-rule:nonzero;fill:rgb(16.470588%,33.72549%,63.529412%);fill-opacity:1;" d="M 176.464844 101.921875 C 176.464844 104.667969 176.464844 106.867188 176.464844 109.613281 C 176.464844 110.710938 176.464844 111.8125 174.820312 111.8125 C 173.175781 111.8125 173.175781 111.261719 173.175781 109.613281 C 173.175781 104.667969 173.175781 99.171875 173.175781 94.226562 C 173.175781 93.128906 173.175781 92.027344 174.820312 92.027344 C 176.464844 92.027344 176.464844 93.128906 176.464844 94.777344 C 176.464844 96.972656 176.464844 99.171875 176.464844 101.921875 Z M 176.464844 101.921875 "/>
<path style=" stroke:none;fill-rule:nonzero;fill:rgb(16.470588%,33.72549%,63.529412%);fill-opacity:1;" d="M 166.601562 101.371094 C 166.601562 104.117188 166.601562 106.316406 166.601562 109.0625 C 166.601562 110.160156 166.601562 111.261719 164.957031 111.261719 C 163.3125 111.261719 163.3125 110.710938 163.3125 109.0625 C 163.3125 104.117188 163.3125 98.621094 163.3125 93.675781 C 163.3125 92.578125 163.3125 91.476562 164.957031 91.476562 C 166.601562 91.476562 166.601562 92.578125 166.601562 93.675781 C 166.601562 96.425781 166.601562 99.171875 166.601562 101.371094 Z M 166.601562 101.371094 "/>
<path style=" stroke:none;fill-rule:nonzero;fill:rgb(16.470588%,33.72549%,63.529412%);fill-opacity:1;" d="M 186.328125 101.921875 C 186.328125 104.667969 186.328125 106.867188 186.328125 109.613281 C 186.328125 110.710938 186.328125 111.8125 184.683594 111.8125 C 183.039062 111.8125 183.039062 111.261719 183.039062 109.613281 C 183.039062 104.667969 183.039062 99.171875 183.039062 94.226562 C 183.039062 93.128906 183.039062 92.027344 184.683594 92.027344 C 186.328125 92.027344 186.328125 93.128906 186.328125 94.226562 C 186.328125 96.425781 186.328125 99.171875 186.328125 101.921875 Z M 186.328125 101.921875 "/>
<path style=" stroke:none;fill-rule:nonzero;fill:rgb(16.470588%,33.72549%,63.529412%);fill-opacity:1;" d="M 206.058594 101.921875 C 206.058594 99.171875 206.058594 96.972656 206.058594 94.226562 C 206.058594 93.128906 206.605469 92.027344 207.703125 92.027344 C 209.347656 92.027344 209.347656 93.128906 209.347656 94.226562 C 209.347656 99.171875 209.347656 104.667969 209.347656 109.613281 C 209.347656 110.710938 208.796875 111.261719 207.703125 111.261719 C 206.058594 111.261719 206.058594 110.710938 206.058594 109.613281 C 206.058594 106.867188 206.058594 104.117188 206.058594 101.921875 Z M 206.058594 101.921875 "/>
<path style=" stroke:none;fill-rule:nonzero;fill:rgb(16.470588%,33.72549%,63.529412%);fill-opacity:1;" d="M 219.210938 101.921875 C 219.210938 104.667969 219.210938 106.867188 219.210938 109.613281 C 219.210938 110.710938 219.210938 111.8125 217.566406 111.8125 C 215.921875 111.8125 215.921875 111.261719 215.921875 109.613281 C 215.921875 104.667969 215.921875 99.171875 215.921875 94.226562 C 215.921875 93.128906 215.921875 92.027344 217.566406 92.027344 C 219.210938 92.027344 219.210938 93.128906 219.210938 94.226562 C 219.210938 96.425781 219.210938 99.171875 219.210938 101.921875 Z M 219.210938 101.921875 "/>
<path style=" stroke:none;fill-rule:nonzero;fill:rgb(16.470588%,33.72549%,63.529412%);fill-opacity:1;" d="M 225.785156 101.371094 C 225.785156 98.621094 225.785156 96.425781 225.785156 93.675781 C 225.785156 92.578125 225.785156 91.476562 227.429688 91.476562 C 229.074219 91.476562 229.074219 92.578125 229.074219 93.675781 C 229.074219 98.621094 229.074219 104.117188 229.074219 109.0625 C 229.074219 110.160156 229.074219 111.261719 227.429688 111.261719 C 225.785156 111.261719 225.785156 110.710938 225.785156 109.0625 C 225.785156 106.863281 225.785156 104.117188 225.785156 101.371094 Z M 225.785156 101.371094 "/>
<g clip-path="url(#clip1)" clip-rule="nonzero">
<path style=" stroke:none;fill-rule:nonzero;fill:rgb(16.470588%,33.72549%,63.529412%);fill-opacity:1;" d="M 103.574219 249.746094 C 92.617188 248.648438 81.65625 246.996094 71.242188 244.25 C 47.128906 238.207031 29.042969 225.015625 16.988281 203.035156 C 8.765625 187.648438 4.382812 171.710938 1.640625 154.675781 C 1.09375 150.828125 1.09375 146.980469 0 143.132812 C 0 138.1875 0 133.242188 0 128.847656 C 0.546875 128.847656 0.546875 128.296875 0.546875 127.746094 C 3.285156 121.703125 7.671875 118.40625 14.246094 118.40625 C 16.4375 118.40625 18.082031 118.40625 20.273438 118.40625 C 22.46875 118.40625 23.015625 117.855469 23.015625 115.65625 C 23.015625 106.316406 23.015625 96.972656 23.015625 87.628906 C 23.015625 81.585938 25.753906 78.835938 31.785156 78.835938 C 42.195312 78.835938 52.609375 78.835938 63.023438 78.835938 C 64.667969 78.835938 65.214844 78.289062 65.214844 76.640625 C 65.214844 67.296875 65.214844 57.957031 65.214844 48.613281 C 65.214844 42.019531 67.953125 39.269531 74.53125 39.269531 C 98.644531 39.269531 123.304688 39.269531 147.417969 39.269531 C 150.160156 39.269531 150.707031 38.171875 150.707031 35.972656 C 150.707031 27.730469 150.707031 18.9375 150.707031 10.695312 C 150.707031 6.296875 150.707031 0.253906 155.640625 0.253906 C 168.792969 0.253906 181.398438 0.253906 194.550781 0.253906 C 198.933594 1.902344 200.03125 5.75 200.03125 10.144531 C 200.03125 32.125 200.03125 54.109375 200.03125 76.089844 C 200.03125 78.835938 200.578125 79.386719 203.316406 79.386719 C 213.730469 79.386719 224.144531 79.386719 234.554688 79.386719 C 240.585938 79.386719 243.324219 82.136719 243.324219 88.179688 C 243.324219 97.523438 243.324219 106.316406 243.324219 115.65625 C 243.324219 118.40625 243.871094 119.503906 246.613281 118.953125 C 252.640625 117.855469 258.121094 116.757812 263.601562 114.558594 C 264.699219 114.007812 265.246094 113.460938 264.699219 112.359375 C 253.738281 92.027344 257.574219 72.792969 268.535156 54.65625 C 271.273438 49.710938 271.820312 49.710938 276.753906 53.007812 C 289.359375 61.253906 298.128906 72.792969 301.417969 87.628906 C 301.964844 89.828125 303.058594 90.378906 304.703125 89.828125 C 315.117188 88.179688 324.980469 88.730469 335.394531 91.476562 C 340.328125 93.125 344.164062 95.875 348 98.621094 C 347.449219 97.523438 347.449219 98.070312 347.449219 98.621094 C 346.902344 98.621094 346.902344 99.171875 346.902344 99.71875 C 339.777344 117.855469 326.078125 127.199219 307.445312 130.496094 C 303.609375 131.042969 300.320312 131.59375 296.484375 131.042969 C 294.292969 131.042969 293.742188 131.59375 293.195312 133.242188 C 287.167969 148.082031 280.042969 162.917969 271.273438 176.65625 C 247.160156 212.375 213.730469 234.359375 172.628906 244.25 C 161.121094 246.996094 147.96875 249.195312 138.648438 249.746094 C 129.332031 250.296875 103.574219 249.746094 103.574219 249.746094 Z M 90.972656 206.882812 C 89.875 206.882812 88.78125 207.429688 88.230469 207.980469 C 76.175781 214.574219 63.023438 218.421875 49.320312 218.972656 C 44.9375 218.972656 40.550781 218.972656 36.167969 218.972656 C 41.648438 224.464844 49.867188 229.960938 58.636719 233.257812 C 72.339844 238.753906 86.585938 240.953125 101.382812 242.601562 C 112.894531 243.699219 124.949219 243.699219 136.457031 242.601562 C 145.773438 242.050781 154.542969 240.953125 163.859375 239.304688 C 184.683594 234.90625 204.414062 227.765625 222.5 215.675781 C 240.585938 204.132812 254.832031 188.746094 266.339844 170.613281 C 275.109375 156.875 282.234375 142.035156 288.261719 126.648438 C 288.8125 125 289.90625 124.449219 292.097656 124.449219 C 297.03125 124.449219 302.511719 125 307.445312 123.898438 C 321.144531 121.152344 331.558594 114.558594 338.683594 102.46875 C 340.875 99.171875 340.328125 98.621094 336.492188 96.972656 C 324.980469 92.027344 313.472656 92.578125 301.417969 94.226562 C 295.386719 95.324219 295.9375 95.324219 294.839844 89.28125 C 293.195312 75.539062 285.523438 65.101562 274.5625 57.40625 C 273.464844 56.308594 272.917969 56.855469 271.820312 57.957031 C 269.082031 62.902344 266.890625 68.398438 265.246094 73.890625 C 261.957031 85.980469 263.054688 97.523438 269.628906 108.511719 C 273.464844 114.558594 273.464844 115.109375 266.890625 118.40625 C 266.339844 118.40625 266.339844 118.953125 265.792969 118.953125 C 257.027344 122.800781 247.707031 125 237.84375 125 C 163.3125 125 88.230469 125 13.699219 125 C 8.21875 125 5.476562 127.746094 5.476562 133.242188 C 5.476562 144.234375 6.574219 155.222656 8.765625 165.664062 C 12.054688 181.601562 17.535156 196.441406 27.398438 210.179688 C 28.496094 210.726562 29.59375 212.375 31.234375 212.375 C 41.648438 213.476562 51.511719 213.476562 61.925781 211.277344 C 70.695312 209.078125 79.460938 206.332031 87.136719 201.386719 C 89.328125 200.285156 91.519531 200.835938 92.066406 203.035156 C 92.617188 204.683594 91.519531 205.78125 90.972656 206.882812 Z M 89.328125 45.867188 C 84.941406 45.867188 80.011719 45.867188 75.625 45.867188 C 72.886719 45.867188 71.242188 46.964844 71.242188 50.261719 C 71.242188 58.503906 71.242188 66.746094 71.242188 74.441406 C 71.242188 77.738281 72.339844 78.835938 75.625 78.835938 C 84.941406 78.835938 93.710938 78.835938 103.027344 78.835938 C 106.316406 78.835938 107.960938 77.191406 107.960938 74.441406 C 107.960938 66.746094 107.960938 58.503906 107.960938 50.8125 C 107.960938 47.515625 106.316406 45.867188 103.574219 45.867188 C 100.835938 45.867188 93.710938 45.867188 89.328125 45.867188 Z M 89.328125 85.433594 C 84.941406 85.433594 80.011719 85.433594 75.625 85.433594 C 72.339844 85.433594 70.695312 86.53125 70.695312 89.828125 C 70.695312 97.523438 70.695312 105.765625 70.695312 113.460938 C 70.695312 116.207031 72.339844 117.855469 75.078125 117.855469 C 84.394531 117.855469 93.710938 117.855469 103.027344 117.855469 C 105.769531 117.855469 107.414062 116.207031 107.414062 113.460938 C 107.414062 105.214844 107.414062 96.972656 107.414062 88.730469 C 107.414062 85.433594 103.027344 84.882812 103.027344 84.882812 C 103.027344 84.882812 94.261719 85.433594 89.328125 85.433594 Z M 132.074219 85.433594 C 127.691406 85.433594 123.304688 85.433594 118.921875 85.433594 C 115.085938 85.433594 113.988281 86.53125 113.988281 90.378906 C 113.988281 98.070312 113.988281 105.765625 113.988281 114.007812 C 113.988281 117.304688 115.632812 118.953125 118.375 118.953125 C 127.691406 118.953125 136.457031 118.953125 145.773438 118.953125 C 149.0625 118.953125 150.160156 117.304688 150.160156 114.558594 C 150.160156 106.863281 150.160156 98.621094 150.160156 90.925781 C 150.160156 87.628906 150.160156 85.433594 146.324219 85.433594 C 143.035156 85.433594 137.007812 85.433594 132.074219 85.433594 Z M 47.128906 85.433594 C 42.746094 85.433594 38.359375 85.433594 33.976562 85.433594 C 30.140625 85.433594 29.042969 86.53125 29.042969 90.378906 C 29.042969 98.070312 29.042969 105.765625 29.042969 113.460938 C 29.042969 117.304688 30.6875 118.40625 34.523438 118.40625 C 43.292969 118.40625 51.511719 118.40625 60.28125 118.40625 C 64.117188 118.40625 65.761719 117.304688 65.761719 113.460938 C 65.761719 105.765625 65.761719 98.070312 65.761719 90.378906 C 65.761719 87.082031 64.667969 85.433594 61.378906 85.433594 C 58.089844 85.433594 51.511719 85.433594 47.128906 85.433594 Z M 132.074219 45.867188 C 127.691406 45.867188 122.757812 45.867188 118.375 45.867188 C 115.632812 45.867188 113.988281 47.515625 113.988281 50.261719 C 113.988281 58.503906 113.988281 66.746094 113.988281 74.441406 C 113.988281 77.191406 115.632812 78.835938 118.375 78.835938 C 127.691406 78.835938 137.007812 78.835938 146.324219 78.835938 C 149.609375 78.835938 150.707031 77.738281 150.707031 74.441406 C 150.707031 66.199219 150.707031 58.503906 150.707031 50.261719 C 150.707031 46.964844 149.609375 45.867188 146.324219 45.867188 C 141.390625 45.867188 137.007812 45.867188 132.074219 45.867188 Z M 174.820312 78.835938 C 179.203125 78.835938 183.589844 78.835938 187.972656 78.835938 C 191.808594 78.835938 192.90625 77.738281 192.90625 73.890625 C 192.90625 66.199219 192.90625 57.957031 192.90625 50.261719 C 192.90625 46.964844 191.808594 45.867188 188.519531 45.867188 C 179.203125 45.867188 170.4375 45.867188 161.121094 45.867188 C 157.832031 45.867188 156.734375 46.964844 156.734375 50.261719 C 156.734375 58.503906 156.734375 66.199219 156.734375 74.441406 C 156.734375 77.738281 157.832031 78.835938 161.121094 78.835938 C 166.050781 78.835938 170.4375 78.835938 174.820312 78.835938 Z M 174.820312 6.296875 C 170.4375 6.296875 165.503906 6.296875 161.121094 6.296875 C 157.832031 6.296875 156.734375 7.398438 156.734375 10.695312 C 156.734375 18.9375 156.734375 27.179688 156.734375 34.875 C 156.734375 38.171875 157.832031 39.269531 161.121094 39.269531 C 170.4375 39.269531 179.203125 39.269531 188.519531 39.269531 C 191.808594 39.269531 192.90625 38.171875 192.90625 34.875 C 192.90625 27.179688 192.90625 18.9375 192.90625 11.242188 C 192.90625 7.945312 191.808594 6.847656 187.972656 6.847656 C 183.589844 6.296875 179.203125 6.296875 174.820312 6.296875 Z M 174.820312 85.433594 C 170.4375 85.433594 165.503906 85.433594 161.121094 85.433594 C 157.832031 85.433594 156.734375 86.53125 156.734375 89.828125 C 156.734375 97.523438 156.734375 105.765625 156.734375 113.460938 C 156.734375 117.304688 157.832031 118.40625 161.667969 118.40625 C 170.4375 118.40625 179.203125 118.40625 187.972656 118.40625 C 191.808594 118.40625 192.90625 117.304688 192.90625 113.460938 C 192.90625 105.765625 192.90625 97.523438 192.90625 89.828125 C 192.90625 86.53125 191.808594 85.433594 187.972656 85.433594 C 183.589844 85.433594 179.203125 85.433594 174.820312 85.433594 Z M 217.566406 85.433594 C 213.183594 85.433594 208.25 85.433594 203.867188 85.433594 C 200.578125 85.433594 199.480469 86.53125 199.480469 89.828125 C 199.480469 97.523438 199.480469 105.765625 199.480469 113.460938 C 199.480469 117.304688 200.578125 118.40625 204.414062 118.40625 C 213.183594 118.40625 221.953125 118.40625 230.71875 118.40625 C 234.554688 118.40625 235.652344 117.304688 235.652344 113.460938 C 235.652344 105.765625 235.652344 97.523438 235.652344 89.828125 C 235.652344 86.53125 234.554688 85.433594 230.71875 85.433594 C 226.335938 85.433594 221.953125 85.433594 217.566406 85.433594 Z M 217.566406 85.433594 "/>
</g>
<path style=" stroke:none;fill-rule:nonzero;fill:rgb(16.470588%,33.72549%,63.529412%);fill-opacity:1;" d="M 117.277344 181.050781 C 117.824219 185.449219 115.632812 188.746094 111.796875 189.296875 C 108.507812 189.84375 105.21875 187.648438 104.671875 184.347656 C 104.125 180.503906 105.769531 177.207031 109.605469 176.65625 C 111.25 176.105469 112.894531 175.558594 112.34375 178.855469 C 111.796875 180.503906 113.988281 182.152344 117.277344 181.050781 Z M 117.277344 181.050781 "/>
</g>
</svg>
