<svg xmlns="http://www.w3.org/2000/svg" width="801.9869" height="802.4293" viewBox="0 0 801.9869 802.4293"><defs><style>.cls-1{fill:#4169e1;}</style></defs><g id="Layer_2" data-name="Layer 2"><g id="Layer_1-2" data-name="Layer 1"><path class="cls-1" d="M461.4882,590.5588l-25.57-8.5235-10.9589-25.5706,12.1765-24.3529c2.4353-4.8706,1.2176-9.7412-2.4353-13.3941l-34.0941-34.0941c-3.6529-3.653-9.7412-4.8707-13.3941-2.4353l-24.3529,12.1764-25.5706-10.9588-8.5236-25.5706a11.6955,11.6955,0,0,0-10.9588-8.5235H269.1a11.6956,11.6956,0,0,0-10.9588,8.5235l-8.5235,25.5706-25.5706,10.9588-24.353-12.1764c-4.8706-2.4354-9.7411-1.2177-13.3941,2.4353l-34.0941,34.0941c-3.653,3.6529-4.8706,9.7411-2.4353,13.3941l12.1765,24.3529-10.9588,25.5706-29.2236,8.5235a11.6955,11.6955,0,0,0-8.5235,10.9589v48.7058a11.6957,11.6957,0,0,0,8.5235,10.9589l25.5706,8.5235,10.9588,25.5706-12.1765,24.3529c-2.4352,4.8706-1.2176,9.7412,2.4353,13.3941l34.0942,34.0941c3.6529,3.653,9.7411,4.8706,13.3941,2.4353l24.3529-12.1765,25.5706,10.9589,8.5235,25.5705a11.6957,11.6957,0,0,0,10.9589,8.5235h48.7058a11.6959,11.6959,0,0,0,10.9589-8.5235l8.5235-25.5705,25.5706-10.9589,24.3529,12.1765c4.8706,2.4352,9.7412,1.2176,13.3941-2.4353l34.0941-34.0941c3.653-3.653,4.8706-9.7412,2.4353-13.3941l-12.1764-24.353,10.9588-25.57,25.5706-8.5236a11.6955,11.6955,0,0,0,8.5235-10.9588V601.5176C468.7941,596.647,466.3588,591.7764,461.4882,590.5588ZM444.4412,641.7l-23.1353,8.5235A10.9779,10.9779,0,0,0,414,657.5294l-14.6118,35.3118c-1.2176,3.6529-1.2176,7.3058,0,9.7411L409.1294,724.5l-21.9177,21.9176-21.9176-9.7411c-3.6529-1.2177-7.3059-1.2177-9.7412,0l-35.3117,14.6117a10.9781,10.9781,0,0,0-7.3059,7.3059l-6.0882,20.7H275.1882l-7.3059-23.1353a10.9779,10.9779,0,0,0-7.3058-7.3059l-35.3118-14.6117c-3.6529-1.2177-7.3059-1.2177-9.7412,0l-20.7,10.9588-21.9176-21.9176,9.7412-21.9177a13.4451,13.4451,0,0,0,0-9.7411l-14.6118-35.3118a10.9779,10.9779,0,0,0-7.3059-7.3059l-23.1353-8.5235V608.8236L160.7294,600.3c3.6529-1.2176,6.0882-4.8706,7.3059-7.3058l14.6118-32.8766c1.2176-3.6529,1.2176-7.3058,0-9.7411l-9.7412-21.9177,21.9176-21.9176,21.9177,9.7412c3.6529,1.2176,7.3058,1.2176,9.7411,0l35.3118-14.6118a10.9779,10.9779,0,0,0,7.3059-7.3059l8.5235-23.1353h31.6588l8.5236,23.1353a10.9775,10.9775,0,0,0,7.3059,7.3059l35.3117,14.6118c3.653,1.2176,7.3059,1.2176,9.7412,0l21.9177-9.7412L414,528.4588l-9.7412,21.9177c-1.2176,3.6529-1.2176,7.3058,0,9.7411l14.6118,35.3118a10.9777,10.9777,0,0,0,7.3059,7.3059l23.1353,8.5235V641.7Z"/><path class="cls-1" d="M142.4647,347.0294a11.6956,11.6956,0,0,0,10.9588,8.5235h48.7059a11.6955,11.6955,0,0,0,10.9588-8.5235l8.5235-25.5706L247.1823,310.5l24.353,12.1765c4.8706,2.4353,9.7411,1.2176,13.3941-2.4353l34.0941-34.0941c3.6529-3.653,4.8706-9.7412,2.4353-13.3942L309.2823,248.4l10.9589-25.5706,25.5706-8.5235a11.6959,11.6959,0,0,0,8.5235-10.9589V154.6412a11.6957,11.6957,0,0,0-8.5235-10.9589l-25.5706-8.5235-10.9589-25.5706,12.1765-24.3529c2.4353-4.8706,1.2177-9.7412-2.4353-13.3941L284.9294,37.7471c-3.6529-3.653-9.7412-4.8706-13.3941-2.4353l-24.353,12.1764L221.6117,36.5294l-8.5235-25.5706C211.8706,3.6529,207,0,202.1294,0H153.4235a11.6956,11.6956,0,0,0-10.9588,8.5235l-8.5235,25.5706-26.7883,9.7412L82.8,31.6588a13.7409,13.7409,0,0,0-13.3941,3.653L35.3118,69.4059c-3.653,3.6529-4.8706,8.5235-2.4353,13.3941l12.1764,24.3529a230.6615,230.6615,0,0,1-10.9588,25.5706L8.5235,141.247C3.6529,143.6824,0,148.5529,0,153.4235v48.7059a11.6955,11.6955,0,0,0,8.5235,10.9588l25.5706,8.5236a230.7156,230.7156,0,0,0,10.9588,25.5706L32.8765,271.5353c-2.4353,4.8706-1.2177,9.7412,2.4353,13.3941l34.0941,34.0941c3.6529,3.653,9.7412,4.8706,13.3941,2.4353l24.3529-12.1764,25.5706,10.9588Zm-40.1824-60.8823-21.9176,9.7411L58.447,273.9706l9.7412-21.9177a13.4441,13.4441,0,0,0,0-9.7411C62.1,227.7,59.6647,221.6118,53.5765,207a10.9783,10.9783,0,0,0-7.3059-7.3059l-21.9177-6.0882V161.947l23.1353-8.5235a10.9775,10.9775,0,0,0,7.3059-7.3059c6.0883-14.6117,8.5235-20.7,14.6118-35.3117,1.2176-3.653,1.2176-7.3059,0-9.7412l-10.9588-20.7L80.3647,58.4471l21.9177,9.7411c3.6529,1.2177,7.3058,1.2177,9.7411,0l35.3118-14.6117a10.9783,10.9783,0,0,0,7.3059-7.3059l7.3059-21.9177h31.6588l8.5235,23.1353a10.9777,10.9777,0,0,0,7.3059,7.3059l34.0941,13.3941c3.6529,1.2177,7.3059,1.2177,9.7412,0l21.9176-9.7411,21.9176,21.9176-9.7411,21.9176c-1.2177,3.653-1.2177,7.3059,0,9.7412l14.6118,35.3118a10.9779,10.9779,0,0,0,7.3058,7.3059l23.1353,8.5235v31.6588l-23.1353,8.5236a10.9775,10.9775,0,0,0-7.3058,7.3059l-15.8294,32.8764c-1.2177,3.6529-1.2177,7.3059,0,9.7412l9.7411,21.9176-21.9176,21.9176-21.9177-9.7411c-3.6529-1.2177-7.3058-1.2177-9.7411,0L207,301.9765a10.9779,10.9779,0,0,0-7.3059,7.3058l-8.5235,23.1353H159.5118l-8.5236-23.1353a10.9776,10.9776,0,0,0-7.3058-7.3058l-35.3118-14.6118C108.3706,284.9294,104.7176,284.9294,102.2823,286.1471Z"/><path class="cls-1" d="M291.0176,556.4647a69.3732,69.3732,0,0,0-69.4058,69.4059c0,37.7471,31.6588,69.4059,69.4059,69.4059s69.4058-31.6588,69.4058-69.4059A69.3732,69.3732,0,0,0,291.0176,556.4647Zm0,114.4588a44.9485,44.9485,0,0,1-45.0529-45.053c0-24.3529,20.7-45.0529,45.0529-45.0529a45.053,45.053,0,1,1,0,90.1059Z"/><path class="cls-1" d="M247.1823,177.7765a69.4059,69.4059,0,1,0-138.8117,0c0,37.747,31.6588,69.4058,69.4059,69.4058S247.1823,215.5235,247.1823,177.7765Zm-114.4588,0a45.053,45.053,0,1,1,90.1059,0c0,24.3529-20.7,45.0529-45.0529,45.0529S132.7235,202.1294,132.7235,177.7765Z"/><path class="cls-1" d="M795.1235,236.2235,761.0294,224.047l-14.6117-35.3117,15.8294-32.8765c2.4353-4.8706,1.2176-9.7412-2.4353-13.3941L715.9765,98.6294c-3.6529-3.6529-9.7412-4.8706-13.3941-2.4353l-32.8765,15.8294-14.6118-6.0882c-6.0882-2.4353-12.1764-4.8706-20.7-8.5235L622.2177,63.3177a11.6958,11.6958,0,0,0-10.9589-8.5236H547.9412a11.6958,11.6958,0,0,0-10.9589,8.5236L524.8059,97.4118l-35.3118,14.6117L456.6176,96.1941c-4.8706-2.4353-9.7412-1.2176-13.3941,2.4353l-43.8353,43.8353c-3.6529,3.653-4.8706,9.7412-2.4353,13.3941l15.8294,32.8765c-6.0882,13.3941-8.5235,21.9177-14.6118,35.3118l-34.0941,12.1764a11.6959,11.6959,0,0,0-8.5235,10.9589v62.1a11.6957,11.6957,0,0,0,8.5235,10.9588l34.0941,12.1765c6.0883,13.3941,9.7412,21.9176,14.6118,35.3117l-17.047,34.0941c-2.4353,4.8706-1.2176,9.7412,2.4353,13.3941l43.8353,43.8353c3.6529,3.6529,9.7411,4.8706,13.3941,2.4353l32.8764-15.8294,35.3118,14.6118,12.1765,34.0941a11.6955,11.6955,0,0,0,10.9588,8.5235h62.1a11.6957,11.6957,0,0,0,10.9589-8.5235l12.1764-34.0941,35.3118-14.6118,32.8765,15.8294c4.8706,2.4353,9.7412,1.2176,13.3941-2.4353l43.8353-43.8353c3.6529-3.6529,4.8706-9.7411,2.4353-13.3941L743.9824,368.947l14.6117-35.3117,34.0942-12.1765A11.6955,11.6955,0,0,0,801.2118,310.5V248.4C803.647,242.3118,799.9941,238.6588,795.1235,236.2235Zm-15.8294,65.753-31.6588,10.9588a10.9779,10.9779,0,0,0-7.3059,7.3059l-18.2647,45.0529c-1.2176,3.6529-1.2176,7.3059,0,9.7412l14.6118,30.4412-31.6589,31.6588-30.4411-14.6118a13.4454,13.4454,0,0,0-9.7412,0l-45.0529,18.2647a10.9775,10.9775,0,0,0-7.3059,7.3059l-10.9588,31.6588h-45.053l-10.9588-31.6588a10.9779,10.9779,0,0,0-7.3059-7.3059l-45.053-18.2647c-3.6529-1.2176-7.3058-1.2176-9.7411,0l-30.4412,14.6118-31.6588-31.6588,14.6118-30.4412a13.4454,13.4454,0,0,0,0-9.7412c-7.3059-18.2647-10.9589-26.7882-18.2647-45.0529a10.9779,10.9779,0,0,0-7.3059-7.3059l-31.6588-10.9588v-45.053l31.6588-10.9588a10.9781,10.9781,0,0,0,7.3059-7.3059c7.3058-18.2647,10.9588-26.7882,18.2647-45.0529,1.2176-3.653,1.2176-7.3059,0-9.7412l-14.6118-30.4412,31.6588-31.6588,30.4412,14.6117c3.6529,1.2177,7.3058,1.2177,9.7411,0L538.2,118.1117a10.9779,10.9779,0,0,0,7.3059-7.3059L556.4647,79.147h45.053l10.9588,31.6588a10.9775,10.9775,0,0,0,7.3059,7.3059c9.7411,3.653,17.047,7.3059,25.57,10.9589l20.7,8.5235c3.653,1.2176,7.3059,1.2176,9.7412,0l30.4412-14.6118,31.6588,31.6588-14.6118,30.4412c-1.2176,3.6529-1.2176,7.3059,0,9.7412l18.2647,45.0529a10.9775,10.9775,0,0,0,7.3059,7.3059l31.6588,10.9588v43.8354Z"/><path class="cls-1" d="M578.3823,192.3882c-23.1353,0-45.0529,8.5236-60.8823,25.5706a86.6855,86.6855,0,0,0-25.5706,60.8824c0,23.1353,8.5236,45.0529,25.5706,60.8823a86.6852,86.6852,0,0,0,60.8823,25.5706c47.4883,0,86.453-38.9647,86.453-86.4529S625.8706,192.3882,578.3823,192.3882Zm0,148.553q-25.5705,0-43.8352-18.2647t-18.2647-43.8353q0-25.5706,18.2647-43.8353t43.8352-18.2647a62.1,62.1,0,1,1,0,124.2Z"/></g></g></svg>