<svg height='300px' width='300px'  fill="#4169e1" xmlns="http://www.w3.org/2000/svg" xmlns:xlink="http://www.w3.org/1999/xlink" version="1.1" x="0px" y="0px" viewBox="0 0 32 32" style="enable-background:new 0 0 32 32;" xml:space="preserve"><title>assign</title><g><path d="M25.5,6.3c-2.7-2.6-6.1-4-9.8-4s-7.2,1.4-9.8,4c-0.4,0.4-0.4,1.1,0,1.4c0.4,0.3,1,0.3,1.4,0c2.3-2.3,5.2-3.5,8.3-3.5   c3.1,0,6.1,1.3,8.3,3.5c4.6,4.6,4.6,12.1,0,16.7c-2.2,2.3-5.2,3.5-8.3,3.5c-3.1,0-6.1-1.3-8.3-3.5c-0.4-0.4-1-0.4-1.4,0   c-0.4,0.4-0.4,1,0,1.4c2.7,2.6,6.1,4,9.8,4s7.2-1.2,9.8-3.9c2.6-2.7,4-6.1,4-9.8C29.5,12.4,28.2,8.9,25.5,6.3z"></path><path d="M7.2,16c0-0.6-0.4-1-1-1H3.5c-0.6,0-1,0.4-1,1s0.4,1,1,1h2.7C6.8,17,7.2,16.6,7.2,16z"></path><path d="M8.9,16c0,0.6,0.4,1,1,1H18l-4.6,4.6c-0.4,0.4-0.4,1,0,1.4c0.2,0.2,0.4,0.3,0.7,0.3c0.3,0,0.5-0.1,0.7-0.3l6.2-6.2   c0.2-0.2,0.3-0.4,0.3-0.7c0-0.3-0.1-0.5-0.2-0.6c-0.1-0.1-0.2-0.2-0.3-0.3l-6-6c-0.4-0.4-1-0.4-1.4,0c-0.4,0.4-0.4,1,0,1.4l4.4,4.4   H9.9C9.3,15,8.9,15.4,8.9,16z"></path></g></svg>