<svg height='300px' width='300px'  fill="#4169e1" xmlns="http://www.w3.org/2000/svg" xmlns:xlink="http://www.w3.org/1999/xlink" xmlns:serif="http://www.serif.com/" viewBox="0 0 32 32" version="1.1" xml:space="preserve" style="" x="0px" y="0px" fill-rule="evenodd" clip-rule="evenodd" stroke-linejoin="round" stroke-miterlimit="2"><path d="M16,1.25c-5.657,0 -10.25,4.593 -10.25,10.25c0,5.657 4.593,10.25 10.25,10.25c5.657,0 10.25,-4.593 10.25,-10.25c0,-5.657 -4.593,-10.25 -10.25,-10.25Zm0,1.5c4.829,0 8.75,3.921 8.75,8.75c0,4.829 -3.921,8.75 -8.75,8.75c-4.829,0 -8.75,-3.921 -8.75,-8.75c0,-4.829 3.921,-8.75 8.75,-8.75Zm0,0.754c-4.413,0 -7.996,3.583 -7.996,7.996c0,4.413 3.583,7.996 7.996,7.996c4.413,-0 7.996,-3.583 7.996,-7.996c-0,-4.413 -3.583,-7.996 -7.996,-7.996Zm0,1.5c3.585,0 6.496,2.911 6.496,6.496c-0,3.585 -2.911,6.496 -6.496,6.496c-3.585,-0 -6.496,-2.911 -6.496,-6.496c0,-3.585 2.911,-6.496 6.496,-6.496Z"></path><path d="M16.75,12.198l-0,-4.187c0,-0.414 -0.336,-0.75 -0.75,-0.75c-0.414,0 -0.75,0.336 -0.75,0.75l-0,4.187c0,0.414 0.336,0.75 0.75,0.75c0.414,-0 0.75,-0.336 0.75,-0.75Z"></path><path d="M15.625,11.548l-2.791,1.612c-0.358,0.207 -0.481,0.666 -0.275,1.024c0.207,0.359 0.667,0.482 1.025,0.275l2.791,-1.612c0.358,-0.207 0.481,-0.666 0.275,-1.024c-0.207,-0.359 -0.667,-0.482 -1.025,-0.275Z"></path><path d="M10.816,26.082l0.873,0.873c0.717,0.717 1.88,0.717 2.596,0c0.717,-0.716 0.717,-1.879 0,-2.596l-2.171,-2.171c-0.717,-0.717 -1.879,-0.717 -2.596,-0c0,-0 -2.171,2.171 -2.171,2.171c-0.717,0.717 -0.717,1.88 -0,2.596c0.716,0.717 1.879,0.717 2.596,0l0.873,-0.873Zm0.548,-1.572l0.022,0.02c0.227,0.228 1.364,1.365 1.364,1.365c0.131,0.131 0.344,0.131 0.475,-0c0.131,-0.131 0.131,-0.344 -0,-0.475c-0,-0 -2.172,-2.172 -2.172,-2.172c-0.131,-0.131 -0.343,-0.131 -0.474,0c-0,0 -2.172,2.172 -2.172,2.172c-0.131,0.131 -0.131,0.344 0,0.475c0.131,0.131 0.344,0.131 0.475,-0l1.404,-1.404l0.07,0.17c0.2,-0.234 0.46,-0.39 0.46,-0.39c0.212,0 0.409,0.089 0.548,0.239Z"></path><path d="M21.243,26.082l0.873,0.873c0.717,0.717 1.88,0.717 2.597,0c0.716,-0.716 0.716,-1.879 -0,-2.596l-2.172,-2.171c-0.717,-0.717 -1.879,-0.717 -2.596,-0c0,-0 -2.171,2.171 -2.171,2.171c-0.717,0.717 -0.717,1.88 -0,2.596c0.716,0.717 1.879,0.717 2.596,0l0.873,-0.873Zm0.548,-1.572l0.022,0.02c0.227,0.228 1.364,1.365 1.364,1.365c0.131,0.131 0.344,0.131 0.475,-0c0.131,-0.131 0.131,-0.344 -0,-0.475c-0,-0 -2.172,-2.172 -2.172,-2.172c-0.131,-0.131 -0.343,-0.131 -0.474,0c-0,0 -2.172,2.172 -2.172,2.172c-0.131,0.131 -0.131,0.344 0,0.475c0.131,0.131 0.344,0.131 0.475,-0l1.404,-1.404l0.07,0.17c0.2,-0.234 0.46,-0.39 0.46,-0.39c0.212,0 0.409,0.089 0.548,0.239Z"></path><path d="M12.652,26.107c-0,-0.199 -0.079,-0.39 -0.22,-0.53l-1.086,-1.086c-0.14,-0.141 -0.331,-0.22 -0.53,-0.22c-0.199,0 -0.39,0.079 -0.53,0.22l-1.086,1.086c-0.141,0.14 -0.22,0.331 -0.22,0.53l0,2.807c0,1.013 0.823,1.836 1.836,1.836c1.013,0 1.836,-0.823 1.836,-1.836c-0,0 -0,-2.807 -0,-2.807Zm-1.5,0.311l-0,2.496c-0,0.186 -0.151,0.336 -0.336,0.336c-0.185,-0 -0.336,-0.15 -0.336,-0.336l0,-2.496c0,-0 0.336,-0.336 0.336,-0.336l0.336,0.336Z"></path><path d="M23.079,26.107c-0,-0.199 -0.079,-0.39 -0.22,-0.53l-1.086,-1.086c-0.14,-0.141 -0.331,-0.22 -0.53,-0.22c-0.199,0 -0.39,0.079 -0.53,0.22l-1.086,1.086c-0.141,0.14 -0.22,0.331 -0.22,0.53l0,2.807c0,1.013 0.823,1.836 1.836,1.836c1.013,0 1.836,-0.823 1.836,-1.836l-0,-2.807Zm-1.5,0.311l-0,2.496c-0,0.186 -0.151,0.336 -0.336,0.336c-0.185,-0 -0.336,-0.15 -0.336,-0.336c0,0 0,-2.496 0,-2.496c0,-0 0.336,-0.336 0.336,-0.336l0.336,0.336Z"></path></svg>