<svg height='300px' width='300px'  fill="#4169e1" xmlns="http://www.w3.org/2000/svg" xmlns:xlink="http://www.w3.org/1999/xlink" version="1.1" x="0px" y="0px" viewBox="0 0 100 100" enable-background="new 0 0 100 100" xml:space="preserve"><path d="M36.625,35.204h33.713l-9.934,9.933c-0.586,0.585-0.586,1.535,0,2.121c0.293,0.293,0.677,0.439,1.061,0.439  s0.768-0.146,1.061-0.439l12.493-12.492c0.069-0.069,0.132-0.146,0.187-0.228c0.014-0.02,0.021-0.042,0.033-0.062  c0.039-0.063,0.076-0.127,0.105-0.196c0.012-0.03,0.018-0.063,0.028-0.093c0.021-0.062,0.044-0.122,0.057-0.187  c0.021-0.097,0.03-0.196,0.03-0.296s-0.01-0.2-0.03-0.296c-0.013-0.065-0.035-0.125-0.057-0.187  c-0.011-0.031-0.017-0.063-0.028-0.093c-0.029-0.069-0.066-0.133-0.105-0.196c-0.012-0.02-0.02-0.042-0.033-0.062  c-0.055-0.082-0.117-0.158-0.187-0.228L62.527,20.151c-0.586-0.586-1.535-0.586-2.121,0c-0.586,0.585-0.586,1.536,0,2.121  l9.932,9.932H36.625c-9.42,0-17.084,7.664-17.084,17.084c0,0.829,0.672,1.5,1.5,1.5s1.5-0.671,1.5-1.5  C22.541,41.522,28.859,35.204,36.625,35.204z M78.959,49.212c-0.828,0-1.5,0.671-1.5,1.5c0,7.766-6.318,14.084-14.084,14.084H29.662  l9.934-9.933c0.586-0.585,0.586-1.535,0-2.121s-1.535-0.586-2.121,0L24.981,65.234c-0.069,0.069-0.132,0.146-0.187,0.228  c-0.015,0.021-0.023,0.045-0.036,0.066c-0.037,0.062-0.074,0.124-0.103,0.191c-0.013,0.031-0.019,0.064-0.029,0.097  c-0.021,0.06-0.043,0.12-0.056,0.183c-0.02,0.097-0.03,0.196-0.03,0.297s0.011,0.2,0.03,0.297c0.013,0.063,0.035,0.123,0.056,0.183  c0.011,0.032,0.017,0.065,0.029,0.097c0.028,0.067,0.065,0.129,0.103,0.191c0.013,0.021,0.021,0.045,0.036,0.066  c0.055,0.082,0.117,0.158,0.187,0.228l12.491,12.491c0.293,0.293,0.677,0.439,1.061,0.439s0.768-0.146,1.061-0.439  c0.586-0.585,0.586-1.536,0-2.121l-9.932-9.932h33.713c9.42,0,17.084-7.664,17.084-17.084  C80.459,49.883,79.787,49.212,78.959,49.212z"></path></svg>