<svg xmlns="http://www.w3.org/2000/svg" xmlns:xlink="http://www.w3.org/1999/xlink" width="271.2609" height="275.7276" viewBox="0 0 271.2609 275.7276"><defs><style>.cls-1{fill:#230600;}.cls-2{fill:#ffe04b;}.cls-3{fill:url(#linear-gradient);}.cls-4{fill:#880805;}.cls-5{fill:#d4751b;}.cls-6{fill:#efae50;}.cls-7{fill:url(#linear-gradient-2);}.cls-8{fill:url(#linear-gradient-3);}.cls-9{fill:url(#linear-gradient-4);}.cls-10{fill:#d1f0ff;}.cls-11{fill:url(#linear-gradient-5);}.cls-12{fill:url(#linear-gradient-6);}.cls-13{fill:url(#linear-gradient-7);}.cls-14{fill:url(#linear-gradient-8);}.cls-15{fill:url(#linear-gradient-9);}.cls-16{fill:url(#linear-gradient-10);}.cls-17{fill:url(#linear-gradient-11);}.cls-18{fill:url(#linear-gradient-12);}.cls-19{fill:url(#linear-gradient-13);}.cls-20{fill:url(#linear-gradient-14);}.cls-21{fill:url(#linear-gradient-15);}.cls-22{fill:url(#linear-gradient-16);}.cls-23{fill:url(#linear-gradient-17);}.cls-24{fill:url(#linear-gradient-18);}.cls-25{fill:url(#linear-gradient-19);}.cls-26{fill:url(#linear-gradient-20);}.cls-27{fill:url(#linear-gradient-21);}.cls-28{fill:url(#linear-gradient-22);}.cls-29{fill:#fff;}</style><linearGradient id="linear-gradient" x1="161.8091" y1="127.0905" x2="267.6667" y2="127.0905" gradientUnits="userSpaceOnUse"><stop offset="0.005" stop-color="#f46338"/><stop offset="1" stop-color="#e1141f"/></linearGradient><linearGradient id="linear-gradient-2" x1="10.0001" y1="109.704" x2="119.3301" y2="109.704" xlink:href="#linear-gradient"/><linearGradient id="linear-gradient-3" x1="86.2775" y1="50.2535" x2="185.5552" y2="50.2535" xlink:href="#linear-gradient"/><linearGradient id="linear-gradient-4" x1="3.5725" y1="221.361" x2="215.7795" y2="221.361" xlink:href="#linear-gradient"/><linearGradient id="linear-gradient-5" x1="130.1789" y1="56.4374" x2="144.0395" y2="56.4374" xlink:href="#linear-gradient"/><linearGradient id="linear-gradient-6" x1="130.7213" y1="72.9637" x2="149.5617" y2="72.9637" xlink:href="#linear-gradient"/><linearGradient id="linear-gradient-7" x1="105.2796" y1="153.7184" x2="163.3218" y2="153.7184" xlink:href="#linear-gradient"/><linearGradient id="linear-gradient-8" x1="139.7582" y1="143.9052" x2="150.5181" y2="143.9052" xlink:href="#linear-gradient"/><linearGradient id="linear-gradient-9" x1="143.4025" y1="158.9093" x2="155.6569" y2="158.9093" xlink:href="#linear-gradient"/><linearGradient id="linear-gradient-10" x1="158.9911" y1="175.723" x2="170.3394" y2="175.723" xlink:href="#linear-gradient"/><linearGradient id="linear-gradient-11" x1="188.7959" y1="149.4442" x2="203.0412" y2="149.4442" xlink:href="#linear-gradient"/><linearGradient id="linear-gradient-12" x1="160.0251" y1="152.2175" x2="175.6591" y2="152.2175" xlink:href="#linear-gradient"/><linearGradient id="linear-gradient-13" x1="179.1296" y1="154.2127" x2="179.4253" y2="154.2127" xlink:href="#linear-gradient"/><linearGradient id="linear-gradient-14" x1="178.2665" y1="145.1879" x2="191.1111" y2="145.1879" xlink:href="#linear-gradient"/><linearGradient id="linear-gradient-15" x1="188.0939" y1="153.2424" x2="188.235" y2="153.2424" xlink:href="#linear-gradient"/><linearGradient id="linear-gradient-16" x1="25.9296" y1="113.5671" x2="73.1109" y2="113.5671" xlink:href="#linear-gradient"/><linearGradient id="linear-gradient-17" x1="46.8266" y1="83.4447" x2="65.6585" y2="83.4447" xlink:href="#linear-gradient"/><linearGradient id="linear-gradient-18" x1="69.4087" y1="102.9092" x2="78.6552" y2="102.9092" xlink:href="#linear-gradient"/><linearGradient id="linear-gradient-19" x1="46.5577" y1="106.2198" x2="58.2502" y2="106.2198" xlink:href="#linear-gradient"/><linearGradient id="linear-gradient-20" x1="148.7297" y1="65.9581" x2="167.8139" y2="65.9581" xlink:href="#linear-gradient"/><linearGradient id="linear-gradient-21" x1="148.6081" y1="54.8536" x2="153.9879" y2="54.8536" xlink:href="#linear-gradient"/><linearGradient id="linear-gradient-22" x1="161.1819" y1="105.1206" x2="184.1256" y2="105.1206" xlink:href="#linear-gradient"/></defs><g id="Layer_2" data-name="Layer 2"><g id="Logo"><path class="cls-1" d="M211.5562,236.5958c.0887-.3956,8.751-39.8372-2.1852-62.04l-2.9269-5.9423,6.4275.51a48.5694,48.5694,0,0,0,12.7206-.5507,7.1982,7.1982,0,0,0-.2211-8.3657,5.3483,5.3483,0,0,0-3.4808-2.2019,5.2317,5.2317,0,0,0-3.2023.7014l-3.7363,2.0329-1.3387-4.1324c-1.63-5.0324-5.21-8.8345-10.9434-11.6235-4.3393-2.111-9.8616-3.5865-16.8823-4.5112-.7869-.1037-1.62-.2042-2.4793-.2991a64.6065,64.6065,0,0,1-7.3543-.55q-.6717-.0885-1.3448-.1914l-.6617-.0461c-2.79-.1941-5.1808-.36-7.1269-.6166-.9-.1186-1.6611-.25-2.325-.4025a7.81,7.81,0,0,1-6.1608-6.7874c-1.0042-6.616,4.5275-16.4716,9.592-19.6a7.03,7.03,0,0,1,4.6465-1.1772,5.6506,5.6506,0,0,1,2.5965,1.0484,32.5922,32.5922,0,0,0,13.0573,5.1147,21.8042,21.8042,0,0,0,8.317-.4746c6.48-1.6667,12.4637-6.4025,17.7861-14.0756a45.0648,45.0648,0,0,0,7.0321-18.392c1.0173-6.4942.6592-12.8156-.9828-17.3434-.9318-2.57-2.74-5.7965-6.0642-6.5781l-.8484-.2-.6647-.58a26.4291,26.4291,0,0,1-8.1871-20.2293,87.8385,87.8385,0,0,0-16.4192-4.8359l-4.1448-.69,1.3137-4.1454A26.6713,26.6713,0,0,1,200.67,12.5611a31.4233,31.4233,0,0,1,10.6521-2.5379l.2679-.0061.2655.035a25.8646,25.8646,0,0,1,9.47,3.0289l12.6624.7938.7008,2.5162a82.63,82.63,0,0,0,10.22,21.33c5.77,8.4411,11.0988,19.9395,15.4089,33.2521a232.14,232.14,0,0,1,9.194,41.9512,204.5674,204.5674,0,0,1,1.066,43.0484c-1.3248,14.5885-4.4942,26.9016-9.4207,36.5973-6.0639,11.9335-39.8458,43.9947-43.6779,47.6112l-8.544,8.0635Z"/><path class="cls-2" d="M259.0953,111.9447c-6.2206-50.6962-24.7532-65.9525-25.0057-66.1582l0,.0024c.1355.5182,10.1138,38.9571-4.7751,64.39-9.8424,16.8141-26.1108,26.5442-45.757,26.2666,13.3442,1.4612,29.0222,5.2289,33.47,18.958,9.5748-5.21,17.8685,8.1418,10.7186,16.3233l.0408.1949C257.8081,165.0938,261.1481,128.669,259.0953,111.9447Z"/><path class="cls-3" d="M234.09,45.7865l0,.0024c.1355.5182,10.1138,38.9571-4.7751,64.39-9.8424,16.8141-26.1108,26.5443-45.757,26.2666-3.0255-.3305-5.9279-.5428-8.555-.7285a77.006,77.006,0,0,1-9.7129-.9951c-9.5272-2.18,3.0067-23.6412,7.8622-19.7663,17.31,11.0631,32.64,6.1476,44.0983-10.3712,11.46-16.5185,11.29-44.97-2.1222-48.1233a22.5939,22.5939,0,0,1-6.6433-19.7555c1.5482.697,3.1063,1.4633,4.6408,2.3043,13.5286,7.4122,15.2553-6.6063,13.5294-13.62a14.2443,14.2443,0,0,0-6.4043-8.6357l10.979.6883a85.1138,85.1138,0,0,0,10.7384,22.4469c22.92,33.527,35.6739,112.2446,16.0055,150.9541-5.9438,11.6973-42.9106,46.5835-42.9106,46.5835s9.2046-40.8528-2.4831-64.581a50.4178,50.4178,0,0,0,15.207-.924c30.0217-6.8281,33.3617-43.2529,31.3089-59.9772C252.8747,61.2485,234.3421,45.9922,234.09,45.7865Z"/><path class="cls-2" d="M226.6545,25.39c1.7259,7.014-.0008,21.0325-13.5294,13.62-1.5345-.841-3.0926-1.6073-4.6408-2.3043a89.493,89.493,0,0,0-19.7-6.1337c5.207-16.4167,22.6-16.8172,22.6-16.8172a21.7376,21.7376,0,0,1,8.8657,2.9992A14.2443,14.2443,0,0,1,226.6545,25.39Z"/><path class="cls-4" d="M234.09,45.7865c.1152.0938,4.0321,3.32,8.8488,11.6067-.8675-4.0793-1.8421-8.132-2.9744-12.1436a163.1308,163.1308,0,0,0-7.9726-22.0507l-1.1593-5.7814L220.25,16.7541a14.2443,14.2443,0,0,1,6.4043,8.6357c1.7259,7.014-.0008,21.0325-13.5294,13.62-1.5345-.841-3.0926-1.6073-4.6407-2.3043a22.5936,22.5936,0,0,0,6.6432,19.7555c3.4492.811,6.02,3.2979,7.7454,6.8219,5.6935,1.2612,10.5135,6.2149,12.3979,12.0412,2.2134,6.8436.9313,14.505-2.0123,21.0728-7.193,16.0489-24.7444,26.4369-41.69,24.6748l.0667-.18c-5.8188.1017-12.0129-1.8-18.4836-5.936-4.8555-3.875-17.3894,17.586-7.8622,19.7663a77.006,77.006,0,0,0,9.7129.9951c2.6272.1857,5.53.398,8.555.7285,19.6462.2776,35.9146-9.4525,45.757-26.2666,14.8889-25.4331,4.9106-63.872,4.7751-64.39Zm-14.9882,5.8466a10.89,10.89,0,0,1-4.191-6.4891c3.6915.1666,7.4931.3515,11.1846.5181A13.2423,13.2423,0,0,1,219.1014,51.6331Z"/><path class="cls-5" d="M223.0018,39.5243c-4.1867-4.9364-9.8322-6.83-15.8773-8.8345A17.1532,17.1532,0,0,1,222.653,17.8491C227.827,23.932,228.3524,33.554,223.0018,39.5243Z"/><path class="cls-6" d="M266.8545,155.5187a78.1687,78.1687,0,0,0-6.8846-49.1279,64.13,64.13,0,0,1-14.559,55.2141C251.799,165.3468,265.4474,163.007,266.8545,155.5187Z"/><path class="cls-5" d="M259.0953,111.9447c-4.0534-33.0343-13.3333-51.0174-19.378-59.5974a34.7446,34.7446,0,0,0-4.6923-2.35c2.134,10.7254,6.2926,39.6778-5.7108,60.1819-6.5774,11.2364-16.0252,19.3081-27.4325,23.3446a22.9482,22.9482,0,0,1,12.0479,7.2148c3.2945-4.9648,7.0038-9.7039,11.8246-13.0709,2.0052-1.4006,4.254-2.6774,6.6658-2.6284s4.9268,1.8966,4.9706,4.3969c-3.98,6.0538-6.4805,11.4665-10.4606,17.52,4.5975-1.9344,9.9788,1.2769,12.2435,5.8322a94.8852,94.8852,0,0,1,9.0162-23.4108c1.4065-2.6276,2.9581-5.4043,5.5415-6.7666a5.6409,5.6409,0,0,1,5.8122.3976A73.72,73.72,0,0,0,259.0953,111.9447Z"/><path class="cls-4" d="M254.3714,190.4743c-4.3471,2.42-9.4615,4.0461-14.1854,2.6292-4.9563-1.4866-8.5569-6.12-10.299-11.1529a26.1209,26.1209,0,0,1-1.1777-5.5222,50.5855,50.5855,0,0,1-13.802,2.1364c8.0052,24.0194.1552,58.8621.1552,58.8621s36.9668-34.8862,42.9106-46.5835q.9879-1.9442,1.8663-4.021A41.4675,41.4675,0,0,1,254.3714,190.4743Z"/><path class="cls-1" d="M268.7275,155.8017a202.5426,202.5426,0,0,0-1.0587-42.62,230.1345,230.1345,0,0,0-9.1131-41.5875c-4.2534-13.1373-9.4973-24.4635-15.1649-32.7541a84.0665,84.0665,0,0,1-10.4875-21.9066l-.3391-1.2175-11.7849-.7389a23.7914,23.7914,0,0,0-9.1669-3.0141l-.1285-.0169-.13.003a29.4174,29.4174,0,0,0-9.9787,2.3905A24.8093,24.8093,0,0,0,187.13,30.0154l-.6358,2.0061,2.0068.3339a88.9422,88.9422,0,0,1,18.0759,5.4773,24.3052,24.3052,0,0,0,7.4256,20.0132l.3217.28.41.0965c4.1261.97,6.2933,4.7615,7.3848,7.7713,1.7523,4.8323,2.1449,11.5129,1.0772,18.329a47.0738,47.0738,0,0,1-7.3595,19.2118c-5.5887,8.0571-11.9321,13.0451-18.8538,14.8256-7.1615,1.8422-14.8481.1928-22.8476-4.9023-.875-.661-2.6589-1.4343-5.2635.175-4.5425,2.8059-9.5781,11.8631-8.7016,17.6378a5.9306,5.9306,0,0,0,4.7349,5.2147,68.6326,68.6326,0,0,0,9.1756.9779l.7345.0512q.6916.1057,1.3813.1974a62.6253,62.6253,0,0,0,7.2327.5365c11.6834,1.2836,27.6668,4.529,31.9456,17.7375l.6478,2,1.8079-.9837a6.7,6.7,0,0,1,9.013,2.0231,9.1127,9.1127,0,0,1-.232,11.3073,49.73,49.73,0,0,1-13.891.7126l-3.11-.2469,1.4162,2.8752c11.26,22.86,2.4295,62.9488,2.339,63.3512l-1.2683,5.637,4.1342-3.9017c1.5188-1.4334,37.2639-35.2373,43.282-47.0808C264.3257,182.2086,267.4258,170.1378,268.7275,155.8017Zm-66.137-138.08a26.84,26.84,0,0,1,8.7086-2.1558,20.064,20.064,0,0,1,8.0392,2.7319,12.4788,12.4788,0,0,1,5.6278,7.5466c1.056,4.2912.5251,10.29-2.1739,12.4977-1.3082,1.07-3.9053,1.7776-8.8471-.93-1.497-.82-3.0984-1.6156-4.76-2.3635a92.0683,92.0683,0,0,0-18.0413-5.8572A20.961,20.961,0,0,1,202.5905,17.7216Zm-5.9774,119.2008a50.7486,50.7486,0,0,0,14.3444-5.6257,54.9515,54.9515,0,0,0,19.8449-20.1861c7.9328-13.5507,8.8777-30.6308,8.2734-42.573-.1218-2.406-.3083-4.7028-.5319-6.8523a105.01,105.01,0,0,1,3.0338,46.61c-3.2157,19.785-11.81,35.8048-23.7126,44.3751C213.9922,143.7362,205.4449,139.2847,196.6131,136.9224Zm32.9919,19.8854a10.5608,10.5608,0,0,0-6.0727-4.1375c10.7516-9.579,18.4462-25.1168,21.4814-43.7914a108.4942,108.4942,0,0,0-4.2246-51.6517c.6737,1.1129,1.3685,2.3265,2.0767,3.6537,8.8081,16.5068,12.7476,37.0083,14.5012,51.3a76.1846,76.1846,0,0,1-3.53,32.84,43.3213,43.3213,0,0,1-9.4288,15.7223,33.1529,33.1529,0,0,1-13,8.2678A13.0457,13.0457,0,0,0,229.605,156.8078Zm26.8275,33.2c-4.6019,9.0564-28.9878,33.0442-38.6223,42.3372a176.825,176.825,0,0,0,2.1321-18.2c1.0352-16.2382-.4961-29.448-4.5532-39.3331a50.3753,50.3753,0,0,0,12.7629-1.1258A37.0541,37.0541,0,0,0,246.8573,163.3a46.93,46.93,0,0,0,10.2438-17.0324c4.3774-12.1789,4.7931-25.8379,3.7226-34.5594-6.26-51.0154-27.5277-67.8771-27.5277-67.8771s1.6621,12.3063,2.3,24.913c1.0483,20.7157-3.6468,33.46-7.77,40.5034a51.4285,51.4285,0,0,1-18.5592,18.8993,49.0088,49.0088,0,0,1-25.6131,6.4927c-2.96-.3213-5.8336-.5342-8.5257-.7244l-.7972-.0555a68.8655,68.8655,0,0,1-8.6579-.9014,2.414,2.414,0,0,1-2.06-2.2655c-.2883-1.9.45-4.7872,1.9753-7.7236,1.4456-2.783,3.4306-5.23,5.0572-6.2353.3171-.1958,1.0921-.6221,1.4394-.345l.1475.1056c17.3786,11.107,33.8682,7.2505,46.4306-10.86a50.8351,50.8351,0,0,0,7.9732-20.7491c1.1795-7.5286.734-14.6941-1.2541-20.1766-1.9256-5.31-5.1705-8.7194-9.4027-9.8916a20.9767,20.9767,0,0,1-6.0241-15.4293c.8074.3983,1.5941.8055,2.35,1.22a18.34,18.34,0,0,0,6.2034,2.2064,8.1159,8.1159,0,0,0,6.4341-1.6407c1.9859-1.6247,3.2977-4.3269,3.7936-7.8142a23.04,23.04,0,0,0-.3935-8.4233,15.4771,15.4771,0,0,0-3.0284-6.0544l4.61.2889a87.5944,87.5944,0,0,0,10.62,21.7679c5.4746,8.0082,10.56,19.0114,14.7074,31.82a226.3716,226.3716,0,0,1,8.9615,40.9054C268.11,144.7811,265.2738,172.6073,256.4325,190.008Z"/><path class="cls-1" d="M224.1512,205.3181a65.9589,65.9589,0,0,1-.8843,16.5466c6.1178-5.964,12.8726-13.2177,18.99-19.1817C242.2572,202.683,231.4149,210.4577,224.1512,205.3181Z"/><path class="cls-5" d="M202.9,28.2736a15.5673,15.5673,0,0,1,5.2918-6.7131c-3.8628-.9069-8.2034,1.21-10.3563,4.6726C199.55,26.7671,201.1857,27.74,202.9,28.2736Z"/><path class="cls-6" d="M255.0462,167.9617a20.9467,20.9467,0,0,1-11.5332-1.9056s-3.16,3.5413-10.5826,6.7325C239.8753,176.4008,250.1117,174.229,255.0462,167.9617Z"/><path class="cls-1" d="M178.4591,117.955s7.8954,11.4014,27.269,7.2166c0,0-13.0176,10.6292-30.7259,10.5456,0,0-12.7764,1.0795-13.8041-1.6833s2.41-20.2257,7.6739-20.4006S178.4591,117.955,178.4591,117.955Z"/><path class="cls-1" d="M48.5877,215.026c-.0059-.3914-.4109-39.3737,14.8319-58.0388l4.08-4.9956-6.393-.8517a50.2993,50.2993,0,0,1-12.3331-3.1568,6.75,6.75,0,0,1,1.9281-7.8415,4.9947,4.9947,0,0,1,6.8457-.029l3.24,2.6914,2.1553-3.6186c2.6247-4.4065,6.9049-7.249,13.0853-8.69,4.6774-1.09,10.3823-1.3366,17.4405-.7527.7911.0654,1.6273.1435,2.4869.2321a66.993,66.993,0,0,0,7.3081,1.006q.6751.0558,1.3548.0984l.6569.0937c2.77.3956,5.1425.7346,7.0991.8965.9052.0749,1.6763.1084,2.3571.1026a7.6923,7.6923,0,0,0,7.4164-5.1218c2.3362-6.0295-1.0593-16.4685-5.3743-20.4681a7.2092,7.2092,0,0,0-4.3053-2.0732,5.7965,5.7965,0,0,0-2.7549.45,33.4728,33.4728,0,0,1-13.8217,2.1148,22.5671,22.5671,0,0,1-8.04-2.172c-5.9985-2.915-10.8843-8.6207-14.5217-16.9587a42.3652,42.3652,0,0,1-3.1169-18.7983c.3334-6.3339,1.9773-12.2195,4.51-16.148,1.4374-2.2293,3.8671-4.8968,7.2791-4.9444l.8709-.0122.7689-.4088c.4318-.2293,10.2279-5.5633,12.1495-17.3748a90.7168,90.7168,0,0,1,17.0539-1.1549l4.1964.2091-.4372-4.1808A25.915,25.915,0,0,0,105.0788,6.06a32.3215,32.3215,0,0,0-9.9026-4.6015l-.2609-.0613-.2669-.0221a26.6469,26.6469,0,0,0-9.8854.892L72.2117.39l-1.2,2.227A78.8423,78.8423,0,0,1,56.6477,20.6084C49.2748,27.37,41.7088,37.1063,34.768,48.764A217.8748,217.8748,0,0,0,17.1889,86.41a190.5056,190.5056,0,0,0-9.8512,40.3656c-1.6888,14.029-1.1073,26.2952,1.7289,36.4579,3.4911,12.5085,29.9829,49.741,32.9923,53.9453l6.7095,9.374Z"/><path class="cls-2" d="M27.5808,87.6457C44.04,41.1384,65.2939,30.5973,65.583,30.4557l0,.0023c-.2386.4605-17.8664,34.6323-8.5031,61.6982,6.1894,17.8935,20.1154,30.4405,39.3938,34.2523-13.3548-1.3892-29.465-1.0878-36.6256,10.934C51.546,130.4453,40.7,141.3136,46.0209,150.51l-.08.1753C17.9652,138.0225,22.15,102.988,27.5808,87.6457Z"/><path class="cls-7" d="M65.583,30.4557l0,.0023c-.2386.4605-17.8664,34.6323-8.5031,61.6982,6.1894,17.8935,20.1154,30.4405,39.3938,34.2523,3.0278.3158,5.9109.7175,8.5192,1.0871a79.8549,79.8549,0,0,0,9.7067,1.0758c9.7674-.08,1.8955-22.9128-3.6479-20.2662-19.1992,6.8413-33.1928-.972-41.0233-18.922-7.8329-17.95-1.8448-44.7392,11.9229-44.9313,0,0,9.9975-5.3133,10.5419-17.2483-1.6573.3361-3.3385.7355-5.012,1.21-14.7529,4.1832-13.5739-9.3917-10.45-15.6467a13.8725,13.8725,0,0,1,8.0328-6.814L74.1811,4.3255A81.2087,81.2087,0,0,1,59.0819,23.2623C29.7971,50.12,1.2122,121.6912,12.5351,162.2653c3.422,12.2609,32.4519,52.8172,32.4519,52.8172s-.6467-40.4252,15.6435-60.3731a52.1819,52.1819,0,0,1-14.6893-4.0243c-27.976-12.6626-23.7908-47.6971-18.36-63.0394C44.04,41.1384,65.2938,30.5973,65.583,30.4557Z"/><path class="cls-2" d="M77.0309,12.7671c-3.1238,6.255-4.3028,19.83,10.45,15.6467,1.6735-.4747,3.3547-.8741,5.012-1.21a92.3474,92.3474,0,0,1,20.5292-1.6983C111.2868,8.9478,94.3515,4.9638,94.3515,4.9638a22.37,22.37,0,0,0-9.2878.9893A13.8725,13.8725,0,0,0,77.0309,12.7671Z"/><path class="cls-4" d="M65.5828,30.458c-.2386.4605-17.8664,34.6323-8.5031,61.6982,6.1894,17.8935,20.1154,30.4405,39.3938,34.2523,3.0278.3158,5.9109.7175,8.5192,1.0871a79.8549,79.8549,0,0,0,9.7067,1.0758c9.7674-.08,1.8955-22.9128-3.6479-20.2662-7.1771,2.5574-13.6266,3.0663-19.2988,1.764l.0284.1837c-16.94-1.8524-31.9869-15.2857-35.7406-31.9083-1.5362-6.8027-1.2229-14.2917,2.343-20.2851,3.0357-5.1023,8.7652-8.7733,14.5937-8.7819,2.4089-2.9647,5.4333-4.7763,8.9739-4.8257,0,0,9.9975-5.3133,10.5419-17.2483-1.6573.3361-3.3385.7355-5.012,1.21-14.7529,4.1832-13.5739-9.3917-10.45-15.6467a13.872,13.872,0,0,1,8.0328-6.8139L74.5748,4.3844l-2.3173,5.21A154.5458,154.5458,0,0,0,59.9454,28.7315c-1.9287,3.5474-3.7114,7.1662-5.3949,10.8323C60.9588,32.75,65.4511,30.52,65.583,30.4557ZM73.43,31.9961c3.6458.6084,7.4031,1.2223,11.0489,1.8307a10.5486,10.5486,0,0,1-5.4281,5.249A13.0363,13.0363,0,0,1,73.43,31.9961Z"/><path class="cls-5" d="M77.7126,26.8506c5.1062-3.786,11.0171-4.4,17.3418-5.0371A16.9085,16.9085,0,0,0,82.4888,6.4873C76.1819,11.15,73.6992,20.1123,77.7126,26.8506Z"/><path class="cls-6" d="M11.0736,127.1191a73.1863,73.1863,0,0,1,16.788-44.891,60.1138,60.1138,0,0,0,2.9469,55.0755C23.7928,139.507,10.918,134.471,11.0736,127.1191Z"/><path class="cls-5" d="M27.5808,87.6457C38.3059,57.341,51.0649,42.31,58.7345,35.4744a35.4882,35.4882,0,0,1,5.0717-1.2428c-4.2824,9.67-14.2752,36.1041-6.7265,57.9246a51.0188,51.0188,0,0,0,22.0632,27.6979,23.2644,23.2644,0,0,0-13.2639,4.304c-2.2074-5.364-4.8669-10.6012-8.8945-14.7753-1.6754-1.7363-3.6143-3.4064-5.984-3.86s-5.2085.7666-5.7628,3.1149c2.6554,6.5329,3.9942,12.1545,6.65,18.6874-4.1024-2.777-10.0244-.8653-13.1722,2.96a89.1586,89.1586,0,0,0-4.0313-23.9416c-.8385-2.7689-1.7884-5.7086-4.0373-7.5287a5.8215,5.8215,0,0,0-5.7679-.83A68.6915,68.6915,0,0,1,27.5808,87.6457Z"/><path class="cls-4" d="M16.1346,162.6641c3.758,3.1828,8.4291,5.7766,13.3409,5.42,5.1533-.3739,9.6241-3.9954,12.3584-8.38a24.5018,24.5018,0,0,0,2.2822-4.9623,52.1888,52.1888,0,0,0,13.0667,4.8761c-12.7469,20.986-12.1958,55.4639-12.1958,55.4639s-29.03-40.5564-32.4519-52.8172q-.5686-2.0377-1.0031-4.178A41.337,41.337,0,0,0,16.1346,162.6641Z"/><path class="cls-1" d="M10.8568,162.7337c3.4647,12.4142,31.5207,51.6968,32.7134,53.3631l3.2465,4.5358-.0874-5.5775c-.0062-.3983-.4432-40.0259,15.2508-59.2436l1.974-2.4171-3.0934-.4121a51.4942,51.4942,0,0,1-13.445-3.5521,8.5485,8.5485,0,0,1,2.0866-10.7089,6.8652,6.8652,0,0,1,9.2322-.0385l1.5676,1.3023,1.0429-1.7509c6.889-11.5659,23.1911-11.3115,34.8846-10.0992a64.9439,64.9439,0,0,0,7.1862.9939q.6936.0575,1.3918.1l.7292.1041a71.1689,71.1689,0,0,0,9.1775.98,5.8413,5.8413,0,0,0,5.7-3.9347c2.0391-5.2627-1.0345-14.8461-4.9047-18.4335-2.2191-2.0573-4.1226-1.6981-5.114-1.2563-8.8691,3.145-16.7271,3.1063-23.357-.1156C80.63,103.46,75.4446,97.4417,71.6252,88.6865a44.2562,44.2562,0,0,1-3.2694-19.6391c.35-6.6477,2.101-12.8649,4.8042-17.0574,1.6838-2.6114,4.58-5.7367,8.8154-5.7957l.4213-.0059.372-.1978c.4278-.2274,10.1271-5.5172,11.36-17.329a91.8075,91.8075,0,0,1,18.806-1.416l2.0318.1012-.2116-2.0231A24.1079,24.1079,0,0,0,104.0245,7.5905a30.2538,30.2538,0,0,0-9.2739-4.3228l-.1262-.03-.1292-.0107a24.4986,24.4986,0,0,0-9.5856.941L73.2282,2.4212l-.5809,1.0776A80.2153,80.2153,0,0,1,57.9041,21.9781C50.6626,28.62,43.2145,38.2106,36.365,49.7148a215.9872,215.9872,0,0,0-17.4256,37.32,188.6151,188.6151,0,0,0-9.7563,39.9631C7.5234,140.7837,8.0866,152.8071,10.8568,162.7337ZM110.996,23.7146a94.9263,94.9263,0,0,0-18.85,1.7814c-1.7783.3607-3.5078.7784-5.14,1.2415-5.3889,1.5277-7.7852.3222-8.8461-.958-2.1888-2.6415-1.4809-8.407.43-12.2339a12.1391,12.1391,0,0,1,7.05-5.9481,20.65,20.65,0,0,1,8.4245-.9087,27.5865,27.5865,0,0,1,8.0793,3.8383A20.46,20.46,0,0,1,110.996,23.7146ZM59.5871,134.5921c-9.8919-10.5483-15.0226-27.434-14.12-46.7544a97.962,97.962,0,0,1,12.5053-43.316c-.6586,1.98-1.3111,4.107-1.9225,6.35-3.0347,11.134-5.6051,27.4333-.6163,41.8539a53.6045,53.6045,0,0,0,15.2857,23.1467,51.6184,51.6184,0,0,0,12.8834,8.2783C74.4779,124.5468,65.2044,126.9714,59.5871,134.5921ZM42.9934,147.19a33.1208,33.1208,0,0,1-11.0273-10.49,41.2766,41.2766,0,0,1-6.008-16.7784,70.938,70.938,0,0,1,3.2653-31.6938c4.64-13.1112,12.6893-31.6235,24.6845-45.36.9645-1.1045,1.8927-2.1046,2.7794-3.0141a101.2786,101.2786,0,0,0-14.7018,47.822c-.8515,18.236,3.4977,34.4808,12.057,45.7414a10.6528,10.6528,0,0,0-6.7881,2.6417A12.25,12.25,0,0,0,42.9934,147.19ZM22.2217,88.2056a212.4426,212.4426,0,0,1,17.1376-36.708c6.6782-11.2166,13.9055-20.5361,20.9-26.9511A83.7056,83.7056,0,0,0,75.1041,6.2254l4.5695.6835a14.8222,14.8222,0,0,0-4.2017,5.08,21.4767,21.4767,0,0,0-2.1085,7.86c-.2284,3.3907.5022,6.21,2.1127,8.1539a8.3124,8.3124,0,0,0,5.9594,2.881,18.8654,18.8654,0,0,0,6.5209-.7939c.8246-.234,1.6777-.4548,2.5492-.6629a20.0108,20.0108,0,0,1-9.051,13.2979c-4.3806.2275-8.2529,2.7692-11.2234,7.3763-3.067,4.7567-4.969,11.42-5.3555,18.7627A47.797,47.797,0,0,0,68.4311,90.08c8.5853,19.68,23.93,26.7348,43.2053,19.8664l.1659-.0689c.3965-.1893,1.0675.3733,1.3378.6237a16.4782,16.4782,0,0,1,3.672,6.9273c.8914,3.0848,1.0231,5.96.3523,7.6915a2.3778,2.3778,0,0,1-2.4793,1.7088,71.4113,71.4113,0,0,1-8.6553-.9454l-.7913-.1129c-2.6729-.3789-5.5278-.774-8.49-1.0849A49.1249,49.1249,0,0,1,58.7265,91.5866c-2.5931-7.4955-4.5791-20.4846.6852-39.7983C62.6153,40.0347,66.76,28.7768,66.76,28.7768S42.5011,40.2644,25.9382,87.0644c-2.8319,8.0009-5.22,20.965-3.4292,33.3551a44.7207,44.7207,0,0,0,6.5375,18.1824,37.2213,37.2213,0,0,0,16.176,13.6706A52.1085,52.1085,0,0,0,57.4793,155.98c-5.9921,8.4786-10.1931,20.6155-12.5029,36.14a164.52,164.52,0,0,0-1.6379,17.6017c-7.5249-10.7594-26.4756-38.4318-29.1251-47.9246C9.1235,143.5583,12.0425,116.7353,22.2217,88.2056Z"/><path class="cls-1" d="M42.6646,182.9253a61.3727,61.3727,0,0,0-2.52,15.7838c-4.7653-6.8915-9.89-15.1311-14.6552-22.0225C25.4889,176.6866,34.5062,186.2649,42.6646,182.9253Z"/><path class="cls-5" d="M99.6818,20.4115a15.0152,15.0152,0,0,0-3.8039-7.4266,10.1572,10.1572,0,0,1,9.1764,6.5528C103.2675,19.6856,101.4686,20.2635,99.6818,20.4115Z"/><path class="cls-6" d="M20.0807,141.299a21.6772,21.6772,0,0,0,11.6739.5948s2.3666,3.9939,8.9764,8.5418C33.197,152.4012,23.6262,148.2311,20.0807,141.299Z"/><path class="cls-1" d="M105.2449,110.0323s-10.0576,9.1123-28.1564,1.15c0,0,10.5615,12.7206,27.9042,16.3136,0,0,12.2795,3.6669,13.85,1.2752s1.78-19.5689-3.3339-20.8252S105.2449,110.0323,105.2449,110.0323Z"/><path class="cls-1" d="M142.8053,275.156A145.7712,145.7712,0,0,1,115.39,275c-41.4374-4.0172-60.2766-28.6614-74.0325-46.6559-5.6985-7.4545-10.62-13.8922-15.7085-16.9071a12.827,12.827,0,0,0-7.8827-1.73,18.7873,18.7873,0,0,0-4.9125,1.1909,25.9959,25.9959,0,0,0-6.568,3.7066l-4.5809,3.8273-1.209-5.85a37.4411,37.4411,0,0,1,.46-14.5617c1.6771-7.34,6.4167-17.4042,19.4727-23.6644l3.5969-1.7246,2.373,6.76a29.0369,29.0369,0,0,1,7.8442-1.8127c6.7548-.6258,13.9136.8513,21.2776,4.39l2.2415,1.0774-.5916,6.3456a43.6149,43.6149,0,0,1,7.6647,2.52A62.5447,62.5447,0,0,1,63.78,161.6509a88.0266,88.0266,0,0,1,2.2567-8.8416,18.08,18.08,0,0,1-8.1286-2.5251c-3.59-2.0921-6.74-7.675-9.9148-17.57-1.3295-4.1441-2.3344-8.05-2.9311-10.5382a15.2676,15.2676,0,0,1-9.57-6.1957c-4.5947-6.4737-8.9925-7.9206-9.2993-8.0149l-1.8985-.4417-.3269-.9786c-3.5527-10.6379-.4015-20.1466,8.873-26.7741l2.2307-1.5941.3444,1.4429a25.66,25.66,0,0,1,12.9524-5.7277L50.98,73.628l-.6312,2.5245A20.0233,20.0233,0,0,1,55.33,75.0314a16.4765,16.4765,0,0,1,5.0476.264,21.1086,21.1086,0,0,1,7.405,3.2471l5.3394,3.9465-6.2341,2.2841a7.1221,7.1221,0,0,0-5.0553,6.6187,5.0947,5.0947,0,0,0,3.2474,5.06,2.3186,2.3186,0,0,0,1.0426.1359c2.4153-.2241,5.08-3.7429,5.8227-4.9579l2.9255-4.8549,3.12,4.74c3.6052,5.4877,4.9222,10.6562,3.9153,15.3636a13.7732,13.7732,0,0,1-5.5819,8.4746l-1.3966.8914-1.583-.49a7.01,7.01,0,0,0-2.6124-.39,1.9646,1.9646,0,0,0-.9477.3021,2.4,2.4,0,0,0-.78,1.1436,28.0259,28.0259,0,0,0,6.1112,5.8794,65.4578,65.4578,0,0,1,8.3465-6.2613c5.46-3.4223,10.6429-5.3814,15.4041-5.8225a19.986,19.986,0,0,1,6.8938.5114c2.3579-1.1415,4.97-2.3519,8.1535-3.7788a17.1783,17.1783,0,0,0,8.8964-8.1418,16.9168,16.9168,0,0,0,1.5649-7.972,22.2249,22.2249,0,0,0-4.2695,2.7039l-1.12,1.024-1.533-.1012a15.69,15.69,0,0,0-2.5162.0632c-1.3513.1252-2.7114.3576-3.6911.5484-.4946.918-.79,1.5412-.7933,1.5489L109.2856,99.49l-2.6979-.4827c-9.31-1.6692-17.819-7.6717-21.6771-15.2923a18.1273,18.1273,0,0,1-.4181-16.4941c3.4406-7.0106,9.907-9.9946,15.6123-12.6274,1.08-.4984,2.1181-.9775,3.1118-1.47a27.6574,27.6574,0,0,1,.2081-8.2938c.7259-4.2328,2.0482-7.0315,3.93-8.3186,2.2523-1.5383,9.4792-7.16,13.0348-12.6345a80.3292,80.3292,0,0,0,8.5815-18.9595l1.13-4.0043L133.89,2.6346A28.9312,28.9312,0,0,1,146.96,14.49c5.9435-6.3325,11.231-11.8813,11.2859-11.9388L160.6768,0l2.5854,2.3961c7.8463,7.2717,8.0026,21.5618,7.7278,27.1719,6.5014,4.6034,15.4881,7.315,15.5818,7.343l2.9906.8864-.4745,3.0838c-1.301,8.458-7.01,15.8108-10.3622,19.4994l8.6467,10.0654-5.1731,1.6258c-.9714.3052-1.968.6106-2.9807.9134a107.6107,107.6107,0,0,0,7.7156,11.551l1.788,2.2713L181.38,95.646l3.0766,9.72L183.38,106.83a181.1226,181.1226,0,0,0-16.5025,28.936l.0937-.0193a11.8322,11.8322,0,0,1,1.2742-.1859,13.7435,13.7435,0,0,1,8.1141,1.7828l.8676-4.0256,2.918.0318c3.3943.0365,9.9956,1.76,13.2666,7.7052l3.9045-5.1065,2.8743,2.5212a21.9683,21.9683,0,0,1,6.3757,17.4183l-.1358,2.1729-1.9934.8761c-3.3668,1.4837-7.58,4.3193-8.24,6.015l-.4391,1.1285-1.0346.6289c-.0955.0582-1.5268.9279-3.5568,2.0645a38.58,38.58,0,0,1,14.4208,7.3995,38.0241,38.0241,0,0,1,12.8965,22.3479,50.4923,50.4923,0,0,1-2.0215,25.9945,69.2807,69.2807,0,0,1-15.1181,24.97,76.2485,76.2485,0,0,1-23.4361,16.61,106.3467,106.3467,0,0,1-35.1024,9.06Z"/><path class="cls-8" d="M137.03,52.5111c3.5474-2.0054,2.5087-12.0414-3.3226-13.0388l0-.0023a14.1136,14.1136,0,0,0-6.9018,5.9707c.1246,6.7185,5.6984,8.6616,9.7733,7.2743l.0157-.0061A2.3831,2.3831,0,0,0,137.03,52.5111Zm-31.7441,20.7c6.1042-.8805,7.3659-6.2847,4.07-4.6593A8.8747,8.8747,0,0,0,105.2856,73.2108Zm2.255-18.3542c-2.05-2.8045-.655-13.6936,1.8321-15.3946,2.4874-1.6988,10.1576-7.6991,14.0146-13.6378a82.9857,82.9857,0,0,0,9.0239-19.9355A25.3347,25.3347,0,0,1,145.9134,20.84c7.24-7.7646,14.9192-15.8222,14.9192-15.8222,8.3579,7.7459,6.4576,26.2294,6.4576,26.2294l-.0021.0025c7.1725,5.7992,18.2671,9.0881,18.2671,9.0881-1.6506,10.73-11.6754,19.8871-11.6754,19.8871l7.2477,8.437c-2.5182.7915-4.9486,1.5053-7.2424,2.144-10.9772,3.0528-18.8918,4.39-18.8918,4.39-.0412,5.8794-2.2367,7.5534-2.2367,7.5534-2.2757-.1157-4.4293-.1385-6.4667-.0817a59.6985,59.6985,0,0,0-18.9888,3.3944c-6.5759,2.4134-9.6019,5.2228-9.6019,5.2228a35.8084,35.8084,0,0,0-8.78,1.02c-1.0474,1.7923-1.7012,3.1845-1.7012,3.1845C93.1746,92.9715,82.2647,79.8784,87.7016,68.7955,91.668,60.7136,100.7455,58.879,107.5406,54.8566Z"/><path class="cls-9" d="M90.5875,220.9206a53.54,53.54,0,0,0,17.4113,5.1007,72.2958,72.2958,0,0,0,22.4112-1.2242c16.1951-3.4761,28.8294-12.2151,31.1712-22.0339-15.8073-6.6852-10.535-26.3935-10.535-26.3935,5.0424,7.43,8.6757,13.2747,8.6757,13.2747,7.2349,1.9744,14.1945-2.1976,16.4636-6.2268,2.2712-4.0317.616-12.3986.616-12.3986a8.5083,8.5083,0,0,0,2.2233-.4492l.0046,0c10.3927.3618,18.4169,3.5067,24.2787,8.3574,12.6359,10.4505,15.22,28.8381,9.78,44.41C200.2,260.2305,160.596,275.79,115.7344,271.4424,58.363,265.88,46.1258,219.4148,27.4705,208.3617c-11.326-6.7113-23.4744,3.4974-23.4744,3.4974s-4.8087-23.3552,17.9774-34.2809l2.3976,6.83s11.15-8.0851,29.6005.7822l-.6633,7.1135s13.8321,1.69,19.9153,10.3805l-2.2067,4.7275A76.814,76.814,0,0,0,90.5875,220.9206Z"/><path class="cls-4" d="M112.7245,145.2741c5.3347-8.7112,12.8414-15.6759,20.1685-21.605,8.0164-6.4886,12.7564-13.6694,14.7914-20.7757A29.2748,29.2748,0,0,0,146.29,82.668c2.0374-.0568,4.191-.034,6.4667.0817,0,0,2.1955-1.674,2.2367-7.5534,0,0,7.9146-1.3377,18.8918-4.39a123.6512,123.6512,0,0,0,10.24,15.9412l-6.7423,8.1167,3.1172,9.848a182.3331,182.3331,0,0,0-19.5725,35.8622,43.3934,43.3934,0,0,1,2.65,14.104,9.2067,9.2067,0,0,1,4.4768-1.948l-.3691-13.4815s7.8917-1.6113,10.3407,5.8c0,0-.1774,1.2092-.3029,2.93l2.3825-11.0547s8.5288.0922,11.0049,7.7948a18.8359,18.8359,0,0,0-2.9079,9.0329l9.63-12.5946s5.7575,5.05,5.1655,14.5077c0,0-8.4717,3.7239-10.1329,7.9909,0,0-8.7343,5.3137-13.8362,6.9143l-.0046,0a8.5083,8.5083,0,0,1-2.2233.4492s1.6552,8.3669-.616,12.3986c-2.2691,4.0292-9.2287,8.2012-16.4636,6.2268,0,0-3.6333-5.8446-8.6757-13.2747,0,0-5.2723,19.7083,10.535,26.3935-2.3418,9.8188-14.9761,18.5578-31.1712,22.0339,0,0-11.5715-6.7858-19.3813-26.3381a89.7722,89.7722,0,0,1-4.2134-13.7553,61.2675,61.2675,0,0,1-1.5253-12.1632A49.1382,49.1382,0,0,1,112.7245,145.2741Z"/><path class="cls-10" d="M133.7071,39.4723c5.8313.9974,6.87,11.0334,3.3226,13.0388-.1492.0648-.2936.1314-.4356.1978l-.0157.0061c-4.0749,1.3873-9.6487-.5558-9.7733-7.2743a14.1136,14.1136,0,0,1,6.9018-5.9707Zm1.0445,10.223c1.2657-.687,1.5391-2.6346.609-4.35s-2.7119-2.5487-3.9776-1.8617c-1.268.6872-1.5391,2.6345-.609,4.35S133.4836,50.3825,134.7516,49.6953Z"/><path class="cls-2" d="M147.4654,85.7319a29.24,29.24,0,0,1,.219,17.1615c-7.3332,6.8375-19.9373,8.0285-19.9373,8.0285l-1.7144-10.1794a21.4521,21.4521,0,0,0,1.6914-12.29l5.9937,6.05A63.53,63.53,0,0,0,147.4654,85.7319Zm-20.1643.3305q.2649,1.2087.423,2.39l5.9937,6.05a63.53,63.53,0,0,0,13.7476-8.77A29.0785,29.0785,0,0,0,146.29,82.668,59.6985,59.6985,0,0,0,127.3011,86.0624Zm-1.2684,14.68a20.7453,20.7453,0,0,1-10.657,9.8574l-5.051,12.0731s8.8271,4.9117,22.5683.9961c8.0164-6.4886,12.7564-13.6694,14.7914-20.7757-7.3332,6.8375-19.9373,8.0285-19.9373,8.0285ZM115.3757,110.6c-3.2175,1.4422-6.3248,2.8741-9.31,4.3458-7.5188,3.71-14.2539,7.68-19.9922,12.7349,0,0-.7541,10.5332.6876,16.5692a44.4994,44.4994,0,0,0,25.9638,1.0243c5.3347-8.7112,12.8414-15.6759,20.1685-21.605-13.7412,3.9156-22.5683-.9961-22.5683-.9961Zm-4.347,87.8591c-10.4994,7.1841-23.1245,10.4729-23.1245,10.4729-10.0977-4.3517-19.3948-17.21-19.3948-17.21a55.6631,55.6631,0,0,0,4.7142,10.9622c4.8664,8.63,11.4528,14.9025,17.3639,18.2363a53.54,53.54,0,0,0,17.4113,5.1007,72.2958,72.2958,0,0,0,22.4112-1.2242S118.8385,218.0113,111.0287,198.459ZM86.0731,127.6806a54.1567,54.1567,0,0,0-14.65,20.7046q-1.0084,2.4626-1.8722,5.1643s1.3166,14.2089,8.7226,22.78c0,0,15.4677-.479,27.0163-3.7885a49.1382,49.1382,0,0,1,7.4345-27.2664A44.4994,44.4994,0,0,1,86.7607,144.25C85.319,138.2138,86.0731,127.6806,86.0731,127.6806Zm19.2169,44.86c-11.5486,3.3095-27.0163,3.7885-27.0163,3.7885-7.406-8.5706-8.7226-22.78-8.7226-22.78a83.4242,83.4242,0,0,0-2.2683,8.8115,58.9587,58.9587,0,0,0,1.2266,29.3611s9.2971,12.8581,19.3948,17.21c0,0,12.6251-3.2888,23.1245-10.4729a89.7722,89.7722,0,0,1-4.2134-13.7553A61.2675,61.2675,0,0,1,105.29,172.5405Z"/><path class="cls-4" d="M75.5055,127.2053c.6419-.6454,17.1721-17.0267,30.56-12.26-7.5188,3.71-14.2539,7.68-19.9922,12.7349a54.1567,54.1567,0,0,0-14.65,20.7046s-5.1932,2.6141-11.7152-1.1888c-6.5243-3.8027-11.73-28.2953-11.73-28.2953a11.9183,11.9183,0,0,1-9.5708-4.9887C32.6483,105.7983,27.06,104.498,27.06,104.498,22.4743,91,33.3232,84.413,33.3232,84.413a22.2087,22.2087,0,0,0,.547,4.7039C35.7179,79.3138,46.8189,77.873,46.8189,77.873c-2.7383,5.5641-1.3986,10.95.1946,14.4727,1.8569-2.43-.187-10.0662-.187-10.0662,8.9394-8.1744,18.832-.8625,18.832-.8625-9.6606,3.54-9.4289,15.5636-1.8213,18.3858,6.0413,2.24,11.1673-6.3242,11.1673-6.3242,8.5523,13.0174-.6031,18.8612-.6031,18.8612-8.7718-2.7145-9.2094,5.26-9.2094,5.26A31.7893,31.7893,0,0,0,75.5055,127.2053Z"/><path class="cls-11" d="M130.1789,61.708a11.4923,11.4923,0,0,1,11.7549-10.5213,7.2019,7.2019,0,0,1,1.8986,6.78,5.4106,5.4106,0,0,0-6.2132,3.5272C135.13,61.58,132.6686,61.6223,130.1789,61.708Z"/><path class="cls-4" d="M185.5552,40.3377s-11.0946-3.2889-18.2671-9.0881l.0021-.0025s1.4242-13.8666-3.626-22.6119l-.1544-.0269c-6.1861,15.6138-22.4016,26.6928-39.196,26.78-1.6957,2.7731-2.8875,6.6712-3.8992,9.76a11.8874,11.8874,0,0,1,8.0542-2.4861,13.0275,13.0275,0,0,0-1.2384,2.0734,14.4554,14.4554,0,0,1,6.4765-5.2658l0,.0023c5.64.9647,6.7961,10.3839,3.6561,12.8152a23.16,23.16,0,0,1,9.5913-.2163c-.956,3.1715-4.4566,6.197-7.499,7.507-1.33,7.2979-6.4686,14.4495-12.4977,18.7714-3.6918,2.6465-7.9808,4.4075-11.5257,7.2478a15.9587,15.9587,0,0,0-4.8878,6.3591,30.4206,30.4206,0,0,1,7.1549-.6714s3.026-2.8093,9.6019-5.2227A59.6991,59.6991,0,0,1,146.29,82.668c2.0374-.0568,4.191-.034,6.4667.0817,0,0,2.1955-1.674,2.2367-7.5534,0,0,7.9146-1.3377,18.8918-4.39,2.2938-.6387,4.7242-1.3525,7.2424-2.144l-7.2477-8.437S183.9046,51.0675,185.5552,40.3377Z"/><path class="cls-4" d="M126.8164,45.6924c-1.4726,3.7815-1.5759,10.5883.3117,14.1619,0,0,2.4194-2.4279,7.3548-6.7338C130.8775,53.3313,127.0326,51.123,126.8164,45.6924Z"/><path class="cls-12" d="M130.7213,81.1939a38.4161,38.4161,0,0,0,11.19-16.46c4.5819,2.4292,8.0079,7.6546,7.62,12.826A115.7684,115.7684,0,0,0,130.7213,81.1939Z"/><path class="cls-4" d="M115.1134,66.3851c-1.1174-1.9227-4.0531-2.0128-5.8949-.7668s-2.8519,3.3695-3.7781,5.3912l2.1483,2.2272c2.0259-.1967,4.1474-.4266,5.8308-1.5707S116.1362,68.1449,115.1134,66.3851Z"/><path class="cls-4" d="M137.257,14.429a26.48,26.48,0,0,1-4.6871,13.93c3.1524-.3916,10.3165-3.8109,13.0228-5.4744C141.1071,23.4775,141.7031,19.08,137.257,14.429Z"/><path class="cls-13" d="M147.0994,116.053a46.5581,46.5581,0,0,0,5.81-9.9859c3.0666-7.4988,3.4448-16.5557-.9537-23.35q-2.2068-.0921-4.2629-.0735a7.9062,7.9062,0,0,0-1.212.4665c.37.8594.7,1.7332.9844,2.6223a29.24,29.24,0,0,1,.219,17.1615c-1.9929,6.9594-6.5823,13.99-14.3006,20.372-.1629.1347-.3251.2695-.4908.4037q-.6465.523-1.2942,1.0577c-.19.157-.3807.317-.5711.4755-.2361.1966-.4722.3926-.7082.5915-.2471.2081-.4936.4193-.74.63-.1749.15-.35.2982-.5246.449q-.4191.3615-.8365.7292c-.1383.1215-.2767.2426-.4147.3649q-.4536.4014-.9046.81-.1644.1485-.3282.2977-.481.4377-.9586.8827-.1267.1182-.253.2372-.5065.4751-1.0087.9579c-.0548.0529-.1092.1064-.164.1594q-.54.5229-1.0746,1.0549l0,0a70.2054,70.2054,0,0,0-10.387,12.9076,49.1249,49.1249,0,0,0-7.3065,22.4738l-.007-.0017c-.0114.1594-.0189.3211-.0289.4814-.0039.0627-.01.1239-.0139.1867l.0023.0076c-.0784,1.3433-.1088,2.7144-.0805,4.1186a61.2675,61.2675,0,0,0,1.5253,12.1632,89.7722,89.7722,0,0,0,4.2134,13.7553c7.81,19.5523,19.3813,26.3381,19.3813,26.3381,2.0336-.4365,4.0108-.9561,5.9188-1.55-15.1513-11.2183-21.0369-28.4195-23.3228-40.3763a38.7932,38.7932,0,0,0,16.0557,11.8467c-10.8377-35.157-2.543-53.2344,9.6128-64.9392,6.1171-5.89,14.2439-6.4229,18.4741-4.0512a92.4272,92.4272,0,0,0,6.1732-20.76A46.4556,46.4556,0,0,1,147.0994,116.053Z"/><path class="cls-6" d="M135.9156,7.828a25.31,25.31,0,0,0-3.5044-1.9393,82.9857,82.9857,0,0,1-9.0239,19.9355c-3.857,5.9387-11.5272,11.939-14.0146,13.6378-2.4871,1.701-3.8822,12.59-1.8321,15.3946-6.7951,4.0224-15.8726,5.857-19.839,13.9389-5.4369,11.0829,5.473,24.176,19.5162,26.6938,0,0,.6538-1.3922,1.7012-3.1845.0707-.0169,1.7-.41,3.7342-.7112-15.4638-3.6243-21.0919-12.7059-19.6583-20.016,1.4967-7.6312,20.6046-8.38,22.334-18.5634a23.85,23.85,0,0,0-.6157-11.4022S135.046,26.0074,135.9156,7.828Z"/><path class="cls-4" d="M123.2455,57.1406a6.02,6.02,0,0,0,1.1995,4.78c-1.5348.8767-2.9517,2.1287-4.4865,3.0055C119.7427,62.5079,121.7051,59.017,123.2455,57.1406Z"/><path class="cls-14" d="M150.5181,151.4016a73.49,73.49,0,0,1-3.49-15.4962c-4.0784,2.1213-7.0478,6.2221-7.2556,10.5481a12.6359,12.6359,0,0,0,.9108,5.2961A39.8779,39.8779,0,0,0,150.5181,151.4016Z"/><path class="cls-15" d="M151.6039,154.4126a29.82,29.82,0,0,1-8.2014,1.763,24.08,24.08,0,0,0,12.2544,7.23A86.81,86.81,0,0,1,151.6039,154.4126Z"/><path class="cls-16" d="M159.1257,174.1166a12.3131,12.3131,0,0,0,3.6845,10.6756c6.0719-3.0875,9.36-11.9734,6.4628-18.1384C160.9448,169.55,159.1257,174.1166,159.1257,174.1166Z"/><path class="cls-17" d="M188.7959,152.9758a8.6481,8.6481,0,0,1,7.64.7137,6.6119,6.6119,0,0,1,2.6512,4.0424,38.1694,38.1694,0,0,1,3.9113-2.0677c.592-9.4575-5.1655-14.5077-5.1655-14.5077Z"/><path class="cls-18" d="M167.6859,139.2484l.369,13.4815a9.2067,9.2067,0,0,0-4.4768,1.948q.0015-.342-.007-.7053a7.5532,7.5532,0,0,0-3.5427,5.9141c.0978,2.276,1.3684,4.87,3.5723,5.4466a6.5888,6.5888,0,0,1,9.6367-5.7235c-1.93-5.8131-.6155-12.99,2.4217-18.3459C172.3876,138.2921,167.6859,139.2484,167.6859,139.2484Z"/><path class="cls-19" d="M179.4253,153.4524a7.66,7.66,0,0,0-.2957,1.5207A11.2387,11.2387,0,0,0,179.4253,153.4524Z"/><path class="cls-20" d="M180.1061,136.9234l-1.84,8.536a16.8819,16.8819,0,0,1,1.1588,7.993,42.2753,42.2753,0,0,1,1.8772-4.3775,6.7624,6.7624,0,0,1,4.4468-4.1331,4.4128,4.4128,0,0,1,4.3629,1.5569,16.1539,16.1539,0,0,1,.9989-1.7805C188.6349,137.0156,180.1061,136.9234,180.1061,136.9234Z"/><path class="cls-21" d="M188.0939,153.3719c.0405-.0287.0861-.0522.1279-.08.0035-.06.009-.12.0132-.1795C188.1875,153.1987,188.1435,153.2884,188.0939,153.3719Z"/><path class="cls-1" d="M137.0105,169.4381a19.54,19.54,0,0,0-4.5244,11.1312c-2.736-4.2718-2.7445-10.5754.367-14.5819C133.9526,166.7685,135.911,168.6571,137.0105,169.4381Z"/><path class="cls-6" d="M120.3406,158.2438a77.7959,77.7959,0,0,1,1.7178-10.1566c-7.3653,2.8579-10.2805,9.6209-10.9693,15.9116A32.158,32.158,0,0,1,120.3406,158.2438Z"/><path class="cls-6" d="M119.9561,164.456a40.5987,40.5987,0,0,0-8.5891,7.6693c.1129.5994.2435,1.1606.3879,1.675,1.38,4.9161,5.8033,8.647,10.3815,10.9083A78.3976,78.3976,0,0,1,119.9561,164.456Z"/><path class="cls-6" d="M147.3954,121.1034a9.5045,9.5045,0,0,1,9.0091.8445c.7742-3.0548,2.0175-6.7413,2.7917-9.7961C155.2179,114.7859,151.3737,118.4693,147.3954,121.1034Z"/><path class="cls-22" d="M63.8081,134.4782c-.5453,1.9632-2.08,3.97-2.6253,5.9332-6.0176-7.8487-8.8718-18.7932-8.8458-28.6832a51.0491,51.0491,0,0,1-10.4723-3.6817,15.1859,15.1859,0,0,1-7.7085-6.7637c-1.56-3.1207-1.478-7.1828.7607-9.8586.74,1.5438,1.6232,3.4526,2.3635,4.9965A12.1411,12.1411,0,0,1,45.122,84.708c.05.1757.091.3442.1341.5144a15.1539,15.1539,0,0,1,1.5628-7.3494S35.7179,79.3138,33.87,89.1169a22.2087,22.2087,0,0,1-.547-4.7039S22.4743,91,27.06,104.498c0,0,5.5884,1.3,11.3472,9.4144a11.9183,11.9183,0,0,0,9.5708,4.9887s5.2059,24.4926,11.73,28.2953c6.5219,3.8029,11.7152,1.1888,11.7152,1.1888q.7986-1.9491,1.6876-3.7556A15.6028,15.6028,0,0,1,63.8081,134.4782Z"/><path class="cls-23" d="M47.7857,88.4809C50.5792,85.3733,56.02,84.265,59.51,86.5222a11.1973,11.1973,0,0,1,6.1484-5.1052s-9.8926-7.3119-18.8319.8625A31.7741,31.7741,0,0,1,47.7857,88.4809Z"/><path class="cls-24" d="M69.4087,99.163a32.0611,32.0611,0,0,1,3.318,12.767,13.6381,13.6381,0,0,1,1.6747.41s9.1554-5.8438.6031-18.8612A18.0933,18.0933,0,0,1,69.4087,99.163Z"/><path class="cls-25" d="M53.9813,108.92a15.3741,15.3741,0,0,0-7.4236-3.6707c3.0385-2.5609,9.5632-2.3282,11.6925,1.0269C57.1794,107.4041,55.0522,107.7927,53.9813,108.92Z"/><path class="cls-26" d="M148.73,61.3632a13.0521,13.0521,0,0,1,5.645,9.19c4.4587-1.0134,8.9805-1.9378,13.4392-2.9512C162.072,63.9275,155.4673,62.4,148.73,61.3632Z"/><path class="cls-27" d="M148.6635,56.5421a3.0185,3.0185,0,0,1,1.5276-3.199c1.5969-.8237,3.4375,1.3813,3.7968,3.1418C152.3721,56.4877,150.2792,56.5393,148.6635,56.5421Z"/><path class="cls-1" d="M161.1689,40.3775A9.0894,9.0894,0,0,1,164.26,45.86a21.8426,21.8426,0,0,0-9.8315-1.6923C156.0249,42.3944,158.7892,40.5491,161.1689,40.3775Z"/><path class="cls-6" d="M133.7071,39.4723l0-.0023a14.1128,14.1128,0,0,0-6.9017,5.9707,7.7,7.7,0,0,0,2.723,6.206,9.4752,9.4752,0,0,1,2.2939-2.5108,4.5439,4.5439,0,0,1-1.0481-1.3023c-.93-1.7157-.659-3.663.609-4.35,1.2657-.687,3.0474.1461,3.9776,1.8617a4.4494,4.4494,0,0,1,.547,1.9127,9.4425,9.4425,0,0,1,3.1538-.1376C138.9,43.758,137.13,40.0578,133.7071,39.4723Z"/><path class="cls-6" d="M96.5421,71.5652a4.9156,4.9156,0,0,0,2.4054,6.2225,13.73,13.73,0,0,1,3.541-9.1C100.17,68.4353,97.4793,69.43,96.5421,71.5652Z"/><path class="cls-6" d="M104.0529,90.9773A19.88,19.88,0,0,1,114.15,84.6066a34.3776,34.3776,0,0,0-5.3821,8.96C107.1528,92.9066,105.6677,91.637,104.0529,90.9773Z"/><path class="cls-6" d="M123.1259,73.7411a31.9255,31.9255,0,0,0,7.0346-6.5283,31.3934,31.3934,0,0,1-9.9838,3.1485C121.5132,70.99,123.2384,72.2682,123.1259,73.7411Z"/><path class="cls-4" d="M177.3826,177.3238a13.1372,13.1372,0,0,1-1.1971,6.0938c-2.2691,4.0292-9.2287,8.2012-16.4636,6.2267,0,0-3.6333-5.8445-8.6757-13.2746,0,0-5.2723,19.7083,10.535,26.3935-2.3418,9.8188-14.9761,18.5578-31.1712,22.0339q-2.1376.4587-4.3547.79c6.7923,2.33,27.6293,7.4352,54.2119-5.5678l-.4635,7.6824s11.8038-5.7949,14.8455-23.7063l6.7982,9.9479C209.662,189.8449,197.0513,176.6682,177.3826,177.3238Z"/><path class="cls-4" d="M14.4255,200.7554s10.56-15.8332,32.1263-10.0284L42.83,198.1236a46.4676,46.4676,0,0,1,19.6,6.9988l-5.3165,4.4592a70.297,70.297,0,0,1,8.7985,33.1217C43.7777,217.8691,35.9105,194.7981,14.4255,200.7554Z"/><path class="cls-4" d="M70.8235,233.8742l1.2147,13.11a59.0949,59.0949,0,0,0,12.1714,7.687S81.2875,242.16,70.8235,233.8742Z"/><path class="cls-4" d="M203.4172,225.9963l-6.43-7.5579s-8.2126,18.3905-21.78,19.4271l-2.513-5.7171-17.3512,4.284s-35.7464,7.4256-71.7963-7.4514c0,0,15.95,18.9827,47.3593,20.7021,15.9475.8731,16.9612,13.8863,16.9612,13.8863s47.2244-3.7463,57.9744-40.06Zm-50.4263,29.8009a10.2419,10.2419,0,0,0-5.3149-7.1978,18.3949,18.3949,0,0,0,10.5635-3.8721C158.5089,248.8633,156.19,253.162,152.9909,255.7972Z"/><path class="cls-6" d="M91.52,247.3632l6.6681,14.35a66.51,66.51,0,0,0,28.4842,4.0135C116.0605,258.4485,103.66,251.6282,91.52,247.3632Z"/><path class="cls-6" d="M53.9386,185.5436l.033-.3533c-18.45-8.8673-29.6005-.7822-29.6005-.7822l-2.3976-6.83C-.8126,188.5039,3.9961,211.8591,3.9961,211.8591a28.0774,28.0774,0,0,1,5.1556-3.2406c.4991-4.57,2.4992-15.0109,10.504-22.479-.1059,2.4206.2248,5.372,1.5913,7.3728C29.1707,184.8,42.7837,181.7473,53.9386,185.5436Z"/><path class="cls-28" d="M177.3833,94.8637l6.7423-8.1167a123.6512,123.6512,0,0,1-10.24-15.9412c-2.0571.5721-4.0067,1.0839-5.8167,1.538q4.4367,6.8925,8.8735,13.785c-1.6794,2.505-3.3117,3.7207-4.991,6.2256,1.2249,3.7063,2.3556,7.3494,3.5805,11.0557-7.6621,11.4044-12.3139,22.4377-14.3495,36.0253.3588-.8.7672-1.5956,1.2171-2.3853a182.3223,182.3223,0,0,1,18.1015-32.3384Z"/><path class="cls-5" d="M112.811,202.5745c-7.7274,4.1764-15.83,8.3179-23.8954,11.7248a90.9683,90.9683,0,0,1-12.9239-7.2084,46.2948,46.2948,0,0,0,14.5958,13.83,53.54,53.54,0,0,0,17.4113,5.1007,72.2958,72.2958,0,0,0,22.4112-1.2242S120.4817,218.9728,112.811,202.5745Z"/><path class="cls-5" d="M147.4654,85.7319A29.0785,29.0785,0,0,0,146.29,82.668a59.6991,59.6991,0,0,0-18.9888,3.3944q.2649,1.2087.423,2.39a23.6109,23.6109,0,0,1-.13,7.4673l.2765.1869a13.1442,13.1442,0,0,1,6.63,12.4134c-.7546.3563-1.7835.9508-2.8193,1.5512a31.6884,31.6884,0,0,0,14.2778-5.5374,10.4693,10.4693,0,0,1-1.2942,4.6244,67.5573,67.5573,0,0,1-20.1307,6.8011,35.7563,35.7563,0,0,1-1.5615-6.2454c-1.0763,5.7658-3.745,11.693-9.0792,13.4884-.0434.0146-.0878.0262-.1318.0391a27.6181,27.6181,0,0,0,16.1033,1.0038c-1.41,1.6975-3.1134,3.4241-4.5234,5.1216a29.6007,29.6007,0,0,1-14.9342-2.2643,23.3114,23.3114,0,0,1-4.061,12.4118,22.4552,22.4552,0,0,0-2.4527-10.53c-.9958,7.3578-7.2789,13.8987-14.4548,15.8056q.2289.2605.4489.5293a56.7869,56.7869,0,0,0,22.9819-1.0218c-1.0512,1.9219-2.4688,4.0082-3.52,5.93a37.651,37.651,0,0,1-16.2557.283,21.2944,21.2944,0,0,1,.6744,16.4763c-1.2646-3.5724-3.234-7.2672-6.23-9.5871.8148,6.8736-2.897,14.9482-8.9282,18.3446,3.7271-.0945,7.5092.0012,11.2429-.0707,5.0829-1.1277,10.2811-2.6315,15.3192-3.6126a6.689,6.689,0,0,0,.1217,4.1206,64.71,64.71,0,0,1-13.8524,3.7936,32.435,32.435,0,0,1-4.4332,20.988c-1.85-2.3135-4.22-6.1588-6.07-8.4724a15.7185,15.7185,0,0,0,1.4709,11.7781c1.9541,1.3168,3.8632,2.6453,5.583,4.0225a42.992,42.992,0,0,0,22.9844-9.9657,89.8655,89.8655,0,0,1-4.161-13.6222,61.2675,61.2675,0,0,1-1.5253-12.1632,49.1382,49.1382,0,0,1,7.4345-27.2664c5.3347-8.7112,12.8414-15.676,20.1685-21.605,8.0164-6.4886,12.7564-13.6695,14.7914-20.7757A29.24,29.24,0,0,0,147.4654,85.7319Z"/><path class="cls-1" d="M162.9136,33.58a8.7892,8.7892,0,0,0-3.62-5.3319c3.0225-2.6738,2.3393-9.9623-.6192-12.7068a33.4592,33.4592,0,0,1-11.6823,17.01A21.7944,21.7944,0,0,1,162.9136,33.58Z"/><path class="cls-1" d="M170.3517,47.8061a14.2347,14.2347,0,0,1-2.7451,10.51,67.0559,67.0559,0,0,0,10.6067-14.1849A37.5226,37.5226,0,0,0,164.766,39.82,11.5616,11.5616,0,0,1,170.3517,47.8061Z"/><path class="cls-1" d="M131.383,43.4834c-1.268.6872-1.5391,2.6345-.609,4.35s2.71,2.5488,3.9776,1.8617c1.2657-.687,1.5392-2.6346.609-4.35S132.6487,42.7964,131.383,43.4834Z"/><path class="cls-1" d="M216.6733,198.8772a36.2008,36.2008,0,0,0-12.2625-21.2828,38.2349,38.2349,0,0,0-18.53-8.0936c3.9809-2.0019,7.6488-4.2253,7.8837-4.3682l.5-.3042.2125-.546c1.0176-2.6142,6.1941-5.7026,9.2171-7.0348l.9644-.4239.0658-1.0514c.6377-10.1883-5.49-15.687-5.7511-15.9161l-1.3908-1.22-4.6536,6.0864-.1717-.5339c-2.26-7.0314-9.2517-8.9583-12.6327-8.9947l-1.4119-.0153-1.1886,5.5152c-3.034-3.4083-7.6642-3.6556-10.1844-3.14l-1.4227.29.37,13.499a11.3441,11.3441,0,0,0-1.1116.3982,46.664,46.664,0,0,0-2.3956-11.1291,182.4288,182.4288,0,0,1,19.114-34.8759l.5212-.7085-3.0976-9.7858,7.0325-8.4659-.8651-1.0991a116.7452,116.7452,0,0,1-9.0339-13.8019c1.7537-.5058,3.4943-1.0289,5.1954-1.5634l2.5032-.7868-7.9032-9.2c2.81-2.8854,9.6284-10.688,11.0185-19.7246l.23-1.4922-1.4474-.429c-.104-.0308-10.124-3.0392-16.9572-8.2167.2778-4.0349.7718-19.4354-7.0814-26.7137L160.7572,2.59l-1.1767,1.2348c-.07.0736-6.484,6.8055-13.0513,13.8227A27.1407,27.1407,0,0,0,133.1268,4.3142l-1.8334-.8329-.547,1.9382a81.89,81.89,0,0,1-8.81,19.4626c-3.72,5.7276-11.2092,11.56-13.5405,13.1523-1.8112,1.2387-2.7144,4.5489-3.1533,7.1077a22.132,22.132,0,0,0,.0827,8.9735c-1.4045.7486-2.8935,1.4361-4.4479,2.1534-5.6916,2.6265-11.5771,5.3424-14.729,11.7648a16.3238,16.3238,0,0,0,.4078,14.8483c3.6058,7.1221,11.596,12.7391,20.356,14.31l1.3058.2337.5647-1.2c.0054-.0115.4831-1.0232,1.2577-2.3994a31.4482,31.4482,0,0,1,7.5333-.8154l.7475.0494.55-.5025a27.1278,27.1278,0,0,1,7.102-4.1106c.0112.0782.0263.1581.0367.236a19.6747,19.6747,0,0,1-1.5365,11.3118,18.9644,18.9644,0,0,1-9.8052,9.0274c-3.4423,1.5428-6.2384,2.8432-8.7324,4.0612-12.475-3.8008-26.77,8.3406-30.6582,11.9465a29.8378,29.8378,0,0,1-8.2841-7.853,4.8031,4.8031,0,0,1,1.7375-3.0245c1.16-.8068,2.8953-.86,5.1592-.16l.7659.2371.6759-.4314a12.0307,12.0307,0,0,0,4.77-7.3054c.9-4.2069-.329-8.905-3.6522-13.9634l-1.51-2.2942-1.4182,2.3534c-.0443.0733-4.4669,7.3046-9.0831,5.5932a6.9591,6.9591,0,0,1-4.4507-6.7931,8.9256,8.9256,0,0,1,6.2655-8.3473L69.27,81.9357l-2.5835-1.9095a19.44,19.44,0,0,0-6.7128-2.9309,17.3044,17.3044,0,0,0-12.409,2.4715c.0659-.1465.989-3.8388.989-3.8388s-8.61.8721-14.1606,7.5568l-.48-2.0123c-6.6139,4.7263-12.1984,12.7034-8.1958,24.6887l.9365.2179c.05.0127,5.103,1.3511,10.343,8.7342a13.5705,13.5705,0,0,0,9.578,5.638c.4967,2.156,1.61,6.7212,3.175,11.6,2.9854,9.3054,5.958,14.7156,9.0873,16.5394a15.6294,15.6294,0,0,0,9.4231,2.2412c.1237-.0115.2437-.0251.3626-.0392-.2485.7035-.49,1.4132-.719,2.1308a85.6636,85.6636,0,0,0-2.3159,8.994,60.5948,60.5948,0,0,0,1.2688,30.2137c.3553,1.154.7521,2.2961,1.18,3.4267a39.5447,39.5447,0,0,0-12.8566-4.8l.6252-6.7049-1.0846-.5213c-14.8885-7.1553-25.2816-3.7812-29.4052-1.7544l-2.3493-6.6928-1.74.8345C8.8333,181.9607,4.3406,191.486,2.7539,198.4306a35.4151,35.4151,0,0,0-.4518,13.7773l.5852,2.8314,2.22-1.8544a27.5822,27.5822,0,0,1,7.0908-4.0117c5.3555-2.0363,10.1972-1.8085,14.3913.6766,5.3963,3.1973,10.4185,9.7668,16.2338,17.3738,13.55,17.7252,32.1073,42.0005,72.7447,45.94a143.6555,143.6555,0,0,0,27.0676.1552,104.7286,104.7286,0,0,0,34.495-8.8957,74.413,74.413,0,0,0,22.8737-16.2055A67.4492,67.4492,0,0,0,214.72,223.9069,48.622,48.622,0,0,0,216.6733,198.8772Zm-34.7627-112.17-6.4613,7.7783,3.1415,9.9245a189.1694,189.1694,0,0,0-17.6979,31.7673,18.8564,18.8564,0,0,0-4.9178-6.4806c-5.9011-4.5351-10.7636.9955-10.7636.9955,7.5792-2.3272,11.8483,4.416,14.0944,10.4819a42.6451,42.6451,0,0,1,2.5311,12.6912l-.0662.0539.0048.0522a8.0507,8.0507,0,0,0-1.57,1.9709c-3.5634,6.8082,3.2022,10.9014,3.2022,10.9014-.5508-1.57-1.78-6.611-.2543-9.0918a6.74,6.74,0,0,1,1.5122-1.7264l.1253-.1016a7.6018,7.6018,0,0,1,3.4238-1.4716l1.6136-.1495-.3687-13.4717a9.22,9.22,0,0,1,2.1935.2482,6.3091,6.3091,0,0,1,4.6042,4.1519c-.8089,9.6065,3.474,10.3042,3.474,10.3042-.3207-7.0883,1.7395-16.7338,1.7395-16.7338,2.1075.3581,6.03,1.5776,7.7307,5.7244a21.5364,21.5364,0,0,0-2.59,11.57,61.6855,61.6855,0,0,0,11.3249-12.227A17.2262,17.2262,0,0,1,201.31,154.543c-2.36,1.1478-7.9216,4.1642-9.7991,7.9073-1.8383,1.0931-8.8044,5.1527-13,6.4687l.5145,1.64.002.0213-.5223-1.66a6.7223,6.7223,0,0,1-1.744.37l-2.0539.0478.3966,2.0159c.4242,2.1561,1.1746,8.3739-.426,11.2152-1.8535,3.2905-7.6248,6.9271-13.863,5.5637-1.0583-1.6816-4.2552-6.7177-8.3385-12.7344-3.8611-5.6876-7.4756-10.7289-10.743-14.9841a23.3152,23.3152,0,0,1-5.1624-15.7381,20.2255,20.2255,0,0,1,1.5908-7.0692s-4.8848,1.3045-5.0756,7.7477c-.1326,4.4785.5735,10.2251,5.9037,17.1666,3.1064,4.0453,6.5362,8.82,10.1993,14.1954a34.1576,34.1576,0,0,0-.5223,10.5392,22.3123,22.3123,0,0,0,3.505,10.0446c-4.3317-3.1915-10.4153-9.6432-13.15-21.7523,0,0-8.7955,14.4778,2.9962,32.3371a27.8331,27.8331,0,0,1-15.9424-5.5747s1.5513,7.04,13.6,17.9442a64.0051,64.0051,0,0,1-8.93,2.697,37.2145,37.2145,0,0,1-5.9529-5.2988,65.2212,65.2212,0,0,1-12.1593-19.8359,88.4914,88.4914,0,0,1-4.1318-13.4915,59.879,59.879,0,0,1-1.4837-11.82,47.1876,47.1876,0,0,1,7.18-26.3284c5.5485-9.06,13.4862-16.0694,19.7818-21.1638,7.8072-6.3194,13.1207-13.8037,15.366-21.6439a31.124,31.124,0,0,0-.2343-18.164q-.133-.4164-.28-.8329c1.2593.0062,2.54.0386,3.8359.1045l.6327.0321.2836-.2162a21.5494,21.5494,0,0,1,.0259,6.1533,13.1889,13.1889,0,0,0,5.637-6.6908,45.9071,45.9071,0,0,1-.1069,16.1437,42.4884,42.4884,0,0,0,10.5135-26.1743q1.6227-.4155,3.3671-.8883A125.1712,125.1712,0,0,0,181.9106,86.7069ZM74.6943,201.7692c-.1345-.2392-.2639-.4812-.3947-.7224,4.5146,4.5359,8.856,7.722,12.92,9.4734l.5457.2353.5748-.15a86.6746,86.6746,0,0,0,21.892-9.553c5.3223,12.3874,12.0189,19.4119,15.9677,22.7619a71.1616,71.1616,0,0,1-18.0253.4862,51.6271,51.6271,0,0,1-16.7889-4.9164c-6.0989-3.4552-11.9689-9.5391-16.2144-16.7832l.0421-.09Zm10.3841-57.1176.2077.87.83.3333a45.77,45.77,0,0,0,19.6325,2.439c1.1571-.1072,2.3434-.264,3.5515-.4773a50.053,50.053,0,0,0-5.7483,23.4072c-9.5037,2.4954-21.29,3.1926-24.4955,3.3421-5.8971-7.3609-7.493-18.72-7.7446-20.8326.5225-1.61,1.0964-3.1883,1.7122-4.6923a52.9142,52.9142,0,0,1,11.1415-17.158A56.6059,56.6059,0,0,0,85.0784,144.6516Zm48.2451-48.09,1.0864-.4744a64.0747,64.0747,0,0,0,12.0736-7.3517,27.79,27.79,0,0,1-.337,13.2145c-5.3392,4.72-13.5441,6.4787-16.9725,7.0307l-1.3478-8.0029a21.7263,21.7263,0,0,0,1.8439-8.1037Zm-4.0411-9.3573A58.5867,58.5867,0,0,1,145.1607,84.44q.1437.3589.2765.72a64.2769,64.2769,0,0,1-11.3529,7.2552l-4.73-4.7746C129.3316,87.4955,129.3069,87.35,129.2824,87.2045Zm-12.1752,2.3222a28.4886,28.4886,0,0,0-4.5114.3285,15.9719,15.9719,0,0,1,2.2266-2.4714,57.6255,57.6255,0,0,1,7-4.806c5.09-3.1634,10.86-6.7491,13.701-12.0043a38.2172,38.2172,0,0,0,1.7249-3.8476c1.8439-4.5567,3.2036-7.352,7.6977-7.4243,0,0-1.6687-4.3226-6.12-1.49-2.6586,1.692-3.7166,4.9782-4.7843,7.6163a35.1826,35.1826,0,0,1-1.5613,3.5c-2.4042,4.447-7.5285,7.6316-12.484,10.7112a59.9187,59.9187,0,0,0-7.4354,5.1263,26.6563,26.6563,0,0,0-5.1355,6.6659c-.4706.8054-.8638,1.5311-1.16,2.0975C99.0405,91.864,92.6046,87.17,89.6427,81.32a12.8946,12.8946,0,0,1-.3885-11.7622c2.6109-5.32,7.6927-7.665,13.073-10.1477a61.7848,61.7848,0,0,0,6.0946-3.0649c6.9718-4.2182,3.88-8.19,3.88-8.19a13.6705,13.6705,0,0,1-3.8684,4.0577,21.5152,21.5152,0,0,1,.1742-6.2181c.5288-3.2936,1.4019-4.8617,1.74-5.1039,2.6576-1.8152,10.4414-7.8909,14.49-14.1242a83.2242,83.2242,0,0,0,8.6186-18.4117,24.0961,24.0961,0,0,1,10.4829,12.0684c-.963,1.0356-1.9145,2.0605-2.8323,3.0548,0,0,3.268,1.2147,6.8225-2.1833,5.7584-5.5048,10.4191-11.1527,12.8959-13.76,5.5453,6.52,4.3972,24.2556,4.3972,24.2556,5.8482,4.7286,15.0059,8.5985,18.346,9.7254-2.1567,9.375-10.7651,17.35-10.8555,17.4323l-1.2385,1.1315,6.62,7.7061c-1.5424.4647-3.1061.9177-4.6731,1.354-10.7517,2.99-18.6384,4.3382-18.7167,4.3515l-1.431.2421-.01,1.4511c-.0235,3.3569-.809,5.0745-1.274,5.7989-1.96-.081-3.89-.0957-5.7486-.0439a61.6538,61.6538,0,0,0-19.536,3.4995A35.1809,35.1809,0,0,0,117.1072,89.5267Zm-.3927,22.3542a23.8765,23.8765,0,0,0,8.3583-6.4238l1.2358,7.3379,1.6012-.1513a45.3944,45.3944,0,0,0,16.0661-4.9649,44.3963,44.3963,0,0,1-11.895,14.419c-9.5891,2.6419-16.64.7529-19.5045-.3258ZM106.83,116.497c1.5955-.7865,3.3133-1.6044,5.2491-2.4988l-3.9468,9.434,1.3515.7521c.3129.1742,6.4414,3.4947,16.3568,2.5755.2638-.0244.5312-.0528.8-.0834a80.5283,80.5283,0,0,0-15.0187,17.0977,43.5358,43.5358,0,0,1-23.372-.8318c-.9221-4.879-.62-12.1574-.4948-14.4326C92.656,124.2951,98.5755,120.57,106.83,116.497ZM60.579,145.7023c-4.268-2.4877-8.9567-17.98-10.9094-27.161l-.3107-1.4138-1.445.0452a10.1167,10.1167,0,0,1-8.0964-4.2613c-4.7-6.6224-9.3847-9.0084-11.3767-9.7753-2.2855-7.6894.9521-12.7342,3.4291-15.282q.1281.8428.3142,1.6481c1.89,8.2682,7.647,11.4647,7.8912,11.5966a65.2922,65.2922,0,0,1-4.43-12.0082,11.2969,11.2969,0,0,1,6.1078-7.6934,17.2716,17.2716,0,0,1,2.2934-1.0156,19.12,19.12,0,0,0,1.3905,12.6746,22.09,22.09,0,0,0,2.6411,4.47s2.2093-6.0177-.1892-14.4634c4.99-4.0009,11.0443-3.0176,14.0821-1.714A12.0872,12.0872,0,0,0,56.529,91.3813a10.4712,10.4712,0,0,0,6.7069,10.0433c5.0856,1.8852,9.3984-2.0823,11.6295-4.8016,4.3222,8.1345.6649,12.4864-.8348,13.8171-2.9385-.7369-5.3829-.4446-7.2753.8725-3.0326,2.11-3.2811,6.0271-3.29,6.1928l-.0312.57.3137.4764a33.5658,33.5658,0,0,0,10.8755,10.1413,29.336,29.336,0,0,0,4.2607,2.1307,5.2876,5.2876,0,0,0-.4477-3.99,60.0222,60.0222,0,0,1,8.4683-6.31c3.7376-2.2731,8.7517-4.6088,13.6783-4.7042a81.16,81.16,0,0,0-15.652,10.5628,55.9372,55.9372,0,0,0-14.8184,20.6666A11.505,11.505,0,0,1,60.579,145.7023Zm8.3989,17.0024q.1327-.6549.2742-1.3c1.2646,4.93,3.5784,11.27,7.7129,16.0552l.5387.6233.8235-.0254c.2889-.0091,3.5356-.1165,8.08-.5376a119.1722,119.1722,0,0,0,17.2464-2.7532,64.7274,64.7274,0,0,0,1.474,10.3143,92.9452,92.9452,0,0,0,3.7863,12.7058,84.3607,84.3607,0,0,1-20.8724,9.3115c-8.6164-4.0029-16.7054-14.4863-17.9621-16.1629A57.2193,57.2193,0,0,1,68.9779,162.7047Zm142.4768,60.0614A64.0161,64.0161,0,0,1,197.4915,245.84a70.9753,70.9753,0,0,1-21.82,15.4463c-16.5674,7.7019-37.2362,10.6184-59.7708,8.4345-17.359-1.683-31.9959-7.2676-44.747-17.0733-11.02-8.4742-18.7571-18.5951-25.5833-27.5249-6.0339-7.8929-11.245-14.71-17.2187-18.249C23.25,203.85,17.2029,203.5414,10.865,205.98A31.4178,31.4178,0,0,0,5.3742,208.76a33.7807,33.7807,0,0,1,.7818-9.689c1.9485-8.3643,6.937-14.7658,14.8408-19.0537l1.7423,4.9633.7678,2.1638,1.873-1.3317a19.4317,19.4317,0,0,1,7.38-2.672c7.3442-1.2541,14.42.8762,19.3764,3.1032l-.7061,7.5725,1.6684.2039c.1262.0154,12.27,1.5771,18.12,8.871L68.94,207.7722l.8479.8564a77.8864,77.8864,0,0,0,20.0082,13.83c.5307.2989,1.0772.5864,1.6272.8539l.0432-.0887a54.0822,54.0822,0,0,0,16.356,4.5178,74.5372,74.5372,0,0,0,22.95-1.2537,59.0656,59.0656,0,0,0,21.4118-8.9142c6.0057-4.219,9.8368-9.2017,11.0785-14.4084a15.5139,15.5139,0,0,0,.1406-6.6982s-9.1659.59-11.2882-9.507a19.8746,19.8746,0,0,1-.0577-5.9811c3.67,5.5216,6.1652,9.53,6.1952,9.5784l.3584.5765.655.1788a16.0908,16.0908,0,0,0,5.7537.503c.5149-.0477,1.011-.12,1.49-.2082,8.4573,17.37-6.4279,30.4705-6.4279,30.4705,33.9957-8.88,21.16-33.2531,21.16-33.2531,7.6633-2.9137,17.3748,6.7642,17.3748,6.7642.0391-15.2757-14.4409-17.5065-19.51-17.82q.0212-1.0234-.0341-2.15c-.0609-1.2161-.18-2.3228-.2948-3.1791.1491-.0389.3038-.083.4614-.13,9.2342.3672,16.9094,3.0012,22.82,7.8326,7.4611,9.7862,9.7638,20.3637,6.84,31.442a41.8646,41.8646,0,0,1-5.5629,12.3033l-6.9971-8.645-1.1452,2.59a44.2253,44.2253,0,0,1-5.2663,8.4286c-2.891,3.66-7.5389,8.29-13.6969,10.3659l-2.4138-6.8818-1.6139.5354c-.2408.08-24.32,7.9307-45.2,3.0555,0,0,7.0471,7.46,31.0566,3.7362a108.2208,108.2208,0,0,0,13.6063-3.0093l2.37,6.7587,1.5368-.3941c11.7-3.0006,18.8258-13.7975,21.54-18.7317l6.2815,7.7625,1.3479-1.623a43.2116,43.2116,0,0,0,7.4644-15.2283,38.8408,38.8408,0,0,0,1.31-11.73A45.4056,45.4056,0,0,1,211.4547,222.7661Z"/><path class="cls-1" d="M108.59,67.0011c-3.4184,1.6456-5.2255,5.9266-6.2287,11.4241,0,0,1.8749.739,4.2008-3.7012,3.5163-.82,5.6478-3.007,6.1669-4.8443a2.6081,2.6081,0,0,0-.7217-2.8063C111.5114,66.6614,110.4179,66.121,108.59,67.0011Z"/><path class="cls-1" d="M125.5634,38.5008a24.487,24.487,0,0,1,6.4348-3.7791s-3.5932-2.3116-8.6813,1.1489c-3.314,2.2539-4.755,9.9874-4.94,10.821,0,0,3.3254.59,4.7974-3.9651A10.0893,10.0893,0,0,1,125.5634,38.5008Z"/><path class="cls-1" d="M140.112,49.2033a11.5857,11.5857,0,0,0-.0626-3.633A21.7449,21.7449,0,0,1,143.97,41.84s-3.4424-7.0266-10.9679-3.9489a15.1448,15.1448,0,0,0-7.71,6.7122,13.1412,13.1412,0,0,0-1.6465,7.49l3.6385-.6967a5.95,5.95,0,0,0,3.45,2.2616,4.4677,4.4677,0,0,0-1.1871,3.7683,56.8328,56.8328,0,0,1,16.6889-6.982S145.204,48.2873,140.112,49.2033Zm-2.79,1.3258c-.3327.1254-.6612.2559-.9821.3957-.1638.0713-.3224.1443-.4785.2174l.24.5132-.01.0061-.0064.0019-.2411-.5143c-.5774.2708-1.097.55-1.5722.83a6.2254,6.2254,0,0,1-3.7948-1.0627,6.0147,6.0147,0,0,1-2.4057-4.1618c.0765-.1575.158-.3159.2462-.4751a12.5094,12.5094,0,0,1,6.0947-5.2306c.0635-.0284.1315-.0542.1959-.082,1.8257.89,2.83,3.053,3.1694,4.9991A7.5886,7.5886,0,0,1,137.3223,50.5291Z"/><ellipse class="cls-29" cx="134.6764" cy="44.8421" rx="2.3651" ry="1.8043" transform="translate(-3.5627 12.6163) rotate(-5.2936)"/></g></g></svg>