<svg height='300px' width='300px'  fill="#ffffff" xmlns="http://www.w3.org/2000/svg" xmlns:xlink="http://www.w3.org/1999/xlink" version="1.1" x="0px" y="0px" viewBox="0 0 100 100" style="enable-background:new 0 0 100 100;" xml:space="preserve"><path d="M16.574707,76.1015625c3.6254883,0,6.574707-2.9492188,6.574707-6.574707  c0-3.2564087-2.3817139-5.9597778-5.4932861-6.4779663c0.432251-2.5672607,2.664917-4.531311,5.3531494-4.531311h7.7714844  v18.4172974c-3.1512451,0.4841309-5.574707,3.2057495-5.574707,6.4904175c0,3.6254883,2.9492188,6.574707,6.574707,6.574707  s6.574707-2.9492188,6.574707-6.574707c0-3.284668-2.4234619-6.0062866-5.574707-6.4904175V58.5175781H49v18.4172974  c-3.1512451,0.4841309-5.574707,3.2057495-5.574707,6.4904175C43.425293,87.0507812,46.3745117,90,50,90  s6.574707-2.9492188,6.574707-6.574707c0-3.284668-2.4234619-6.0062866-5.574707-6.4904175V58.5175781h16.2192383v18.4172974  c-3.1512451,0.4841309-5.574707,3.2057495-5.574707,6.4904175C61.6445312,87.0507812,64.59375,90,68.2192383,90  s6.574707-2.9492188,6.574707-6.574707c0-3.284668-2.4234619-6.0062866-5.574707-6.4904175V58.5175781h7.7714844  c2.6882324,0,4.9208984,1.9640503,5.3531494,4.531311c-3.1115723,0.5181885-5.4932861,3.2215576-5.4932861,6.4779663  c0,3.6254883,2.9492188,6.574707,6.574707,6.574707S90,73.1523438,90,69.5268555  c0-3.3068848-2.4561157-6.043396-5.6386108-6.5001831c-0.4578857-3.6635132-3.585083-6.5090942-7.3706665-6.5090942H51v-9.0351562  h9.7714844c3.7855835,0,6.9127808-2.8455811,7.3706665-6.5090942c3.1824951-0.4567871,5.6386108-3.1932983,5.6386108-6.5001831  c0-3.6254883-2.9492188-6.574707-6.574707-6.574707s-6.574707,2.9492188-6.574707,6.574707  c0,3.2564087,2.3817139,5.9597778,5.4932861,6.4779663c-0.432251,2.5672607-2.664917,4.531311-5.3531494,4.531311H51V23.0651245  c3.1512451-0.4841309,5.574707-3.2057495,5.574707-6.4904175C56.574707,12.9492188,53.6254883,10,50,10  s-6.574707,2.9492188-6.574707,6.574707c0,3.284668,2.4234619,6.0062866,5.574707,6.4904175v22.4172974h-9.7714844  c-2.6882324,0-4.9208984-1.9640503-5.3531494-4.531311c3.1115723-0.5181885,5.4932861-3.2215576,5.4932861-6.4779663  c0-3.6254883-2.9492188-6.574707-6.574707-6.574707s-6.574707,2.9492188-6.574707,6.574707  c0,3.3068848,2.4561157,6.043396,5.6386108,6.5001831c0.4578857,3.6635132,3.585083,6.5090942,7.3706665,6.5090942H49v9.0351562  H23.0092773c-3.7855835,0-6.9127808,2.8455811-7.3706665,6.5090942C12.4561157,63.4834595,10,66.2199707,10,69.5268555  C10,73.1523438,12.9492188,76.1015625,16.574707,76.1015625z M36.3554688,83.425293  c0,2.5224609-2.0522461,4.574707-4.574707,4.574707s-4.574707-2.0522461-4.574707-4.574707s2.0522461-4.574707,4.574707-4.574707  S36.3554688,80.902832,36.3554688,83.425293z M54.574707,83.425293C54.574707,85.9477539,52.5224609,88,50,88  s-4.574707-2.0522461-4.574707-4.574707S47.4775391,78.8505859,50,78.8505859S54.574707,80.902832,54.574707,83.425293z   M72.7939453,83.425293c0,2.5224609-2.0522461,4.574707-4.574707,4.574707s-4.574707-2.0522461-4.574707-4.574707  s2.0522461-4.574707,4.574707-4.574707S72.7939453,80.902832,72.7939453,83.425293z M88,69.5268555  c0,2.5224609-2.0522461,4.574707-4.574707,4.574707s-4.574707-2.0522461-4.574707-4.574707s2.0522461-4.574707,4.574707-4.574707  S88,67.0043945,88,69.5268555z M62.6313477,34.4731445c0-2.5224609,2.0522461-4.574707,4.574707-4.574707  s4.574707,2.0522461,4.574707,4.574707s-2.0522461,4.574707-4.574707,4.574707S62.6313477,36.9956055,62.6313477,34.4731445z   M45.425293,16.574707C45.425293,14.0522461,47.4775391,12,50,12s4.574707,2.0522461,4.574707,4.574707  S52.5224609,21.1494141,50,21.1494141S45.425293,19.097168,45.425293,16.574707z M28.2192383,34.4731445  c0-2.5224609,2.0522461-4.574707,4.574707-4.574707s4.574707,2.0522461,4.574707,4.574707s-2.0522461,4.574707-4.574707,4.574707  S28.2192383,36.9956055,28.2192383,34.4731445z M16.574707,64.9521484c2.5224609,0,4.574707,2.0522461,4.574707,4.574707  s-2.0522461,4.574707-4.574707,4.574707S12,72.0493164,12,69.5268555S14.0522461,64.9521484,16.574707,64.9521484z"></path></svg>