<?xml version="1.0" encoding="utf-8"?>
<!-- Uploaded to: SVG Repo, www.svgrepo.com, Generator: SVG Repo Mixer Tools -->
<svg fill="#000000" version="1.1" id="Layer_1" xmlns="http://www.w3.org/2000/svg" xmlns:xlink="http://www.w3.org/1999/xlink" 
	 width="800px" height="800px" viewBox="0 0 256 253" enable-background="new 0 0 256 253" xml:space="preserve">
<path d="M143.913,143.858l-18.104,25.013l-11.577-12.578c-1.286-1.429-1.239-3.573,0.143-4.955c1.429-1.286,3.573-1.239,4.955,0.143
	l5.86,6.337l13.054-18.009c1.143-1.525,3.287-1.953,4.907-0.81C144.675,140.094,145.056,142.333,143.913,143.858z M171.451,161.486
	c2.382,2.287,1.286,6.289-1.858,7.051l-10.958,2.811l3.097,10.863c0.858,3.144-2.096,6.051-5.193,5.193l-10.672-3.049l15.246,30.349
	l-12.721-3.621l-3.526,11.768L128,189.214l-16.866,33.636l-3.526-11.768l-12.721,3.621l15.246-30.349l-10.672,3.049
	c-3.144,0.858-6.051-2.096-5.193-5.193l3.097-10.863l-10.958-2.811c-3.144-0.762-4.24-4.764-1.858-7.051l8.004-7.861l-8.052-7.861
	c-2.382-2.287-1.286-6.289,1.858-7.051l10.958-2.811l-3.097-10.863c-0.858-3.144,2.096-6.051,5.193-5.193l10.863,3.097l2.811-10.958
	c0.762-3.144,4.86-4.193,7.051-1.858l7.861,8.099l7.861-8.099c2.239-2.382,6.289-1.239,7.051,1.858l2.811,10.958l10.863-3.097
	c3.144-0.858,6.051,2.096,5.193,5.193l-3.097,10.863l10.958,2.811c3.144,0.762,4.24,4.764,1.858,7.051l-8.052,7.861L171.451,161.486
	z M155.3,153.624c0-14.579-11.863-26.347-26.347-26.347c-14.579,0-26.347,11.816-26.347,26.394s11.768,26.347,26.347,26.347
	S155.3,168.203,155.3,153.624z M2,69c0,13.678,9.625,25.302,22,29.576V233H2v18h252v-18h-22V98.554
	c12.89-3.945,21.699-15.396,22-29.554v-8H2V69z M65.29,68.346c0,6.477,6.755,31.47,31.727,31.47
	c21.689,0,31.202-19.615,31.202-31.47c0,11.052,7.41,31.447,31.464,31.447c21.733,0,31.363-20.999,31.363-31.447
	c0,14.425,9.726,26.416,22.954,30.154V233H42V98.594C55.402,94.966,65.29,82.895,65.29,68.346z M222.832,22H223V2H34v20L2,54h252
	L222.832,22z"/>
</svg>