<svg xmlns="http://www.w3.org/2000/svg" width="270" height="225" viewBox="0 0 270 225"><defs><style>.cls-1{fill:#4169e1;}</style></defs><g id="Layer_2" data-name="Layer 2"><g id="Layer_1-2" data-name="Layer 1"><path class="cls-1" d="M268.869,118.691c.141-.342.21-.699.324-1.053a14.5155,14.5155,0,0,0,.513-1.728,15.0154,15.0154,0,0,0,.258-2.562c.003-.117.036-.225.036-.345v-.009a15.0237,15.0237,0,0,0-.3-2.952c-.063-.318-.186-.609-.273-.918a14.5784,14.5784,0,0,0-.588-1.896c-.132-.318-.321-.6-.474-.906a15.4952,15.4952,0,0,0-.915-1.683c-.189-.285-.438-.522-.648-.792a14.87,14.87,0,0,0-1.197-1.467c-.12-.12-.264-.198-.384-.315L233.748,70.592a14.9977,14.9977,0,0,0-21.21,21.21L218.736,98H15a15,15,0,0,0,0,30H218.769l-6.192,6.192a14.9988,14.9988,0,1,0,21.207,21.216l31.701-31.698a15.2217,15.2217,0,0,0,2.025-2.448c.087-.138.147-.288.231-.429A14.7108,14.7108,0,0,0,268.869,118.691Z"/><path class="cls-1" d="M150,150.999a15,15,0,0,0-30,0V210a15,15,0,0,0,30,0Z"/><path class="cls-1" d="M150,15a15,15,0,0,0-30,0V74.001a15,15,0,0,0,30,0Z"/></g></g></svg>