<svg height='300px' width='300px'  fill="#4169e1" xmlns="http://www.w3.org/2000/svg" xmlns:xlink="http://www.w3.org/1999/xlink" version="1.1" x="0px" y="0px" viewBox="0 0 66 66" enable-background="new 0 0 66 66" xml:space="preserve"><g><g><path d="M60.1,1H5.9C3.2,1,1,3.2,1,5.9v54.2C1,62.8,3.2,65,5.9,65h54.2c2.7,0,4.9-2.2,4.9-4.9V5.9C65,3.2,62.8,1,60.1,1z M63,60.1    c0,1.6-1.3,2.9-2.9,2.9H5.9C4.3,63,3,61.7,3,60.1V5.9C3,4.3,4.3,3,5.9,3h54.2C61.7,3,63,4.3,63,5.9V60.1z"></path></g><g><path d="M58,7H8C7.5,7,7,7.4,7,8v34.5c0,0.6,0.4,1,1,1h10.6v4c0,0.6,0.4,1,1,1h3.1v4c0,0.6,0.4,1,1,1h18.6c0.6,0,1-0.4,1-1v-4h3.1    c0.6,0,1-0.4,1-1v-4H58c0.6,0,1-0.4,1-1V8C59,7.4,58.6,7,58,7z M57,41.5H46.4c-0.6,0-1,0.4-1,1v4h-3.1c-0.6,0-1,0.4-1,1v4H24.7v-4    c0-0.6-0.4-1-1-1h-3.1v-4c0-0.6-0.4-1-1-1H9V9h3.9v5.6c0,0.6,0.4,1,1,1c0.6,0,1-0.4,1-1V9h3.4v5.6c0,0.6,0.4,1,1,1    c0.6,0,1-0.4,1-1V9h3.4v5.6c0,0.6,0.4,1,1,1c0.6,0,1-0.4,1-1V9h3.4v5.6c0,0.6,0.4,1,1,1c0.6,0,1-0.4,1-1V9h3.4v5.6    c0,0.6,0.4,1,1,1c0.6,0,1-0.4,1-1V9h3.4v5.6c0,0.6,0.4,1,1,1c0.6,0,1-0.4,1-1V9h3.4v5.6c0,0.6,0.4,1,1,1c0.6,0,1-0.4,1-1V9h3.4    v5.6c0,0.6,0.4,1,1,1c0.6,0,1-0.4,1-1V9H57V41.5z"></path></g><g><path d="M52.1,20.5H13.9c-0.6,0-1,0.4-1,1v13.8c0,0.6,0.4,1,1,1h38.1c0.6,0,1-0.4,1-1V21.5C53.1,21,52.6,20.5,52.1,20.5z     M51.1,34.4H14.9V22.5h36.1V34.4z"></path></g><g><path d="M58,48.7h-8.3c-0.6,0-1,0.4-1,1v8.3c0,0.6,0.4,1,1,1H58c0.6,0,1-0.4,1-1v-8.3C59,49.1,58.6,48.7,58,48.7z M57,56.9h-6.3    v-6.3H57V56.9z"></path></g><g><path d="M16.3,48.7H8c-0.6,0-1,0.4-1,1v8.3c0,0.6,0.4,1,1,1h8.3c0.6,0,1-0.4,1-1v-8.3C17.3,49.1,16.8,48.7,16.3,48.7z M15.3,56.9    H9v-6.3h6.3V56.9z"></path></g></g></svg>